G04 #@! TF.GenerationSoftware,KiCad,Pcbnew,(5.1.5)-3*
G04 #@! TF.CreationDate,2022-04-15T22:29:16+02:00*
G04 #@! TF.ProjectId,Extension Board,45787465-6e73-4696-9f6e-20426f617264,1*
G04 #@! TF.SameCoordinates,Original*
G04 #@! TF.FileFunction,Legend,Top*
G04 #@! TF.FilePolarity,Positive*
%FSLAX46Y46*%
G04 Gerber Fmt 4.6, Leading zero omitted, Abs format (unit mm)*
G04 Created by KiCad (PCBNEW (5.1.5)-3) date 2022-04-15 22:29:16*
%MOMM*%
%LPD*%
G04 APERTURE LIST*
%ADD10C,0.150000*%
%ADD11C,0.100000*%
%ADD12C,0.120000*%
%ADD13C,2.802000*%
%ADD14O,1.702000X1.702000*%
%ADD15C,1.702000*%
%ADD16O,1.802000X1.802000*%
%ADD17R,1.802000X1.802000*%
%ADD18C,2.702000*%
%ADD19R,2.702000X2.702000*%
%ADD20C,2.902000*%
%ADD21C,1.902000*%
%ADD22R,1.902000X1.902000*%
%ADD23C,1.202000*%
%ADD24C,2.102000*%
%ADD25R,2.902000X2.902000*%
%ADD26O,1.802000X2.102000*%
%ADD27O,1.802000X2.052000*%
%ADD28O,2.052000X1.802000*%
%ADD29C,1.302000*%
%ADD30O,2.007000X2.102000*%
%ADD31R,2.007000X2.102000*%
%ADD32O,2.502000X1.702000*%
%ADD33R,2.502000X1.702000*%
%ADD34R,1.702000X1.702000*%
%ADD35O,2.502000X2.502000*%
%ADD36R,2.502000X2.502000*%
G04 APERTURE END LIST*
D10*
X197777142Y-51880285D02*
X198462857Y-51880285D01*
X36995142Y-93790285D02*
X37680857Y-93790285D01*
X50457142Y-53658285D02*
X51142857Y-53658285D01*
X44615142Y-66866285D02*
X45300857Y-66866285D01*
X44615142Y-70168285D02*
X45300857Y-70168285D01*
X44958000Y-70511142D02*
X44958000Y-69825428D01*
X83985142Y-127318285D02*
X84670857Y-127318285D01*
X84328000Y-127661142D02*
X84328000Y-126975428D01*
X69926285Y-126550000D02*
X69840571Y-126507142D01*
X69712000Y-126507142D01*
X69583428Y-126550000D01*
X69497714Y-126635714D01*
X69454857Y-126721428D01*
X69412000Y-126892857D01*
X69412000Y-127021428D01*
X69454857Y-127192857D01*
X69497714Y-127278571D01*
X69583428Y-127364285D01*
X69712000Y-127407142D01*
X69797714Y-127407142D01*
X69926285Y-127364285D01*
X69969142Y-127321428D01*
X69969142Y-127021428D01*
X69797714Y-127021428D01*
X70354857Y-127407142D02*
X70354857Y-126507142D01*
X70869142Y-127407142D01*
X70869142Y-126507142D01*
X71297714Y-127407142D02*
X71297714Y-126507142D01*
X71512000Y-126507142D01*
X71640571Y-126550000D01*
X71726285Y-126635714D01*
X71769142Y-126721428D01*
X71812000Y-126892857D01*
X71812000Y-127021428D01*
X71769142Y-127192857D01*
X71726285Y-127278571D01*
X71640571Y-127364285D01*
X71512000Y-127407142D01*
X71297714Y-127407142D01*
X154254285Y-114104000D02*
X154168571Y-114061142D01*
X154040000Y-114061142D01*
X153911428Y-114104000D01*
X153825714Y-114189714D01*
X153782857Y-114275428D01*
X153740000Y-114446857D01*
X153740000Y-114575428D01*
X153782857Y-114746857D01*
X153825714Y-114832571D01*
X153911428Y-114918285D01*
X154040000Y-114961142D01*
X154125714Y-114961142D01*
X154254285Y-114918285D01*
X154297142Y-114875428D01*
X154297142Y-114575428D01*
X154125714Y-114575428D01*
X154682857Y-114961142D02*
X154682857Y-114061142D01*
X155197142Y-114961142D01*
X155197142Y-114061142D01*
X155625714Y-114961142D02*
X155625714Y-114061142D01*
X155840000Y-114061142D01*
X155968571Y-114104000D01*
X156054285Y-114189714D01*
X156097142Y-114275428D01*
X156140000Y-114446857D01*
X156140000Y-114575428D01*
X156097142Y-114746857D01*
X156054285Y-114832571D01*
X155968571Y-114918285D01*
X155840000Y-114961142D01*
X155625714Y-114961142D01*
X148247142Y-114618285D02*
X148932857Y-114618285D01*
X148590000Y-114961142D02*
X148590000Y-114275428D01*
X184569142Y-68390285D02*
X185254857Y-68390285D01*
X184912000Y-68733142D02*
X184912000Y-68047428D01*
X183464285Y-72956000D02*
X183378571Y-72913142D01*
X183250000Y-72913142D01*
X183121428Y-72956000D01*
X183035714Y-73041714D01*
X182992857Y-73127428D01*
X182950000Y-73298857D01*
X182950000Y-73427428D01*
X182992857Y-73598857D01*
X183035714Y-73684571D01*
X183121428Y-73770285D01*
X183250000Y-73813142D01*
X183335714Y-73813142D01*
X183464285Y-73770285D01*
X183507142Y-73727428D01*
X183507142Y-73427428D01*
X183335714Y-73427428D01*
X183892857Y-73813142D02*
X183892857Y-72913142D01*
X184407142Y-73813142D01*
X184407142Y-72913142D01*
X184835714Y-73813142D02*
X184835714Y-72913142D01*
X185050000Y-72913142D01*
X185178571Y-72956000D01*
X185264285Y-73041714D01*
X185307142Y-73127428D01*
X185350000Y-73298857D01*
X185350000Y-73427428D01*
X185307142Y-73598857D01*
X185264285Y-73684571D01*
X185178571Y-73770285D01*
X185050000Y-73813142D01*
X184835714Y-73813142D01*
X147993142Y-78296285D02*
X148678857Y-78296285D01*
X148336000Y-78639142D02*
X148336000Y-77953428D01*
X181521142Y-46800285D02*
X182206857Y-46800285D01*
X181864000Y-47143142D02*
X181864000Y-46457428D01*
X173304285Y-46286000D02*
X173218571Y-46243142D01*
X173090000Y-46243142D01*
X172961428Y-46286000D01*
X172875714Y-46371714D01*
X172832857Y-46457428D01*
X172790000Y-46628857D01*
X172790000Y-46757428D01*
X172832857Y-46928857D01*
X172875714Y-47014571D01*
X172961428Y-47100285D01*
X173090000Y-47143142D01*
X173175714Y-47143142D01*
X173304285Y-47100285D01*
X173347142Y-47057428D01*
X173347142Y-46757428D01*
X173175714Y-46757428D01*
X173732857Y-47143142D02*
X173732857Y-46243142D01*
X174247142Y-47143142D01*
X174247142Y-46243142D01*
X174675714Y-47143142D02*
X174675714Y-46243142D01*
X174890000Y-46243142D01*
X175018571Y-46286000D01*
X175104285Y-46371714D01*
X175147142Y-46457428D01*
X175190000Y-46628857D01*
X175190000Y-46757428D01*
X175147142Y-46928857D01*
X175104285Y-47014571D01*
X175018571Y-47100285D01*
X174890000Y-47143142D01*
X174675714Y-47143142D01*
D11*
X118575333Y-56258666D02*
X118808666Y-56958666D01*
X119042000Y-56258666D01*
X119675333Y-56892000D02*
X119642000Y-56925333D01*
X119542000Y-56958666D01*
X119475333Y-56958666D01*
X119375333Y-56925333D01*
X119308666Y-56858666D01*
X119275333Y-56792000D01*
X119242000Y-56658666D01*
X119242000Y-56558666D01*
X119275333Y-56425333D01*
X119308666Y-56358666D01*
X119375333Y-56292000D01*
X119475333Y-56258666D01*
X119542000Y-56258666D01*
X119642000Y-56292000D01*
X119675333Y-56325333D01*
X120375333Y-56892000D02*
X120342000Y-56925333D01*
X120242000Y-56958666D01*
X120175333Y-56958666D01*
X120075333Y-56925333D01*
X120008666Y-56858666D01*
X119975333Y-56792000D01*
X119942000Y-56658666D01*
X119942000Y-56558666D01*
X119975333Y-56425333D01*
X120008666Y-56358666D01*
X120075333Y-56292000D01*
X120175333Y-56258666D01*
X120242000Y-56258666D01*
X120342000Y-56292000D01*
X120375333Y-56325333D01*
X121208666Y-56958666D02*
X121208666Y-56258666D01*
X121375333Y-56258666D01*
X121475333Y-56292000D01*
X121542000Y-56358666D01*
X121575333Y-56425333D01*
X121608666Y-56558666D01*
X121608666Y-56658666D01*
X121575333Y-56792000D01*
X121542000Y-56858666D01*
X121475333Y-56925333D01*
X121375333Y-56958666D01*
X121208666Y-56958666D01*
X122208666Y-56492000D02*
X122208666Y-56958666D01*
X122042000Y-56225333D02*
X121875333Y-56725333D01*
X122308666Y-56725333D01*
X122675333Y-56558666D02*
X122608666Y-56525333D01*
X122575333Y-56492000D01*
X122542000Y-56425333D01*
X122542000Y-56392000D01*
X122575333Y-56325333D01*
X122608666Y-56292000D01*
X122675333Y-56258666D01*
X122808666Y-56258666D01*
X122875333Y-56292000D01*
X122908666Y-56325333D01*
X122942000Y-56392000D01*
X122942000Y-56425333D01*
X122908666Y-56492000D01*
X122875333Y-56525333D01*
X122808666Y-56558666D01*
X122675333Y-56558666D01*
X122608666Y-56592000D01*
X122575333Y-56625333D01*
X122542000Y-56692000D01*
X122542000Y-56825333D01*
X122575333Y-56892000D01*
X122608666Y-56925333D01*
X122675333Y-56958666D01*
X122808666Y-56958666D01*
X122875333Y-56925333D01*
X122908666Y-56892000D01*
X122942000Y-56825333D01*
X122942000Y-56692000D01*
X122908666Y-56625333D01*
X122875333Y-56592000D01*
X122808666Y-56558666D01*
X123775333Y-56958666D02*
X123775333Y-56258666D01*
X124008666Y-56758666D01*
X124242000Y-56258666D01*
X124242000Y-56958666D01*
X124708666Y-56258666D02*
X124842000Y-56258666D01*
X124908666Y-56292000D01*
X124975333Y-56358666D01*
X125008666Y-56492000D01*
X125008666Y-56725333D01*
X124975333Y-56858666D01*
X124908666Y-56925333D01*
X124842000Y-56958666D01*
X124708666Y-56958666D01*
X124642000Y-56925333D01*
X124575333Y-56858666D01*
X124542000Y-56725333D01*
X124542000Y-56492000D01*
X124575333Y-56358666D01*
X124642000Y-56292000D01*
X124708666Y-56258666D01*
X125275333Y-56925333D02*
X125375333Y-56958666D01*
X125542000Y-56958666D01*
X125608666Y-56925333D01*
X125642000Y-56892000D01*
X125675333Y-56825333D01*
X125675333Y-56758666D01*
X125642000Y-56692000D01*
X125608666Y-56658666D01*
X125542000Y-56625333D01*
X125408666Y-56592000D01*
X125342000Y-56558666D01*
X125308666Y-56525333D01*
X125275333Y-56458666D01*
X125275333Y-56392000D01*
X125308666Y-56325333D01*
X125342000Y-56292000D01*
X125408666Y-56258666D01*
X125575333Y-56258666D01*
X125675333Y-56292000D01*
X125975333Y-56958666D02*
X125975333Y-56258666D01*
X126808666Y-56925333D02*
X126908666Y-56958666D01*
X127075333Y-56958666D01*
X127142000Y-56925333D01*
X127175333Y-56892000D01*
X127208666Y-56825333D01*
X127208666Y-56758666D01*
X127175333Y-56692000D01*
X127142000Y-56658666D01*
X127075333Y-56625333D01*
X126942000Y-56592000D01*
X126875333Y-56558666D01*
X126842000Y-56525333D01*
X126808666Y-56458666D01*
X126808666Y-56392000D01*
X126842000Y-56325333D01*
X126875333Y-56292000D01*
X126942000Y-56258666D01*
X127108666Y-56258666D01*
X127208666Y-56292000D01*
X127908666Y-56892000D02*
X127875333Y-56925333D01*
X127775333Y-56958666D01*
X127708666Y-56958666D01*
X127608666Y-56925333D01*
X127542000Y-56858666D01*
X127508666Y-56792000D01*
X127475333Y-56658666D01*
X127475333Y-56558666D01*
X127508666Y-56425333D01*
X127542000Y-56358666D01*
X127608666Y-56292000D01*
X127708666Y-56258666D01*
X127775333Y-56258666D01*
X127875333Y-56292000D01*
X127908666Y-56325333D01*
X128208666Y-56958666D02*
X128208666Y-56258666D01*
X128608666Y-56958666D02*
X128308666Y-56558666D01*
X128608666Y-56258666D02*
X128208666Y-56658666D01*
X129442000Y-56958666D02*
X129442000Y-56258666D01*
X129675333Y-56758666D01*
X129908666Y-56258666D01*
X129908666Y-56958666D01*
X130242000Y-56958666D02*
X130242000Y-56258666D01*
X130542000Y-56925333D02*
X130642000Y-56958666D01*
X130808666Y-56958666D01*
X130875333Y-56925333D01*
X130908666Y-56892000D01*
X130942000Y-56825333D01*
X130942000Y-56758666D01*
X130908666Y-56692000D01*
X130875333Y-56658666D01*
X130808666Y-56625333D01*
X130675333Y-56592000D01*
X130608666Y-56558666D01*
X130575333Y-56525333D01*
X130542000Y-56458666D01*
X130542000Y-56392000D01*
X130575333Y-56325333D01*
X130608666Y-56292000D01*
X130675333Y-56258666D01*
X130842000Y-56258666D01*
X130942000Y-56292000D01*
X131375333Y-56258666D02*
X131508666Y-56258666D01*
X131575333Y-56292000D01*
X131642000Y-56358666D01*
X131675333Y-56492000D01*
X131675333Y-56725333D01*
X131642000Y-56858666D01*
X131575333Y-56925333D01*
X131508666Y-56958666D01*
X131375333Y-56958666D01*
X131308666Y-56925333D01*
X131242000Y-56858666D01*
X131208666Y-56725333D01*
X131208666Y-56492000D01*
X131242000Y-56358666D01*
X131308666Y-56292000D01*
X131375333Y-56258666D01*
X132875333Y-56292000D02*
X132808666Y-56258666D01*
X132708666Y-56258666D01*
X132608666Y-56292000D01*
X132542000Y-56358666D01*
X132508666Y-56425333D01*
X132475333Y-56558666D01*
X132475333Y-56658666D01*
X132508666Y-56792000D01*
X132542000Y-56858666D01*
X132608666Y-56925333D01*
X132708666Y-56958666D01*
X132775333Y-56958666D01*
X132875333Y-56925333D01*
X132908666Y-56892000D01*
X132908666Y-56658666D01*
X132775333Y-56658666D01*
X133208666Y-56958666D02*
X133208666Y-56258666D01*
X133608666Y-56958666D01*
X133608666Y-56258666D01*
X133942000Y-56958666D02*
X133942000Y-56258666D01*
X134108666Y-56258666D01*
X134208666Y-56292000D01*
X134275333Y-56358666D01*
X134308666Y-56425333D01*
X134342000Y-56558666D01*
X134342000Y-56658666D01*
X134308666Y-56792000D01*
X134275333Y-56858666D01*
X134208666Y-56925333D01*
X134108666Y-56958666D01*
X133942000Y-56958666D01*
D10*
X99394857Y-60002000D02*
X99309142Y-59959142D01*
X99180571Y-59959142D01*
X99052000Y-60002000D01*
X98966285Y-60087714D01*
X98923428Y-60173428D01*
X98880571Y-60344857D01*
X98880571Y-60473428D01*
X98923428Y-60644857D01*
X98966285Y-60730571D01*
X99052000Y-60816285D01*
X99180571Y-60859142D01*
X99266285Y-60859142D01*
X99394857Y-60816285D01*
X99437714Y-60773428D01*
X99437714Y-60473428D01*
X99266285Y-60473428D01*
X99823428Y-60859142D02*
X99823428Y-59959142D01*
X100337714Y-60859142D01*
X100337714Y-59959142D01*
X100766285Y-60859142D02*
X100766285Y-59959142D01*
X100980571Y-59959142D01*
X101109142Y-60002000D01*
X101194857Y-60087714D01*
X101237714Y-60173428D01*
X101280571Y-60344857D01*
X101280571Y-60473428D01*
X101237714Y-60644857D01*
X101194857Y-60730571D01*
X101109142Y-60816285D01*
X100980571Y-60859142D01*
X100766285Y-60859142D01*
X102309142Y-60816285D02*
X102437714Y-60859142D01*
X102652000Y-60859142D01*
X102737714Y-60816285D01*
X102780571Y-60773428D01*
X102823428Y-60687714D01*
X102823428Y-60602000D01*
X102780571Y-60516285D01*
X102737714Y-60473428D01*
X102652000Y-60430571D01*
X102480571Y-60387714D01*
X102394857Y-60344857D01*
X102352000Y-60302000D01*
X102309142Y-60216285D01*
X102309142Y-60130571D01*
X102352000Y-60044857D01*
X102394857Y-60002000D01*
X102480571Y-59959142D01*
X102694857Y-59959142D01*
X102823428Y-60002000D01*
X103209142Y-60859142D02*
X103209142Y-59959142D01*
X103423428Y-59959142D01*
X103552000Y-60002000D01*
X103637714Y-60087714D01*
X103680571Y-60173428D01*
X103723428Y-60344857D01*
X103723428Y-60473428D01*
X103680571Y-60644857D01*
X103637714Y-60730571D01*
X103552000Y-60816285D01*
X103423428Y-60859142D01*
X103209142Y-60859142D01*
X104066285Y-60602000D02*
X104494857Y-60602000D01*
X103980571Y-60859142D02*
X104280571Y-59959142D01*
X104580571Y-60859142D01*
X105523428Y-60816285D02*
X105652000Y-60859142D01*
X105866285Y-60859142D01*
X105952000Y-60816285D01*
X105994857Y-60773428D01*
X106037714Y-60687714D01*
X106037714Y-60602000D01*
X105994857Y-60516285D01*
X105952000Y-60473428D01*
X105866285Y-60430571D01*
X105694857Y-60387714D01*
X105609142Y-60344857D01*
X105566285Y-60302000D01*
X105523428Y-60216285D01*
X105523428Y-60130571D01*
X105566285Y-60044857D01*
X105609142Y-60002000D01*
X105694857Y-59959142D01*
X105909142Y-59959142D01*
X106037714Y-60002000D01*
X106937714Y-60773428D02*
X106894857Y-60816285D01*
X106766285Y-60859142D01*
X106680571Y-60859142D01*
X106552000Y-60816285D01*
X106466285Y-60730571D01*
X106423428Y-60644857D01*
X106380571Y-60473428D01*
X106380571Y-60344857D01*
X106423428Y-60173428D01*
X106466285Y-60087714D01*
X106552000Y-60002000D01*
X106680571Y-59959142D01*
X106766285Y-59959142D01*
X106894857Y-60002000D01*
X106937714Y-60044857D01*
X107752000Y-60859142D02*
X107323428Y-60859142D01*
X107323428Y-59959142D01*
X108609142Y-59959142D02*
X108909142Y-60859142D01*
X109209142Y-59959142D01*
X110023428Y-60773428D02*
X109980571Y-60816285D01*
X109852000Y-60859142D01*
X109766285Y-60859142D01*
X109637714Y-60816285D01*
X109552000Y-60730571D01*
X109509142Y-60644857D01*
X109466285Y-60473428D01*
X109466285Y-60344857D01*
X109509142Y-60173428D01*
X109552000Y-60087714D01*
X109637714Y-60002000D01*
X109766285Y-59959142D01*
X109852000Y-59959142D01*
X109980571Y-60002000D01*
X110023428Y-60044857D01*
X110923428Y-60773428D02*
X110880571Y-60816285D01*
X110752000Y-60859142D01*
X110666285Y-60859142D01*
X110537714Y-60816285D01*
X110452000Y-60730571D01*
X110409142Y-60644857D01*
X110366285Y-60473428D01*
X110366285Y-60344857D01*
X110409142Y-60173428D01*
X110452000Y-60087714D01*
X110537714Y-60002000D01*
X110666285Y-59959142D01*
X110752000Y-59959142D01*
X110880571Y-60002000D01*
X110923428Y-60044857D01*
X72978857Y-62034000D02*
X72893142Y-61991142D01*
X72764571Y-61991142D01*
X72636000Y-62034000D01*
X72550285Y-62119714D01*
X72507428Y-62205428D01*
X72464571Y-62376857D01*
X72464571Y-62505428D01*
X72507428Y-62676857D01*
X72550285Y-62762571D01*
X72636000Y-62848285D01*
X72764571Y-62891142D01*
X72850285Y-62891142D01*
X72978857Y-62848285D01*
X73021714Y-62805428D01*
X73021714Y-62505428D01*
X72850285Y-62505428D01*
X73407428Y-62891142D02*
X73407428Y-61991142D01*
X73921714Y-62891142D01*
X73921714Y-61991142D01*
X74350285Y-62891142D02*
X74350285Y-61991142D01*
X74564571Y-61991142D01*
X74693142Y-62034000D01*
X74778857Y-62119714D01*
X74821714Y-62205428D01*
X74864571Y-62376857D01*
X74864571Y-62505428D01*
X74821714Y-62676857D01*
X74778857Y-62762571D01*
X74693142Y-62848285D01*
X74564571Y-62891142D01*
X74350285Y-62891142D01*
X75893142Y-62848285D02*
X76021714Y-62891142D01*
X76236000Y-62891142D01*
X76321714Y-62848285D01*
X76364571Y-62805428D01*
X76407428Y-62719714D01*
X76407428Y-62634000D01*
X76364571Y-62548285D01*
X76321714Y-62505428D01*
X76236000Y-62462571D01*
X76064571Y-62419714D01*
X75978857Y-62376857D01*
X75936000Y-62334000D01*
X75893142Y-62248285D01*
X75893142Y-62162571D01*
X75936000Y-62076857D01*
X75978857Y-62034000D01*
X76064571Y-61991142D01*
X76278857Y-61991142D01*
X76407428Y-62034000D01*
X76793142Y-62891142D02*
X76793142Y-61991142D01*
X77007428Y-61991142D01*
X77136000Y-62034000D01*
X77221714Y-62119714D01*
X77264571Y-62205428D01*
X77307428Y-62376857D01*
X77307428Y-62505428D01*
X77264571Y-62676857D01*
X77221714Y-62762571D01*
X77136000Y-62848285D01*
X77007428Y-62891142D01*
X76793142Y-62891142D01*
X77650285Y-62634000D02*
X78078857Y-62634000D01*
X77564571Y-62891142D02*
X77864571Y-61991142D01*
X78164571Y-62891142D01*
X79107428Y-62848285D02*
X79236000Y-62891142D01*
X79450285Y-62891142D01*
X79536000Y-62848285D01*
X79578857Y-62805428D01*
X79621714Y-62719714D01*
X79621714Y-62634000D01*
X79578857Y-62548285D01*
X79536000Y-62505428D01*
X79450285Y-62462571D01*
X79278857Y-62419714D01*
X79193142Y-62376857D01*
X79150285Y-62334000D01*
X79107428Y-62248285D01*
X79107428Y-62162571D01*
X79150285Y-62076857D01*
X79193142Y-62034000D01*
X79278857Y-61991142D01*
X79493142Y-61991142D01*
X79621714Y-62034000D01*
X80521714Y-62805428D02*
X80478857Y-62848285D01*
X80350285Y-62891142D01*
X80264571Y-62891142D01*
X80136000Y-62848285D01*
X80050285Y-62762571D01*
X80007428Y-62676857D01*
X79964571Y-62505428D01*
X79964571Y-62376857D01*
X80007428Y-62205428D01*
X80050285Y-62119714D01*
X80136000Y-62034000D01*
X80264571Y-61991142D01*
X80350285Y-61991142D01*
X80478857Y-62034000D01*
X80521714Y-62076857D01*
X81336000Y-62891142D02*
X80907428Y-62891142D01*
X80907428Y-61991142D01*
X82193142Y-61991142D02*
X82493142Y-62891142D01*
X82793142Y-61991142D01*
X83607428Y-62805428D02*
X83564571Y-62848285D01*
X83436000Y-62891142D01*
X83350285Y-62891142D01*
X83221714Y-62848285D01*
X83136000Y-62762571D01*
X83093142Y-62676857D01*
X83050285Y-62505428D01*
X83050285Y-62376857D01*
X83093142Y-62205428D01*
X83136000Y-62119714D01*
X83221714Y-62034000D01*
X83350285Y-61991142D01*
X83436000Y-61991142D01*
X83564571Y-62034000D01*
X83607428Y-62076857D01*
X84507428Y-62805428D02*
X84464571Y-62848285D01*
X84336000Y-62891142D01*
X84250285Y-62891142D01*
X84121714Y-62848285D01*
X84036000Y-62762571D01*
X83993142Y-62676857D01*
X83950285Y-62505428D01*
X83950285Y-62376857D01*
X83993142Y-62205428D01*
X84036000Y-62119714D01*
X84121714Y-62034000D01*
X84250285Y-61991142D01*
X84336000Y-61991142D01*
X84464571Y-62034000D01*
X84507428Y-62076857D01*
X74013714Y-77274000D02*
X73928000Y-77231142D01*
X73799428Y-77231142D01*
X73670857Y-77274000D01*
X73585142Y-77359714D01*
X73542285Y-77445428D01*
X73499428Y-77616857D01*
X73499428Y-77745428D01*
X73542285Y-77916857D01*
X73585142Y-78002571D01*
X73670857Y-78088285D01*
X73799428Y-78131142D01*
X73885142Y-78131142D01*
X74013714Y-78088285D01*
X74056571Y-78045428D01*
X74056571Y-77745428D01*
X73885142Y-77745428D01*
X74442285Y-78131142D02*
X74442285Y-77231142D01*
X74956571Y-78131142D01*
X74956571Y-77231142D01*
X75385142Y-78131142D02*
X75385142Y-77231142D01*
X75599428Y-77231142D01*
X75728000Y-77274000D01*
X75813714Y-77359714D01*
X75856571Y-77445428D01*
X75899428Y-77616857D01*
X75899428Y-77745428D01*
X75856571Y-77916857D01*
X75813714Y-78002571D01*
X75728000Y-78088285D01*
X75599428Y-78131142D01*
X75385142Y-78131142D01*
X76970857Y-78131142D02*
X76970857Y-77231142D01*
X77185142Y-77231142D01*
X77313714Y-77274000D01*
X77399428Y-77359714D01*
X77442285Y-77445428D01*
X77485142Y-77616857D01*
X77485142Y-77745428D01*
X77442285Y-77916857D01*
X77399428Y-78002571D01*
X77313714Y-78088285D01*
X77185142Y-78131142D01*
X76970857Y-78131142D01*
X77785142Y-77231142D02*
X78342285Y-77231142D01*
X78042285Y-77574000D01*
X78170857Y-77574000D01*
X78256571Y-77616857D01*
X78299428Y-77659714D01*
X78342285Y-77745428D01*
X78342285Y-77959714D01*
X78299428Y-78045428D01*
X78256571Y-78088285D01*
X78170857Y-78131142D01*
X77913714Y-78131142D01*
X77828000Y-78088285D01*
X77785142Y-78045428D01*
X79113714Y-77231142D02*
X78942285Y-77231142D01*
X78856571Y-77274000D01*
X78813714Y-77316857D01*
X78728000Y-77445428D01*
X78685142Y-77616857D01*
X78685142Y-77959714D01*
X78728000Y-78045428D01*
X78770857Y-78088285D01*
X78856571Y-78131142D01*
X79028000Y-78131142D01*
X79113714Y-78088285D01*
X79156571Y-78045428D01*
X79199428Y-77959714D01*
X79199428Y-77745428D01*
X79156571Y-77659714D01*
X79113714Y-77616857D01*
X79028000Y-77574000D01*
X78856571Y-77574000D01*
X78770857Y-77616857D01*
X78728000Y-77659714D01*
X78685142Y-77745428D01*
X80142285Y-77231142D02*
X80442285Y-78131142D01*
X80742285Y-77231142D01*
X81556571Y-78045428D02*
X81513714Y-78088285D01*
X81385142Y-78131142D01*
X81299428Y-78131142D01*
X81170857Y-78088285D01*
X81085142Y-78002571D01*
X81042285Y-77916857D01*
X80999428Y-77745428D01*
X80999428Y-77616857D01*
X81042285Y-77445428D01*
X81085142Y-77359714D01*
X81170857Y-77274000D01*
X81299428Y-77231142D01*
X81385142Y-77231142D01*
X81513714Y-77274000D01*
X81556571Y-77316857D01*
X82456571Y-78045428D02*
X82413714Y-78088285D01*
X82285142Y-78131142D01*
X82199428Y-78131142D01*
X82070857Y-78088285D01*
X81985142Y-78002571D01*
X81942285Y-77916857D01*
X81899428Y-77745428D01*
X81899428Y-77616857D01*
X81942285Y-77445428D01*
X81985142Y-77359714D01*
X82070857Y-77274000D01*
X82199428Y-77231142D01*
X82285142Y-77231142D01*
X82413714Y-77274000D01*
X82456571Y-77316857D01*
X139017523Y-49950666D02*
X139493714Y-49950666D01*
X138922285Y-50236380D02*
X139255619Y-49236380D01*
X139588952Y-50236380D01*
X140446095Y-50236380D02*
X139874666Y-50236380D01*
X140160380Y-50236380D02*
X140160380Y-49236380D01*
X140065142Y-49379238D01*
X139969904Y-49474476D01*
X139874666Y-49522095D01*
X141350857Y-49236380D02*
X140874666Y-49236380D01*
X140827047Y-49712571D01*
X140874666Y-49664952D01*
X140969904Y-49617333D01*
X141208000Y-49617333D01*
X141303238Y-49664952D01*
X141350857Y-49712571D01*
X141398476Y-49807809D01*
X141398476Y-50045904D01*
X141350857Y-50141142D01*
X141303238Y-50188761D01*
X141208000Y-50236380D01*
X140969904Y-50236380D01*
X140874666Y-50188761D01*
X140827047Y-50141142D01*
X91749714Y-56586380D02*
X91749714Y-55586380D01*
X91987809Y-55586380D01*
X92130666Y-55634000D01*
X92225904Y-55729238D01*
X92273523Y-55824476D01*
X92321142Y-56014952D01*
X92321142Y-56157809D01*
X92273523Y-56348285D01*
X92225904Y-56443523D01*
X92130666Y-56538761D01*
X91987809Y-56586380D01*
X91749714Y-56586380D01*
X92702095Y-55681619D02*
X92749714Y-55634000D01*
X92844952Y-55586380D01*
X93083047Y-55586380D01*
X93178285Y-55634000D01*
X93225904Y-55681619D01*
X93273523Y-55776857D01*
X93273523Y-55872095D01*
X93225904Y-56014952D01*
X92654476Y-56586380D01*
X93273523Y-56586380D01*
X94225904Y-56586380D02*
X93654476Y-56586380D01*
X93940190Y-56586380D02*
X93940190Y-55586380D01*
X93844952Y-55729238D01*
X93749714Y-55824476D01*
X93654476Y-55872095D01*
X124462166Y-44997714D02*
X124462166Y-45664380D01*
X124224071Y-44616761D02*
X123985976Y-45331047D01*
X124605023Y-45331047D01*
X124890738Y-44664380D02*
X125557404Y-44664380D01*
X125128833Y-45664380D01*
X127128833Y-44997714D02*
X127128833Y-45664380D01*
X126890738Y-44616761D02*
X126652642Y-45331047D01*
X127271690Y-45331047D01*
X127700261Y-45664380D02*
X127890738Y-45664380D01*
X127985976Y-45616761D01*
X128033595Y-45569142D01*
X128128833Y-45426285D01*
X128176452Y-45235809D01*
X128176452Y-44854857D01*
X128128833Y-44759619D01*
X128081214Y-44712000D01*
X127985976Y-44664380D01*
X127795500Y-44664380D01*
X127700261Y-44712000D01*
X127652642Y-44759619D01*
X127605023Y-44854857D01*
X127605023Y-45092952D01*
X127652642Y-45188190D01*
X127700261Y-45235809D01*
X127795500Y-45283428D01*
X127985976Y-45283428D01*
X128081214Y-45235809D01*
X128128833Y-45188190D01*
X128176452Y-45092952D01*
X119382166Y-44997714D02*
X119382166Y-45664380D01*
X119144071Y-44616761D02*
X118905976Y-45331047D01*
X119525023Y-45331047D01*
X119810738Y-44664380D02*
X120429785Y-44664380D01*
X120096452Y-45045333D01*
X120239309Y-45045333D01*
X120334547Y-45092952D01*
X120382166Y-45140571D01*
X120429785Y-45235809D01*
X120429785Y-45473904D01*
X120382166Y-45569142D01*
X120334547Y-45616761D01*
X120239309Y-45664380D01*
X119953595Y-45664380D01*
X119858357Y-45616761D01*
X119810738Y-45569142D01*
X122048833Y-44997714D02*
X122048833Y-45664380D01*
X121810738Y-44616761D02*
X121572642Y-45331047D01*
X122191690Y-45331047D01*
X123048833Y-44664380D02*
X122572642Y-44664380D01*
X122525023Y-45140571D01*
X122572642Y-45092952D01*
X122667880Y-45045333D01*
X122905976Y-45045333D01*
X123001214Y-45092952D01*
X123048833Y-45140571D01*
X123096452Y-45235809D01*
X123096452Y-45473904D01*
X123048833Y-45569142D01*
X123001214Y-45616761D01*
X122905976Y-45664380D01*
X122667880Y-45664380D01*
X122572642Y-45616761D01*
X122525023Y-45569142D01*
X114032357Y-44664380D02*
X114651404Y-44664380D01*
X114318071Y-45045333D01*
X114460928Y-45045333D01*
X114556166Y-45092952D01*
X114603785Y-45140571D01*
X114651404Y-45235809D01*
X114651404Y-45473904D01*
X114603785Y-45569142D01*
X114556166Y-45616761D01*
X114460928Y-45664380D01*
X114175214Y-45664380D01*
X114079976Y-45616761D01*
X114032357Y-45569142D01*
X115127595Y-45664380D02*
X115318071Y-45664380D01*
X115413309Y-45616761D01*
X115460928Y-45569142D01*
X115556166Y-45426285D01*
X115603785Y-45235809D01*
X115603785Y-44854857D01*
X115556166Y-44759619D01*
X115508547Y-44712000D01*
X115413309Y-44664380D01*
X115222833Y-44664380D01*
X115127595Y-44712000D01*
X115079976Y-44759619D01*
X115032357Y-44854857D01*
X115032357Y-45092952D01*
X115079976Y-45188190D01*
X115127595Y-45235809D01*
X115222833Y-45283428D01*
X115413309Y-45283428D01*
X115508547Y-45235809D01*
X115556166Y-45188190D01*
X115603785Y-45092952D01*
X117222833Y-44997714D02*
X117222833Y-45664380D01*
X116984738Y-44616761D02*
X116746642Y-45331047D01*
X117365690Y-45331047D01*
X118270452Y-45664380D02*
X117699023Y-45664380D01*
X117984738Y-45664380D02*
X117984738Y-44664380D01*
X117889500Y-44807238D01*
X117794261Y-44902476D01*
X117699023Y-44950095D01*
X134112095Y-45474000D02*
X134016857Y-45426380D01*
X133874000Y-45426380D01*
X133731142Y-45474000D01*
X133635904Y-45569238D01*
X133588285Y-45664476D01*
X133540666Y-45854952D01*
X133540666Y-45997809D01*
X133588285Y-46188285D01*
X133635904Y-46283523D01*
X133731142Y-46378761D01*
X133874000Y-46426380D01*
X133969238Y-46426380D01*
X134112095Y-46378761D01*
X134159714Y-46331142D01*
X134159714Y-45997809D01*
X133969238Y-45997809D01*
X134588285Y-46426380D02*
X134588285Y-45426380D01*
X135159714Y-46426380D01*
X135159714Y-45426380D01*
X135635904Y-46426380D02*
X135635904Y-45426380D01*
X135874000Y-45426380D01*
X136016857Y-45474000D01*
X136112095Y-45569238D01*
X136159714Y-45664476D01*
X136207333Y-45854952D01*
X136207333Y-45997809D01*
X136159714Y-46188285D01*
X136112095Y-46283523D01*
X136016857Y-46378761D01*
X135874000Y-46426380D01*
X135635904Y-46426380D01*
X103618357Y-44664380D02*
X104237404Y-44664380D01*
X103904071Y-45045333D01*
X104046928Y-45045333D01*
X104142166Y-45092952D01*
X104189785Y-45140571D01*
X104237404Y-45235809D01*
X104237404Y-45473904D01*
X104189785Y-45569142D01*
X104142166Y-45616761D01*
X104046928Y-45664380D01*
X103761214Y-45664380D01*
X103665976Y-45616761D01*
X103618357Y-45569142D01*
X105189785Y-45664380D02*
X104618357Y-45664380D01*
X104904071Y-45664380D02*
X104904071Y-44664380D01*
X104808833Y-44807238D01*
X104713595Y-44902476D01*
X104618357Y-44950095D01*
X106285023Y-44664380D02*
X106904071Y-44664380D01*
X106570738Y-45045333D01*
X106713595Y-45045333D01*
X106808833Y-45092952D01*
X106856452Y-45140571D01*
X106904071Y-45235809D01*
X106904071Y-45473904D01*
X106856452Y-45569142D01*
X106808833Y-45616761D01*
X106713595Y-45664380D01*
X106427880Y-45664380D01*
X106332642Y-45616761D01*
X106285023Y-45569142D01*
X107237404Y-44664380D02*
X107856452Y-44664380D01*
X107523119Y-45045333D01*
X107665976Y-45045333D01*
X107761214Y-45092952D01*
X107808833Y-45140571D01*
X107856452Y-45235809D01*
X107856452Y-45473904D01*
X107808833Y-45569142D01*
X107761214Y-45616761D01*
X107665976Y-45664380D01*
X107380261Y-45664380D01*
X107285023Y-45616761D01*
X107237404Y-45569142D01*
X108951690Y-44664380D02*
X109570738Y-44664380D01*
X109237404Y-45045333D01*
X109380261Y-45045333D01*
X109475500Y-45092952D01*
X109523119Y-45140571D01*
X109570738Y-45235809D01*
X109570738Y-45473904D01*
X109523119Y-45569142D01*
X109475500Y-45616761D01*
X109380261Y-45664380D01*
X109094547Y-45664380D01*
X108999309Y-45616761D01*
X108951690Y-45569142D01*
X110475500Y-44664380D02*
X109999309Y-44664380D01*
X109951690Y-45140571D01*
X109999309Y-45092952D01*
X110094547Y-45045333D01*
X110332642Y-45045333D01*
X110427880Y-45092952D01*
X110475500Y-45140571D01*
X110523119Y-45235809D01*
X110523119Y-45473904D01*
X110475500Y-45569142D01*
X110427880Y-45616761D01*
X110332642Y-45664380D01*
X110094547Y-45664380D01*
X109999309Y-45616761D01*
X109951690Y-45569142D01*
X111618357Y-44664380D02*
X112237404Y-44664380D01*
X111904071Y-45045333D01*
X112046928Y-45045333D01*
X112142166Y-45092952D01*
X112189785Y-45140571D01*
X112237404Y-45235809D01*
X112237404Y-45473904D01*
X112189785Y-45569142D01*
X112142166Y-45616761D01*
X112046928Y-45664380D01*
X111761214Y-45664380D01*
X111665976Y-45616761D01*
X111618357Y-45569142D01*
X112570738Y-44664380D02*
X113237404Y-44664380D01*
X112808833Y-45664380D01*
D12*
X143002000Y-43688000D02*
X143002000Y-72948800D01*
X140716000Y-43688000D02*
X143002000Y-43688000D01*
X140208000Y-42926000D02*
X140716000Y-43688000D01*
X103378000Y-42926000D02*
X140208000Y-42926000D01*
X101092000Y-45720000D02*
X103378000Y-42926000D01*
X88900000Y-45720000D02*
X101092000Y-45720000D01*
X88900000Y-72948800D02*
X88900000Y-45720000D01*
X147320000Y-70104000D02*
X162306000Y-70104000D01*
X147320000Y-59690000D02*
X147320000Y-70104000D01*
X162306000Y-59690000D02*
X147320000Y-59690000D01*
X162306000Y-70104000D02*
X162306000Y-59690000D01*
X199390000Y-81280000D02*
X191770000Y-81280000D01*
X199390000Y-107696000D02*
X199390000Y-81280000D01*
X191770000Y-107696000D02*
X199390000Y-107696000D01*
X191770000Y-81280000D02*
X191770000Y-107696000D01*
D10*
X93273714Y-66492380D02*
X93273714Y-65492380D01*
X93511809Y-65492380D01*
X93654666Y-65540000D01*
X93749904Y-65635238D01*
X93797523Y-65730476D01*
X93845142Y-65920952D01*
X93845142Y-66063809D01*
X93797523Y-66254285D01*
X93749904Y-66349523D01*
X93654666Y-66444761D01*
X93511809Y-66492380D01*
X93273714Y-66492380D01*
X94797523Y-66492380D02*
X94226095Y-66492380D01*
X94511809Y-66492380D02*
X94511809Y-65492380D01*
X94416571Y-65635238D01*
X94321333Y-65730476D01*
X94226095Y-65778095D01*
X95368952Y-65920952D02*
X95273714Y-65873333D01*
X95226095Y-65825714D01*
X95178476Y-65730476D01*
X95178476Y-65682857D01*
X95226095Y-65587619D01*
X95273714Y-65540000D01*
X95368952Y-65492380D01*
X95559428Y-65492380D01*
X95654666Y-65540000D01*
X95702285Y-65587619D01*
X95749904Y-65682857D01*
X95749904Y-65730476D01*
X95702285Y-65825714D01*
X95654666Y-65873333D01*
X95559428Y-65920952D01*
X95368952Y-65920952D01*
X95273714Y-65968571D01*
X95226095Y-66016190D01*
X95178476Y-66111428D01*
X95178476Y-66301904D01*
X95226095Y-66397142D01*
X95273714Y-66444761D01*
X95368952Y-66492380D01*
X95559428Y-66492380D01*
X95654666Y-66444761D01*
X95702285Y-66397142D01*
X95749904Y-66301904D01*
X95749904Y-66111428D01*
X95702285Y-66016190D01*
X95654666Y-65968571D01*
X95559428Y-65920952D01*
X140033523Y-66968666D02*
X140509714Y-66968666D01*
X139938285Y-67254380D02*
X140271619Y-66254380D01*
X140604952Y-67254380D01*
X141462095Y-67254380D02*
X140890666Y-67254380D01*
X141176380Y-67254380D02*
X141176380Y-66254380D01*
X141081142Y-66397238D01*
X140985904Y-66492476D01*
X140890666Y-66540095D01*
X142081142Y-66254380D02*
X142176380Y-66254380D01*
X142271619Y-66302000D01*
X142319238Y-66349619D01*
X142366857Y-66444857D01*
X142414476Y-66635333D01*
X142414476Y-66873428D01*
X142366857Y-67063904D01*
X142319238Y-67159142D01*
X142271619Y-67206761D01*
X142176380Y-67254380D01*
X142081142Y-67254380D01*
X141985904Y-67206761D01*
X141938285Y-67159142D01*
X141890666Y-67063904D01*
X141843047Y-66873428D01*
X141843047Y-66635333D01*
X141890666Y-66444857D01*
X141938285Y-66349619D01*
X141985904Y-66302000D01*
X142081142Y-66254380D01*
X156127714Y-67738571D02*
X156070571Y-67795714D01*
X155899142Y-67852857D01*
X155784857Y-67852857D01*
X155613428Y-67795714D01*
X155499142Y-67681428D01*
X155442000Y-67567142D01*
X155384857Y-67338571D01*
X155384857Y-67167142D01*
X155442000Y-66938571D01*
X155499142Y-66824285D01*
X155613428Y-66710000D01*
X155784857Y-66652857D01*
X155899142Y-66652857D01*
X156070571Y-66710000D01*
X156127714Y-66767142D01*
X156870571Y-66652857D02*
X156984857Y-66652857D01*
X157099142Y-66710000D01*
X157156285Y-66767142D01*
X157213428Y-66881428D01*
X157270571Y-67110000D01*
X157270571Y-67395714D01*
X157213428Y-67624285D01*
X157156285Y-67738571D01*
X157099142Y-67795714D01*
X156984857Y-67852857D01*
X156870571Y-67852857D01*
X156756285Y-67795714D01*
X156699142Y-67738571D01*
X156642000Y-67624285D01*
X156584857Y-67395714D01*
X156584857Y-67110000D01*
X156642000Y-66881428D01*
X156699142Y-66767142D01*
X156756285Y-66710000D01*
X156870571Y-66652857D01*
X157784857Y-67395714D02*
X158699142Y-67395714D01*
X159956285Y-67738571D02*
X159899142Y-67795714D01*
X159727714Y-67852857D01*
X159613428Y-67852857D01*
X159442000Y-67795714D01*
X159327714Y-67681428D01*
X159270571Y-67567142D01*
X159213428Y-67338571D01*
X159213428Y-67167142D01*
X159270571Y-66938571D01*
X159327714Y-66824285D01*
X159442000Y-66710000D01*
X159613428Y-66652857D01*
X159727714Y-66652857D01*
X159899142Y-66710000D01*
X159956285Y-66767142D01*
X160413428Y-66767142D02*
X160470571Y-66710000D01*
X160584857Y-66652857D01*
X160870571Y-66652857D01*
X160984857Y-66710000D01*
X161042000Y-66767142D01*
X161099142Y-66881428D01*
X161099142Y-66995714D01*
X161042000Y-67167142D01*
X160356285Y-67852857D01*
X161099142Y-67852857D01*
X156127714Y-62912571D02*
X156070571Y-62969714D01*
X155899142Y-63026857D01*
X155784857Y-63026857D01*
X155613428Y-62969714D01*
X155499142Y-62855428D01*
X155442000Y-62741142D01*
X155384857Y-62512571D01*
X155384857Y-62341142D01*
X155442000Y-62112571D01*
X155499142Y-61998285D01*
X155613428Y-61884000D01*
X155784857Y-61826857D01*
X155899142Y-61826857D01*
X156070571Y-61884000D01*
X156127714Y-61941142D01*
X157270571Y-63026857D02*
X156584857Y-63026857D01*
X156927714Y-63026857D02*
X156927714Y-61826857D01*
X156813428Y-61998285D01*
X156699142Y-62112571D01*
X156584857Y-62169714D01*
X157784857Y-62569714D02*
X158699142Y-62569714D01*
X159956285Y-62912571D02*
X159899142Y-62969714D01*
X159727714Y-63026857D01*
X159613428Y-63026857D01*
X159442000Y-62969714D01*
X159327714Y-62855428D01*
X159270571Y-62741142D01*
X159213428Y-62512571D01*
X159213428Y-62341142D01*
X159270571Y-62112571D01*
X159327714Y-61998285D01*
X159442000Y-61884000D01*
X159613428Y-61826857D01*
X159727714Y-61826857D01*
X159899142Y-61884000D01*
X159956285Y-61941142D01*
X160413428Y-61941142D02*
X160470571Y-61884000D01*
X160584857Y-61826857D01*
X160870571Y-61826857D01*
X160984857Y-61884000D01*
X161042000Y-61941142D01*
X161099142Y-62055428D01*
X161099142Y-62169714D01*
X161042000Y-62341142D01*
X160356285Y-63026857D01*
X161099142Y-63026857D01*
D12*
X170180000Y-45490000D02*
X170180000Y-47450000D01*
X170180000Y-58650000D02*
X170180000Y-56690000D01*
X168460000Y-47450000D02*
X168460000Y-56690000D01*
X171900000Y-47450000D02*
X168460000Y-47450000D01*
X171900000Y-56690000D02*
X171900000Y-47450000D01*
X168460000Y-56690000D02*
X171900000Y-56690000D01*
X151638000Y-109050000D02*
X151638000Y-106210000D01*
X151638000Y-86130000D02*
X151638000Y-88970000D01*
X155258000Y-106210000D02*
X155258000Y-88970000D01*
X148018000Y-106210000D02*
X155258000Y-106210000D01*
X148018000Y-88970000D02*
X148018000Y-106210000D01*
X155258000Y-88970000D02*
X148018000Y-88970000D01*
X147020000Y-126312000D02*
X147520000Y-126312000D01*
X147020000Y-125572000D02*
X147020000Y-126312000D01*
X153713000Y-122435000D02*
X153666000Y-122481000D01*
X156010000Y-120137000D02*
X155975000Y-120173000D01*
X153906000Y-122651000D02*
X153871000Y-122686000D01*
X156215000Y-120343000D02*
X156168000Y-120389000D01*
X157540000Y-116151000D02*
X157540000Y-126072000D01*
X147260000Y-116151000D02*
X147260000Y-126072000D01*
X147260000Y-126072000D02*
X157540000Y-126072000D01*
X147260000Y-116151000D02*
X157540000Y-116151000D01*
X147260000Y-119111000D02*
X157540000Y-119111000D01*
X147260000Y-124012000D02*
X157540000Y-124012000D01*
X147260000Y-125512000D02*
X157540000Y-125512000D01*
X156620000Y-121412000D02*
G75*
G03X156620000Y-121412000I-1680000J0D01*
G01*
X149888805Y-123092253D02*
G75*
G02X149176000Y-122947000I-28805J1680253D01*
G01*
X148324574Y-122095042D02*
G75*
G02X148325000Y-120728000I1535426J683042D01*
G01*
X149176958Y-119876574D02*
G75*
G02X150544000Y-119877000I683042J-1535426D01*
G01*
X151395426Y-120728958D02*
G75*
G02X151395000Y-122096000I-1535426J-683042D01*
G01*
X150543318Y-122946756D02*
G75*
G02X149860000Y-123092000I-683318J1534756D01*
G01*
X197280000Y-86360000D02*
G75*
G03X197280000Y-86360000I-1700000J0D01*
G01*
X197280000Y-101600000D02*
G75*
G03X197280000Y-101600000I-1700000J0D01*
G01*
X197280000Y-93980000D02*
G75*
G03X197280000Y-93980000I-1700000J0D01*
G01*
X93495600Y-41148000D02*
G75*
G03X93495600Y-41148000I-1700000J0D01*
G01*
X183560000Y-112060000D02*
X183560000Y-114060000D01*
X184560000Y-112060000D02*
X183560000Y-112060000D01*
X186560000Y-114060000D02*
X184560000Y-112060000D01*
X183560000Y-96060000D02*
X183560000Y-94060000D01*
X184560000Y-96060000D02*
X183560000Y-96060000D01*
X186560000Y-94060000D02*
X184560000Y-96060000D01*
X186560000Y-94060000D02*
X178560000Y-94060000D01*
X189560000Y-91060000D02*
X186560000Y-94060000D01*
X178560000Y-91060000D02*
X189560000Y-91060000D01*
X186560000Y-114060000D02*
X178560000Y-114060000D01*
X189560000Y-117060000D02*
X186560000Y-114060000D01*
X178560000Y-117060000D02*
X189560000Y-117060000D01*
X165560000Y-117060000D02*
X160560000Y-117060000D01*
X167560000Y-115060000D02*
X165560000Y-117060000D01*
X165560000Y-113060000D02*
X167560000Y-115060000D01*
X160560000Y-113060000D02*
X165560000Y-113060000D01*
X165560000Y-95060000D02*
X160560000Y-95060000D01*
X167560000Y-93060000D02*
X165560000Y-95060000D01*
X165560000Y-91060000D02*
X167560000Y-93060000D01*
X160560000Y-91060000D02*
X165560000Y-91060000D01*
X168560000Y-102060000D02*
X175560000Y-102060000D01*
X168560000Y-106060000D02*
X168560000Y-102060000D01*
X175560000Y-106060000D02*
X168560000Y-106060000D01*
X173560000Y-99060000D02*
X175560000Y-100060000D01*
X175560000Y-98060000D02*
X173560000Y-99060000D01*
X178560000Y-95060000D02*
X178560000Y-90060000D01*
X175560000Y-95060000D02*
X178560000Y-95060000D01*
X175560000Y-113060000D02*
X175560000Y-95060000D01*
X178560000Y-113060000D02*
X175560000Y-113060000D01*
X178560000Y-118060000D02*
X178560000Y-113060000D01*
X170560000Y-88060000D02*
X160560000Y-88060000D01*
X178560000Y-90060000D02*
X170560000Y-88060000D01*
X170560000Y-120060000D02*
X178560000Y-118060000D01*
X160560000Y-120060000D02*
X170560000Y-120060000D01*
X160560000Y-88060000D02*
X160560000Y-120060000D01*
X181078000Y-47396000D02*
X175578000Y-47396000D01*
X181078000Y-46696000D02*
X175578000Y-46696000D01*
X175578000Y-41196000D02*
X175578000Y-47396000D01*
X181078000Y-41196000D02*
X175578000Y-41196000D01*
X181078000Y-47396000D02*
X181078000Y-41196000D01*
X154662000Y-79146000D02*
X149162000Y-79146000D01*
X154662000Y-78446000D02*
X149162000Y-78446000D01*
X149162000Y-72946000D02*
X149162000Y-79146000D01*
X154662000Y-72946000D02*
X149162000Y-72946000D01*
X154662000Y-79146000D02*
X154662000Y-72946000D01*
X185692000Y-65526000D02*
X185692000Y-67526000D01*
X187932000Y-65526000D02*
X185692000Y-65526000D01*
X188909000Y-72026000D02*
X188859000Y-71976000D01*
X191342000Y-74459000D02*
X191318000Y-74434000D01*
X188667000Y-72218000D02*
X188642000Y-72194000D01*
X191125000Y-74676000D02*
X191075000Y-74627000D01*
X196552000Y-75886000D02*
X185932000Y-75886000D01*
X196552000Y-65766000D02*
X185932000Y-65766000D01*
X185932000Y-65766000D02*
X185932000Y-75886000D01*
X196552000Y-65766000D02*
X196552000Y-75886000D01*
X192992000Y-65766000D02*
X192992000Y-75886000D01*
X191992000Y-65766000D02*
X191992000Y-75886000D01*
X187992000Y-65766000D02*
X187992000Y-75886000D01*
X191772000Y-73326000D02*
G75*
G03X191772000Y-73326000I-1780000J0D01*
G01*
X188211611Y-68356814D02*
G75*
G02X188353000Y-67630000I1780389J30814D01*
G01*
X189296484Y-66686795D02*
G75*
G02X190688000Y-66687000I695516J-1639205D01*
G01*
X191631205Y-67630484D02*
G75*
G02X191631000Y-69022000I-1639205J-695516D01*
G01*
X190687516Y-69965205D02*
G75*
G02X189296000Y-69965000I-695516J1639205D01*
G01*
X188353501Y-69021501D02*
G75*
G02X188212000Y-68326000I1638499J695501D01*
G01*
X72725000Y-128725000D02*
X73225000Y-128725000D01*
X72725000Y-127985000D02*
X72725000Y-128725000D01*
X79418000Y-124848000D02*
X79371000Y-124894000D01*
X81715000Y-122550000D02*
X81680000Y-122586000D01*
X79611000Y-125064000D02*
X79576000Y-125099000D01*
X81920000Y-122756000D02*
X81873000Y-122802000D01*
X83245000Y-118564000D02*
X83245000Y-128485000D01*
X72965000Y-118564000D02*
X72965000Y-128485000D01*
X72965000Y-128485000D02*
X83245000Y-128485000D01*
X72965000Y-118564000D02*
X83245000Y-118564000D01*
X72965000Y-121524000D02*
X83245000Y-121524000D01*
X72965000Y-126425000D02*
X83245000Y-126425000D01*
X72965000Y-127925000D02*
X83245000Y-127925000D01*
X82325000Y-123825000D02*
G75*
G03X82325000Y-123825000I-1680000J0D01*
G01*
X75593805Y-125505253D02*
G75*
G02X74881000Y-125360000I-28805J1680253D01*
G01*
X74029574Y-124508042D02*
G75*
G02X74030000Y-123141000I1535426J683042D01*
G01*
X74881958Y-122289574D02*
G75*
G02X76249000Y-122290000I683042J-1535426D01*
G01*
X77100426Y-123141958D02*
G75*
G02X77100000Y-124509000I-1535426J-683042D01*
G01*
X76248318Y-125359756D02*
G75*
G02X75565000Y-125505000I-683318J1534756D01*
G01*
X58364000Y-38652000D02*
X58364000Y-39902000D01*
X59614000Y-38652000D02*
X58364000Y-38652000D01*
X65514000Y-44152000D02*
X62464000Y-44152000D01*
X65514000Y-41202000D02*
X65514000Y-44152000D01*
X66264000Y-41202000D02*
X65514000Y-41202000D01*
X59414000Y-44152000D02*
X62464000Y-44152000D01*
X59414000Y-41202000D02*
X59414000Y-44152000D01*
X58664000Y-41202000D02*
X59414000Y-41202000D01*
X66264000Y-38952000D02*
X64464000Y-38952000D01*
X66264000Y-39702000D02*
X66264000Y-38952000D01*
X64464000Y-39702000D02*
X66264000Y-39702000D01*
X64464000Y-38952000D02*
X64464000Y-39702000D01*
X60464000Y-38952000D02*
X58664000Y-38952000D01*
X60464000Y-39702000D02*
X60464000Y-38952000D01*
X58664000Y-39702000D02*
X60464000Y-39702000D01*
X58664000Y-38952000D02*
X58664000Y-39702000D01*
X62964000Y-38952000D02*
X61964000Y-38952000D01*
X62964000Y-39702000D02*
X62964000Y-38952000D01*
X61964000Y-39702000D02*
X62964000Y-39702000D01*
X61964000Y-38952000D02*
X61964000Y-39702000D01*
X66274000Y-38942000D02*
X58654000Y-38942000D01*
X66274000Y-44912000D02*
X66274000Y-38942000D01*
X58654000Y-44912000D02*
X66274000Y-44912000D01*
X58654000Y-38942000D02*
X58654000Y-44912000D01*
X111054000Y-67774000D02*
X111054000Y-66524000D01*
X109804000Y-67774000D02*
X111054000Y-67774000D01*
X98904000Y-62274000D02*
X104454000Y-62274000D01*
X98904000Y-65224000D02*
X98904000Y-62274000D01*
X98154000Y-65224000D02*
X98904000Y-65224000D01*
X110004000Y-62274000D02*
X104454000Y-62274000D01*
X110004000Y-65224000D02*
X110004000Y-62274000D01*
X110754000Y-65224000D02*
X110004000Y-65224000D01*
X98154000Y-67474000D02*
X99954000Y-67474000D01*
X98154000Y-66724000D02*
X98154000Y-67474000D01*
X99954000Y-66724000D02*
X98154000Y-66724000D01*
X99954000Y-67474000D02*
X99954000Y-66724000D01*
X108954000Y-67474000D02*
X110754000Y-67474000D01*
X108954000Y-66724000D02*
X108954000Y-67474000D01*
X110754000Y-66724000D02*
X108954000Y-66724000D01*
X110754000Y-67474000D02*
X110754000Y-66724000D01*
X101454000Y-67474000D02*
X107454000Y-67474000D01*
X101454000Y-66724000D02*
X101454000Y-67474000D01*
X107454000Y-66724000D02*
X101454000Y-66724000D01*
X107454000Y-67474000D02*
X107454000Y-66724000D01*
X98144000Y-67484000D02*
X110764000Y-67484000D01*
X98144000Y-61514000D02*
X98144000Y-67484000D01*
X110764000Y-61514000D02*
X98144000Y-61514000D01*
X110764000Y-67484000D02*
X110764000Y-61514000D01*
X85146000Y-69806000D02*
X85146000Y-68556000D01*
X83896000Y-69806000D02*
X85146000Y-69806000D01*
X72996000Y-64306000D02*
X78546000Y-64306000D01*
X72996000Y-67256000D02*
X72996000Y-64306000D01*
X72246000Y-67256000D02*
X72996000Y-67256000D01*
X84096000Y-64306000D02*
X78546000Y-64306000D01*
X84096000Y-67256000D02*
X84096000Y-64306000D01*
X84846000Y-67256000D02*
X84096000Y-67256000D01*
X72246000Y-69506000D02*
X74046000Y-69506000D01*
X72246000Y-68756000D02*
X72246000Y-69506000D01*
X74046000Y-68756000D02*
X72246000Y-68756000D01*
X74046000Y-69506000D02*
X74046000Y-68756000D01*
X83046000Y-69506000D02*
X84846000Y-69506000D01*
X83046000Y-68756000D02*
X83046000Y-69506000D01*
X84846000Y-68756000D02*
X83046000Y-68756000D01*
X84846000Y-69506000D02*
X84846000Y-68756000D01*
X75546000Y-69506000D02*
X81546000Y-69506000D01*
X75546000Y-68756000D02*
X75546000Y-69506000D01*
X81546000Y-68756000D02*
X75546000Y-68756000D01*
X81546000Y-69506000D02*
X81546000Y-68756000D01*
X72236000Y-69516000D02*
X84856000Y-69516000D01*
X72236000Y-63546000D02*
X72236000Y-69516000D01*
X84856000Y-63546000D02*
X72236000Y-63546000D01*
X84856000Y-69516000D02*
X84856000Y-63546000D01*
X196806000Y-49220000D02*
X195556000Y-49220000D01*
X196806000Y-50470000D02*
X196806000Y-49220000D01*
X191306000Y-61370000D02*
X191306000Y-55820000D01*
X194256000Y-61370000D02*
X191306000Y-61370000D01*
X194256000Y-62120000D02*
X194256000Y-61370000D01*
X191306000Y-50270000D02*
X191306000Y-55820000D01*
X194256000Y-50270000D02*
X191306000Y-50270000D01*
X194256000Y-49520000D02*
X194256000Y-50270000D01*
X196506000Y-62120000D02*
X196506000Y-60320000D01*
X195756000Y-62120000D02*
X196506000Y-62120000D01*
X195756000Y-60320000D02*
X195756000Y-62120000D01*
X196506000Y-60320000D02*
X195756000Y-60320000D01*
X196506000Y-51320000D02*
X196506000Y-49520000D01*
X195756000Y-51320000D02*
X196506000Y-51320000D01*
X195756000Y-49520000D02*
X195756000Y-51320000D01*
X196506000Y-49520000D02*
X195756000Y-49520000D01*
X196506000Y-58820000D02*
X196506000Y-52820000D01*
X195756000Y-58820000D02*
X196506000Y-58820000D01*
X195756000Y-52820000D02*
X195756000Y-58820000D01*
X196506000Y-52820000D02*
X195756000Y-52820000D01*
X196516000Y-62130000D02*
X196516000Y-49510000D01*
X190546000Y-62130000D02*
X196516000Y-62130000D01*
X190546000Y-49510000D02*
X190546000Y-62130000D01*
X196516000Y-49510000D02*
X190546000Y-49510000D01*
X117038000Y-58210000D02*
X117038000Y-59460000D01*
X118288000Y-58210000D02*
X117038000Y-58210000D01*
X134188000Y-63710000D02*
X126138000Y-63710000D01*
X134188000Y-60760000D02*
X134188000Y-63710000D01*
X134938000Y-60760000D02*
X134188000Y-60760000D01*
X126138000Y-63710000D02*
X119148000Y-63710000D01*
X118088000Y-60760000D02*
X118088000Y-62100000D01*
X117338000Y-60760000D02*
X118088000Y-60760000D01*
X134938000Y-58510000D02*
X133138000Y-58510000D01*
X134938000Y-59260000D02*
X134938000Y-58510000D01*
X133138000Y-59260000D02*
X134938000Y-59260000D01*
X133138000Y-58510000D02*
X133138000Y-59260000D01*
X119138000Y-58510000D02*
X117338000Y-58510000D01*
X119138000Y-59260000D02*
X119138000Y-58510000D01*
X117338000Y-59260000D02*
X119138000Y-59260000D01*
X117338000Y-58510000D02*
X117338000Y-59260000D01*
X131638000Y-58510000D02*
X120638000Y-58510000D01*
X131638000Y-59260000D02*
X131638000Y-58510000D01*
X120638000Y-59260000D02*
X131638000Y-59260000D01*
X120638000Y-58510000D02*
X120638000Y-59260000D01*
X134948000Y-58500000D02*
X117328000Y-58500000D01*
X134948000Y-64470000D02*
X134948000Y-58500000D01*
X117328000Y-64470000D02*
X134948000Y-64470000D01*
X117328000Y-58500000D02*
X117328000Y-64470000D01*
X83582000Y-85300000D02*
X83582000Y-84050000D01*
X82332000Y-85300000D02*
X83582000Y-85300000D01*
X73932000Y-79800000D02*
X78232000Y-79800000D01*
X73932000Y-82750000D02*
X73932000Y-79800000D01*
X73182000Y-82750000D02*
X73932000Y-82750000D01*
X78232000Y-79800000D02*
X81472000Y-79800000D01*
X82532000Y-82750000D02*
X82532000Y-81410000D01*
X83282000Y-82750000D02*
X82532000Y-82750000D01*
X73182000Y-85000000D02*
X74982000Y-85000000D01*
X73182000Y-84250000D02*
X73182000Y-85000000D01*
X74982000Y-84250000D02*
X73182000Y-84250000D01*
X74982000Y-85000000D02*
X74982000Y-84250000D01*
X81482000Y-85000000D02*
X83282000Y-85000000D01*
X81482000Y-84250000D02*
X81482000Y-85000000D01*
X83282000Y-84250000D02*
X81482000Y-84250000D01*
X83282000Y-85000000D02*
X83282000Y-84250000D01*
X76482000Y-85000000D02*
X79982000Y-85000000D01*
X76482000Y-84250000D02*
X76482000Y-85000000D01*
X79982000Y-84250000D02*
X76482000Y-84250000D01*
X79982000Y-85000000D02*
X79982000Y-84250000D01*
X73172000Y-85010000D02*
X83292000Y-85010000D01*
X73172000Y-79040000D02*
X73172000Y-85010000D01*
X83292000Y-79040000D02*
X73172000Y-79040000D01*
X83292000Y-85010000D02*
X83292000Y-79040000D01*
X169950000Y-73914000D02*
X170720000Y-73914000D01*
X178030000Y-73914000D02*
X177260000Y-73914000D01*
X170720000Y-75284000D02*
X177260000Y-75284000D01*
X170720000Y-72544000D02*
X170720000Y-75284000D01*
X177260000Y-72544000D02*
X170720000Y-72544000D01*
X177260000Y-75284000D02*
X177260000Y-72544000D01*
X177776000Y-68072000D02*
X177006000Y-68072000D01*
X169696000Y-68072000D02*
X170466000Y-68072000D01*
X177006000Y-66702000D02*
X170466000Y-66702000D01*
X177006000Y-69442000D02*
X177006000Y-66702000D01*
X170466000Y-69442000D02*
X177006000Y-69442000D01*
X170466000Y-66702000D02*
X170466000Y-69442000D01*
X69258000Y-100972000D02*
X58758000Y-100972000D01*
X69258000Y-118992000D02*
X69258000Y-100972000D01*
X58758000Y-118992000D02*
X69258000Y-118992000D01*
X58758000Y-100972000D02*
X58758000Y-118992000D01*
X66258000Y-101032000D02*
X65008000Y-101032000D01*
X66258000Y-118932000D02*
X66258000Y-101032000D01*
X61758000Y-118932000D02*
X66258000Y-118932000D01*
X61758000Y-101032000D02*
X61758000Y-118932000D01*
X63008000Y-101032000D02*
X61758000Y-101032000D01*
X65008000Y-101032000D02*
G75*
G02X63008000Y-101032000I-1000000J0D01*
G01*
X184528000Y-60960000D02*
X187328000Y-60960000D01*
X184528000Y-50630000D02*
X184528000Y-63670000D01*
X187328000Y-50630000D02*
X184528000Y-50630000D01*
X187328000Y-63670000D02*
X187328000Y-50630000D01*
X184528000Y-63670000D02*
X187328000Y-63670000D01*
X58928000Y-73128000D02*
X58928000Y-72358000D01*
X58928000Y-65048000D02*
X58928000Y-65818000D01*
X60298000Y-72358000D02*
X60298000Y-65818000D01*
X57558000Y-72358000D02*
X60298000Y-72358000D01*
X57558000Y-65818000D02*
X57558000Y-72358000D01*
X60298000Y-65818000D02*
X57558000Y-65818000D01*
X65532000Y-73128000D02*
X65532000Y-72358000D01*
X65532000Y-65048000D02*
X65532000Y-65818000D01*
X66902000Y-72358000D02*
X66902000Y-65818000D01*
X64162000Y-72358000D02*
X66902000Y-72358000D01*
X64162000Y-65818000D02*
X64162000Y-72358000D01*
X66902000Y-65818000D02*
X64162000Y-65818000D01*
X49276000Y-113308000D02*
X49276000Y-114078000D01*
X49276000Y-121388000D02*
X49276000Y-120618000D01*
X47906000Y-114078000D02*
X47906000Y-120618000D01*
X50646000Y-114078000D02*
X47906000Y-114078000D01*
X50646000Y-120618000D02*
X50646000Y-114078000D01*
X47906000Y-120618000D02*
X50646000Y-120618000D01*
X53086000Y-113308000D02*
X53086000Y-114078000D01*
X53086000Y-121388000D02*
X53086000Y-120618000D01*
X51716000Y-114078000D02*
X51716000Y-120618000D01*
X54456000Y-114078000D02*
X51716000Y-114078000D01*
X54456000Y-120618000D02*
X54456000Y-114078000D01*
X51716000Y-120618000D02*
X54456000Y-120618000D01*
X109196000Y-55372000D02*
X108426000Y-55372000D01*
X101116000Y-55372000D02*
X101886000Y-55372000D01*
X108426000Y-54002000D02*
X101886000Y-54002000D01*
X108426000Y-56742000D02*
X108426000Y-54002000D01*
X101886000Y-56742000D02*
X108426000Y-56742000D01*
X101886000Y-54002000D02*
X101886000Y-56742000D01*
X152678000Y-56642000D02*
X153448000Y-56642000D01*
X160758000Y-56642000D02*
X159988000Y-56642000D01*
X153448000Y-58012000D02*
X159988000Y-58012000D01*
X153448000Y-55272000D02*
X153448000Y-58012000D01*
X159988000Y-55272000D02*
X153448000Y-55272000D01*
X159988000Y-58012000D02*
X159988000Y-55272000D01*
X152678000Y-53340000D02*
X153448000Y-53340000D01*
X160758000Y-53340000D02*
X159988000Y-53340000D01*
X153448000Y-54710000D02*
X159988000Y-54710000D01*
X153448000Y-51970000D02*
X153448000Y-54710000D01*
X159988000Y-51970000D02*
X153448000Y-51970000D01*
X159988000Y-54710000D02*
X159988000Y-51970000D01*
X152678000Y-50038000D02*
X153448000Y-50038000D01*
X160758000Y-50038000D02*
X159988000Y-50038000D01*
X153448000Y-51408000D02*
X159988000Y-51408000D01*
X153448000Y-48668000D02*
X153448000Y-51408000D01*
X159988000Y-48668000D02*
X153448000Y-48668000D01*
X159988000Y-51408000D02*
X159988000Y-48668000D01*
X152678000Y-46736000D02*
X153448000Y-46736000D01*
X160758000Y-46736000D02*
X159988000Y-46736000D01*
X153448000Y-48106000D02*
X159988000Y-48106000D01*
X153448000Y-45366000D02*
X153448000Y-48106000D01*
X159988000Y-45366000D02*
X153448000Y-45366000D01*
X159988000Y-48106000D02*
X159988000Y-45366000D01*
X152678000Y-43434000D02*
X153448000Y-43434000D01*
X160758000Y-43434000D02*
X159988000Y-43434000D01*
X153448000Y-44804000D02*
X159988000Y-44804000D01*
X153448000Y-42064000D02*
X153448000Y-44804000D01*
X159988000Y-42064000D02*
X153448000Y-42064000D01*
X159988000Y-44804000D02*
X159988000Y-42064000D01*
X149038000Y-68640000D02*
X149038000Y-67310000D01*
X150368000Y-68640000D02*
X149038000Y-68640000D01*
X151638000Y-68640000D02*
X151638000Y-65980000D01*
X151638000Y-65980000D02*
X154238000Y-65980000D01*
X151638000Y-68640000D02*
X154238000Y-68640000D01*
X154238000Y-68640000D02*
X154238000Y-65980000D01*
X149038000Y-63814000D02*
X149038000Y-62484000D01*
X150368000Y-63814000D02*
X149038000Y-63814000D01*
X151638000Y-63814000D02*
X151638000Y-61154000D01*
X151638000Y-61154000D02*
X154238000Y-61154000D01*
X151638000Y-63814000D02*
X154238000Y-63814000D01*
X154238000Y-63814000D02*
X154238000Y-61154000D01*
X49080000Y-55162000D02*
X53380000Y-55162000D01*
X49080000Y-58112000D02*
X49080000Y-55162000D01*
X48330000Y-58112000D02*
X49080000Y-58112000D01*
X57680000Y-55162000D02*
X53380000Y-55162000D01*
X57680000Y-58112000D02*
X57680000Y-55162000D01*
X58430000Y-58112000D02*
X57680000Y-58112000D01*
X48330000Y-60362000D02*
X50130000Y-60362000D01*
X48330000Y-59612000D02*
X48330000Y-60362000D01*
X50130000Y-59612000D02*
X48330000Y-59612000D01*
X50130000Y-60362000D02*
X50130000Y-59612000D01*
X56630000Y-60362000D02*
X58430000Y-60362000D01*
X56630000Y-59612000D02*
X56630000Y-60362000D01*
X58430000Y-59612000D02*
X56630000Y-59612000D01*
X58430000Y-60362000D02*
X58430000Y-59612000D01*
X51630000Y-60362000D02*
X55130000Y-60362000D01*
X51630000Y-59612000D02*
X51630000Y-60362000D01*
X55130000Y-59612000D02*
X51630000Y-59612000D01*
X55130000Y-60362000D02*
X55130000Y-59612000D01*
X48320000Y-60372000D02*
X58440000Y-60372000D01*
X48320000Y-54402000D02*
X48320000Y-60372000D01*
X58440000Y-54402000D02*
X48320000Y-54402000D01*
X58440000Y-60372000D02*
X58440000Y-54402000D01*
X38202000Y-70842000D02*
X38202000Y-65342000D01*
X38902000Y-70842000D02*
X38902000Y-65342000D01*
X44402000Y-65342000D02*
X38202000Y-65342000D01*
X44402000Y-70842000D02*
X44402000Y-65342000D01*
X38202000Y-70842000D02*
X44402000Y-70842000D01*
X39414000Y-100780000D02*
X39414000Y-96480000D01*
X42364000Y-100780000D02*
X39414000Y-100780000D01*
X42364000Y-101530000D02*
X42364000Y-100780000D01*
X39414000Y-92180000D02*
X39414000Y-96480000D01*
X42364000Y-92180000D02*
X39414000Y-92180000D01*
X42364000Y-91430000D02*
X42364000Y-92180000D01*
X44614000Y-101530000D02*
X44614000Y-99730000D01*
X43864000Y-101530000D02*
X44614000Y-101530000D01*
X43864000Y-99730000D02*
X43864000Y-101530000D01*
X44614000Y-99730000D02*
X43864000Y-99730000D01*
X44614000Y-93230000D02*
X44614000Y-91430000D01*
X43864000Y-93230000D02*
X44614000Y-93230000D01*
X43864000Y-91430000D02*
X43864000Y-93230000D01*
X44614000Y-91430000D02*
X43864000Y-91430000D01*
X44614000Y-98230000D02*
X44614000Y-94730000D01*
X43864000Y-98230000D02*
X44614000Y-98230000D01*
X43864000Y-94730000D02*
X43864000Y-98230000D01*
X44614000Y-94730000D02*
X43864000Y-94730000D01*
X44624000Y-101540000D02*
X44624000Y-91420000D01*
X38654000Y-101540000D02*
X44624000Y-101540000D01*
X38654000Y-91420000D02*
X38654000Y-101540000D01*
X44624000Y-91420000D02*
X38654000Y-91420000D01*
X38827225Y-55679000D02*
X38827225Y-56179000D01*
X38577225Y-55929000D02*
X39077225Y-55929000D01*
X43983000Y-57120000D02*
X43983000Y-57688000D01*
X43943000Y-56886000D02*
X43943000Y-57922000D01*
X43903000Y-56727000D02*
X43903000Y-58081000D01*
X43863000Y-56599000D02*
X43863000Y-58209000D01*
X43823000Y-56489000D02*
X43823000Y-58319000D01*
X43783000Y-56393000D02*
X43783000Y-58415000D01*
X43743000Y-56306000D02*
X43743000Y-58502000D01*
X43703000Y-56226000D02*
X43703000Y-58582000D01*
X43663000Y-58444000D02*
X43663000Y-58655000D01*
X43663000Y-56153000D02*
X43663000Y-56364000D01*
X43623000Y-58444000D02*
X43623000Y-58723000D01*
X43623000Y-56085000D02*
X43623000Y-56364000D01*
X43583000Y-58444000D02*
X43583000Y-58787000D01*
X43583000Y-56021000D02*
X43583000Y-56364000D01*
X43543000Y-58444000D02*
X43543000Y-58847000D01*
X43543000Y-55961000D02*
X43543000Y-56364000D01*
X43503000Y-58444000D02*
X43503000Y-58904000D01*
X43503000Y-55904000D02*
X43503000Y-56364000D01*
X43463000Y-58444000D02*
X43463000Y-58958000D01*
X43463000Y-55850000D02*
X43463000Y-56364000D01*
X43423000Y-58444000D02*
X43423000Y-59009000D01*
X43423000Y-55799000D02*
X43423000Y-56364000D01*
X43383000Y-58444000D02*
X43383000Y-59057000D01*
X43383000Y-55751000D02*
X43383000Y-56364000D01*
X43343000Y-58444000D02*
X43343000Y-59103000D01*
X43343000Y-55705000D02*
X43343000Y-56364000D01*
X43303000Y-58444000D02*
X43303000Y-59147000D01*
X43303000Y-55661000D02*
X43303000Y-56364000D01*
X43263000Y-58444000D02*
X43263000Y-59189000D01*
X43263000Y-55619000D02*
X43263000Y-56364000D01*
X43223000Y-58444000D02*
X43223000Y-59230000D01*
X43223000Y-55578000D02*
X43223000Y-56364000D01*
X43183000Y-58444000D02*
X43183000Y-59268000D01*
X43183000Y-55540000D02*
X43183000Y-56364000D01*
X43143000Y-58444000D02*
X43143000Y-59305000D01*
X43143000Y-55503000D02*
X43143000Y-56364000D01*
X43103000Y-58444000D02*
X43103000Y-59341000D01*
X43103000Y-55467000D02*
X43103000Y-56364000D01*
X43063000Y-58444000D02*
X43063000Y-59375000D01*
X43063000Y-55433000D02*
X43063000Y-56364000D01*
X43023000Y-58444000D02*
X43023000Y-59408000D01*
X43023000Y-55400000D02*
X43023000Y-56364000D01*
X42983000Y-58444000D02*
X42983000Y-59439000D01*
X42983000Y-55369000D02*
X42983000Y-56364000D01*
X42943000Y-58444000D02*
X42943000Y-59469000D01*
X42943000Y-55339000D02*
X42943000Y-56364000D01*
X42903000Y-58444000D02*
X42903000Y-59499000D01*
X42903000Y-55309000D02*
X42903000Y-56364000D01*
X42863000Y-58444000D02*
X42863000Y-59526000D01*
X42863000Y-55282000D02*
X42863000Y-56364000D01*
X42823000Y-58444000D02*
X42823000Y-59553000D01*
X42823000Y-55255000D02*
X42823000Y-56364000D01*
X42783000Y-58444000D02*
X42783000Y-59579000D01*
X42783000Y-55229000D02*
X42783000Y-56364000D01*
X42743000Y-58444000D02*
X42743000Y-59604000D01*
X42743000Y-55204000D02*
X42743000Y-56364000D01*
X42703000Y-58444000D02*
X42703000Y-59628000D01*
X42703000Y-55180000D02*
X42703000Y-56364000D01*
X42663000Y-58444000D02*
X42663000Y-59651000D01*
X42663000Y-55157000D02*
X42663000Y-56364000D01*
X42623000Y-58444000D02*
X42623000Y-59672000D01*
X42623000Y-55136000D02*
X42623000Y-56364000D01*
X42583000Y-58444000D02*
X42583000Y-59694000D01*
X42583000Y-55114000D02*
X42583000Y-56364000D01*
X42543000Y-58444000D02*
X42543000Y-59714000D01*
X42543000Y-55094000D02*
X42543000Y-56364000D01*
X42503000Y-58444000D02*
X42503000Y-59733000D01*
X42503000Y-55075000D02*
X42503000Y-56364000D01*
X42463000Y-58444000D02*
X42463000Y-59752000D01*
X42463000Y-55056000D02*
X42463000Y-56364000D01*
X42423000Y-58444000D02*
X42423000Y-59769000D01*
X42423000Y-55039000D02*
X42423000Y-56364000D01*
X42383000Y-58444000D02*
X42383000Y-59786000D01*
X42383000Y-55022000D02*
X42383000Y-56364000D01*
X42343000Y-58444000D02*
X42343000Y-59802000D01*
X42343000Y-55006000D02*
X42343000Y-56364000D01*
X42303000Y-58444000D02*
X42303000Y-59818000D01*
X42303000Y-54990000D02*
X42303000Y-56364000D01*
X42263000Y-58444000D02*
X42263000Y-59832000D01*
X42263000Y-54976000D02*
X42263000Y-56364000D01*
X42223000Y-58444000D02*
X42223000Y-59846000D01*
X42223000Y-54962000D02*
X42223000Y-56364000D01*
X42183000Y-58444000D02*
X42183000Y-59859000D01*
X42183000Y-54949000D02*
X42183000Y-56364000D01*
X42143000Y-58444000D02*
X42143000Y-59872000D01*
X42143000Y-54936000D02*
X42143000Y-56364000D01*
X42103000Y-58444000D02*
X42103000Y-59884000D01*
X42103000Y-54924000D02*
X42103000Y-56364000D01*
X42062000Y-58444000D02*
X42062000Y-59895000D01*
X42062000Y-54913000D02*
X42062000Y-56364000D01*
X42022000Y-58444000D02*
X42022000Y-59905000D01*
X42022000Y-54903000D02*
X42022000Y-56364000D01*
X41982000Y-58444000D02*
X41982000Y-59915000D01*
X41982000Y-54893000D02*
X41982000Y-56364000D01*
X41942000Y-58444000D02*
X41942000Y-59924000D01*
X41942000Y-54884000D02*
X41942000Y-56364000D01*
X41902000Y-58444000D02*
X41902000Y-59932000D01*
X41902000Y-54876000D02*
X41902000Y-56364000D01*
X41862000Y-58444000D02*
X41862000Y-59940000D01*
X41862000Y-54868000D02*
X41862000Y-56364000D01*
X41822000Y-58444000D02*
X41822000Y-59947000D01*
X41822000Y-54861000D02*
X41822000Y-56364000D01*
X41782000Y-58444000D02*
X41782000Y-59954000D01*
X41782000Y-54854000D02*
X41782000Y-56364000D01*
X41742000Y-58444000D02*
X41742000Y-59960000D01*
X41742000Y-54848000D02*
X41742000Y-56364000D01*
X41702000Y-58444000D02*
X41702000Y-59965000D01*
X41702000Y-54843000D02*
X41702000Y-56364000D01*
X41662000Y-58444000D02*
X41662000Y-59969000D01*
X41662000Y-54839000D02*
X41662000Y-56364000D01*
X41622000Y-58444000D02*
X41622000Y-59973000D01*
X41622000Y-54835000D02*
X41622000Y-56364000D01*
X41582000Y-54831000D02*
X41582000Y-59977000D01*
X41542000Y-54828000D02*
X41542000Y-59980000D01*
X41502000Y-54826000D02*
X41502000Y-59982000D01*
X41462000Y-54825000D02*
X41462000Y-59983000D01*
X41422000Y-54824000D02*
X41422000Y-59984000D01*
X41382000Y-54824000D02*
X41382000Y-59984000D01*
X44002000Y-57404000D02*
G75*
G03X44002000Y-57404000I-2620000J0D01*
G01*
X63807000Y-58962775D02*
X64307000Y-58962775D01*
X64057000Y-59212775D02*
X64057000Y-58712775D01*
X65248000Y-53807000D02*
X65816000Y-53807000D01*
X65014000Y-53847000D02*
X66050000Y-53847000D01*
X64855000Y-53887000D02*
X66209000Y-53887000D01*
X64727000Y-53927000D02*
X66337000Y-53927000D01*
X64617000Y-53967000D02*
X66447000Y-53967000D01*
X64521000Y-54007000D02*
X66543000Y-54007000D01*
X64434000Y-54047000D02*
X66630000Y-54047000D01*
X64354000Y-54087000D02*
X66710000Y-54087000D01*
X66572000Y-54127000D02*
X66783000Y-54127000D01*
X64281000Y-54127000D02*
X64492000Y-54127000D01*
X66572000Y-54167000D02*
X66851000Y-54167000D01*
X64213000Y-54167000D02*
X64492000Y-54167000D01*
X66572000Y-54207000D02*
X66915000Y-54207000D01*
X64149000Y-54207000D02*
X64492000Y-54207000D01*
X66572000Y-54247000D02*
X66975000Y-54247000D01*
X64089000Y-54247000D02*
X64492000Y-54247000D01*
X66572000Y-54287000D02*
X67032000Y-54287000D01*
X64032000Y-54287000D02*
X64492000Y-54287000D01*
X66572000Y-54327000D02*
X67086000Y-54327000D01*
X63978000Y-54327000D02*
X64492000Y-54327000D01*
X66572000Y-54367000D02*
X67137000Y-54367000D01*
X63927000Y-54367000D02*
X64492000Y-54367000D01*
X66572000Y-54407000D02*
X67185000Y-54407000D01*
X63879000Y-54407000D02*
X64492000Y-54407000D01*
X66572000Y-54447000D02*
X67231000Y-54447000D01*
X63833000Y-54447000D02*
X64492000Y-54447000D01*
X66572000Y-54487000D02*
X67275000Y-54487000D01*
X63789000Y-54487000D02*
X64492000Y-54487000D01*
X66572000Y-54527000D02*
X67317000Y-54527000D01*
X63747000Y-54527000D02*
X64492000Y-54527000D01*
X66572000Y-54567000D02*
X67358000Y-54567000D01*
X63706000Y-54567000D02*
X64492000Y-54567000D01*
X66572000Y-54607000D02*
X67396000Y-54607000D01*
X63668000Y-54607000D02*
X64492000Y-54607000D01*
X66572000Y-54647000D02*
X67433000Y-54647000D01*
X63631000Y-54647000D02*
X64492000Y-54647000D01*
X66572000Y-54687000D02*
X67469000Y-54687000D01*
X63595000Y-54687000D02*
X64492000Y-54687000D01*
X66572000Y-54727000D02*
X67503000Y-54727000D01*
X63561000Y-54727000D02*
X64492000Y-54727000D01*
X66572000Y-54767000D02*
X67536000Y-54767000D01*
X63528000Y-54767000D02*
X64492000Y-54767000D01*
X66572000Y-54807000D02*
X67567000Y-54807000D01*
X63497000Y-54807000D02*
X64492000Y-54807000D01*
X66572000Y-54847000D02*
X67597000Y-54847000D01*
X63467000Y-54847000D02*
X64492000Y-54847000D01*
X66572000Y-54887000D02*
X67627000Y-54887000D01*
X63437000Y-54887000D02*
X64492000Y-54887000D01*
X66572000Y-54927000D02*
X67654000Y-54927000D01*
X63410000Y-54927000D02*
X64492000Y-54927000D01*
X66572000Y-54967000D02*
X67681000Y-54967000D01*
X63383000Y-54967000D02*
X64492000Y-54967000D01*
X66572000Y-55007000D02*
X67707000Y-55007000D01*
X63357000Y-55007000D02*
X64492000Y-55007000D01*
X66572000Y-55047000D02*
X67732000Y-55047000D01*
X63332000Y-55047000D02*
X64492000Y-55047000D01*
X66572000Y-55087000D02*
X67756000Y-55087000D01*
X63308000Y-55087000D02*
X64492000Y-55087000D01*
X66572000Y-55127000D02*
X67779000Y-55127000D01*
X63285000Y-55127000D02*
X64492000Y-55127000D01*
X66572000Y-55167000D02*
X67800000Y-55167000D01*
X63264000Y-55167000D02*
X64492000Y-55167000D01*
X66572000Y-55207000D02*
X67822000Y-55207000D01*
X63242000Y-55207000D02*
X64492000Y-55207000D01*
X66572000Y-55247000D02*
X67842000Y-55247000D01*
X63222000Y-55247000D02*
X64492000Y-55247000D01*
X66572000Y-55287000D02*
X67861000Y-55287000D01*
X63203000Y-55287000D02*
X64492000Y-55287000D01*
X66572000Y-55327000D02*
X67880000Y-55327000D01*
X63184000Y-55327000D02*
X64492000Y-55327000D01*
X66572000Y-55367000D02*
X67897000Y-55367000D01*
X63167000Y-55367000D02*
X64492000Y-55367000D01*
X66572000Y-55407000D02*
X67914000Y-55407000D01*
X63150000Y-55407000D02*
X64492000Y-55407000D01*
X66572000Y-55447000D02*
X67930000Y-55447000D01*
X63134000Y-55447000D02*
X64492000Y-55447000D01*
X66572000Y-55487000D02*
X67946000Y-55487000D01*
X63118000Y-55487000D02*
X64492000Y-55487000D01*
X66572000Y-55527000D02*
X67960000Y-55527000D01*
X63104000Y-55527000D02*
X64492000Y-55527000D01*
X66572000Y-55567000D02*
X67974000Y-55567000D01*
X63090000Y-55567000D02*
X64492000Y-55567000D01*
X66572000Y-55607000D02*
X67987000Y-55607000D01*
X63077000Y-55607000D02*
X64492000Y-55607000D01*
X66572000Y-55647000D02*
X68000000Y-55647000D01*
X63064000Y-55647000D02*
X64492000Y-55647000D01*
X66572000Y-55687000D02*
X68012000Y-55687000D01*
X63052000Y-55687000D02*
X64492000Y-55687000D01*
X66572000Y-55728000D02*
X68023000Y-55728000D01*
X63041000Y-55728000D02*
X64492000Y-55728000D01*
X66572000Y-55768000D02*
X68033000Y-55768000D01*
X63031000Y-55768000D02*
X64492000Y-55768000D01*
X66572000Y-55808000D02*
X68043000Y-55808000D01*
X63021000Y-55808000D02*
X64492000Y-55808000D01*
X66572000Y-55848000D02*
X68052000Y-55848000D01*
X63012000Y-55848000D02*
X64492000Y-55848000D01*
X66572000Y-55888000D02*
X68060000Y-55888000D01*
X63004000Y-55888000D02*
X64492000Y-55888000D01*
X66572000Y-55928000D02*
X68068000Y-55928000D01*
X62996000Y-55928000D02*
X64492000Y-55928000D01*
X66572000Y-55968000D02*
X68075000Y-55968000D01*
X62989000Y-55968000D02*
X64492000Y-55968000D01*
X66572000Y-56008000D02*
X68082000Y-56008000D01*
X62982000Y-56008000D02*
X64492000Y-56008000D01*
X66572000Y-56048000D02*
X68088000Y-56048000D01*
X62976000Y-56048000D02*
X64492000Y-56048000D01*
X66572000Y-56088000D02*
X68093000Y-56088000D01*
X62971000Y-56088000D02*
X64492000Y-56088000D01*
X66572000Y-56128000D02*
X68097000Y-56128000D01*
X62967000Y-56128000D02*
X64492000Y-56128000D01*
X66572000Y-56168000D02*
X68101000Y-56168000D01*
X62963000Y-56168000D02*
X64492000Y-56168000D01*
X62959000Y-56208000D02*
X68105000Y-56208000D01*
X62956000Y-56248000D02*
X68108000Y-56248000D01*
X62954000Y-56288000D02*
X68110000Y-56288000D01*
X62953000Y-56328000D02*
X68111000Y-56328000D01*
X62952000Y-56368000D02*
X68112000Y-56368000D01*
X62952000Y-56408000D02*
X68112000Y-56408000D01*
X68152000Y-56408000D02*
G75*
G03X68152000Y-56408000I-2620000J0D01*
G01*
X64200000Y-82550000D02*
X62260000Y-82550000D01*
X42080000Y-82550000D02*
X44020000Y-82550000D01*
X47620000Y-86670000D02*
X62260000Y-86670000D01*
X46720000Y-85770000D02*
X47620000Y-86670000D01*
X45820000Y-86670000D02*
X46720000Y-85770000D01*
X44020000Y-86670000D02*
X45820000Y-86670000D01*
X47620000Y-78430000D02*
X62260000Y-78430000D01*
X46720000Y-79330000D02*
X47620000Y-78430000D01*
X45820000Y-78430000D02*
X46720000Y-79330000D01*
X44020000Y-78430000D02*
X45820000Y-78430000D01*
X62260000Y-78430000D02*
X62260000Y-86670000D01*
X44020000Y-78430000D02*
X44020000Y-86670000D01*
X42820000Y-79050000D02*
X42820000Y-80850000D01*
X41920000Y-79950000D02*
X43720000Y-79950000D01*
X54734000Y-125884000D02*
X54734000Y-128624000D01*
X47294000Y-125884000D02*
X47294000Y-128624000D01*
X47294000Y-128624000D02*
X54734000Y-128624000D01*
X47294000Y-125884000D02*
X54734000Y-125884000D01*
X47120000Y-108558000D02*
X47120000Y-105818000D01*
X54560000Y-108558000D02*
X54560000Y-105818000D01*
X54560000Y-105818000D02*
X47120000Y-105818000D01*
X54560000Y-108558000D02*
X47120000Y-108558000D01*
D10*
X167727333Y-58618380D02*
X167394000Y-58142190D01*
X167155904Y-58618380D02*
X167155904Y-57618380D01*
X167536857Y-57618380D01*
X167632095Y-57666000D01*
X167679714Y-57713619D01*
X167727333Y-57808857D01*
X167727333Y-57951714D01*
X167679714Y-58046952D01*
X167632095Y-58094571D01*
X167536857Y-58142190D01*
X167155904Y-58142190D01*
X168203523Y-58618380D02*
X168394000Y-58618380D01*
X168489238Y-58570761D01*
X168536857Y-58523142D01*
X168632095Y-58380285D01*
X168679714Y-58189809D01*
X168679714Y-57808857D01*
X168632095Y-57713619D01*
X168584476Y-57666000D01*
X168489238Y-57618380D01*
X168298761Y-57618380D01*
X168203523Y-57666000D01*
X168155904Y-57713619D01*
X168108285Y-57808857D01*
X168108285Y-58046952D01*
X168155904Y-58142190D01*
X168203523Y-58189809D01*
X168298761Y-58237428D01*
X168489238Y-58237428D01*
X168584476Y-58189809D01*
X168632095Y-58142190D01*
X168679714Y-58046952D01*
X153503333Y-108053142D02*
X153455714Y-108100761D01*
X153312857Y-108148380D01*
X153217619Y-108148380D01*
X153074761Y-108100761D01*
X152979523Y-108005523D01*
X152931904Y-107910285D01*
X152884285Y-107719809D01*
X152884285Y-107576952D01*
X152931904Y-107386476D01*
X152979523Y-107291238D01*
X153074761Y-107196000D01*
X153217619Y-107148380D01*
X153312857Y-107148380D01*
X153455714Y-107196000D01*
X153503333Y-107243619D01*
X153836666Y-107148380D02*
X154503333Y-107148380D01*
X154074761Y-108148380D01*
X151590476Y-117562380D02*
X151590476Y-118276666D01*
X151542857Y-118419523D01*
X151447619Y-118514761D01*
X151304761Y-118562380D01*
X151209523Y-118562380D01*
X152590476Y-118562380D02*
X152019047Y-118562380D01*
X152304761Y-118562380D02*
X152304761Y-117562380D01*
X152209523Y-117705238D01*
X152114285Y-117800476D01*
X152019047Y-117848095D01*
X152923809Y-117562380D02*
X153542857Y-117562380D01*
X153209523Y-117943333D01*
X153352380Y-117943333D01*
X153447619Y-117990952D01*
X153495238Y-118038571D01*
X153542857Y-118133809D01*
X153542857Y-118371904D01*
X153495238Y-118467142D01*
X153447619Y-118514761D01*
X153352380Y-118562380D01*
X153066666Y-118562380D01*
X152971428Y-118514761D01*
X152923809Y-118467142D01*
X157902571Y-128952571D02*
X157845428Y-129009714D01*
X157674000Y-129066857D01*
X157559714Y-129066857D01*
X157388285Y-129009714D01*
X157274000Y-128895428D01*
X157216857Y-128781142D01*
X157159714Y-128552571D01*
X157159714Y-128381142D01*
X157216857Y-128152571D01*
X157274000Y-128038285D01*
X157388285Y-127924000D01*
X157559714Y-127866857D01*
X157674000Y-127866857D01*
X157845428Y-127924000D01*
X157902571Y-127981142D01*
X158416857Y-129066857D02*
X158416857Y-127866857D01*
X159102571Y-129066857D01*
X159102571Y-127866857D01*
X159559714Y-127866857D02*
X160359714Y-129066857D01*
X160359714Y-127866857D02*
X159559714Y-129066857D01*
X162245428Y-127866857D02*
X162016857Y-127866857D01*
X161902571Y-127924000D01*
X161845428Y-127981142D01*
X161731142Y-128152571D01*
X161674000Y-128381142D01*
X161674000Y-128838285D01*
X161731142Y-128952571D01*
X161788285Y-129009714D01*
X161902571Y-129066857D01*
X162131142Y-129066857D01*
X162245428Y-129009714D01*
X162302571Y-128952571D01*
X162359714Y-128838285D01*
X162359714Y-128552571D01*
X162302571Y-128438285D01*
X162245428Y-128381142D01*
X162131142Y-128324000D01*
X161902571Y-128324000D01*
X161788285Y-128381142D01*
X161731142Y-128438285D01*
X161674000Y-128552571D01*
X162702571Y-127866857D02*
X163102571Y-129066857D01*
X163502571Y-127866857D01*
X194837142Y-89950857D02*
X194151428Y-89950857D01*
X194494285Y-89950857D02*
X194494285Y-88750857D01*
X194380000Y-88922285D01*
X194265714Y-89036571D01*
X194151428Y-89093714D01*
X195294285Y-88865142D02*
X195351428Y-88808000D01*
X195465714Y-88750857D01*
X195751428Y-88750857D01*
X195865714Y-88808000D01*
X195922857Y-88865142D01*
X195980000Y-88979428D01*
X195980000Y-89093714D01*
X195922857Y-89265142D01*
X195237142Y-89950857D01*
X195980000Y-89950857D01*
X196322857Y-88750857D02*
X196722857Y-89950857D01*
X197122857Y-88750857D01*
X195294285Y-103990857D02*
X195065714Y-103990857D01*
X194951428Y-104048000D01*
X194894285Y-104105142D01*
X194780000Y-104276571D01*
X194722857Y-104505142D01*
X194722857Y-104962285D01*
X194780000Y-105076571D01*
X194837142Y-105133714D01*
X194951428Y-105190857D01*
X195180000Y-105190857D01*
X195294285Y-105133714D01*
X195351428Y-105076571D01*
X195408571Y-104962285D01*
X195408571Y-104676571D01*
X195351428Y-104562285D01*
X195294285Y-104505142D01*
X195180000Y-104448000D01*
X194951428Y-104448000D01*
X194837142Y-104505142D01*
X194780000Y-104562285D01*
X194722857Y-104676571D01*
X195751428Y-103990857D02*
X196151428Y-105190857D01*
X196551428Y-103990857D01*
X194919714Y-96428000D02*
X194805428Y-96370857D01*
X194634000Y-96370857D01*
X194462571Y-96428000D01*
X194348285Y-96542285D01*
X194291142Y-96656571D01*
X194234000Y-96885142D01*
X194234000Y-97056571D01*
X194291142Y-97285142D01*
X194348285Y-97399428D01*
X194462571Y-97513714D01*
X194634000Y-97570857D01*
X194748285Y-97570857D01*
X194919714Y-97513714D01*
X194976857Y-97456571D01*
X194976857Y-97056571D01*
X194748285Y-97056571D01*
X195491142Y-97570857D02*
X195491142Y-96370857D01*
X196176857Y-97570857D01*
X196176857Y-96370857D01*
X196748285Y-97570857D02*
X196748285Y-96370857D01*
X197034000Y-96370857D01*
X197205428Y-96428000D01*
X197319714Y-96542285D01*
X197376857Y-96656571D01*
X197434000Y-96885142D01*
X197434000Y-97056571D01*
X197376857Y-97285142D01*
X197319714Y-97399428D01*
X197205428Y-97513714D01*
X197034000Y-97570857D01*
X196748285Y-97570857D01*
X94342171Y-40490857D02*
X94742171Y-41690857D01*
X95142171Y-40490857D01*
X96456457Y-41690857D02*
X96456457Y-40490857D01*
X97027885Y-41690857D02*
X97027885Y-40490857D01*
X97713600Y-41690857D01*
X97713600Y-40490857D01*
X171402476Y-103592380D02*
X171402476Y-104306666D01*
X171354857Y-104449523D01*
X171259619Y-104544761D01*
X171116761Y-104592380D01*
X171021523Y-104592380D01*
X172402476Y-104592380D02*
X171831047Y-104592380D01*
X172116761Y-104592380D02*
X172116761Y-103592380D01*
X172021523Y-103735238D01*
X171926285Y-103830476D01*
X171831047Y-103878095D01*
X173307238Y-103592380D02*
X172831047Y-103592380D01*
X172783428Y-104068571D01*
X172831047Y-104020952D01*
X172926285Y-103973333D01*
X173164380Y-103973333D01*
X173259619Y-104020952D01*
X173307238Y-104068571D01*
X173354857Y-104163809D01*
X173354857Y-104401904D01*
X173307238Y-104497142D01*
X173259619Y-104544761D01*
X173164380Y-104592380D01*
X172926285Y-104592380D01*
X172831047Y-104544761D01*
X172783428Y-104497142D01*
X179140285Y-120570571D02*
X179083142Y-120627714D01*
X178911714Y-120684857D01*
X178797428Y-120684857D01*
X178626000Y-120627714D01*
X178511714Y-120513428D01*
X178454571Y-120399142D01*
X178397428Y-120170571D01*
X178397428Y-119999142D01*
X178454571Y-119770571D01*
X178511714Y-119656285D01*
X178626000Y-119542000D01*
X178797428Y-119484857D01*
X178911714Y-119484857D01*
X179083142Y-119542000D01*
X179140285Y-119599142D01*
X179654571Y-120684857D02*
X179654571Y-119484857D01*
X180340285Y-120684857D01*
X180340285Y-119484857D01*
X180797428Y-119484857D02*
X181597428Y-120684857D01*
X181597428Y-119484857D02*
X180797428Y-120684857D01*
X183540285Y-120684857D02*
X182968857Y-120684857D01*
X182968857Y-119484857D01*
X183940285Y-120056285D02*
X184340285Y-120056285D01*
X184511714Y-120684857D02*
X183940285Y-120684857D01*
X183940285Y-119484857D01*
X184511714Y-119484857D01*
X185026000Y-120684857D02*
X185026000Y-119484857D01*
X185311714Y-119484857D01*
X185483142Y-119542000D01*
X185597428Y-119656285D01*
X185654571Y-119770571D01*
X185711714Y-119999142D01*
X185711714Y-120170571D01*
X185654571Y-120399142D01*
X185597428Y-120513428D01*
X185483142Y-120627714D01*
X185311714Y-120684857D01*
X185026000Y-120684857D01*
X186168857Y-120627714D02*
X186340285Y-120684857D01*
X186626000Y-120684857D01*
X186740285Y-120627714D01*
X186797428Y-120570571D01*
X186854571Y-120456285D01*
X186854571Y-120342000D01*
X186797428Y-120227714D01*
X186740285Y-120170571D01*
X186626000Y-120113428D01*
X186397428Y-120056285D01*
X186283142Y-119999142D01*
X186226000Y-119942000D01*
X186168857Y-119827714D01*
X186168857Y-119713428D01*
X186226000Y-119599142D01*
X186283142Y-119542000D01*
X186397428Y-119484857D01*
X186683142Y-119484857D01*
X186854571Y-119542000D01*
X177498476Y-41616380D02*
X177498476Y-42330666D01*
X177450857Y-42473523D01*
X177355619Y-42568761D01*
X177212761Y-42616380D01*
X177117523Y-42616380D01*
X178498476Y-42616380D02*
X177927047Y-42616380D01*
X178212761Y-42616380D02*
X178212761Y-41616380D01*
X178117523Y-41759238D01*
X178022285Y-41854476D01*
X177927047Y-41902095D01*
X178974666Y-42616380D02*
X179165142Y-42616380D01*
X179260380Y-42568761D01*
X179308000Y-42521142D01*
X179403238Y-42378285D01*
X179450857Y-42187809D01*
X179450857Y-41806857D01*
X179403238Y-41711619D01*
X179355619Y-41664000D01*
X179260380Y-41616380D01*
X179069904Y-41616380D01*
X178974666Y-41664000D01*
X178927047Y-41711619D01*
X178879428Y-41806857D01*
X178879428Y-42044952D01*
X178927047Y-42140190D01*
X178974666Y-42187809D01*
X179069904Y-42235428D01*
X179260380Y-42235428D01*
X179355619Y-42187809D01*
X179403238Y-42140190D01*
X179450857Y-42044952D01*
X178026000Y-39824000D02*
X178597428Y-39824000D01*
X177911714Y-40166857D02*
X178311714Y-38966857D01*
X178711714Y-40166857D01*
X179111714Y-38966857D02*
X179111714Y-39938285D01*
X179168857Y-40052571D01*
X179226000Y-40109714D01*
X179340285Y-40166857D01*
X179568857Y-40166857D01*
X179683142Y-40109714D01*
X179740285Y-40052571D01*
X179797428Y-39938285D01*
X179797428Y-38966857D01*
X180368857Y-40166857D02*
X180368857Y-38966857D01*
X180654571Y-38966857D01*
X180826000Y-39024000D01*
X180940285Y-39138285D01*
X180997428Y-39252571D01*
X181054571Y-39481142D01*
X181054571Y-39652571D01*
X180997428Y-39881142D01*
X180940285Y-39995428D01*
X180826000Y-40109714D01*
X180654571Y-40166857D01*
X180368857Y-40166857D01*
X181568857Y-40166857D02*
X181568857Y-38966857D01*
X182368857Y-38966857D02*
X182597428Y-38966857D01*
X182711714Y-39024000D01*
X182826000Y-39138285D01*
X182883142Y-39366857D01*
X182883142Y-39766857D01*
X182826000Y-39995428D01*
X182711714Y-40109714D01*
X182597428Y-40166857D01*
X182368857Y-40166857D01*
X182254571Y-40109714D01*
X182140285Y-39995428D01*
X182083142Y-39766857D01*
X182083142Y-39366857D01*
X182140285Y-39138285D01*
X182254571Y-39024000D01*
X182368857Y-38966857D01*
X184540285Y-38966857D02*
X184768857Y-38966857D01*
X184883142Y-39024000D01*
X184997428Y-39138285D01*
X185054571Y-39366857D01*
X185054571Y-39766857D01*
X184997428Y-39995428D01*
X184883142Y-40109714D01*
X184768857Y-40166857D01*
X184540285Y-40166857D01*
X184426000Y-40109714D01*
X184311714Y-39995428D01*
X184254571Y-39766857D01*
X184254571Y-39366857D01*
X184311714Y-39138285D01*
X184426000Y-39024000D01*
X184540285Y-38966857D01*
X185568857Y-38966857D02*
X185568857Y-39938285D01*
X185626000Y-40052571D01*
X185683142Y-40109714D01*
X185797428Y-40166857D01*
X186026000Y-40166857D01*
X186140285Y-40109714D01*
X186197428Y-40052571D01*
X186254571Y-39938285D01*
X186254571Y-38966857D01*
X186654571Y-38966857D02*
X187340285Y-38966857D01*
X186997428Y-40166857D02*
X186997428Y-38966857D01*
X150828476Y-73620380D02*
X150828476Y-74334666D01*
X150780857Y-74477523D01*
X150685619Y-74572761D01*
X150542761Y-74620380D01*
X150447523Y-74620380D01*
X151828476Y-74620380D02*
X151257047Y-74620380D01*
X151542761Y-74620380D02*
X151542761Y-73620380D01*
X151447523Y-73763238D01*
X151352285Y-73858476D01*
X151257047Y-73906095D01*
X152161809Y-73620380D02*
X152828476Y-73620380D01*
X152399904Y-74620380D01*
X155458000Y-80464000D02*
X156029428Y-80464000D01*
X155343714Y-80806857D02*
X155743714Y-79606857D01*
X156143714Y-80806857D01*
X156543714Y-79606857D02*
X156543714Y-80578285D01*
X156600857Y-80692571D01*
X156658000Y-80749714D01*
X156772285Y-80806857D01*
X157000857Y-80806857D01*
X157115142Y-80749714D01*
X157172285Y-80692571D01*
X157229428Y-80578285D01*
X157229428Y-79606857D01*
X157800857Y-80806857D02*
X157800857Y-79606857D01*
X158086571Y-79606857D01*
X158258000Y-79664000D01*
X158372285Y-79778285D01*
X158429428Y-79892571D01*
X158486571Y-80121142D01*
X158486571Y-80292571D01*
X158429428Y-80521142D01*
X158372285Y-80635428D01*
X158258000Y-80749714D01*
X158086571Y-80806857D01*
X157800857Y-80806857D01*
X159000857Y-80806857D02*
X159000857Y-79606857D01*
X159800857Y-79606857D02*
X160029428Y-79606857D01*
X160143714Y-79664000D01*
X160258000Y-79778285D01*
X160315142Y-80006857D01*
X160315142Y-80406857D01*
X160258000Y-80635428D01*
X160143714Y-80749714D01*
X160029428Y-80806857D01*
X159800857Y-80806857D01*
X159686571Y-80749714D01*
X159572285Y-80635428D01*
X159515142Y-80406857D01*
X159515142Y-80006857D01*
X159572285Y-79778285D01*
X159686571Y-79664000D01*
X159800857Y-79606857D01*
X161743714Y-80806857D02*
X161743714Y-79606857D01*
X162315142Y-80806857D02*
X162315142Y-79606857D01*
X163000857Y-80806857D01*
X163000857Y-79606857D01*
X194008476Y-71080380D02*
X194008476Y-71794666D01*
X193960857Y-71937523D01*
X193865619Y-72032761D01*
X193722761Y-72080380D01*
X193627523Y-72080380D01*
X195008476Y-72080380D02*
X194437047Y-72080380D01*
X194722761Y-72080380D02*
X194722761Y-71080380D01*
X194627523Y-71223238D01*
X194532285Y-71318476D01*
X194437047Y-71366095D01*
X195865619Y-71413714D02*
X195865619Y-72080380D01*
X195627523Y-71032761D02*
X195389428Y-71747047D01*
X196008476Y-71747047D01*
X189589142Y-78152571D02*
X189532000Y-78209714D01*
X189360571Y-78266857D01*
X189246285Y-78266857D01*
X189074857Y-78209714D01*
X188960571Y-78095428D01*
X188903428Y-77981142D01*
X188846285Y-77752571D01*
X188846285Y-77581142D01*
X188903428Y-77352571D01*
X188960571Y-77238285D01*
X189074857Y-77124000D01*
X189246285Y-77066857D01*
X189360571Y-77066857D01*
X189532000Y-77124000D01*
X189589142Y-77181142D01*
X190103428Y-78266857D02*
X190103428Y-77066857D01*
X190789142Y-78266857D01*
X190789142Y-77066857D01*
X191246285Y-77066857D02*
X192046285Y-78266857D01*
X192046285Y-77066857D02*
X191246285Y-78266857D01*
X194046285Y-78266857D02*
X193360571Y-78266857D01*
X193703428Y-78266857D02*
X193703428Y-77066857D01*
X193589142Y-77238285D01*
X193474857Y-77352571D01*
X193360571Y-77409714D01*
X194503428Y-77181142D02*
X194560571Y-77124000D01*
X194674857Y-77066857D01*
X194960571Y-77066857D01*
X195074857Y-77124000D01*
X195132000Y-77181142D01*
X195189142Y-77295428D01*
X195189142Y-77409714D01*
X195132000Y-77581142D01*
X194446285Y-78266857D01*
X195189142Y-78266857D01*
X195532000Y-77066857D02*
X195932000Y-78266857D01*
X196332000Y-77066857D01*
X77517666Y-119467380D02*
X77517666Y-120181666D01*
X77470047Y-120324523D01*
X77374809Y-120419761D01*
X77231952Y-120467380D01*
X77136714Y-120467380D01*
X78422428Y-119467380D02*
X78231952Y-119467380D01*
X78136714Y-119515000D01*
X78089095Y-119562619D01*
X77993857Y-119705476D01*
X77946238Y-119895952D01*
X77946238Y-120276904D01*
X77993857Y-120372142D01*
X78041476Y-120419761D01*
X78136714Y-120467380D01*
X78327190Y-120467380D01*
X78422428Y-120419761D01*
X78470047Y-120372142D01*
X78517666Y-120276904D01*
X78517666Y-120038809D01*
X78470047Y-119943571D01*
X78422428Y-119895952D01*
X78327190Y-119848333D01*
X78136714Y-119848333D01*
X78041476Y-119895952D01*
X77993857Y-119943571D01*
X77946238Y-120038809D01*
X73762142Y-116887571D02*
X73705000Y-116944714D01*
X73533571Y-117001857D01*
X73419285Y-117001857D01*
X73247857Y-116944714D01*
X73133571Y-116830428D01*
X73076428Y-116716142D01*
X73019285Y-116487571D01*
X73019285Y-116316142D01*
X73076428Y-116087571D01*
X73133571Y-115973285D01*
X73247857Y-115859000D01*
X73419285Y-115801857D01*
X73533571Y-115801857D01*
X73705000Y-115859000D01*
X73762142Y-115916142D01*
X74276428Y-117001857D02*
X74276428Y-115801857D01*
X74962142Y-117001857D01*
X74962142Y-115801857D01*
X75419285Y-115801857D02*
X76219285Y-117001857D01*
X76219285Y-115801857D02*
X75419285Y-117001857D01*
X77590714Y-117001857D02*
X77590714Y-115801857D01*
X78047857Y-115801857D01*
X78162142Y-115859000D01*
X78219285Y-115916142D01*
X78276428Y-116030428D01*
X78276428Y-116201857D01*
X78219285Y-116316142D01*
X78162142Y-116373285D01*
X78047857Y-116430428D01*
X77590714Y-116430428D01*
X79019285Y-115801857D02*
X79247857Y-115801857D01*
X79362142Y-115859000D01*
X79476428Y-115973285D01*
X79533571Y-116201857D01*
X79533571Y-116601857D01*
X79476428Y-116830428D01*
X79362142Y-116944714D01*
X79247857Y-117001857D01*
X79019285Y-117001857D01*
X78905000Y-116944714D01*
X78790714Y-116830428D01*
X78733571Y-116601857D01*
X78733571Y-116201857D01*
X78790714Y-115973285D01*
X78905000Y-115859000D01*
X79019285Y-115801857D01*
X79933571Y-115801857D02*
X80219285Y-117001857D01*
X80447857Y-116144714D01*
X80676428Y-117001857D01*
X80962142Y-115801857D01*
X81419285Y-116373285D02*
X81819285Y-116373285D01*
X81990714Y-117001857D02*
X81419285Y-117001857D01*
X81419285Y-115801857D01*
X81990714Y-115801857D01*
X83190714Y-117001857D02*
X82790714Y-116430428D01*
X82505000Y-117001857D02*
X82505000Y-115801857D01*
X82962142Y-115801857D01*
X83076428Y-115859000D01*
X83133571Y-115916142D01*
X83190714Y-116030428D01*
X83190714Y-116201857D01*
X83133571Y-116316142D01*
X83076428Y-116373285D01*
X82962142Y-116430428D01*
X82505000Y-116430428D01*
X62404666Y-42886380D02*
X62404666Y-43600666D01*
X62357047Y-43743523D01*
X62261809Y-43838761D01*
X62118952Y-43886380D01*
X62023714Y-43886380D01*
X62928476Y-43886380D02*
X63118952Y-43886380D01*
X63214190Y-43838761D01*
X63261809Y-43791142D01*
X63357047Y-43648285D01*
X63404666Y-43457809D01*
X63404666Y-43076857D01*
X63357047Y-42981619D01*
X63309428Y-42934000D01*
X63214190Y-42886380D01*
X63023714Y-42886380D01*
X62928476Y-42934000D01*
X62880857Y-42981619D01*
X62833238Y-43076857D01*
X62833238Y-43314952D01*
X62880857Y-43410190D01*
X62928476Y-43457809D01*
X63023714Y-43505428D01*
X63214190Y-43505428D01*
X63309428Y-43457809D01*
X63357047Y-43410190D01*
X63404666Y-43314952D01*
X60103047Y-45680380D02*
X60293523Y-45680380D01*
X60388761Y-45728000D01*
X60484000Y-45823238D01*
X60531619Y-46013714D01*
X60531619Y-46347047D01*
X60484000Y-46537523D01*
X60388761Y-46632761D01*
X60293523Y-46680380D01*
X60103047Y-46680380D01*
X60007809Y-46632761D01*
X59912571Y-46537523D01*
X59864952Y-46347047D01*
X59864952Y-46013714D01*
X59912571Y-45823238D01*
X60007809Y-45728000D01*
X60103047Y-45680380D01*
X60960190Y-46680380D02*
X60960190Y-45680380D01*
X61531619Y-46680380D01*
X61531619Y-45680380D01*
X61769714Y-46775619D02*
X62531619Y-46775619D01*
X62960190Y-45680380D02*
X63150666Y-45680380D01*
X63245904Y-45728000D01*
X63341142Y-45823238D01*
X63388761Y-46013714D01*
X63388761Y-46347047D01*
X63341142Y-46537523D01*
X63245904Y-46632761D01*
X63150666Y-46680380D01*
X62960190Y-46680380D01*
X62864952Y-46632761D01*
X62769714Y-46537523D01*
X62722095Y-46347047D01*
X62722095Y-46013714D01*
X62769714Y-45823238D01*
X62864952Y-45728000D01*
X62960190Y-45680380D01*
X64150666Y-46156571D02*
X63817333Y-46156571D01*
X63817333Y-46680380D02*
X63817333Y-45680380D01*
X64293523Y-45680380D01*
X65007809Y-46156571D02*
X64674476Y-46156571D01*
X64674476Y-46680380D02*
X64674476Y-45680380D01*
X65150666Y-45680380D01*
X103644476Y-62444380D02*
X103644476Y-63158666D01*
X103596857Y-63301523D01*
X103501619Y-63396761D01*
X103358761Y-63444380D01*
X103263523Y-63444380D01*
X104644476Y-63444380D02*
X104073047Y-63444380D01*
X104358761Y-63444380D02*
X104358761Y-62444380D01*
X104263523Y-62587238D01*
X104168285Y-62682476D01*
X104073047Y-62730095D01*
X105501619Y-62444380D02*
X105311142Y-62444380D01*
X105215904Y-62492000D01*
X105168285Y-62539619D01*
X105073047Y-62682476D01*
X105025428Y-62872952D01*
X105025428Y-63253904D01*
X105073047Y-63349142D01*
X105120666Y-63396761D01*
X105215904Y-63444380D01*
X105406380Y-63444380D01*
X105501619Y-63396761D01*
X105549238Y-63349142D01*
X105596857Y-63253904D01*
X105596857Y-63015809D01*
X105549238Y-62920571D01*
X105501619Y-62872952D01*
X105406380Y-62825333D01*
X105215904Y-62825333D01*
X105120666Y-62872952D01*
X105073047Y-62920571D01*
X105025428Y-63015809D01*
X103651428Y-69002285D02*
X103822857Y-69059428D01*
X103880000Y-69116571D01*
X103937142Y-69230857D01*
X103937142Y-69402285D01*
X103880000Y-69516571D01*
X103822857Y-69573714D01*
X103708571Y-69630857D01*
X103251428Y-69630857D01*
X103251428Y-68430857D01*
X103651428Y-68430857D01*
X103765714Y-68488000D01*
X103822857Y-68545142D01*
X103880000Y-68659428D01*
X103880000Y-68773714D01*
X103822857Y-68888000D01*
X103765714Y-68945142D01*
X103651428Y-69002285D01*
X103251428Y-69002285D01*
X104451428Y-68430857D02*
X104451428Y-69402285D01*
X104508571Y-69516571D01*
X104565714Y-69573714D01*
X104680000Y-69630857D01*
X104908571Y-69630857D01*
X105022857Y-69573714D01*
X105080000Y-69516571D01*
X105137142Y-69402285D01*
X105137142Y-68430857D01*
X105651428Y-69573714D02*
X105822857Y-69630857D01*
X106108571Y-69630857D01*
X106222857Y-69573714D01*
X106280000Y-69516571D01*
X106337142Y-69402285D01*
X106337142Y-69288000D01*
X106280000Y-69173714D01*
X106222857Y-69116571D01*
X106108571Y-69059428D01*
X105880000Y-69002285D01*
X105765714Y-68945142D01*
X105708571Y-68888000D01*
X105651428Y-68773714D01*
X105651428Y-68659428D01*
X105708571Y-68545142D01*
X105765714Y-68488000D01*
X105880000Y-68430857D01*
X106165714Y-68430857D01*
X106337142Y-68488000D01*
X107765714Y-69630857D02*
X107765714Y-68430857D01*
X108280000Y-68545142D02*
X108337142Y-68488000D01*
X108451428Y-68430857D01*
X108737142Y-68430857D01*
X108851428Y-68488000D01*
X108908571Y-68545142D01*
X108965714Y-68659428D01*
X108965714Y-68773714D01*
X108908571Y-68945142D01*
X108222857Y-69630857D01*
X108965714Y-69630857D01*
X110165714Y-69516571D02*
X110108571Y-69573714D01*
X109937142Y-69630857D01*
X109822857Y-69630857D01*
X109651428Y-69573714D01*
X109537142Y-69459428D01*
X109480000Y-69345142D01*
X109422857Y-69116571D01*
X109422857Y-68945142D01*
X109480000Y-68716571D01*
X109537142Y-68602285D01*
X109651428Y-68488000D01*
X109822857Y-68430857D01*
X109937142Y-68430857D01*
X110108571Y-68488000D01*
X110165714Y-68545142D01*
X77676476Y-64476380D02*
X77676476Y-65190666D01*
X77628857Y-65333523D01*
X77533619Y-65428761D01*
X77390761Y-65476380D01*
X77295523Y-65476380D01*
X78676476Y-65476380D02*
X78105047Y-65476380D01*
X78390761Y-65476380D02*
X78390761Y-64476380D01*
X78295523Y-64619238D01*
X78200285Y-64714476D01*
X78105047Y-64762095D01*
X79057428Y-64571619D02*
X79105047Y-64524000D01*
X79200285Y-64476380D01*
X79438380Y-64476380D01*
X79533619Y-64524000D01*
X79581238Y-64571619D01*
X79628857Y-64666857D01*
X79628857Y-64762095D01*
X79581238Y-64904952D01*
X79009809Y-65476380D01*
X79628857Y-65476380D01*
X74187428Y-70780285D02*
X74358857Y-70837428D01*
X74416000Y-70894571D01*
X74473142Y-71008857D01*
X74473142Y-71180285D01*
X74416000Y-71294571D01*
X74358857Y-71351714D01*
X74244571Y-71408857D01*
X73787428Y-71408857D01*
X73787428Y-70208857D01*
X74187428Y-70208857D01*
X74301714Y-70266000D01*
X74358857Y-70323142D01*
X74416000Y-70437428D01*
X74416000Y-70551714D01*
X74358857Y-70666000D01*
X74301714Y-70723142D01*
X74187428Y-70780285D01*
X73787428Y-70780285D01*
X74987428Y-70208857D02*
X74987428Y-71180285D01*
X75044571Y-71294571D01*
X75101714Y-71351714D01*
X75216000Y-71408857D01*
X75444571Y-71408857D01*
X75558857Y-71351714D01*
X75616000Y-71294571D01*
X75673142Y-71180285D01*
X75673142Y-70208857D01*
X76187428Y-71351714D02*
X76358857Y-71408857D01*
X76644571Y-71408857D01*
X76758857Y-71351714D01*
X76816000Y-71294571D01*
X76873142Y-71180285D01*
X76873142Y-71066000D01*
X76816000Y-70951714D01*
X76758857Y-70894571D01*
X76644571Y-70837428D01*
X76416000Y-70780285D01*
X76301714Y-70723142D01*
X76244571Y-70666000D01*
X76187428Y-70551714D01*
X76187428Y-70437428D01*
X76244571Y-70323142D01*
X76301714Y-70266000D01*
X76416000Y-70208857D01*
X76701714Y-70208857D01*
X76873142Y-70266000D01*
X78301714Y-71408857D02*
X78301714Y-70208857D01*
X78816000Y-70323142D02*
X78873142Y-70266000D01*
X78987428Y-70208857D01*
X79273142Y-70208857D01*
X79387428Y-70266000D01*
X79444571Y-70323142D01*
X79501714Y-70437428D01*
X79501714Y-70551714D01*
X79444571Y-70723142D01*
X78758857Y-71408857D01*
X79501714Y-71408857D01*
X80701714Y-71294571D02*
X80644571Y-71351714D01*
X80473142Y-71408857D01*
X80358857Y-71408857D01*
X80187428Y-71351714D01*
X80073142Y-71237428D01*
X80016000Y-71123142D01*
X79958857Y-70894571D01*
X79958857Y-70723142D01*
X80016000Y-70494571D01*
X80073142Y-70380285D01*
X80187428Y-70266000D01*
X80358857Y-70208857D01*
X80473142Y-70208857D01*
X80644571Y-70266000D01*
X80701714Y-70323142D01*
X191944666Y-49744380D02*
X191944666Y-50458666D01*
X191897047Y-50601523D01*
X191801809Y-50696761D01*
X191658952Y-50744380D01*
X191563714Y-50744380D01*
X192897047Y-49744380D02*
X192420857Y-49744380D01*
X192373238Y-50220571D01*
X192420857Y-50172952D01*
X192516095Y-50125333D01*
X192754190Y-50125333D01*
X192849428Y-50172952D01*
X192897047Y-50220571D01*
X192944666Y-50315809D01*
X192944666Y-50553904D01*
X192897047Y-50649142D01*
X192849428Y-50696761D01*
X192754190Y-50744380D01*
X192516095Y-50744380D01*
X192420857Y-50696761D01*
X192373238Y-50649142D01*
X198916857Y-60337428D02*
X197716857Y-60337428D01*
X198574000Y-59937428D01*
X197716857Y-59537428D01*
X198916857Y-59537428D01*
X197716857Y-58737428D02*
X197716857Y-58508857D01*
X197774000Y-58394571D01*
X197888285Y-58280285D01*
X198116857Y-58223142D01*
X198516857Y-58223142D01*
X198745428Y-58280285D01*
X198859714Y-58394571D01*
X198916857Y-58508857D01*
X198916857Y-58737428D01*
X198859714Y-58851714D01*
X198745428Y-58966000D01*
X198516857Y-59023142D01*
X198116857Y-59023142D01*
X197888285Y-58966000D01*
X197774000Y-58851714D01*
X197716857Y-58737428D01*
X198916857Y-57708857D02*
X197716857Y-57708857D01*
X197716857Y-57423142D01*
X197774000Y-57251714D01*
X197888285Y-57137428D01*
X198002571Y-57080285D01*
X198231142Y-57023142D01*
X198402571Y-57023142D01*
X198631142Y-57080285D01*
X198745428Y-57137428D01*
X198859714Y-57251714D01*
X198916857Y-57423142D01*
X198916857Y-57708857D01*
X198288285Y-56508857D02*
X198288285Y-56108857D01*
X198916857Y-55937428D02*
X198916857Y-56508857D01*
X197716857Y-56508857D01*
X197716857Y-55937428D01*
X125650666Y-62190380D02*
X125650666Y-62904666D01*
X125603047Y-63047523D01*
X125507809Y-63142761D01*
X125364952Y-63190380D01*
X125269714Y-63190380D01*
X126555428Y-62523714D02*
X126555428Y-63190380D01*
X126317333Y-62142761D02*
X126079238Y-62857047D01*
X126698285Y-62857047D01*
X123109428Y-65474285D02*
X123280857Y-65531428D01*
X123338000Y-65588571D01*
X123395142Y-65702857D01*
X123395142Y-65874285D01*
X123338000Y-65988571D01*
X123280857Y-66045714D01*
X123166571Y-66102857D01*
X122709428Y-66102857D01*
X122709428Y-64902857D01*
X123109428Y-64902857D01*
X123223714Y-64960000D01*
X123280857Y-65017142D01*
X123338000Y-65131428D01*
X123338000Y-65245714D01*
X123280857Y-65360000D01*
X123223714Y-65417142D01*
X123109428Y-65474285D01*
X122709428Y-65474285D01*
X123909428Y-64902857D02*
X123909428Y-65874285D01*
X123966571Y-65988571D01*
X124023714Y-66045714D01*
X124138000Y-66102857D01*
X124366571Y-66102857D01*
X124480857Y-66045714D01*
X124538000Y-65988571D01*
X124595142Y-65874285D01*
X124595142Y-64902857D01*
X125109428Y-66045714D02*
X125280857Y-66102857D01*
X125566571Y-66102857D01*
X125680857Y-66045714D01*
X125738000Y-65988571D01*
X125795142Y-65874285D01*
X125795142Y-65760000D01*
X125738000Y-65645714D01*
X125680857Y-65588571D01*
X125566571Y-65531428D01*
X125338000Y-65474285D01*
X125223714Y-65417142D01*
X125166571Y-65360000D01*
X125109428Y-65245714D01*
X125109428Y-65131428D01*
X125166571Y-65017142D01*
X125223714Y-64960000D01*
X125338000Y-64902857D01*
X125623714Y-64902857D01*
X125795142Y-64960000D01*
X127166571Y-66045714D02*
X127338000Y-66102857D01*
X127623714Y-66102857D01*
X127738000Y-66045714D01*
X127795142Y-65988571D01*
X127852285Y-65874285D01*
X127852285Y-65760000D01*
X127795142Y-65645714D01*
X127738000Y-65588571D01*
X127623714Y-65531428D01*
X127395142Y-65474285D01*
X127280857Y-65417142D01*
X127223714Y-65360000D01*
X127166571Y-65245714D01*
X127166571Y-65131428D01*
X127223714Y-65017142D01*
X127280857Y-64960000D01*
X127395142Y-64902857D01*
X127680857Y-64902857D01*
X127852285Y-64960000D01*
X128366571Y-66102857D02*
X128366571Y-64902857D01*
X128823714Y-64902857D01*
X128938000Y-64960000D01*
X128995142Y-65017142D01*
X129052285Y-65131428D01*
X129052285Y-65302857D01*
X128995142Y-65417142D01*
X128938000Y-65474285D01*
X128823714Y-65531428D01*
X128366571Y-65531428D01*
X129566571Y-66102857D02*
X129566571Y-64902857D01*
X77858666Y-79970380D02*
X77858666Y-80684666D01*
X77811047Y-80827523D01*
X77715809Y-80922761D01*
X77572952Y-80970380D01*
X77477714Y-80970380D01*
X78239619Y-79970380D02*
X78906285Y-79970380D01*
X78477714Y-80970380D01*
X73435142Y-87156857D02*
X73435142Y-85956857D01*
X74863714Y-85899714D02*
X73835142Y-87442571D01*
X75492285Y-85956857D02*
X75720857Y-85956857D01*
X75835142Y-86014000D01*
X75949428Y-86128285D01*
X76006571Y-86356857D01*
X76006571Y-86756857D01*
X75949428Y-86985428D01*
X75835142Y-87099714D01*
X75720857Y-87156857D01*
X75492285Y-87156857D01*
X75378000Y-87099714D01*
X75263714Y-86985428D01*
X75206571Y-86756857D01*
X75206571Y-86356857D01*
X75263714Y-86128285D01*
X75378000Y-86014000D01*
X75492285Y-85956857D01*
X77378000Y-87099714D02*
X77549428Y-87156857D01*
X77835142Y-87156857D01*
X77949428Y-87099714D01*
X78006571Y-87042571D01*
X78063714Y-86928285D01*
X78063714Y-86814000D01*
X78006571Y-86699714D01*
X77949428Y-86642571D01*
X77835142Y-86585428D01*
X77606571Y-86528285D01*
X77492285Y-86471142D01*
X77435142Y-86414000D01*
X77378000Y-86299714D01*
X77378000Y-86185428D01*
X77435142Y-86071142D01*
X77492285Y-86014000D01*
X77606571Y-85956857D01*
X77892285Y-85956857D01*
X78063714Y-86014000D01*
X78578000Y-87156857D02*
X78578000Y-85956857D01*
X79035142Y-85956857D01*
X79149428Y-86014000D01*
X79206571Y-86071142D01*
X79263714Y-86185428D01*
X79263714Y-86356857D01*
X79206571Y-86471142D01*
X79149428Y-86528285D01*
X79035142Y-86585428D01*
X78578000Y-86585428D01*
X79720857Y-86814000D02*
X80292285Y-86814000D01*
X79606571Y-87156857D02*
X80006571Y-85956857D01*
X80406571Y-87156857D01*
X81492285Y-87156857D02*
X81092285Y-86585428D01*
X80806571Y-87156857D02*
X80806571Y-85956857D01*
X81263714Y-85956857D01*
X81378000Y-86014000D01*
X81435142Y-86071142D01*
X81492285Y-86185428D01*
X81492285Y-86356857D01*
X81435142Y-86471142D01*
X81378000Y-86528285D01*
X81263714Y-86585428D01*
X80806571Y-86585428D01*
X82006571Y-86528285D02*
X82406571Y-86528285D01*
X82578000Y-87156857D02*
X82006571Y-87156857D01*
X82006571Y-85956857D01*
X82578000Y-85956857D01*
X168775142Y-76906380D02*
X168441809Y-76430190D01*
X168203714Y-76906380D02*
X168203714Y-75906380D01*
X168584666Y-75906380D01*
X168679904Y-75954000D01*
X168727523Y-76001619D01*
X168775142Y-76096857D01*
X168775142Y-76239714D01*
X168727523Y-76334952D01*
X168679904Y-76382571D01*
X168584666Y-76430190D01*
X168203714Y-76430190D01*
X169727523Y-76906380D02*
X169156095Y-76906380D01*
X169441809Y-76906380D02*
X169441809Y-75906380D01*
X169346571Y-76049238D01*
X169251333Y-76144476D01*
X169156095Y-76192095D01*
X170060857Y-75906380D02*
X170679904Y-75906380D01*
X170346571Y-76287333D01*
X170489428Y-76287333D01*
X170584666Y-76334952D01*
X170632285Y-76382571D01*
X170679904Y-76477809D01*
X170679904Y-76715904D01*
X170632285Y-76811142D01*
X170584666Y-76858761D01*
X170489428Y-76906380D01*
X170203714Y-76906380D01*
X170108476Y-76858761D01*
X170060857Y-76811142D01*
X169029142Y-71064380D02*
X168695809Y-70588190D01*
X168457714Y-71064380D02*
X168457714Y-70064380D01*
X168838666Y-70064380D01*
X168933904Y-70112000D01*
X168981523Y-70159619D01*
X169029142Y-70254857D01*
X169029142Y-70397714D01*
X168981523Y-70492952D01*
X168933904Y-70540571D01*
X168838666Y-70588190D01*
X168457714Y-70588190D01*
X169981523Y-71064380D02*
X169410095Y-71064380D01*
X169695809Y-71064380D02*
X169695809Y-70064380D01*
X169600571Y-70207238D01*
X169505333Y-70302476D01*
X169410095Y-70350095D01*
X170362476Y-70159619D02*
X170410095Y-70112000D01*
X170505333Y-70064380D01*
X170743428Y-70064380D01*
X170838666Y-70112000D01*
X170886285Y-70159619D01*
X170933904Y-70254857D01*
X170933904Y-70350095D01*
X170886285Y-70492952D01*
X170314857Y-71064380D01*
X170933904Y-71064380D01*
X38727333Y-47950380D02*
X38251142Y-47950380D01*
X38251142Y-46950380D01*
X39060666Y-47950380D02*
X39060666Y-46950380D01*
X39394000Y-47664666D01*
X39727333Y-46950380D01*
X39727333Y-47950380D01*
X40108285Y-46950380D02*
X40774952Y-46950380D01*
X40346380Y-47950380D01*
X41298761Y-47378952D02*
X41203523Y-47331333D01*
X41155904Y-47283714D01*
X41108285Y-47188476D01*
X41108285Y-47140857D01*
X41155904Y-47045619D01*
X41203523Y-46998000D01*
X41298761Y-46950380D01*
X41489238Y-46950380D01*
X41584476Y-46998000D01*
X41632095Y-47045619D01*
X41679714Y-47140857D01*
X41679714Y-47188476D01*
X41632095Y-47283714D01*
X41584476Y-47331333D01*
X41489238Y-47378952D01*
X41298761Y-47378952D01*
X41203523Y-47426571D01*
X41155904Y-47474190D01*
X41108285Y-47569428D01*
X41108285Y-47759904D01*
X41155904Y-47855142D01*
X41203523Y-47902761D01*
X41298761Y-47950380D01*
X41489238Y-47950380D01*
X41584476Y-47902761D01*
X41632095Y-47855142D01*
X41679714Y-47759904D01*
X41679714Y-47569428D01*
X41632095Y-47474190D01*
X41584476Y-47426571D01*
X41489238Y-47378952D01*
X42632095Y-47950380D02*
X42060666Y-47950380D01*
X42346380Y-47950380D02*
X42346380Y-46950380D01*
X42251142Y-47093238D01*
X42155904Y-47188476D01*
X42060666Y-47236095D01*
X43013047Y-47045619D02*
X43060666Y-46998000D01*
X43155904Y-46950380D01*
X43394000Y-46950380D01*
X43489238Y-46998000D01*
X43536857Y-47045619D01*
X43584476Y-47140857D01*
X43584476Y-47236095D01*
X43536857Y-47378952D01*
X42965428Y-47950380D01*
X43584476Y-47950380D01*
X72255333Y-48040857D02*
X71779142Y-48040857D01*
X71779142Y-46840857D01*
X72588666Y-48040857D02*
X72588666Y-46840857D01*
X72922000Y-47698000D01*
X73255333Y-46840857D01*
X73255333Y-48040857D01*
X73636285Y-46840857D02*
X74302952Y-46840857D01*
X73874380Y-48040857D01*
X74826761Y-47355142D02*
X74731523Y-47298000D01*
X74683904Y-47240857D01*
X74636285Y-47126571D01*
X74636285Y-47069428D01*
X74683904Y-46955142D01*
X74731523Y-46898000D01*
X74826761Y-46840857D01*
X75017238Y-46840857D01*
X75112476Y-46898000D01*
X75160095Y-46955142D01*
X75207714Y-47069428D01*
X75207714Y-47126571D01*
X75160095Y-47240857D01*
X75112476Y-47298000D01*
X75017238Y-47355142D01*
X74826761Y-47355142D01*
X74731523Y-47412285D01*
X74683904Y-47469428D01*
X74636285Y-47583714D01*
X74636285Y-47812285D01*
X74683904Y-47926571D01*
X74731523Y-47983714D01*
X74826761Y-48040857D01*
X75017238Y-48040857D01*
X75112476Y-47983714D01*
X75160095Y-47926571D01*
X75207714Y-47812285D01*
X75207714Y-47583714D01*
X75160095Y-47469428D01*
X75112476Y-47412285D01*
X75017238Y-47355142D01*
X75826761Y-46840857D02*
X75922000Y-46840857D01*
X76017238Y-46898000D01*
X76064857Y-46955142D01*
X76112476Y-47069428D01*
X76160095Y-47298000D01*
X76160095Y-47583714D01*
X76112476Y-47812285D01*
X76064857Y-47926571D01*
X76017238Y-47983714D01*
X75922000Y-48040857D01*
X75826761Y-48040857D01*
X75731523Y-47983714D01*
X75683904Y-47926571D01*
X75636285Y-47812285D01*
X75588666Y-47583714D01*
X75588666Y-47298000D01*
X75636285Y-47069428D01*
X75683904Y-46955142D01*
X75731523Y-46898000D01*
X75826761Y-46840857D01*
X77017238Y-46840857D02*
X76826761Y-46840857D01*
X76731523Y-46898000D01*
X76683904Y-46955142D01*
X76588666Y-47126571D01*
X76541047Y-47355142D01*
X76541047Y-47812285D01*
X76588666Y-47926571D01*
X76636285Y-47983714D01*
X76731523Y-48040857D01*
X76922000Y-48040857D01*
X77017238Y-47983714D01*
X77064857Y-47926571D01*
X77112476Y-47812285D01*
X77112476Y-47526571D01*
X77064857Y-47412285D01*
X77017238Y-47355142D01*
X76922000Y-47298000D01*
X76731523Y-47298000D01*
X76636285Y-47355142D01*
X76588666Y-47412285D01*
X76541047Y-47526571D01*
X63246095Y-105370380D02*
X63246095Y-106179904D01*
X63293714Y-106275142D01*
X63341333Y-106322761D01*
X63436571Y-106370380D01*
X63627047Y-106370380D01*
X63722285Y-106322761D01*
X63769904Y-106275142D01*
X63817523Y-106179904D01*
X63817523Y-105370380D01*
X64198476Y-105370380D02*
X64817523Y-105370380D01*
X64484190Y-105751333D01*
X64627047Y-105751333D01*
X64722285Y-105798952D01*
X64769904Y-105846571D01*
X64817523Y-105941809D01*
X64817523Y-106179904D01*
X64769904Y-106275142D01*
X64722285Y-106322761D01*
X64627047Y-106370380D01*
X64341333Y-106370380D01*
X64246095Y-106322761D01*
X64198476Y-106275142D01*
X185237523Y-49728380D02*
X184904190Y-49252190D01*
X184666095Y-49728380D02*
X184666095Y-48728380D01*
X185047047Y-48728380D01*
X185142285Y-48776000D01*
X185189904Y-48823619D01*
X185237523Y-48918857D01*
X185237523Y-49061714D01*
X185189904Y-49156952D01*
X185142285Y-49204571D01*
X185047047Y-49252190D01*
X184666095Y-49252190D01*
X185666095Y-49728380D02*
X185666095Y-48728380D01*
X186237523Y-49728380D01*
X186237523Y-48728380D01*
X187237523Y-49728380D02*
X186666095Y-49728380D01*
X186951809Y-49728380D02*
X186951809Y-48728380D01*
X186856571Y-48871238D01*
X186761333Y-48966476D01*
X186666095Y-49014095D01*
X61750380Y-69730857D02*
X61274190Y-70064190D01*
X61750380Y-70302285D02*
X60750380Y-70302285D01*
X60750380Y-69921333D01*
X60798000Y-69826095D01*
X60845619Y-69778476D01*
X60940857Y-69730857D01*
X61083714Y-69730857D01*
X61178952Y-69778476D01*
X61226571Y-69826095D01*
X61274190Y-69921333D01*
X61274190Y-70302285D01*
X61750380Y-68778476D02*
X61750380Y-69349904D01*
X61750380Y-69064190D02*
X60750380Y-69064190D01*
X60893238Y-69159428D01*
X60988476Y-69254666D01*
X61036095Y-69349904D01*
X61750380Y-67826095D02*
X61750380Y-68397523D01*
X61750380Y-68111809D02*
X60750380Y-68111809D01*
X60893238Y-68207047D01*
X60988476Y-68302285D01*
X61036095Y-68397523D01*
X68354380Y-69730857D02*
X67878190Y-70064190D01*
X68354380Y-70302285D02*
X67354380Y-70302285D01*
X67354380Y-69921333D01*
X67402000Y-69826095D01*
X67449619Y-69778476D01*
X67544857Y-69730857D01*
X67687714Y-69730857D01*
X67782952Y-69778476D01*
X67830571Y-69826095D01*
X67878190Y-69921333D01*
X67878190Y-70302285D01*
X68354380Y-68778476D02*
X68354380Y-69349904D01*
X68354380Y-69064190D02*
X67354380Y-69064190D01*
X67497238Y-69159428D01*
X67592476Y-69254666D01*
X67640095Y-69349904D01*
X67354380Y-68159428D02*
X67354380Y-68064190D01*
X67402000Y-67968952D01*
X67449619Y-67921333D01*
X67544857Y-67873714D01*
X67735333Y-67826095D01*
X67973428Y-67826095D01*
X68163904Y-67873714D01*
X68259142Y-67921333D01*
X68306761Y-67968952D01*
X68354380Y-68064190D01*
X68354380Y-68159428D01*
X68306761Y-68254666D01*
X68259142Y-68302285D01*
X68163904Y-68349904D01*
X67973428Y-68397523D01*
X67735333Y-68397523D01*
X67544857Y-68349904D01*
X67449619Y-68302285D01*
X67402000Y-68254666D01*
X67354380Y-68159428D01*
X54951333Y-121864380D02*
X54618000Y-121388190D01*
X54379904Y-121864380D02*
X54379904Y-120864380D01*
X54760857Y-120864380D01*
X54856095Y-120912000D01*
X54903714Y-120959619D01*
X54951333Y-121054857D01*
X54951333Y-121197714D01*
X54903714Y-121292952D01*
X54856095Y-121340571D01*
X54760857Y-121388190D01*
X54379904Y-121388190D01*
X55522761Y-121292952D02*
X55427523Y-121245333D01*
X55379904Y-121197714D01*
X55332285Y-121102476D01*
X55332285Y-121054857D01*
X55379904Y-120959619D01*
X55427523Y-120912000D01*
X55522761Y-120864380D01*
X55713238Y-120864380D01*
X55808476Y-120912000D01*
X55856095Y-120959619D01*
X55903714Y-121054857D01*
X55903714Y-121102476D01*
X55856095Y-121197714D01*
X55808476Y-121245333D01*
X55713238Y-121292952D01*
X55522761Y-121292952D01*
X55427523Y-121340571D01*
X55379904Y-121388190D01*
X55332285Y-121483428D01*
X55332285Y-121673904D01*
X55379904Y-121769142D01*
X55427523Y-121816761D01*
X55522761Y-121864380D01*
X55713238Y-121864380D01*
X55808476Y-121816761D01*
X55856095Y-121769142D01*
X55903714Y-121673904D01*
X55903714Y-121483428D01*
X55856095Y-121388190D01*
X55808476Y-121340571D01*
X55713238Y-121292952D01*
X47077333Y-122118380D02*
X46744000Y-121642190D01*
X46505904Y-122118380D02*
X46505904Y-121118380D01*
X46886857Y-121118380D01*
X46982095Y-121166000D01*
X47029714Y-121213619D01*
X47077333Y-121308857D01*
X47077333Y-121451714D01*
X47029714Y-121546952D01*
X46982095Y-121594571D01*
X46886857Y-121642190D01*
X46505904Y-121642190D01*
X47410666Y-121118380D02*
X48077333Y-121118380D01*
X47648761Y-122118380D01*
X107783333Y-53538380D02*
X107450000Y-53062190D01*
X107211904Y-53538380D02*
X107211904Y-52538380D01*
X107592857Y-52538380D01*
X107688095Y-52586000D01*
X107735714Y-52633619D01*
X107783333Y-52728857D01*
X107783333Y-52871714D01*
X107735714Y-52966952D01*
X107688095Y-53014571D01*
X107592857Y-53062190D01*
X107211904Y-53062190D01*
X108640476Y-52538380D02*
X108450000Y-52538380D01*
X108354761Y-52586000D01*
X108307142Y-52633619D01*
X108211904Y-52776476D01*
X108164285Y-52966952D01*
X108164285Y-53347904D01*
X108211904Y-53443142D01*
X108259523Y-53490761D01*
X108354761Y-53538380D01*
X108545238Y-53538380D01*
X108640476Y-53490761D01*
X108688095Y-53443142D01*
X108735714Y-53347904D01*
X108735714Y-53109809D01*
X108688095Y-53014571D01*
X108640476Y-52966952D01*
X108545238Y-52919333D01*
X108354761Y-52919333D01*
X108259523Y-52966952D01*
X108211904Y-53014571D01*
X108164285Y-53109809D01*
X156551333Y-57856380D02*
X156218000Y-57380190D01*
X155979904Y-57856380D02*
X155979904Y-56856380D01*
X156360857Y-56856380D01*
X156456095Y-56904000D01*
X156503714Y-56951619D01*
X156551333Y-57046857D01*
X156551333Y-57189714D01*
X156503714Y-57284952D01*
X156456095Y-57332571D01*
X156360857Y-57380190D01*
X155979904Y-57380190D01*
X157456095Y-56856380D02*
X156979904Y-56856380D01*
X156932285Y-57332571D01*
X156979904Y-57284952D01*
X157075142Y-57237333D01*
X157313238Y-57237333D01*
X157408476Y-57284952D01*
X157456095Y-57332571D01*
X157503714Y-57427809D01*
X157503714Y-57665904D01*
X157456095Y-57761142D01*
X157408476Y-57808761D01*
X157313238Y-57856380D01*
X157075142Y-57856380D01*
X156979904Y-57808761D01*
X156932285Y-57761142D01*
X156551333Y-54554380D02*
X156218000Y-54078190D01*
X155979904Y-54554380D02*
X155979904Y-53554380D01*
X156360857Y-53554380D01*
X156456095Y-53602000D01*
X156503714Y-53649619D01*
X156551333Y-53744857D01*
X156551333Y-53887714D01*
X156503714Y-53982952D01*
X156456095Y-54030571D01*
X156360857Y-54078190D01*
X155979904Y-54078190D01*
X157408476Y-53887714D02*
X157408476Y-54554380D01*
X157170380Y-53506761D02*
X156932285Y-54221047D01*
X157551333Y-54221047D01*
X156551333Y-51252380D02*
X156218000Y-50776190D01*
X155979904Y-51252380D02*
X155979904Y-50252380D01*
X156360857Y-50252380D01*
X156456095Y-50300000D01*
X156503714Y-50347619D01*
X156551333Y-50442857D01*
X156551333Y-50585714D01*
X156503714Y-50680952D01*
X156456095Y-50728571D01*
X156360857Y-50776190D01*
X155979904Y-50776190D01*
X156884666Y-50252380D02*
X157503714Y-50252380D01*
X157170380Y-50633333D01*
X157313238Y-50633333D01*
X157408476Y-50680952D01*
X157456095Y-50728571D01*
X157503714Y-50823809D01*
X157503714Y-51061904D01*
X157456095Y-51157142D01*
X157408476Y-51204761D01*
X157313238Y-51252380D01*
X157027523Y-51252380D01*
X156932285Y-51204761D01*
X156884666Y-51157142D01*
X156424333Y-47696380D02*
X156091000Y-47220190D01*
X155852904Y-47696380D02*
X155852904Y-46696380D01*
X156233857Y-46696380D01*
X156329095Y-46744000D01*
X156376714Y-46791619D01*
X156424333Y-46886857D01*
X156424333Y-47029714D01*
X156376714Y-47124952D01*
X156329095Y-47172571D01*
X156233857Y-47220190D01*
X155852904Y-47220190D01*
X156805285Y-46791619D02*
X156852904Y-46744000D01*
X156948142Y-46696380D01*
X157186238Y-46696380D01*
X157281476Y-46744000D01*
X157329095Y-46791619D01*
X157376714Y-46886857D01*
X157376714Y-46982095D01*
X157329095Y-47124952D01*
X156757666Y-47696380D01*
X157376714Y-47696380D01*
X156297333Y-44648380D02*
X155964000Y-44172190D01*
X155725904Y-44648380D02*
X155725904Y-43648380D01*
X156106857Y-43648380D01*
X156202095Y-43696000D01*
X156249714Y-43743619D01*
X156297333Y-43838857D01*
X156297333Y-43981714D01*
X156249714Y-44076952D01*
X156202095Y-44124571D01*
X156106857Y-44172190D01*
X155725904Y-44172190D01*
X157249714Y-44648380D02*
X156678285Y-44648380D01*
X156964000Y-44648380D02*
X156964000Y-43648380D01*
X156868761Y-43791238D01*
X156773523Y-43886476D01*
X156678285Y-43934095D01*
X52530476Y-55332380D02*
X52530476Y-56046666D01*
X52482857Y-56189523D01*
X52387619Y-56284761D01*
X52244761Y-56332380D01*
X52149523Y-56332380D01*
X53530476Y-56332380D02*
X52959047Y-56332380D01*
X53244761Y-56332380D02*
X53244761Y-55332380D01*
X53149523Y-55475238D01*
X53054285Y-55570476D01*
X52959047Y-55618095D01*
X54482857Y-56332380D02*
X53911428Y-56332380D01*
X54197142Y-56332380D02*
X54197142Y-55332380D01*
X54101904Y-55475238D01*
X54006666Y-55570476D01*
X53911428Y-55618095D01*
X51197142Y-61064857D02*
X51882857Y-61064857D01*
X51540000Y-62264857D02*
X51540000Y-61064857D01*
X52282857Y-61064857D02*
X52282857Y-62036285D01*
X52340000Y-62150571D01*
X52397142Y-62207714D01*
X52511428Y-62264857D01*
X52740000Y-62264857D01*
X52854285Y-62207714D01*
X52911428Y-62150571D01*
X52968571Y-62036285D01*
X52968571Y-61064857D01*
X53540000Y-62264857D02*
X53540000Y-61064857D01*
X54225714Y-62264857D01*
X54225714Y-61064857D01*
X54797142Y-61636285D02*
X55197142Y-61636285D01*
X55368571Y-62264857D02*
X54797142Y-62264857D01*
X54797142Y-61064857D01*
X55368571Y-61064857D01*
X37513142Y-72818571D02*
X37456000Y-72875714D01*
X37284571Y-72932857D01*
X37170285Y-72932857D01*
X36998857Y-72875714D01*
X36884571Y-72761428D01*
X36827428Y-72647142D01*
X36770285Y-72418571D01*
X36770285Y-72247142D01*
X36827428Y-72018571D01*
X36884571Y-71904285D01*
X36998857Y-71790000D01*
X37170285Y-71732857D01*
X37284571Y-71732857D01*
X37456000Y-71790000D01*
X37513142Y-71847142D01*
X38027428Y-72932857D02*
X38027428Y-71732857D01*
X38713142Y-72932857D01*
X38713142Y-71732857D01*
X39170285Y-71732857D02*
X39970285Y-72932857D01*
X39970285Y-71732857D02*
X39170285Y-72932857D01*
X41913142Y-72932857D02*
X41341714Y-72932857D01*
X41341714Y-71732857D01*
X42256000Y-72590000D02*
X42827428Y-72590000D01*
X42141714Y-72932857D02*
X42541714Y-71732857D01*
X42941714Y-72932857D01*
X43341714Y-72932857D02*
X43341714Y-71732857D01*
X43741714Y-72590000D01*
X44141714Y-71732857D01*
X44141714Y-72932857D01*
X44713142Y-72932857D02*
X44713142Y-71732857D01*
X45170285Y-71732857D01*
X45284571Y-71790000D01*
X45341714Y-71847142D01*
X45398857Y-71961428D01*
X45398857Y-72132857D01*
X45341714Y-72247142D01*
X45284571Y-72304285D01*
X45170285Y-72361428D01*
X44713142Y-72361428D01*
X45856000Y-72875714D02*
X46027428Y-72932857D01*
X46313142Y-72932857D01*
X46427428Y-72875714D01*
X46484571Y-72818571D01*
X46541714Y-72704285D01*
X46541714Y-72590000D01*
X46484571Y-72475714D01*
X46427428Y-72418571D01*
X46313142Y-72361428D01*
X46084571Y-72304285D01*
X45970285Y-72247142D01*
X45913142Y-72190000D01*
X45856000Y-72075714D01*
X45856000Y-71961428D01*
X45913142Y-71847142D01*
X45970285Y-71790000D01*
X46084571Y-71732857D01*
X46370285Y-71732857D01*
X46541714Y-71790000D01*
X40052666Y-94956380D02*
X40052666Y-95670666D01*
X40005047Y-95813523D01*
X39909809Y-95908761D01*
X39766952Y-95956380D01*
X39671714Y-95956380D01*
X40671714Y-95384952D02*
X40576476Y-95337333D01*
X40528857Y-95289714D01*
X40481238Y-95194476D01*
X40481238Y-95146857D01*
X40528857Y-95051619D01*
X40576476Y-95004000D01*
X40671714Y-94956380D01*
X40862190Y-94956380D01*
X40957428Y-95004000D01*
X41005047Y-95051619D01*
X41052666Y-95146857D01*
X41052666Y-95194476D01*
X41005047Y-95289714D01*
X40957428Y-95337333D01*
X40862190Y-95384952D01*
X40671714Y-95384952D01*
X40576476Y-95432571D01*
X40528857Y-95480190D01*
X40481238Y-95575428D01*
X40481238Y-95765904D01*
X40528857Y-95861142D01*
X40576476Y-95908761D01*
X40671714Y-95956380D01*
X40862190Y-95956380D01*
X40957428Y-95908761D01*
X41005047Y-95861142D01*
X41052666Y-95765904D01*
X41052666Y-95575428D01*
X41005047Y-95480190D01*
X40957428Y-95432571D01*
X40862190Y-95384952D01*
X36741714Y-103666857D02*
X36741714Y-102466857D01*
X37427428Y-103666857D01*
X37427428Y-102466857D01*
X37998857Y-103038285D02*
X38398857Y-103038285D01*
X38570285Y-103666857D02*
X37998857Y-103666857D01*
X37998857Y-102466857D01*
X38570285Y-102466857D01*
X38970285Y-102466857D02*
X39770285Y-103666857D01*
X39770285Y-102466857D02*
X38970285Y-103666857D01*
X40056000Y-102466857D02*
X40741714Y-102466857D01*
X40398857Y-103666857D02*
X40398857Y-102466857D01*
X40856000Y-103781142D02*
X41770285Y-103781142D01*
X41998857Y-103324000D02*
X42570285Y-103324000D01*
X41884571Y-103666857D02*
X42284571Y-102466857D01*
X42684571Y-103666857D01*
X43713142Y-102524000D02*
X43598857Y-102466857D01*
X43427428Y-102466857D01*
X43256000Y-102524000D01*
X43141714Y-102638285D01*
X43084571Y-102752571D01*
X43027428Y-102981142D01*
X43027428Y-103152571D01*
X43084571Y-103381142D01*
X43141714Y-103495428D01*
X43256000Y-103609714D01*
X43427428Y-103666857D01*
X43541714Y-103666857D01*
X43713142Y-103609714D01*
X43770285Y-103552571D01*
X43770285Y-103152571D01*
X43541714Y-103152571D01*
X44227428Y-103324000D02*
X44798857Y-103324000D01*
X44113142Y-103666857D02*
X44513142Y-102466857D01*
X44913142Y-103666857D01*
X45313142Y-103666857D02*
X45313142Y-102466857D01*
X45884571Y-103666857D02*
X45884571Y-102466857D01*
X46570285Y-103666857D01*
X46570285Y-102466857D01*
X45045333Y-56745142D02*
X44997714Y-56792761D01*
X44854857Y-56840380D01*
X44759619Y-56840380D01*
X44616761Y-56792761D01*
X44521523Y-56697523D01*
X44473904Y-56602285D01*
X44426285Y-56411809D01*
X44426285Y-56268952D01*
X44473904Y-56078476D01*
X44521523Y-55983238D01*
X44616761Y-55888000D01*
X44759619Y-55840380D01*
X44854857Y-55840380D01*
X44997714Y-55888000D01*
X45045333Y-55935619D01*
X45902476Y-55840380D02*
X45712000Y-55840380D01*
X45616761Y-55888000D01*
X45569142Y-55935619D01*
X45473904Y-56078476D01*
X45426285Y-56268952D01*
X45426285Y-56649904D01*
X45473904Y-56745142D01*
X45521523Y-56792761D01*
X45616761Y-56840380D01*
X45807238Y-56840380D01*
X45902476Y-56792761D01*
X45950095Y-56745142D01*
X45997714Y-56649904D01*
X45997714Y-56411809D01*
X45950095Y-56316571D01*
X45902476Y-56268952D01*
X45807238Y-56221333D01*
X45616761Y-56221333D01*
X45521523Y-56268952D01*
X45473904Y-56316571D01*
X45426285Y-56411809D01*
X69683333Y-55983142D02*
X69635714Y-56030761D01*
X69492857Y-56078380D01*
X69397619Y-56078380D01*
X69254761Y-56030761D01*
X69159523Y-55935523D01*
X69111904Y-55840285D01*
X69064285Y-55649809D01*
X69064285Y-55506952D01*
X69111904Y-55316476D01*
X69159523Y-55221238D01*
X69254761Y-55126000D01*
X69397619Y-55078380D01*
X69492857Y-55078380D01*
X69635714Y-55126000D01*
X69683333Y-55173619D01*
X70588095Y-55078380D02*
X70111904Y-55078380D01*
X70064285Y-55554571D01*
X70111904Y-55506952D01*
X70207142Y-55459333D01*
X70445238Y-55459333D01*
X70540476Y-55506952D01*
X70588095Y-55554571D01*
X70635714Y-55649809D01*
X70635714Y-55887904D01*
X70588095Y-55983142D01*
X70540476Y-56030761D01*
X70445238Y-56078380D01*
X70207142Y-56078380D01*
X70111904Y-56030761D01*
X70064285Y-55983142D01*
X64349333Y-85955142D02*
X64301714Y-86002761D01*
X64158857Y-86050380D01*
X64063619Y-86050380D01*
X63920761Y-86002761D01*
X63825523Y-85907523D01*
X63777904Y-85812285D01*
X63730285Y-85621809D01*
X63730285Y-85478952D01*
X63777904Y-85288476D01*
X63825523Y-85193238D01*
X63920761Y-85098000D01*
X64063619Y-85050380D01*
X64158857Y-85050380D01*
X64301714Y-85098000D01*
X64349333Y-85145619D01*
X64682666Y-85050380D02*
X65301714Y-85050380D01*
X64968380Y-85431333D01*
X65111238Y-85431333D01*
X65206476Y-85478952D01*
X65254095Y-85526571D01*
X65301714Y-85621809D01*
X65301714Y-85859904D01*
X65254095Y-85955142D01*
X65206476Y-86002761D01*
X65111238Y-86050380D01*
X64825523Y-86050380D01*
X64730285Y-86002761D01*
X64682666Y-85955142D01*
X50847333Y-129897142D02*
X50799714Y-129944761D01*
X50656857Y-129992380D01*
X50561619Y-129992380D01*
X50418761Y-129944761D01*
X50323523Y-129849523D01*
X50275904Y-129754285D01*
X50228285Y-129563809D01*
X50228285Y-129420952D01*
X50275904Y-129230476D01*
X50323523Y-129135238D01*
X50418761Y-129040000D01*
X50561619Y-128992380D01*
X50656857Y-128992380D01*
X50799714Y-129040000D01*
X50847333Y-129087619D01*
X51228285Y-129087619D02*
X51275904Y-129040000D01*
X51371142Y-128992380D01*
X51609238Y-128992380D01*
X51704476Y-129040000D01*
X51752095Y-129087619D01*
X51799714Y-129182857D01*
X51799714Y-129278095D01*
X51752095Y-129420952D01*
X51180666Y-129992380D01*
X51799714Y-129992380D01*
X50633333Y-110085142D02*
X50585714Y-110132761D01*
X50442857Y-110180380D01*
X50347619Y-110180380D01*
X50204761Y-110132761D01*
X50109523Y-110037523D01*
X50061904Y-109942285D01*
X50014285Y-109751809D01*
X50014285Y-109608952D01*
X50061904Y-109418476D01*
X50109523Y-109323238D01*
X50204761Y-109228000D01*
X50347619Y-109180380D01*
X50442857Y-109180380D01*
X50585714Y-109228000D01*
X50633333Y-109275619D01*
X51585714Y-110180380D02*
X51014285Y-110180380D01*
X51300000Y-110180380D02*
X51300000Y-109180380D01*
X51204761Y-109323238D01*
X51109523Y-109418476D01*
X51014285Y-109466095D01*
%LPC*%
D13*
X62484000Y-49022000D03*
X64008000Y-124714000D03*
X167132000Y-126238000D03*
X192786000Y-44450000D03*
D14*
X170180000Y-44450000D03*
D15*
X170180000Y-59690000D03*
D14*
X151638000Y-110090000D03*
D15*
X151638000Y-85090000D03*
D16*
X91795600Y-57912000D03*
X91795600Y-60452000D03*
X91795600Y-62992000D03*
D17*
X91795600Y-65532000D03*
D16*
X140081000Y-52349400D03*
X140081000Y-54889400D03*
X140081000Y-57429400D03*
X140081000Y-59969400D03*
X140081000Y-62509400D03*
D17*
X140081000Y-65049400D03*
D18*
X154940000Y-121412000D03*
D19*
X149860000Y-121412000D03*
D20*
X195580000Y-86360000D03*
X195580000Y-101600000D03*
X195580000Y-93980000D03*
X91795600Y-41148000D03*
X163830000Y-115062000D03*
X163830000Y-93218000D03*
D21*
X165100000Y-109220000D03*
X162560000Y-109220000D03*
X165100000Y-106680000D03*
X162560000Y-106680000D03*
X165100000Y-104140000D03*
X162560000Y-104140000D03*
X165100000Y-101600000D03*
X162560000Y-101600000D03*
X165100000Y-99060000D03*
D22*
X162560000Y-99060000D03*
D23*
X177038000Y-46736000D03*
X179578000Y-46736000D03*
D24*
X177038000Y-44196000D03*
X179578000Y-44196000D03*
D23*
X150622000Y-78486000D03*
X153162000Y-78486000D03*
D24*
X150622000Y-75946000D03*
X153162000Y-75946000D03*
D20*
X189992000Y-73326000D03*
D25*
X189992000Y-68326000D03*
D18*
X80645000Y-123825000D03*
D19*
X75565000Y-123825000D03*
D26*
X63714000Y-41402000D03*
D11*
G36*
X61875975Y-40352276D02*
G01*
X61901699Y-40356092D01*
X61926925Y-40362411D01*
X61951411Y-40371172D01*
X61974920Y-40382291D01*
X61997226Y-40395661D01*
X62018114Y-40411152D01*
X62037383Y-40428617D01*
X62054848Y-40447886D01*
X62070339Y-40468774D01*
X62083709Y-40491080D01*
X62094828Y-40514589D01*
X62103589Y-40539075D01*
X62109908Y-40564301D01*
X62113724Y-40590025D01*
X62115000Y-40616000D01*
X62115000Y-42188000D01*
X62113724Y-42213975D01*
X62109908Y-42239699D01*
X62103589Y-42264925D01*
X62094828Y-42289411D01*
X62083709Y-42312920D01*
X62070339Y-42335226D01*
X62054848Y-42356114D01*
X62037383Y-42375383D01*
X62018114Y-42392848D01*
X61997226Y-42408339D01*
X61974920Y-42421709D01*
X61951411Y-42432828D01*
X61926925Y-42441589D01*
X61901699Y-42447908D01*
X61875975Y-42451724D01*
X61850000Y-42453000D01*
X60578000Y-42453000D01*
X60552025Y-42451724D01*
X60526301Y-42447908D01*
X60501075Y-42441589D01*
X60476589Y-42432828D01*
X60453080Y-42421709D01*
X60430774Y-42408339D01*
X60409886Y-42392848D01*
X60390617Y-42375383D01*
X60373152Y-42356114D01*
X60357661Y-42335226D01*
X60344291Y-42312920D01*
X60333172Y-42289411D01*
X60324411Y-42264925D01*
X60318092Y-42239699D01*
X60314276Y-42213975D01*
X60313000Y-42188000D01*
X60313000Y-40616000D01*
X60314276Y-40590025D01*
X60318092Y-40564301D01*
X60324411Y-40539075D01*
X60333172Y-40514589D01*
X60344291Y-40491080D01*
X60357661Y-40468774D01*
X60373152Y-40447886D01*
X60390617Y-40428617D01*
X60409886Y-40411152D01*
X60430774Y-40395661D01*
X60453080Y-40382291D01*
X60476589Y-40371172D01*
X60501075Y-40362411D01*
X60526301Y-40356092D01*
X60552025Y-40352276D01*
X60578000Y-40351000D01*
X61850000Y-40351000D01*
X61875975Y-40352276D01*
G37*
D27*
X100704000Y-65024000D03*
X103204000Y-65024000D03*
X105704000Y-65024000D03*
D11*
G36*
X108865975Y-63999276D02*
G01*
X108891699Y-64003092D01*
X108916925Y-64009411D01*
X108941411Y-64018172D01*
X108964920Y-64029291D01*
X108987226Y-64042661D01*
X109008114Y-64058152D01*
X109027383Y-64075617D01*
X109044848Y-64094886D01*
X109060339Y-64115774D01*
X109073709Y-64138080D01*
X109084828Y-64161589D01*
X109093589Y-64186075D01*
X109099908Y-64211301D01*
X109103724Y-64237025D01*
X109105000Y-64263000D01*
X109105000Y-65785000D01*
X109103724Y-65810975D01*
X109099908Y-65836699D01*
X109093589Y-65861925D01*
X109084828Y-65886411D01*
X109073709Y-65909920D01*
X109060339Y-65932226D01*
X109044848Y-65953114D01*
X109027383Y-65972383D01*
X109008114Y-65989848D01*
X108987226Y-66005339D01*
X108964920Y-66018709D01*
X108941411Y-66029828D01*
X108916925Y-66038589D01*
X108891699Y-66044908D01*
X108865975Y-66048724D01*
X108840000Y-66050000D01*
X107568000Y-66050000D01*
X107542025Y-66048724D01*
X107516301Y-66044908D01*
X107491075Y-66038589D01*
X107466589Y-66029828D01*
X107443080Y-66018709D01*
X107420774Y-66005339D01*
X107399886Y-65989848D01*
X107380617Y-65972383D01*
X107363152Y-65953114D01*
X107347661Y-65932226D01*
X107334291Y-65909920D01*
X107323172Y-65886411D01*
X107314411Y-65861925D01*
X107308092Y-65836699D01*
X107304276Y-65810975D01*
X107303000Y-65785000D01*
X107303000Y-64263000D01*
X107304276Y-64237025D01*
X107308092Y-64211301D01*
X107314411Y-64186075D01*
X107323172Y-64161589D01*
X107334291Y-64138080D01*
X107347661Y-64115774D01*
X107363152Y-64094886D01*
X107380617Y-64075617D01*
X107399886Y-64058152D01*
X107420774Y-64042661D01*
X107443080Y-64029291D01*
X107466589Y-64018172D01*
X107491075Y-64009411D01*
X107516301Y-64003092D01*
X107542025Y-63999276D01*
X107568000Y-63998000D01*
X108840000Y-63998000D01*
X108865975Y-63999276D01*
G37*
D27*
X74796000Y-67056000D03*
X77296000Y-67056000D03*
X79796000Y-67056000D03*
D11*
G36*
X82957975Y-66031276D02*
G01*
X82983699Y-66035092D01*
X83008925Y-66041411D01*
X83033411Y-66050172D01*
X83056920Y-66061291D01*
X83079226Y-66074661D01*
X83100114Y-66090152D01*
X83119383Y-66107617D01*
X83136848Y-66126886D01*
X83152339Y-66147774D01*
X83165709Y-66170080D01*
X83176828Y-66193589D01*
X83185589Y-66218075D01*
X83191908Y-66243301D01*
X83195724Y-66269025D01*
X83197000Y-66295000D01*
X83197000Y-67817000D01*
X83195724Y-67842975D01*
X83191908Y-67868699D01*
X83185589Y-67893925D01*
X83176828Y-67918411D01*
X83165709Y-67941920D01*
X83152339Y-67964226D01*
X83136848Y-67985114D01*
X83119383Y-68004383D01*
X83100114Y-68021848D01*
X83079226Y-68037339D01*
X83056920Y-68050709D01*
X83033411Y-68061828D01*
X83008925Y-68070589D01*
X82983699Y-68076908D01*
X82957975Y-68080724D01*
X82932000Y-68082000D01*
X81660000Y-68082000D01*
X81634025Y-68080724D01*
X81608301Y-68076908D01*
X81583075Y-68070589D01*
X81558589Y-68061828D01*
X81535080Y-68050709D01*
X81512774Y-68037339D01*
X81491886Y-68021848D01*
X81472617Y-68004383D01*
X81455152Y-67985114D01*
X81439661Y-67964226D01*
X81426291Y-67941920D01*
X81415172Y-67918411D01*
X81406411Y-67893925D01*
X81400092Y-67868699D01*
X81396276Y-67842975D01*
X81395000Y-67817000D01*
X81395000Y-66295000D01*
X81396276Y-66269025D01*
X81400092Y-66243301D01*
X81406411Y-66218075D01*
X81415172Y-66193589D01*
X81426291Y-66170080D01*
X81439661Y-66147774D01*
X81455152Y-66126886D01*
X81472617Y-66107617D01*
X81491886Y-66090152D01*
X81512774Y-66074661D01*
X81535080Y-66061291D01*
X81558589Y-66050172D01*
X81583075Y-66041411D01*
X81608301Y-66035092D01*
X81634025Y-66031276D01*
X81660000Y-66030000D01*
X82932000Y-66030000D01*
X82957975Y-66031276D01*
G37*
D28*
X194056000Y-59570000D03*
X194056000Y-57070000D03*
X194056000Y-54570000D03*
D11*
G36*
X194842975Y-51170276D02*
G01*
X194868699Y-51174092D01*
X194893925Y-51180411D01*
X194918411Y-51189172D01*
X194941920Y-51200291D01*
X194964226Y-51213661D01*
X194985114Y-51229152D01*
X195004383Y-51246617D01*
X195021848Y-51265886D01*
X195037339Y-51286774D01*
X195050709Y-51309080D01*
X195061828Y-51332589D01*
X195070589Y-51357075D01*
X195076908Y-51382301D01*
X195080724Y-51408025D01*
X195082000Y-51434000D01*
X195082000Y-52706000D01*
X195080724Y-52731975D01*
X195076908Y-52757699D01*
X195070589Y-52782925D01*
X195061828Y-52807411D01*
X195050709Y-52830920D01*
X195037339Y-52853226D01*
X195021848Y-52874114D01*
X195004383Y-52893383D01*
X194985114Y-52910848D01*
X194964226Y-52926339D01*
X194941920Y-52939709D01*
X194918411Y-52950828D01*
X194893925Y-52959589D01*
X194868699Y-52965908D01*
X194842975Y-52969724D01*
X194817000Y-52971000D01*
X193295000Y-52971000D01*
X193269025Y-52969724D01*
X193243301Y-52965908D01*
X193218075Y-52959589D01*
X193193589Y-52950828D01*
X193170080Y-52939709D01*
X193147774Y-52926339D01*
X193126886Y-52910848D01*
X193107617Y-52893383D01*
X193090152Y-52874114D01*
X193074661Y-52853226D01*
X193061291Y-52830920D01*
X193050172Y-52807411D01*
X193041411Y-52782925D01*
X193035092Y-52757699D01*
X193031276Y-52731975D01*
X193030000Y-52706000D01*
X193030000Y-51434000D01*
X193031276Y-51408025D01*
X193035092Y-51382301D01*
X193041411Y-51357075D01*
X193050172Y-51332589D01*
X193061291Y-51309080D01*
X193074661Y-51286774D01*
X193090152Y-51265886D01*
X193107617Y-51246617D01*
X193126886Y-51229152D01*
X193147774Y-51213661D01*
X193170080Y-51200291D01*
X193193589Y-51189172D01*
X193218075Y-51180411D01*
X193243301Y-51174092D01*
X193269025Y-51170276D01*
X193295000Y-51169000D01*
X194817000Y-51169000D01*
X194842975Y-51170276D01*
G37*
D29*
X118288000Y-62960000D03*
D27*
X132388000Y-60960000D03*
X129888000Y-60960000D03*
X127388000Y-60960000D03*
X124888000Y-60960000D03*
X122388000Y-60960000D03*
D11*
G36*
X120549975Y-59935276D02*
G01*
X120575699Y-59939092D01*
X120600925Y-59945411D01*
X120625411Y-59954172D01*
X120648920Y-59965291D01*
X120671226Y-59978661D01*
X120692114Y-59994152D01*
X120711383Y-60011617D01*
X120728848Y-60030886D01*
X120744339Y-60051774D01*
X120757709Y-60074080D01*
X120768828Y-60097589D01*
X120777589Y-60122075D01*
X120783908Y-60147301D01*
X120787724Y-60173025D01*
X120789000Y-60199000D01*
X120789000Y-61721000D01*
X120787724Y-61746975D01*
X120783908Y-61772699D01*
X120777589Y-61797925D01*
X120768828Y-61822411D01*
X120757709Y-61845920D01*
X120744339Y-61868226D01*
X120728848Y-61889114D01*
X120711383Y-61908383D01*
X120692114Y-61925848D01*
X120671226Y-61941339D01*
X120648920Y-61954709D01*
X120625411Y-61965828D01*
X120600925Y-61974589D01*
X120575699Y-61980908D01*
X120549975Y-61984724D01*
X120524000Y-61986000D01*
X119252000Y-61986000D01*
X119226025Y-61984724D01*
X119200301Y-61980908D01*
X119175075Y-61974589D01*
X119150589Y-61965828D01*
X119127080Y-61954709D01*
X119104774Y-61941339D01*
X119083886Y-61925848D01*
X119064617Y-61908383D01*
X119047152Y-61889114D01*
X119031661Y-61868226D01*
X119018291Y-61845920D01*
X119007172Y-61822411D01*
X118998411Y-61797925D01*
X118992092Y-61772699D01*
X118988276Y-61746975D01*
X118987000Y-61721000D01*
X118987000Y-60199000D01*
X118988276Y-60173025D01*
X118992092Y-60147301D01*
X118998411Y-60122075D01*
X119007172Y-60097589D01*
X119018291Y-60074080D01*
X119031661Y-60051774D01*
X119047152Y-60030886D01*
X119064617Y-60011617D01*
X119083886Y-59994152D01*
X119104774Y-59978661D01*
X119127080Y-59965291D01*
X119150589Y-59954172D01*
X119175075Y-59945411D01*
X119200301Y-59939092D01*
X119226025Y-59935276D01*
X119252000Y-59934000D01*
X120524000Y-59934000D01*
X120549975Y-59935276D01*
G37*
D29*
X82332000Y-80550000D03*
D27*
X75732000Y-82550000D03*
X78232000Y-82550000D03*
D11*
G36*
X81393975Y-81525276D02*
G01*
X81419699Y-81529092D01*
X81444925Y-81535411D01*
X81469411Y-81544172D01*
X81492920Y-81555291D01*
X81515226Y-81568661D01*
X81536114Y-81584152D01*
X81555383Y-81601617D01*
X81572848Y-81620886D01*
X81588339Y-81641774D01*
X81601709Y-81664080D01*
X81612828Y-81687589D01*
X81621589Y-81712075D01*
X81627908Y-81737301D01*
X81631724Y-81763025D01*
X81633000Y-81789000D01*
X81633000Y-83311000D01*
X81631724Y-83336975D01*
X81627908Y-83362699D01*
X81621589Y-83387925D01*
X81612828Y-83412411D01*
X81601709Y-83435920D01*
X81588339Y-83458226D01*
X81572848Y-83479114D01*
X81555383Y-83498383D01*
X81536114Y-83515848D01*
X81515226Y-83531339D01*
X81492920Y-83544709D01*
X81469411Y-83555828D01*
X81444925Y-83564589D01*
X81419699Y-83570908D01*
X81393975Y-83574724D01*
X81368000Y-83576000D01*
X80096000Y-83576000D01*
X80070025Y-83574724D01*
X80044301Y-83570908D01*
X80019075Y-83564589D01*
X79994589Y-83555828D01*
X79971080Y-83544709D01*
X79948774Y-83531339D01*
X79927886Y-83515848D01*
X79908617Y-83498383D01*
X79891152Y-83479114D01*
X79875661Y-83458226D01*
X79862291Y-83435920D01*
X79851172Y-83412411D01*
X79842411Y-83387925D01*
X79836092Y-83362699D01*
X79832276Y-83336975D01*
X79831000Y-83311000D01*
X79831000Y-81789000D01*
X79832276Y-81763025D01*
X79836092Y-81737301D01*
X79842411Y-81712075D01*
X79851172Y-81687589D01*
X79862291Y-81664080D01*
X79875661Y-81641774D01*
X79891152Y-81620886D01*
X79908617Y-81601617D01*
X79927886Y-81584152D01*
X79948774Y-81568661D01*
X79971080Y-81555291D01*
X79994589Y-81544172D01*
X80019075Y-81535411D01*
X80044301Y-81529092D01*
X80070025Y-81525276D01*
X80096000Y-81524000D01*
X81368000Y-81524000D01*
X81393975Y-81525276D01*
G37*
D14*
X168910000Y-73914000D03*
D15*
X179070000Y-73914000D03*
D14*
X178816000Y-68072000D03*
D15*
X168656000Y-68072000D03*
D30*
X44450000Y-50038000D03*
X46990000Y-50038000D03*
D31*
X49530000Y-50038000D03*
D30*
X75184000Y-50038000D03*
X77724000Y-50038000D03*
D31*
X80264000Y-50038000D03*
D32*
X67818000Y-102362000D03*
X60198000Y-117602000D03*
X67818000Y-104902000D03*
X60198000Y-115062000D03*
X67818000Y-107442000D03*
X60198000Y-112522000D03*
X67818000Y-109982000D03*
X60198000Y-109982000D03*
X67818000Y-112522000D03*
X60198000Y-107442000D03*
X67818000Y-115062000D03*
X60198000Y-104902000D03*
X67818000Y-117602000D03*
D33*
X60198000Y-102362000D03*
D14*
X185928000Y-52070000D03*
X185928000Y-54610000D03*
X185928000Y-57150000D03*
X185928000Y-59690000D03*
D34*
X185928000Y-62230000D03*
D14*
X58928000Y-74168000D03*
D15*
X58928000Y-64008000D03*
D14*
X65532000Y-74168000D03*
D15*
X65532000Y-64008000D03*
D14*
X49276000Y-112268000D03*
D15*
X49276000Y-122428000D03*
D14*
X53086000Y-112268000D03*
D15*
X53086000Y-122428000D03*
D14*
X110236000Y-55372000D03*
D15*
X100076000Y-55372000D03*
D14*
X151638000Y-56642000D03*
D15*
X161798000Y-56642000D03*
D14*
X151638000Y-53340000D03*
D15*
X161798000Y-53340000D03*
D14*
X151638000Y-50038000D03*
D15*
X161798000Y-50038000D03*
D14*
X151638000Y-46736000D03*
D15*
X161798000Y-46736000D03*
D14*
X151638000Y-43434000D03*
D15*
X161798000Y-43434000D03*
D16*
X152908000Y-67310000D03*
D17*
X150368000Y-67310000D03*
D16*
X152908000Y-62484000D03*
D17*
X150368000Y-62484000D03*
D27*
X50880000Y-57912000D03*
X53380000Y-57912000D03*
D11*
G36*
X56541975Y-56887276D02*
G01*
X56567699Y-56891092D01*
X56592925Y-56897411D01*
X56617411Y-56906172D01*
X56640920Y-56917291D01*
X56663226Y-56930661D01*
X56684114Y-56946152D01*
X56703383Y-56963617D01*
X56720848Y-56982886D01*
X56736339Y-57003774D01*
X56749709Y-57026080D01*
X56760828Y-57049589D01*
X56769589Y-57074075D01*
X56775908Y-57099301D01*
X56779724Y-57125025D01*
X56781000Y-57151000D01*
X56781000Y-58673000D01*
X56779724Y-58698975D01*
X56775908Y-58724699D01*
X56769589Y-58749925D01*
X56760828Y-58774411D01*
X56749709Y-58797920D01*
X56736339Y-58820226D01*
X56720848Y-58841114D01*
X56703383Y-58860383D01*
X56684114Y-58877848D01*
X56663226Y-58893339D01*
X56640920Y-58906709D01*
X56617411Y-58917828D01*
X56592925Y-58926589D01*
X56567699Y-58932908D01*
X56541975Y-58936724D01*
X56516000Y-58938000D01*
X55244000Y-58938000D01*
X55218025Y-58936724D01*
X55192301Y-58932908D01*
X55167075Y-58926589D01*
X55142589Y-58917828D01*
X55119080Y-58906709D01*
X55096774Y-58893339D01*
X55075886Y-58877848D01*
X55056617Y-58860383D01*
X55039152Y-58841114D01*
X55023661Y-58820226D01*
X55010291Y-58797920D01*
X54999172Y-58774411D01*
X54990411Y-58749925D01*
X54984092Y-58724699D01*
X54980276Y-58698975D01*
X54979000Y-58673000D01*
X54979000Y-57151000D01*
X54980276Y-57125025D01*
X54984092Y-57099301D01*
X54990411Y-57074075D01*
X54999172Y-57049589D01*
X55010291Y-57026080D01*
X55023661Y-57003774D01*
X55039152Y-56982886D01*
X55056617Y-56963617D01*
X55075886Y-56946152D01*
X55096774Y-56930661D01*
X55119080Y-56917291D01*
X55142589Y-56906172D01*
X55167075Y-56897411D01*
X55192301Y-56891092D01*
X55218025Y-56887276D01*
X55244000Y-56886000D01*
X56516000Y-56886000D01*
X56541975Y-56887276D01*
G37*
D23*
X38862000Y-66802000D03*
X38862000Y-69342000D03*
D24*
X41402000Y-66802000D03*
X41402000Y-69342000D03*
D28*
X42164000Y-98980000D03*
X42164000Y-96480000D03*
D11*
G36*
X42950975Y-93080276D02*
G01*
X42976699Y-93084092D01*
X43001925Y-93090411D01*
X43026411Y-93099172D01*
X43049920Y-93110291D01*
X43072226Y-93123661D01*
X43093114Y-93139152D01*
X43112383Y-93156617D01*
X43129848Y-93175886D01*
X43145339Y-93196774D01*
X43158709Y-93219080D01*
X43169828Y-93242589D01*
X43178589Y-93267075D01*
X43184908Y-93292301D01*
X43188724Y-93318025D01*
X43190000Y-93344000D01*
X43190000Y-94616000D01*
X43188724Y-94641975D01*
X43184908Y-94667699D01*
X43178589Y-94692925D01*
X43169828Y-94717411D01*
X43158709Y-94740920D01*
X43145339Y-94763226D01*
X43129848Y-94784114D01*
X43112383Y-94803383D01*
X43093114Y-94820848D01*
X43072226Y-94836339D01*
X43049920Y-94849709D01*
X43026411Y-94860828D01*
X43001925Y-94869589D01*
X42976699Y-94875908D01*
X42950975Y-94879724D01*
X42925000Y-94881000D01*
X41403000Y-94881000D01*
X41377025Y-94879724D01*
X41351301Y-94875908D01*
X41326075Y-94869589D01*
X41301589Y-94860828D01*
X41278080Y-94849709D01*
X41255774Y-94836339D01*
X41234886Y-94820848D01*
X41215617Y-94803383D01*
X41198152Y-94784114D01*
X41182661Y-94763226D01*
X41169291Y-94740920D01*
X41158172Y-94717411D01*
X41149411Y-94692925D01*
X41143092Y-94667699D01*
X41139276Y-94641975D01*
X41138000Y-94616000D01*
X41138000Y-93344000D01*
X41139276Y-93318025D01*
X41143092Y-93292301D01*
X41149411Y-93267075D01*
X41158172Y-93242589D01*
X41169291Y-93219080D01*
X41182661Y-93196774D01*
X41198152Y-93175886D01*
X41215617Y-93156617D01*
X41234886Y-93139152D01*
X41255774Y-93123661D01*
X41278080Y-93110291D01*
X41301589Y-93099172D01*
X41326075Y-93090411D01*
X41351301Y-93084092D01*
X41377025Y-93080276D01*
X41403000Y-93079000D01*
X42925000Y-93079000D01*
X42950975Y-93080276D01*
G37*
D15*
X42632000Y-57404000D03*
D34*
X40132000Y-57404000D03*
D15*
X65532000Y-55158000D03*
D34*
X65532000Y-57658000D03*
D35*
X49530000Y-100024000D03*
D36*
X49530000Y-65024000D03*
D35*
X65640000Y-82550000D03*
D36*
X40640000Y-82550000D03*
D15*
X53514000Y-127254000D03*
X48514000Y-127254000D03*
X48340000Y-107188000D03*
X53340000Y-107188000D03*
D16*
X134980000Y-50340000D03*
X134980000Y-47800000D03*
X132440000Y-50340000D03*
X132440000Y-47800000D03*
X129900000Y-50340000D03*
X129900000Y-47800000D03*
X127360000Y-50340000D03*
X127360000Y-47800000D03*
X124820000Y-50340000D03*
X124820000Y-47800000D03*
X122280000Y-50340000D03*
X122280000Y-47800000D03*
X119740000Y-50340000D03*
X119740000Y-47800000D03*
X117200000Y-50340000D03*
X117200000Y-47800000D03*
X114660000Y-50340000D03*
X114660000Y-47800000D03*
X112120000Y-50340000D03*
X112120000Y-47800000D03*
X109580000Y-50340000D03*
X109580000Y-47800000D03*
X107040000Y-50340000D03*
X107040000Y-47800000D03*
X104500000Y-50340000D03*
X104500000Y-47800000D03*
X101960000Y-50340000D03*
X101960000Y-47800000D03*
X99420000Y-50340000D03*
X99420000Y-47800000D03*
X96880000Y-50340000D03*
X96880000Y-47800000D03*
X94340000Y-50340000D03*
X94340000Y-47800000D03*
X91800000Y-50340000D03*
D17*
X91800000Y-47800000D03*
M02*
