G04 #@! TF.GenerationSoftware,KiCad,Pcbnew,(5.1.5)-3*
G04 #@! TF.CreationDate,2022-04-15T22:29:16+02:00*
G04 #@! TF.ProjectId,Extension Board,45787465-6e73-4696-9f6e-20426f617264,1*
G04 #@! TF.SameCoordinates,Original*
G04 #@! TF.FileFunction,Copper,L2,Bot*
G04 #@! TF.FilePolarity,Positive*
%FSLAX46Y46*%
G04 Gerber Fmt 4.6, Leading zero omitted, Abs format (unit mm)*
G04 Created by KiCad (PCBNEW (5.1.5)-3) date 2022-04-15 22:29:16*
%MOMM*%
%LPD*%
G04 APERTURE LIST*
%ADD10O,1.600000X1.600000*%
%ADD11C,1.600000*%
%ADD12O,1.700000X1.700000*%
%ADD13R,1.700000X1.700000*%
%ADD14C,2.600000*%
%ADD15R,2.600000X2.600000*%
%ADD16C,2.800000*%
%ADD17C,1.800000*%
%ADD18R,1.800000X1.800000*%
%ADD19C,2.000000*%
%ADD20R,2.800000X2.800000*%
%ADD21O,1.700000X2.000000*%
%ADD22C,0.100000*%
%ADD23O,1.700000X1.950000*%
%ADD24O,1.950000X1.700000*%
%ADD25O,1.905000X2.000000*%
%ADD26R,1.905000X2.000000*%
%ADD27O,2.400000X1.600000*%
%ADD28R,2.400000X1.600000*%
%ADD29R,1.600000X1.600000*%
%ADD30O,2.400000X2.400000*%
%ADD31R,2.400000X2.400000*%
%ADD32C,0.800000*%
%ADD33C,0.500000*%
%ADD34C,0.300000*%
G04 APERTURE END LIST*
D10*
X170180000Y-44450000D03*
D11*
X170180000Y-59690000D03*
D10*
X151638000Y-110090000D03*
D11*
X151638000Y-85090000D03*
D12*
X91795600Y-57912000D03*
X91795600Y-60452000D03*
X91795600Y-62992000D03*
D13*
X91795600Y-65532000D03*
D12*
X140081000Y-52349400D03*
X140081000Y-54889400D03*
X140081000Y-57429400D03*
X140081000Y-59969400D03*
X140081000Y-62509400D03*
D13*
X140081000Y-65049400D03*
D14*
X154940000Y-121412000D03*
D15*
X149860000Y-121412000D03*
D16*
X195580000Y-86360000D03*
X195580000Y-101600000D03*
X195580000Y-93980000D03*
X91795600Y-41148000D03*
D17*
X165100000Y-109220000D03*
X162560000Y-109220000D03*
X165100000Y-106680000D03*
X162560000Y-106680000D03*
X165100000Y-104140000D03*
X162560000Y-104140000D03*
X165100000Y-101600000D03*
X162560000Y-101600000D03*
X165100000Y-99060000D03*
D18*
X162560000Y-99060000D03*
D19*
X177038000Y-44196000D03*
X179578000Y-44196000D03*
X150622000Y-75946000D03*
X153162000Y-75946000D03*
D16*
X189992000Y-73326000D03*
D20*
X189992000Y-68326000D03*
D14*
X80645000Y-123825000D03*
D15*
X75565000Y-123825000D03*
D21*
X63714000Y-41402000D03*
G04 #@! TA.AperFunction,ComponentPad*
D22*
G36*
X61838504Y-40403204D02*
G01*
X61862773Y-40406804D01*
X61886571Y-40412765D01*
X61909671Y-40421030D01*
X61931849Y-40431520D01*
X61952893Y-40444133D01*
X61972598Y-40458747D01*
X61990777Y-40475223D01*
X62007253Y-40493402D01*
X62021867Y-40513107D01*
X62034480Y-40534151D01*
X62044970Y-40556329D01*
X62053235Y-40579429D01*
X62059196Y-40603227D01*
X62062796Y-40627496D01*
X62064000Y-40652000D01*
X62064000Y-42152000D01*
X62062796Y-42176504D01*
X62059196Y-42200773D01*
X62053235Y-42224571D01*
X62044970Y-42247671D01*
X62034480Y-42269849D01*
X62021867Y-42290893D01*
X62007253Y-42310598D01*
X61990777Y-42328777D01*
X61972598Y-42345253D01*
X61952893Y-42359867D01*
X61931849Y-42372480D01*
X61909671Y-42382970D01*
X61886571Y-42391235D01*
X61862773Y-42397196D01*
X61838504Y-42400796D01*
X61814000Y-42402000D01*
X60614000Y-42402000D01*
X60589496Y-42400796D01*
X60565227Y-42397196D01*
X60541429Y-42391235D01*
X60518329Y-42382970D01*
X60496151Y-42372480D01*
X60475107Y-42359867D01*
X60455402Y-42345253D01*
X60437223Y-42328777D01*
X60420747Y-42310598D01*
X60406133Y-42290893D01*
X60393520Y-42269849D01*
X60383030Y-42247671D01*
X60374765Y-42224571D01*
X60368804Y-42200773D01*
X60365204Y-42176504D01*
X60364000Y-42152000D01*
X60364000Y-40652000D01*
X60365204Y-40627496D01*
X60368804Y-40603227D01*
X60374765Y-40579429D01*
X60383030Y-40556329D01*
X60393520Y-40534151D01*
X60406133Y-40513107D01*
X60420747Y-40493402D01*
X60437223Y-40475223D01*
X60455402Y-40458747D01*
X60475107Y-40444133D01*
X60496151Y-40431520D01*
X60518329Y-40421030D01*
X60541429Y-40412765D01*
X60565227Y-40406804D01*
X60589496Y-40403204D01*
X60614000Y-40402000D01*
X61814000Y-40402000D01*
X61838504Y-40403204D01*
G37*
G04 #@! TD.AperFunction*
D23*
X100704000Y-65024000D03*
X103204000Y-65024000D03*
X105704000Y-65024000D03*
G04 #@! TA.AperFunction,ComponentPad*
D22*
G36*
X108828504Y-64050204D02*
G01*
X108852773Y-64053804D01*
X108876571Y-64059765D01*
X108899671Y-64068030D01*
X108921849Y-64078520D01*
X108942893Y-64091133D01*
X108962598Y-64105747D01*
X108980777Y-64122223D01*
X108997253Y-64140402D01*
X109011867Y-64160107D01*
X109024480Y-64181151D01*
X109034970Y-64203329D01*
X109043235Y-64226429D01*
X109049196Y-64250227D01*
X109052796Y-64274496D01*
X109054000Y-64299000D01*
X109054000Y-65749000D01*
X109052796Y-65773504D01*
X109049196Y-65797773D01*
X109043235Y-65821571D01*
X109034970Y-65844671D01*
X109024480Y-65866849D01*
X109011867Y-65887893D01*
X108997253Y-65907598D01*
X108980777Y-65925777D01*
X108962598Y-65942253D01*
X108942893Y-65956867D01*
X108921849Y-65969480D01*
X108899671Y-65979970D01*
X108876571Y-65988235D01*
X108852773Y-65994196D01*
X108828504Y-65997796D01*
X108804000Y-65999000D01*
X107604000Y-65999000D01*
X107579496Y-65997796D01*
X107555227Y-65994196D01*
X107531429Y-65988235D01*
X107508329Y-65979970D01*
X107486151Y-65969480D01*
X107465107Y-65956867D01*
X107445402Y-65942253D01*
X107427223Y-65925777D01*
X107410747Y-65907598D01*
X107396133Y-65887893D01*
X107383520Y-65866849D01*
X107373030Y-65844671D01*
X107364765Y-65821571D01*
X107358804Y-65797773D01*
X107355204Y-65773504D01*
X107354000Y-65749000D01*
X107354000Y-64299000D01*
X107355204Y-64274496D01*
X107358804Y-64250227D01*
X107364765Y-64226429D01*
X107373030Y-64203329D01*
X107383520Y-64181151D01*
X107396133Y-64160107D01*
X107410747Y-64140402D01*
X107427223Y-64122223D01*
X107445402Y-64105747D01*
X107465107Y-64091133D01*
X107486151Y-64078520D01*
X107508329Y-64068030D01*
X107531429Y-64059765D01*
X107555227Y-64053804D01*
X107579496Y-64050204D01*
X107604000Y-64049000D01*
X108804000Y-64049000D01*
X108828504Y-64050204D01*
G37*
G04 #@! TD.AperFunction*
D23*
X74796000Y-67056000D03*
X77296000Y-67056000D03*
X79796000Y-67056000D03*
G04 #@! TA.AperFunction,ComponentPad*
D22*
G36*
X82920504Y-66082204D02*
G01*
X82944773Y-66085804D01*
X82968571Y-66091765D01*
X82991671Y-66100030D01*
X83013849Y-66110520D01*
X83034893Y-66123133D01*
X83054598Y-66137747D01*
X83072777Y-66154223D01*
X83089253Y-66172402D01*
X83103867Y-66192107D01*
X83116480Y-66213151D01*
X83126970Y-66235329D01*
X83135235Y-66258429D01*
X83141196Y-66282227D01*
X83144796Y-66306496D01*
X83146000Y-66331000D01*
X83146000Y-67781000D01*
X83144796Y-67805504D01*
X83141196Y-67829773D01*
X83135235Y-67853571D01*
X83126970Y-67876671D01*
X83116480Y-67898849D01*
X83103867Y-67919893D01*
X83089253Y-67939598D01*
X83072777Y-67957777D01*
X83054598Y-67974253D01*
X83034893Y-67988867D01*
X83013849Y-68001480D01*
X82991671Y-68011970D01*
X82968571Y-68020235D01*
X82944773Y-68026196D01*
X82920504Y-68029796D01*
X82896000Y-68031000D01*
X81696000Y-68031000D01*
X81671496Y-68029796D01*
X81647227Y-68026196D01*
X81623429Y-68020235D01*
X81600329Y-68011970D01*
X81578151Y-68001480D01*
X81557107Y-67988867D01*
X81537402Y-67974253D01*
X81519223Y-67957777D01*
X81502747Y-67939598D01*
X81488133Y-67919893D01*
X81475520Y-67898849D01*
X81465030Y-67876671D01*
X81456765Y-67853571D01*
X81450804Y-67829773D01*
X81447204Y-67805504D01*
X81446000Y-67781000D01*
X81446000Y-66331000D01*
X81447204Y-66306496D01*
X81450804Y-66282227D01*
X81456765Y-66258429D01*
X81465030Y-66235329D01*
X81475520Y-66213151D01*
X81488133Y-66192107D01*
X81502747Y-66172402D01*
X81519223Y-66154223D01*
X81537402Y-66137747D01*
X81557107Y-66123133D01*
X81578151Y-66110520D01*
X81600329Y-66100030D01*
X81623429Y-66091765D01*
X81647227Y-66085804D01*
X81671496Y-66082204D01*
X81696000Y-66081000D01*
X82896000Y-66081000D01*
X82920504Y-66082204D01*
G37*
G04 #@! TD.AperFunction*
D24*
X194056000Y-59570000D03*
X194056000Y-57070000D03*
X194056000Y-54570000D03*
G04 #@! TA.AperFunction,ComponentPad*
D22*
G36*
X194805504Y-51221204D02*
G01*
X194829773Y-51224804D01*
X194853571Y-51230765D01*
X194876671Y-51239030D01*
X194898849Y-51249520D01*
X194919893Y-51262133D01*
X194939598Y-51276747D01*
X194957777Y-51293223D01*
X194974253Y-51311402D01*
X194988867Y-51331107D01*
X195001480Y-51352151D01*
X195011970Y-51374329D01*
X195020235Y-51397429D01*
X195026196Y-51421227D01*
X195029796Y-51445496D01*
X195031000Y-51470000D01*
X195031000Y-52670000D01*
X195029796Y-52694504D01*
X195026196Y-52718773D01*
X195020235Y-52742571D01*
X195011970Y-52765671D01*
X195001480Y-52787849D01*
X194988867Y-52808893D01*
X194974253Y-52828598D01*
X194957777Y-52846777D01*
X194939598Y-52863253D01*
X194919893Y-52877867D01*
X194898849Y-52890480D01*
X194876671Y-52900970D01*
X194853571Y-52909235D01*
X194829773Y-52915196D01*
X194805504Y-52918796D01*
X194781000Y-52920000D01*
X193331000Y-52920000D01*
X193306496Y-52918796D01*
X193282227Y-52915196D01*
X193258429Y-52909235D01*
X193235329Y-52900970D01*
X193213151Y-52890480D01*
X193192107Y-52877867D01*
X193172402Y-52863253D01*
X193154223Y-52846777D01*
X193137747Y-52828598D01*
X193123133Y-52808893D01*
X193110520Y-52787849D01*
X193100030Y-52765671D01*
X193091765Y-52742571D01*
X193085804Y-52718773D01*
X193082204Y-52694504D01*
X193081000Y-52670000D01*
X193081000Y-51470000D01*
X193082204Y-51445496D01*
X193085804Y-51421227D01*
X193091765Y-51397429D01*
X193100030Y-51374329D01*
X193110520Y-51352151D01*
X193123133Y-51331107D01*
X193137747Y-51311402D01*
X193154223Y-51293223D01*
X193172402Y-51276747D01*
X193192107Y-51262133D01*
X193213151Y-51249520D01*
X193235329Y-51239030D01*
X193258429Y-51230765D01*
X193282227Y-51224804D01*
X193306496Y-51221204D01*
X193331000Y-51220000D01*
X194781000Y-51220000D01*
X194805504Y-51221204D01*
G37*
G04 #@! TD.AperFunction*
D23*
X132388000Y-60960000D03*
X129888000Y-60960000D03*
X127388000Y-60960000D03*
X124888000Y-60960000D03*
X122388000Y-60960000D03*
G04 #@! TA.AperFunction,ComponentPad*
D22*
G36*
X120512504Y-59986204D02*
G01*
X120536773Y-59989804D01*
X120560571Y-59995765D01*
X120583671Y-60004030D01*
X120605849Y-60014520D01*
X120626893Y-60027133D01*
X120646598Y-60041747D01*
X120664777Y-60058223D01*
X120681253Y-60076402D01*
X120695867Y-60096107D01*
X120708480Y-60117151D01*
X120718970Y-60139329D01*
X120727235Y-60162429D01*
X120733196Y-60186227D01*
X120736796Y-60210496D01*
X120738000Y-60235000D01*
X120738000Y-61685000D01*
X120736796Y-61709504D01*
X120733196Y-61733773D01*
X120727235Y-61757571D01*
X120718970Y-61780671D01*
X120708480Y-61802849D01*
X120695867Y-61823893D01*
X120681253Y-61843598D01*
X120664777Y-61861777D01*
X120646598Y-61878253D01*
X120626893Y-61892867D01*
X120605849Y-61905480D01*
X120583671Y-61915970D01*
X120560571Y-61924235D01*
X120536773Y-61930196D01*
X120512504Y-61933796D01*
X120488000Y-61935000D01*
X119288000Y-61935000D01*
X119263496Y-61933796D01*
X119239227Y-61930196D01*
X119215429Y-61924235D01*
X119192329Y-61915970D01*
X119170151Y-61905480D01*
X119149107Y-61892867D01*
X119129402Y-61878253D01*
X119111223Y-61861777D01*
X119094747Y-61843598D01*
X119080133Y-61823893D01*
X119067520Y-61802849D01*
X119057030Y-61780671D01*
X119048765Y-61757571D01*
X119042804Y-61733773D01*
X119039204Y-61709504D01*
X119038000Y-61685000D01*
X119038000Y-60235000D01*
X119039204Y-60210496D01*
X119042804Y-60186227D01*
X119048765Y-60162429D01*
X119057030Y-60139329D01*
X119067520Y-60117151D01*
X119080133Y-60096107D01*
X119094747Y-60076402D01*
X119111223Y-60058223D01*
X119129402Y-60041747D01*
X119149107Y-60027133D01*
X119170151Y-60014520D01*
X119192329Y-60004030D01*
X119215429Y-59995765D01*
X119239227Y-59989804D01*
X119263496Y-59986204D01*
X119288000Y-59985000D01*
X120488000Y-59985000D01*
X120512504Y-59986204D01*
G37*
G04 #@! TD.AperFunction*
D23*
X75732000Y-82550000D03*
X78232000Y-82550000D03*
G04 #@! TA.AperFunction,ComponentPad*
D22*
G36*
X81356504Y-81576204D02*
G01*
X81380773Y-81579804D01*
X81404571Y-81585765D01*
X81427671Y-81594030D01*
X81449849Y-81604520D01*
X81470893Y-81617133D01*
X81490598Y-81631747D01*
X81508777Y-81648223D01*
X81525253Y-81666402D01*
X81539867Y-81686107D01*
X81552480Y-81707151D01*
X81562970Y-81729329D01*
X81571235Y-81752429D01*
X81577196Y-81776227D01*
X81580796Y-81800496D01*
X81582000Y-81825000D01*
X81582000Y-83275000D01*
X81580796Y-83299504D01*
X81577196Y-83323773D01*
X81571235Y-83347571D01*
X81562970Y-83370671D01*
X81552480Y-83392849D01*
X81539867Y-83413893D01*
X81525253Y-83433598D01*
X81508777Y-83451777D01*
X81490598Y-83468253D01*
X81470893Y-83482867D01*
X81449849Y-83495480D01*
X81427671Y-83505970D01*
X81404571Y-83514235D01*
X81380773Y-83520196D01*
X81356504Y-83523796D01*
X81332000Y-83525000D01*
X80132000Y-83525000D01*
X80107496Y-83523796D01*
X80083227Y-83520196D01*
X80059429Y-83514235D01*
X80036329Y-83505970D01*
X80014151Y-83495480D01*
X79993107Y-83482867D01*
X79973402Y-83468253D01*
X79955223Y-83451777D01*
X79938747Y-83433598D01*
X79924133Y-83413893D01*
X79911520Y-83392849D01*
X79901030Y-83370671D01*
X79892765Y-83347571D01*
X79886804Y-83323773D01*
X79883204Y-83299504D01*
X79882000Y-83275000D01*
X79882000Y-81825000D01*
X79883204Y-81800496D01*
X79886804Y-81776227D01*
X79892765Y-81752429D01*
X79901030Y-81729329D01*
X79911520Y-81707151D01*
X79924133Y-81686107D01*
X79938747Y-81666402D01*
X79955223Y-81648223D01*
X79973402Y-81631747D01*
X79993107Y-81617133D01*
X80014151Y-81604520D01*
X80036329Y-81594030D01*
X80059429Y-81585765D01*
X80083227Y-81579804D01*
X80107496Y-81576204D01*
X80132000Y-81575000D01*
X81332000Y-81575000D01*
X81356504Y-81576204D01*
G37*
G04 #@! TD.AperFunction*
D10*
X168910000Y-73914000D03*
D11*
X179070000Y-73914000D03*
D10*
X178816000Y-68072000D03*
D11*
X168656000Y-68072000D03*
D25*
X44450000Y-50038000D03*
X46990000Y-50038000D03*
D26*
X49530000Y-50038000D03*
D25*
X75184000Y-50038000D03*
X77724000Y-50038000D03*
D26*
X80264000Y-50038000D03*
D27*
X67818000Y-102362000D03*
X60198000Y-117602000D03*
X67818000Y-104902000D03*
X60198000Y-115062000D03*
X67818000Y-107442000D03*
X60198000Y-112522000D03*
X67818000Y-109982000D03*
X60198000Y-109982000D03*
X67818000Y-112522000D03*
X60198000Y-107442000D03*
X67818000Y-115062000D03*
X60198000Y-104902000D03*
X67818000Y-117602000D03*
D28*
X60198000Y-102362000D03*
D10*
X185928000Y-52070000D03*
X185928000Y-54610000D03*
X185928000Y-57150000D03*
X185928000Y-59690000D03*
D29*
X185928000Y-62230000D03*
D10*
X58928000Y-74168000D03*
D11*
X58928000Y-64008000D03*
D10*
X65532000Y-74168000D03*
D11*
X65532000Y-64008000D03*
D10*
X49276000Y-112268000D03*
D11*
X49276000Y-122428000D03*
D10*
X53086000Y-112268000D03*
D11*
X53086000Y-122428000D03*
D10*
X110236000Y-55372000D03*
D11*
X100076000Y-55372000D03*
D10*
X151638000Y-56642000D03*
D11*
X161798000Y-56642000D03*
D10*
X151638000Y-53340000D03*
D11*
X161798000Y-53340000D03*
D10*
X151638000Y-50038000D03*
D11*
X161798000Y-50038000D03*
D10*
X151638000Y-46736000D03*
D11*
X161798000Y-46736000D03*
D10*
X151638000Y-43434000D03*
D11*
X161798000Y-43434000D03*
D12*
X152908000Y-67310000D03*
D13*
X150368000Y-67310000D03*
D12*
X152908000Y-62484000D03*
D13*
X150368000Y-62484000D03*
D23*
X50880000Y-57912000D03*
X53380000Y-57912000D03*
G04 #@! TA.AperFunction,ComponentPad*
D22*
G36*
X56504504Y-56938204D02*
G01*
X56528773Y-56941804D01*
X56552571Y-56947765D01*
X56575671Y-56956030D01*
X56597849Y-56966520D01*
X56618893Y-56979133D01*
X56638598Y-56993747D01*
X56656777Y-57010223D01*
X56673253Y-57028402D01*
X56687867Y-57048107D01*
X56700480Y-57069151D01*
X56710970Y-57091329D01*
X56719235Y-57114429D01*
X56725196Y-57138227D01*
X56728796Y-57162496D01*
X56730000Y-57187000D01*
X56730000Y-58637000D01*
X56728796Y-58661504D01*
X56725196Y-58685773D01*
X56719235Y-58709571D01*
X56710970Y-58732671D01*
X56700480Y-58754849D01*
X56687867Y-58775893D01*
X56673253Y-58795598D01*
X56656777Y-58813777D01*
X56638598Y-58830253D01*
X56618893Y-58844867D01*
X56597849Y-58857480D01*
X56575671Y-58867970D01*
X56552571Y-58876235D01*
X56528773Y-58882196D01*
X56504504Y-58885796D01*
X56480000Y-58887000D01*
X55280000Y-58887000D01*
X55255496Y-58885796D01*
X55231227Y-58882196D01*
X55207429Y-58876235D01*
X55184329Y-58867970D01*
X55162151Y-58857480D01*
X55141107Y-58844867D01*
X55121402Y-58830253D01*
X55103223Y-58813777D01*
X55086747Y-58795598D01*
X55072133Y-58775893D01*
X55059520Y-58754849D01*
X55049030Y-58732671D01*
X55040765Y-58709571D01*
X55034804Y-58685773D01*
X55031204Y-58661504D01*
X55030000Y-58637000D01*
X55030000Y-57187000D01*
X55031204Y-57162496D01*
X55034804Y-57138227D01*
X55040765Y-57114429D01*
X55049030Y-57091329D01*
X55059520Y-57069151D01*
X55072133Y-57048107D01*
X55086747Y-57028402D01*
X55103223Y-57010223D01*
X55121402Y-56993747D01*
X55141107Y-56979133D01*
X55162151Y-56966520D01*
X55184329Y-56956030D01*
X55207429Y-56947765D01*
X55231227Y-56941804D01*
X55255496Y-56938204D01*
X55280000Y-56937000D01*
X56480000Y-56937000D01*
X56504504Y-56938204D01*
G37*
G04 #@! TD.AperFunction*
D19*
X41402000Y-66802000D03*
X41402000Y-69342000D03*
D24*
X42164000Y-98980000D03*
X42164000Y-96480000D03*
G04 #@! TA.AperFunction,ComponentPad*
D22*
G36*
X42913504Y-93131204D02*
G01*
X42937773Y-93134804D01*
X42961571Y-93140765D01*
X42984671Y-93149030D01*
X43006849Y-93159520D01*
X43027893Y-93172133D01*
X43047598Y-93186747D01*
X43065777Y-93203223D01*
X43082253Y-93221402D01*
X43096867Y-93241107D01*
X43109480Y-93262151D01*
X43119970Y-93284329D01*
X43128235Y-93307429D01*
X43134196Y-93331227D01*
X43137796Y-93355496D01*
X43139000Y-93380000D01*
X43139000Y-94580000D01*
X43137796Y-94604504D01*
X43134196Y-94628773D01*
X43128235Y-94652571D01*
X43119970Y-94675671D01*
X43109480Y-94697849D01*
X43096867Y-94718893D01*
X43082253Y-94738598D01*
X43065777Y-94756777D01*
X43047598Y-94773253D01*
X43027893Y-94787867D01*
X43006849Y-94800480D01*
X42984671Y-94810970D01*
X42961571Y-94819235D01*
X42937773Y-94825196D01*
X42913504Y-94828796D01*
X42889000Y-94830000D01*
X41439000Y-94830000D01*
X41414496Y-94828796D01*
X41390227Y-94825196D01*
X41366429Y-94819235D01*
X41343329Y-94810970D01*
X41321151Y-94800480D01*
X41300107Y-94787867D01*
X41280402Y-94773253D01*
X41262223Y-94756777D01*
X41245747Y-94738598D01*
X41231133Y-94718893D01*
X41218520Y-94697849D01*
X41208030Y-94675671D01*
X41199765Y-94652571D01*
X41193804Y-94628773D01*
X41190204Y-94604504D01*
X41189000Y-94580000D01*
X41189000Y-93380000D01*
X41190204Y-93355496D01*
X41193804Y-93331227D01*
X41199765Y-93307429D01*
X41208030Y-93284329D01*
X41218520Y-93262151D01*
X41231133Y-93241107D01*
X41245747Y-93221402D01*
X41262223Y-93203223D01*
X41280402Y-93186747D01*
X41300107Y-93172133D01*
X41321151Y-93159520D01*
X41343329Y-93149030D01*
X41366429Y-93140765D01*
X41390227Y-93134804D01*
X41414496Y-93131204D01*
X41439000Y-93130000D01*
X42889000Y-93130000D01*
X42913504Y-93131204D01*
G37*
G04 #@! TD.AperFunction*
D11*
X42632000Y-57404000D03*
D29*
X40132000Y-57404000D03*
D11*
X65532000Y-55158000D03*
D29*
X65532000Y-57658000D03*
D30*
X49530000Y-100024000D03*
D31*
X49530000Y-65024000D03*
D30*
X65640000Y-82550000D03*
D31*
X40640000Y-82550000D03*
D11*
X53514000Y-127254000D03*
X48514000Y-127254000D03*
X48340000Y-107188000D03*
X53340000Y-107188000D03*
D12*
X134980000Y-50340000D03*
X134980000Y-47800000D03*
X132440000Y-50340000D03*
X132440000Y-47800000D03*
X129900000Y-50340000D03*
X129900000Y-47800000D03*
X127360000Y-50340000D03*
X127360000Y-47800000D03*
X124820000Y-50340000D03*
X124820000Y-47800000D03*
X122280000Y-50340000D03*
X122280000Y-47800000D03*
X119740000Y-50340000D03*
X119740000Y-47800000D03*
X117200000Y-50340000D03*
X117200000Y-47800000D03*
X114660000Y-50340000D03*
X114660000Y-47800000D03*
X112120000Y-50340000D03*
X112120000Y-47800000D03*
X109580000Y-50340000D03*
X109580000Y-47800000D03*
X107040000Y-50340000D03*
X107040000Y-47800000D03*
X104500000Y-50340000D03*
X104500000Y-47800000D03*
X101960000Y-50340000D03*
X101960000Y-47800000D03*
X99420000Y-50340000D03*
X99420000Y-47800000D03*
X96880000Y-50340000D03*
X96880000Y-47800000D03*
X94340000Y-50340000D03*
X94340000Y-47800000D03*
X91800000Y-50340000D03*
D13*
X91800000Y-47800000D03*
D32*
X75184000Y-54102000D03*
X104648000Y-54356000D03*
X73152000Y-97790000D03*
X56896000Y-118618000D03*
X54610000Y-76454000D03*
X166116000Y-62992000D03*
X127254000Y-67564000D03*
X134874000Y-55118000D03*
X49530000Y-94996000D03*
X48514000Y-103886000D03*
X138684000Y-71374000D03*
X78994000Y-75438000D03*
X74422000Y-44450000D03*
X46990000Y-53086000D03*
X100584000Y-69088000D03*
X132588000Y-67564000D03*
X181102000Y-70358000D03*
X188722000Y-79502000D03*
X71120000Y-88900000D03*
X69850000Y-86995000D03*
X89154000Y-60960000D03*
X98298000Y-60452000D03*
X87122000Y-62484000D03*
X102616000Y-58928000D03*
X131572000Y-54356000D03*
X137414000Y-53340000D03*
X129900000Y-55626000D03*
X115570000Y-55372000D03*
X133604000Y-42418000D03*
X114300000Y-56388000D03*
X168402000Y-39370000D03*
X61722000Y-60452000D03*
X147066000Y-59944000D03*
X138684000Y-44196000D03*
X46482000Y-74676000D03*
X80264000Y-44450000D03*
X49530000Y-44450000D03*
X42926000Y-53086000D03*
X44450000Y-44958000D03*
X188722000Y-46736000D03*
X189484000Y-64008000D03*
X151892000Y-65024000D03*
X63246000Y-61468000D03*
X170688000Y-56641999D03*
X171196000Y-83312000D03*
X172212000Y-55118000D03*
X173228000Y-82042000D03*
X173482000Y-53848000D03*
X174498000Y-80772000D03*
X174752000Y-52324000D03*
X176784000Y-79248000D03*
X176022000Y-51308000D03*
X178816000Y-78232000D03*
X135890000Y-43346000D03*
X182626000Y-64516000D03*
X182626000Y-50292000D03*
X123190000Y-40894000D03*
X125222000Y-39878000D03*
X127762000Y-38862000D03*
X122428000Y-55626000D03*
X112776000Y-54864000D03*
X78740000Y-110744000D03*
X57404000Y-46736000D03*
D33*
X165100000Y-109220000D02*
X165100000Y-101600000D01*
X165100000Y-101600000D02*
X165100000Y-99060000D01*
X58928000Y-64008000D02*
X65532000Y-64008000D01*
X65532000Y-64008000D02*
X65532000Y-57658000D01*
X184628000Y-62230000D02*
X183896000Y-62962000D01*
X185928000Y-62230000D02*
X184628000Y-62230000D01*
X183896000Y-62962000D02*
X183896000Y-109220000D01*
X54102000Y-64008000D02*
X58928000Y-64008000D01*
X53594000Y-64516000D02*
X54102000Y-64008000D01*
X53594000Y-68453000D02*
X53594000Y-64516000D01*
X41402000Y-69342000D02*
X52705000Y-69342000D01*
X52705000Y-69342000D02*
X53594000Y-68453000D01*
X70104000Y-62230000D02*
X81534000Y-62230000D01*
X82296000Y-62992000D02*
X82296000Y-67056000D01*
X81534000Y-62230000D02*
X82296000Y-62992000D01*
X65532000Y-64008000D02*
X68326000Y-64008000D01*
X68326000Y-64008000D02*
X70104000Y-62230000D01*
X49276000Y-122428000D02*
X53086000Y-122428000D01*
X183896000Y-101600000D02*
X195580000Y-101600000D01*
X165100000Y-111506000D02*
X165100000Y-109220000D01*
X164846000Y-111760000D02*
X165100000Y-111506000D01*
X149860000Y-115316000D02*
X151130000Y-114046000D01*
X151130000Y-114046000D02*
X154559000Y-114046000D01*
X154559000Y-114046000D02*
X156845000Y-111760000D01*
X156845000Y-111760000D02*
X164846000Y-111760000D01*
X149860000Y-116586000D02*
X149860000Y-121412000D01*
X149860000Y-116586000D02*
X149860000Y-115316000D01*
X149860000Y-117094000D02*
X149860000Y-116586000D01*
X73914000Y-57658000D02*
X65786000Y-57658000D01*
X75184000Y-54102000D02*
X75184000Y-56388000D01*
X75184000Y-56388000D02*
X73914000Y-57658000D01*
X79502000Y-102362000D02*
X67818000Y-102362000D01*
X108204000Y-59436000D02*
X108204000Y-65024000D01*
X106172000Y-57404000D02*
X108204000Y-59436000D01*
X106172000Y-56896000D02*
X106172000Y-57404000D01*
X106172000Y-55880000D02*
X106172000Y-56896000D01*
X104648000Y-54356000D02*
X106172000Y-55880000D01*
X106172000Y-53848000D02*
X106172000Y-56896000D01*
X107188000Y-52832000D02*
X106172000Y-53848000D01*
X118618000Y-52832000D02*
X107188000Y-52832000D01*
X119888000Y-60960000D02*
X119888000Y-54102000D01*
X119888000Y-54102000D02*
X118618000Y-52832000D01*
X80732000Y-101132000D02*
X80732000Y-82550000D01*
X79502000Y-102362000D02*
X80732000Y-101132000D01*
X56642000Y-122428000D02*
X53086000Y-122428000D01*
X56896000Y-118618000D02*
X56896000Y-122174000D01*
X56896000Y-122174000D02*
X56642000Y-122428000D01*
X73152000Y-97790000D02*
X73152000Y-102362000D01*
X52705000Y-69342000D02*
X52705000Y-69723000D01*
X52705000Y-69723000D02*
X54610000Y-71628000D01*
X54610000Y-71628000D02*
X54610000Y-76454000D01*
X185928000Y-62230000D02*
X179832000Y-62230000D01*
X179832000Y-62230000D02*
X179070000Y-62992000D01*
X179070000Y-62992000D02*
X166116000Y-62992000D01*
X127254000Y-67564000D02*
X121666000Y-67564000D01*
X119888000Y-65786000D02*
X119888000Y-60960000D01*
X121666000Y-67564000D02*
X119888000Y-65786000D01*
X183896000Y-109220000D02*
X165100000Y-109220000D01*
X134980000Y-55012000D02*
X134874000Y-55118000D01*
X132388000Y-57604000D02*
X132388000Y-60960000D01*
X134874000Y-55118000D02*
X132388000Y-57604000D01*
X194056000Y-52070000D02*
X197104000Y-52070000D01*
X197104000Y-52070000D02*
X198374000Y-53340000D01*
X198374000Y-53340000D02*
X198374000Y-71374000D01*
X198374000Y-71374000D02*
X196422000Y-73326000D01*
X196979999Y-92580001D02*
X197233999Y-92580001D01*
X195580000Y-93980000D02*
X196979999Y-92580001D01*
X197233999Y-92580001D02*
X198374000Y-91440000D01*
X198374000Y-75692000D02*
X196088000Y-73406000D01*
X198374000Y-91440000D02*
X198374000Y-75692000D01*
X196422000Y-73326000D02*
X196088000Y-73406000D01*
X196088000Y-73406000D02*
X189992000Y-73326000D01*
X197866000Y-119888000D02*
X157734000Y-119888000D01*
X198882000Y-118872000D02*
X197866000Y-119888000D01*
X195580000Y-93980000D02*
X198882000Y-97282000D01*
X198882000Y-97282000D02*
X198882000Y-118872000D01*
X42632000Y-65572000D02*
X42632000Y-57404000D01*
X41402000Y-66802000D02*
X42632000Y-65572000D01*
X49530000Y-94996000D02*
X49530000Y-93980000D01*
X49530000Y-93980000D02*
X42164000Y-93980000D01*
X65640000Y-82550000D02*
X75732000Y-82550000D01*
X78994000Y-75438000D02*
X76962000Y-75438000D01*
X75732000Y-76668000D02*
X75732000Y-82550000D01*
X76962000Y-75438000D02*
X75732000Y-76668000D01*
X43140000Y-57912000D02*
X42632000Y-57404000D01*
X40402001Y-65802001D02*
X40402001Y-65040001D01*
X41402000Y-66802000D02*
X40402001Y-65802001D01*
X40402001Y-65040001D02*
X39624000Y-64262000D01*
X39624000Y-64262000D02*
X37846000Y-64262000D01*
X37846000Y-64262000D02*
X37338000Y-64770000D01*
X37338000Y-64770000D02*
X37338000Y-92710000D01*
X38608000Y-93980000D02*
X42164000Y-93980000D01*
X37338000Y-92710000D02*
X38608000Y-93980000D01*
X55880000Y-129540000D02*
X56134000Y-129540000D01*
X74796000Y-73272000D02*
X76962000Y-75438000D01*
X74796000Y-67056000D02*
X74796000Y-73272000D01*
X50292000Y-82550000D02*
X65640000Y-82550000D01*
X49530000Y-83312000D02*
X50292000Y-82550000D01*
X49530000Y-93980000D02*
X49530000Y-83312000D01*
X53514000Y-127254000D02*
X53514000Y-129540000D01*
X50880000Y-57912000D02*
X46990000Y-57912000D01*
X46990000Y-57912000D02*
X43140000Y-57912000D01*
X154940000Y-65278000D02*
X152908000Y-67310000D01*
X178054000Y-65278000D02*
X154940000Y-65278000D01*
X178816000Y-68072000D02*
X178816000Y-66040000D01*
X178816000Y-66040000D02*
X178054000Y-65278000D01*
X48340000Y-107188000D02*
X48340000Y-104060000D01*
X48340000Y-104060000D02*
X48514000Y-103886000D01*
X156210000Y-121412000D02*
X157734000Y-119888000D01*
X154940000Y-121412000D02*
X156210000Y-121412000D01*
X47498000Y-57912000D02*
X46990000Y-57912000D01*
X150876000Y-71374000D02*
X138684000Y-71374000D01*
X152908000Y-67310000D02*
X152908000Y-69342000D01*
X152908000Y-69342000D02*
X150876000Y-71374000D01*
X43688000Y-129540000D02*
X56134000Y-129540000D01*
X42672000Y-128524000D02*
X43688000Y-129540000D01*
X38354000Y-93980000D02*
X37338000Y-94996000D01*
X38608000Y-93980000D02*
X38354000Y-93980000D01*
X37338000Y-94996000D02*
X37338000Y-115316000D01*
X37338000Y-115316000D02*
X42672000Y-120650000D01*
X42672000Y-120650000D02*
X42672000Y-128524000D01*
X71120000Y-128778000D02*
X71120000Y-123825000D01*
X56134000Y-129540000D02*
X70358000Y-129540000D01*
X70358000Y-129540000D02*
X71120000Y-128778000D01*
X63627000Y-117602000D02*
X60198000Y-117602000D01*
X69850000Y-123825000D02*
X63627000Y-117602000D01*
X75565000Y-123825000D02*
X71120000Y-123825000D01*
X71120000Y-123825000D02*
X69850000Y-123825000D01*
X46990000Y-57658000D02*
X46736000Y-57912000D01*
X46990000Y-53086000D02*
X46990000Y-57658000D01*
X46990000Y-56388000D02*
X46990000Y-55118000D01*
X46990000Y-55118000D02*
X49276000Y-52832000D01*
X100704000Y-68968000D02*
X100704000Y-65024000D01*
X100584000Y-69088000D02*
X100704000Y-68968000D01*
X49276000Y-52832000D02*
X65532000Y-52832000D01*
X65532000Y-55158000D02*
X65532000Y-52832000D01*
X71120000Y-44450000D02*
X74422000Y-44450000D01*
X70104000Y-45466000D02*
X71120000Y-44450000D01*
X70104000Y-51308000D02*
X70104000Y-45466000D01*
X65532000Y-52832000D02*
X68580000Y-52832000D01*
X68580000Y-52832000D02*
X70104000Y-51308000D01*
X190500000Y-52070000D02*
X194056000Y-52070000D01*
X185928000Y-47498000D02*
X190500000Y-52070000D01*
X177038000Y-41656000D02*
X178054000Y-40640000D01*
X177038000Y-44196000D02*
X177038000Y-41656000D01*
X184404000Y-40640000D02*
X185928000Y-42164000D01*
X178054000Y-40640000D02*
X184404000Y-40640000D01*
X185928000Y-42164000D02*
X185928000Y-47498000D01*
X132388000Y-67364000D02*
X132388000Y-60960000D01*
X132588000Y-67564000D02*
X132388000Y-67364000D01*
X181102000Y-70358000D02*
X178816000Y-68072000D01*
X189992000Y-73326000D02*
X189992000Y-78232000D01*
X189992000Y-78232000D02*
X188722000Y-79502000D01*
D34*
X64008000Y-109982000D02*
X60198000Y-109982000D01*
X64770000Y-109220000D02*
X64008000Y-109982000D01*
X65405000Y-95885000D02*
X64770000Y-96520000D01*
X64770000Y-96520000D02*
X64770000Y-109220000D01*
X71120000Y-88900000D02*
X71120000Y-95250000D01*
X71120000Y-95250000D02*
X70485000Y-95885000D01*
X70485000Y-95885000D02*
X65405000Y-95885000D01*
X62230000Y-104902000D02*
X60198000Y-104902000D01*
X62865000Y-104267000D02*
X62230000Y-104902000D01*
X69850000Y-86995000D02*
X69850000Y-93980000D01*
X69850000Y-93980000D02*
X69215000Y-94615000D01*
X69215000Y-94615000D02*
X63500000Y-94615000D01*
X62865000Y-95250000D02*
X62865000Y-104267000D01*
X63500000Y-94615000D02*
X62865000Y-95250000D01*
X65532000Y-70358000D02*
X65532000Y-74168000D01*
X71459000Y-64431000D02*
X65532000Y-70358000D01*
X76877000Y-64431000D02*
X71459000Y-64431000D01*
X77296000Y-67056000D02*
X77296000Y-64850000D01*
X77296000Y-64850000D02*
X76877000Y-64431000D01*
X77296000Y-70438000D02*
X77296000Y-67056000D01*
X88265000Y-61849000D02*
X88265000Y-69850000D01*
X89154000Y-60960000D02*
X88265000Y-61849000D01*
X88265000Y-69850000D02*
X86995000Y-71120000D01*
X86995000Y-71120000D02*
X77978000Y-71120000D01*
X77978000Y-71120000D02*
X77296000Y-70438000D01*
X103124000Y-64944000D02*
X103204000Y-65024000D01*
X98298000Y-60452000D02*
X102108000Y-60452000D01*
X102108000Y-60452000D02*
X103124000Y-61468000D01*
X103124000Y-61468000D02*
X103124000Y-64944000D01*
X61976000Y-73660000D02*
X61976000Y-72136000D01*
X58928000Y-74168000D02*
X61468000Y-74168000D01*
X61468000Y-74168000D02*
X61976000Y-73660000D01*
X70612000Y-63500000D02*
X61976000Y-72136000D01*
X79796000Y-67056000D02*
X79796000Y-64048000D01*
X79248000Y-63500000D02*
X70612000Y-63500000D01*
X79796000Y-64048000D02*
X79248000Y-63500000D01*
X87122000Y-69215000D02*
X87122000Y-62484000D01*
X86233000Y-70104000D02*
X87122000Y-69215000D01*
X80518000Y-70104000D02*
X86233000Y-70104000D01*
X79796000Y-67056000D02*
X79796000Y-69382000D01*
X79796000Y-69382000D02*
X80518000Y-70104000D01*
X102616000Y-58928000D02*
X105156000Y-58928000D01*
X105704000Y-59476000D02*
X105704000Y-65024000D01*
X105156000Y-58928000D02*
X105704000Y-59476000D01*
X132334000Y-50446000D02*
X132440000Y-50340000D01*
X127388000Y-55492000D02*
X127388000Y-60960000D01*
X128270000Y-54610000D02*
X127388000Y-55492000D01*
X131572000Y-54356000D02*
X131318000Y-54610000D01*
X131318000Y-54610000D02*
X128270000Y-54610000D01*
X124888000Y-54182000D02*
X124888000Y-60960000D01*
X125730000Y-53340000D02*
X124888000Y-54182000D01*
X137414000Y-53340000D02*
X125730000Y-53340000D01*
X129900000Y-60948000D02*
X129888000Y-60960000D01*
X129900000Y-55626000D02*
X129900000Y-60948000D01*
X129900000Y-55626000D02*
X129900000Y-56790000D01*
X145542000Y-53340000D02*
X151638000Y-53340000D01*
X145034000Y-68580000D02*
X145034000Y-53848000D01*
X145034000Y-53848000D02*
X145542000Y-53340000D01*
X144526000Y-69088000D02*
X145034000Y-68580000D01*
X116078000Y-69088000D02*
X144526000Y-69088000D01*
X115570000Y-68580000D02*
X116078000Y-69088000D01*
X115570000Y-55372000D02*
X115570000Y-68580000D01*
X151638000Y-43434000D02*
X146731084Y-43434000D01*
X145796000Y-42418000D02*
X133858000Y-42418000D01*
X146731084Y-43434000D02*
X146731084Y-43353084D01*
X146731084Y-43353084D02*
X145796000Y-42418000D01*
X146558000Y-56642000D02*
X151638000Y-56642000D01*
X145796000Y-57404000D02*
X146558000Y-56642000D01*
X114300000Y-68666542D02*
X115321468Y-69688010D01*
X114300000Y-56388000D02*
X114300000Y-68666542D01*
X115321468Y-69688010D02*
X144941990Y-69688010D01*
X144941990Y-69688010D02*
X145796000Y-68834000D01*
X145796000Y-68834000D02*
X145796000Y-57404000D01*
X140081000Y-54864000D02*
X140208000Y-54864000D01*
X170180000Y-40386000D02*
X170180000Y-43688000D01*
X170180000Y-40132000D02*
X170180000Y-41148000D01*
X168402000Y-39370000D02*
X169418000Y-39370000D01*
X169418000Y-39370000D02*
X170180000Y-40132000D01*
X59690000Y-58166000D02*
X59436000Y-57912000D01*
X59690000Y-59436000D02*
X59690000Y-58166000D01*
X60706000Y-60452000D02*
X59690000Y-59436000D01*
X61722000Y-60452000D02*
X60706000Y-60452000D01*
X59436000Y-57912000D02*
X55880000Y-57912000D01*
X150368000Y-60452000D02*
X150368000Y-62484000D01*
X150368000Y-62484000D02*
X150368000Y-67310000D01*
X147066000Y-59944000D02*
X149860000Y-59944000D01*
X149860000Y-59944000D02*
X150368000Y-60452000D01*
X151130000Y-59690000D02*
X170180000Y-59690000D01*
X150368000Y-60452000D02*
X151130000Y-59690000D01*
X60198000Y-107442000D02*
X57150000Y-107442000D01*
X57150000Y-107442000D02*
X56388000Y-108204000D01*
X49276000Y-112268000D02*
X42164000Y-112268000D01*
X46482000Y-127254000D02*
X48514000Y-127254000D01*
X45212000Y-125984000D02*
X46482000Y-127254000D01*
X45212000Y-119634000D02*
X45212000Y-125984000D01*
X42164000Y-98980000D02*
X42164000Y-116586000D01*
X42164000Y-116586000D02*
X45212000Y-119634000D01*
X55118000Y-116078000D02*
X42164000Y-116078000D01*
X56388000Y-108204000D02*
X56388000Y-114808000D01*
X56388000Y-114808000D02*
X55118000Y-116078000D01*
X42164000Y-96480000D02*
X52792000Y-96480000D01*
X52792000Y-96480000D02*
X53594000Y-97282000D01*
X60198000Y-102362000D02*
X53594000Y-102362000D01*
X53594000Y-97282000D02*
X53594000Y-102362000D01*
X53594000Y-102362000D02*
X53340000Y-102616000D01*
X53340000Y-102616000D02*
X53340000Y-107442000D01*
X53340000Y-112014000D02*
X53086000Y-112268000D01*
X53340000Y-107188000D02*
X53340000Y-112014000D01*
X146812000Y-50038000D02*
X151638000Y-50038000D01*
X145796000Y-44196000D02*
X146558000Y-44958000D01*
X138684000Y-44196000D02*
X145796000Y-44196000D01*
X146558000Y-49784000D02*
X146812000Y-50038000D01*
X146558000Y-44958000D02*
X146558000Y-49784000D01*
X78232000Y-82550000D02*
X78232000Y-77978000D01*
X78232000Y-77978000D02*
X78740000Y-77470000D01*
X78740000Y-77470000D02*
X83185000Y-77470000D01*
X83820000Y-76835000D02*
X83820000Y-75565000D01*
X83185000Y-77470000D02*
X83820000Y-76835000D01*
X83820000Y-75565000D02*
X83820000Y-75882500D01*
X83820000Y-72136000D02*
X83820000Y-75565000D01*
X84201000Y-71755000D02*
X83820000Y-72136000D01*
X97282000Y-55372000D02*
X96520000Y-56134000D01*
X100076000Y-55372000D02*
X97282000Y-55372000D01*
X96520000Y-56134000D02*
X96520000Y-66675000D01*
X91440000Y-71755000D02*
X84201000Y-71755000D01*
X96520000Y-66675000D02*
X91440000Y-71755000D01*
D33*
X40640000Y-80518000D02*
X46482000Y-74676000D01*
X40640000Y-82550000D02*
X40640000Y-80518000D01*
X63714000Y-38902000D02*
X63754000Y-38862000D01*
X63714000Y-41402000D02*
X63714000Y-38902000D01*
X80264000Y-44450000D02*
X80314800Y-44399200D01*
X80314800Y-44399200D02*
X80314800Y-39903400D01*
X80416400Y-41148000D02*
X91795600Y-41148000D01*
X49530000Y-39370000D02*
X49530000Y-44450000D01*
X50038000Y-38862000D02*
X49530000Y-39370000D01*
X80314800Y-39903400D02*
X79273400Y-38862000D01*
X79273400Y-38862000D02*
X50038000Y-38862000D01*
X189992000Y-68326000D02*
X186944000Y-68326000D01*
X186944000Y-68326000D02*
X185674000Y-69596000D01*
X185674000Y-69596000D02*
X185674000Y-84836000D01*
X40132000Y-54102000D02*
X40132000Y-57404000D01*
X41148000Y-53086000D02*
X40132000Y-54102000D01*
X42926000Y-53086000D02*
X41148000Y-53086000D01*
X189992000Y-64516000D02*
X189992000Y-68326000D01*
X189484000Y-64008000D02*
X189992000Y-64516000D01*
X44450000Y-38354000D02*
X44450000Y-44958000D01*
X45212000Y-37592000D02*
X44450000Y-38354000D01*
X186944000Y-37592000D02*
X45212000Y-37592000D01*
X188722000Y-46736000D02*
X188722000Y-39370000D01*
X188722000Y-39370000D02*
X186944000Y-37592000D01*
X187198000Y-86360000D02*
X195580000Y-86360000D01*
X185674000Y-84836000D02*
X187198000Y-86360000D01*
D34*
X151892000Y-65024000D02*
X152908000Y-65024000D01*
X152908000Y-65024000D02*
X152908000Y-62484000D01*
X54356000Y-60960000D02*
X54356000Y-60880000D01*
X54864000Y-61468000D02*
X54356000Y-60960000D01*
X63246000Y-61468000D02*
X54864000Y-61468000D01*
X54356000Y-60880000D02*
X53380000Y-59904000D01*
X53380000Y-59904000D02*
X53380000Y-57912000D01*
X170122315Y-56641999D02*
X170688000Y-56641999D01*
X161798000Y-56642000D02*
X170122315Y-56641999D01*
X156371989Y-88738011D02*
X156371989Y-108111989D01*
X171196000Y-83312000D02*
X168656000Y-85852000D01*
X168656000Y-85852000D02*
X159258000Y-85852000D01*
X159258000Y-85852000D02*
X156371989Y-88738011D01*
X156371989Y-108111989D02*
X157480000Y-109220000D01*
X157480000Y-109220000D02*
X162560000Y-109220000D01*
X170434000Y-53340000D02*
X161798000Y-53340000D01*
X172212000Y-55118000D02*
X170434000Y-53340000D01*
X159673990Y-86706010D02*
X156972000Y-89408000D01*
X173228000Y-82042000D02*
X173228000Y-84327990D01*
X173228000Y-84327990D02*
X170849980Y-86706010D01*
X170849980Y-86706010D02*
X159673990Y-86706010D01*
X156972000Y-89408000D02*
X156972000Y-105918000D01*
X156972000Y-105918000D02*
X157734000Y-106680000D01*
X157734000Y-106680000D02*
X162560000Y-106680000D01*
X158242000Y-104140000D02*
X162560000Y-104140000D01*
X174498000Y-80772000D02*
X174498000Y-85344000D01*
X174498000Y-85344000D02*
X172535980Y-87306020D01*
X172535980Y-87306020D02*
X160343980Y-87306020D01*
X160343980Y-87306020D02*
X157734000Y-89916000D01*
X157734000Y-89916000D02*
X157734000Y-103632000D01*
X157734000Y-103632000D02*
X158242000Y-104140000D01*
X171450000Y-51816000D02*
X173482000Y-53848000D01*
X165608000Y-51816000D02*
X171450000Y-51816000D01*
X161798000Y-50038000D02*
X163830000Y-50038000D01*
X163830000Y-50038000D02*
X165608000Y-51816000D01*
X160782000Y-88138000D02*
X158496000Y-90424000D01*
X176784000Y-85598000D02*
X174244000Y-88138000D01*
X174244000Y-88138000D02*
X160782000Y-88138000D01*
X176784000Y-79248000D02*
X176784000Y-85598000D01*
X158496000Y-90424000D02*
X158496000Y-100838000D01*
X158496000Y-100838000D02*
X159258000Y-101600000D01*
X159258000Y-101600000D02*
X162560000Y-101600000D01*
X173228000Y-50800000D02*
X174752000Y-52324000D01*
X166370000Y-50800000D02*
X173228000Y-50800000D01*
X161798000Y-46736000D02*
X162306000Y-46736000D01*
X162306000Y-46736000D02*
X166370000Y-50800000D01*
X160274000Y-99060000D02*
X162560000Y-99060000D01*
X159258000Y-98044000D02*
X160274000Y-99060000D01*
X178816000Y-78232000D02*
X178816000Y-86106000D01*
X178816000Y-86106000D02*
X176183990Y-88738010D01*
X176183990Y-88738010D02*
X161197990Y-88738010D01*
X159258000Y-90678000D02*
X159258000Y-98044000D01*
X161197990Y-88738010D02*
X159258000Y-90678000D01*
X175768000Y-51308000D02*
X176022000Y-51308000D01*
X173990000Y-49530000D02*
X175768000Y-51308000D01*
X163322000Y-43434000D02*
X164592000Y-44704000D01*
X161798000Y-43434000D02*
X163322000Y-43434000D01*
X164592000Y-44704000D02*
X164592000Y-47244000D01*
X164592000Y-47244000D02*
X166878000Y-49530000D01*
X166878000Y-49530000D02*
X173990000Y-49530000D01*
X168656000Y-68072000D02*
X165862000Y-68072000D01*
X165862000Y-68072000D02*
X165862000Y-68580000D01*
X165862000Y-68580000D02*
X162560000Y-71882000D01*
X151638000Y-85090000D02*
X154432000Y-85090000D01*
X157988000Y-81534000D02*
X157988000Y-71882000D01*
X162560000Y-71882000D02*
X157988000Y-71882000D01*
X154432000Y-85090000D02*
X157988000Y-81534000D01*
X150622000Y-73660000D02*
X150622000Y-75946000D01*
X157988000Y-71882000D02*
X152400000Y-71882000D01*
X152400000Y-71882000D02*
X150622000Y-73660000D01*
X151638000Y-110090000D02*
X151638000Y-92202000D01*
X151638000Y-92202000D02*
X162560000Y-81280000D01*
X162560000Y-81280000D02*
X162560000Y-75946000D01*
X164592000Y-73914000D02*
X168910000Y-73914000D01*
X162560000Y-75946000D02*
X164592000Y-73914000D01*
X151638000Y-46736000D02*
X147828000Y-46736000D01*
X151638000Y-46736000D02*
X147320000Y-46736000D01*
X145794542Y-43346000D02*
X135890000Y-43346000D01*
X147158010Y-46574010D02*
X147158010Y-44709468D01*
X147158010Y-44709468D02*
X145794542Y-43346000D01*
X147158010Y-46574010D02*
X147320000Y-46736000D01*
X181102000Y-73914000D02*
X179070000Y-73914000D01*
X182626000Y-64516000D02*
X182626000Y-72390000D01*
X182626000Y-72390000D02*
X181102000Y-73914000D01*
X181610000Y-44196000D02*
X179578000Y-44196000D01*
X182626000Y-50292000D02*
X182626000Y-45212000D01*
X182626000Y-45212000D02*
X181610000Y-44196000D01*
X193936000Y-59690000D02*
X194056000Y-59570000D01*
X185928000Y-59690000D02*
X193936000Y-59690000D01*
X183642000Y-59690000D02*
X185928000Y-59690000D01*
X182626000Y-58674000D02*
X183642000Y-59690000D01*
X182626000Y-55880000D02*
X182626000Y-58674000D01*
X176530000Y-49784000D02*
X182626000Y-55880000D01*
X175935458Y-49784000D02*
X176530000Y-49784000D01*
X174157458Y-48006000D02*
X175935458Y-49784000D01*
X166277990Y-47405990D02*
X166878000Y-48006000D01*
X165862000Y-40894000D02*
X166277990Y-41309990D01*
X123190000Y-40894000D02*
X165862000Y-40894000D01*
X166277990Y-41309990D02*
X166277990Y-47405990D01*
X166878000Y-48006000D02*
X174157458Y-48006000D01*
X193976000Y-57150000D02*
X194056000Y-57070000D01*
X185928000Y-57150000D02*
X193976000Y-57150000D01*
X166878000Y-40640000D02*
X166878000Y-46736000D01*
X166116000Y-39878000D02*
X166878000Y-40640000D01*
X125222000Y-39878000D02*
X166116000Y-39878000D01*
X166878000Y-46736000D02*
X167386000Y-47244000D01*
X167386000Y-47244000D02*
X174244000Y-47244000D01*
X174244000Y-47244000D02*
X176022000Y-49022000D01*
X176022000Y-49022000D02*
X176784000Y-49022000D01*
X176784000Y-49022000D02*
X184796630Y-57034630D01*
X184796630Y-57034630D02*
X184796630Y-57150000D01*
X184796630Y-57150000D02*
X185928000Y-57150000D01*
X194016000Y-54610000D02*
X194056000Y-54570000D01*
X185928000Y-54610000D02*
X194016000Y-54610000D01*
X166116000Y-38862000D02*
X127762000Y-38862000D01*
X167478010Y-40224010D02*
X166116000Y-38862000D01*
X167478010Y-46222532D02*
X167478010Y-40224010D01*
X167899468Y-46643990D02*
X167478010Y-46222532D01*
X183388000Y-54610000D02*
X177038000Y-48260000D01*
X185928000Y-54610000D02*
X183388000Y-54610000D01*
X177038000Y-48260000D02*
X176108542Y-48260000D01*
X176108542Y-48260000D02*
X174492532Y-46643990D01*
X174492532Y-46643990D02*
X167899468Y-46643990D01*
X122388000Y-55666000D02*
X122428000Y-55626000D01*
X122388000Y-60960000D02*
X122388000Y-55666000D01*
X111252000Y-56388000D02*
X110236000Y-55372000D01*
X112268000Y-56388000D02*
X111252000Y-56388000D01*
X112776000Y-55880000D02*
X112268000Y-56388000D01*
X112776000Y-54864000D02*
X112776000Y-55880000D01*
D33*
X78740000Y-110744000D02*
X78740000Y-114808000D01*
X80645000Y-116713000D02*
X80645000Y-123825000D01*
X78740000Y-114808000D02*
X80645000Y-116713000D01*
X58674000Y-41402000D02*
X61214000Y-41402000D01*
X57404000Y-42672000D02*
X58674000Y-41402000D01*
X57404000Y-46736000D02*
X57404000Y-42672000D01*
M02*
