G04 #@! TF.GenerationSoftware,KiCad,Pcbnew,(5.1.5)-3*
G04 #@! TF.CreationDate,2022-04-15T22:29:16+02:00*
G04 #@! TF.ProjectId,Extension Board,45787465-6e73-4696-9f6e-20426f617264,1*
G04 #@! TF.SameCoordinates,Original*
G04 #@! TF.FileFunction,Soldermask,Top*
G04 #@! TF.FilePolarity,Negative*
%FSLAX46Y46*%
G04 Gerber Fmt 4.6, Leading zero omitted, Abs format (unit mm)*
G04 Created by KiCad (PCBNEW (5.1.5)-3) date 2022-04-15 22:29:16*
%MOMM*%
%LPD*%
G04 APERTURE LIST*
%ADD10C,0.100000*%
G04 APERTURE END LIST*
D10*
G36*
X53762228Y-126435703D02*
G01*
X53917100Y-126499853D01*
X54056481Y-126592985D01*
X54175015Y-126711519D01*
X54268147Y-126850900D01*
X54332297Y-127005772D01*
X54365000Y-127170184D01*
X54365000Y-127337816D01*
X54332297Y-127502228D01*
X54268147Y-127657100D01*
X54175015Y-127796481D01*
X54056481Y-127915015D01*
X53917100Y-128008147D01*
X53762228Y-128072297D01*
X53597816Y-128105000D01*
X53430184Y-128105000D01*
X53265772Y-128072297D01*
X53110900Y-128008147D01*
X52971519Y-127915015D01*
X52852985Y-127796481D01*
X52759853Y-127657100D01*
X52695703Y-127502228D01*
X52663000Y-127337816D01*
X52663000Y-127170184D01*
X52695703Y-127005772D01*
X52759853Y-126850900D01*
X52852985Y-126711519D01*
X52971519Y-126592985D01*
X53110900Y-126499853D01*
X53265772Y-126435703D01*
X53430184Y-126403000D01*
X53597816Y-126403000D01*
X53762228Y-126435703D01*
G37*
G36*
X48762228Y-126435703D02*
G01*
X48917100Y-126499853D01*
X49056481Y-126592985D01*
X49175015Y-126711519D01*
X49268147Y-126850900D01*
X49332297Y-127005772D01*
X49365000Y-127170184D01*
X49365000Y-127337816D01*
X49332297Y-127502228D01*
X49268147Y-127657100D01*
X49175015Y-127796481D01*
X49056481Y-127915015D01*
X48917100Y-128008147D01*
X48762228Y-128072297D01*
X48597816Y-128105000D01*
X48430184Y-128105000D01*
X48265772Y-128072297D01*
X48110900Y-128008147D01*
X47971519Y-127915015D01*
X47852985Y-127796481D01*
X47759853Y-127657100D01*
X47695703Y-127502228D01*
X47663000Y-127337816D01*
X47663000Y-127170184D01*
X47695703Y-127005772D01*
X47759853Y-126850900D01*
X47852985Y-126711519D01*
X47971519Y-126592985D01*
X48110900Y-126499853D01*
X48265772Y-126435703D01*
X48430184Y-126403000D01*
X48597816Y-126403000D01*
X48762228Y-126435703D01*
G37*
G36*
X167450433Y-124872893D02*
G01*
X167540657Y-124890839D01*
X167646267Y-124934585D01*
X167795621Y-124996449D01*
X167795622Y-124996450D01*
X168025086Y-125149772D01*
X168220228Y-125344914D01*
X168322675Y-125498237D01*
X168373551Y-125574379D01*
X168479161Y-125829344D01*
X168533000Y-126100012D01*
X168533000Y-126375988D01*
X168508362Y-126499852D01*
X168479161Y-126646657D01*
X168435415Y-126752267D01*
X168373551Y-126901621D01*
X168373550Y-126901622D01*
X168220228Y-127131086D01*
X168025086Y-127326228D01*
X167871763Y-127428675D01*
X167795621Y-127479551D01*
X167740871Y-127502229D01*
X167540657Y-127585161D01*
X167450433Y-127603107D01*
X167269988Y-127639000D01*
X166994012Y-127639000D01*
X166813567Y-127603107D01*
X166723343Y-127585161D01*
X166523129Y-127502229D01*
X166468379Y-127479551D01*
X166392237Y-127428675D01*
X166238914Y-127326228D01*
X166043772Y-127131086D01*
X165890450Y-126901622D01*
X165890449Y-126901621D01*
X165828585Y-126752267D01*
X165784839Y-126646657D01*
X165755638Y-126499852D01*
X165731000Y-126375988D01*
X165731000Y-126100012D01*
X165784839Y-125829344D01*
X165890449Y-125574379D01*
X165941325Y-125498237D01*
X166043772Y-125344914D01*
X166238914Y-125149772D01*
X166468378Y-124996450D01*
X166468379Y-124996449D01*
X166617733Y-124934585D01*
X166723343Y-124890839D01*
X166813567Y-124872893D01*
X166994012Y-124837000D01*
X167269988Y-124837000D01*
X167450433Y-124872893D01*
G37*
G36*
X64326433Y-123348893D02*
G01*
X64416657Y-123366839D01*
X64522267Y-123410585D01*
X64671621Y-123472449D01*
X64671622Y-123472450D01*
X64901086Y-123625772D01*
X65096228Y-123820914D01*
X65187867Y-123958062D01*
X65249551Y-124050379D01*
X65355161Y-124305344D01*
X65409000Y-124576012D01*
X65409000Y-124851988D01*
X65373107Y-125032433D01*
X65355161Y-125122657D01*
X65343929Y-125149772D01*
X65249551Y-125377621D01*
X65249550Y-125377622D01*
X65096228Y-125607086D01*
X64901086Y-125802228D01*
X64747763Y-125904675D01*
X64671621Y-125955551D01*
X64522267Y-126017415D01*
X64416657Y-126061161D01*
X64326433Y-126079107D01*
X64145988Y-126115000D01*
X63870012Y-126115000D01*
X63689567Y-126079107D01*
X63599343Y-126061161D01*
X63493733Y-126017415D01*
X63344379Y-125955551D01*
X63268237Y-125904675D01*
X63114914Y-125802228D01*
X62919772Y-125607086D01*
X62766450Y-125377622D01*
X62766449Y-125377621D01*
X62672071Y-125149772D01*
X62660839Y-125122657D01*
X62642893Y-125032433D01*
X62607000Y-124851988D01*
X62607000Y-124576012D01*
X62660839Y-124305344D01*
X62766449Y-124050379D01*
X62828133Y-123958062D01*
X62919772Y-123820914D01*
X63114914Y-123625772D01*
X63344378Y-123472450D01*
X63344379Y-123472449D01*
X63493733Y-123410585D01*
X63599343Y-123366839D01*
X63689567Y-123348893D01*
X63870012Y-123313000D01*
X64145988Y-123313000D01*
X64326433Y-123348893D01*
G37*
G36*
X76916000Y-125176000D02*
G01*
X74214000Y-125176000D01*
X74214000Y-122474000D01*
X76916000Y-122474000D01*
X76916000Y-125176000D01*
G37*
G36*
X81039072Y-122525918D02*
G01*
X81240233Y-122609241D01*
X81284939Y-122627759D01*
X81357477Y-122676228D01*
X81506211Y-122775609D01*
X81694391Y-122963789D01*
X81698862Y-122970481D01*
X81842241Y-123185061D01*
X81944082Y-123430928D01*
X81996000Y-123691938D01*
X81996000Y-123958062D01*
X81944082Y-124219072D01*
X81842241Y-124464939D01*
X81694390Y-124686212D01*
X81506212Y-124874390D01*
X81284939Y-125022241D01*
X81284938Y-125022242D01*
X81284937Y-125022242D01*
X81039072Y-125124082D01*
X80778063Y-125176000D01*
X80511937Y-125176000D01*
X80250928Y-125124082D01*
X80005063Y-125022242D01*
X80005062Y-125022242D01*
X80005061Y-125022241D01*
X79783788Y-124874390D01*
X79595610Y-124686212D01*
X79447759Y-124464939D01*
X79345918Y-124219072D01*
X79294000Y-123958062D01*
X79294000Y-123691938D01*
X79345918Y-123430928D01*
X79447759Y-123185061D01*
X79591138Y-122970481D01*
X79595609Y-122963789D01*
X79783789Y-122775609D01*
X79932523Y-122676228D01*
X80005061Y-122627759D01*
X80049768Y-122609241D01*
X80250928Y-122525918D01*
X80511937Y-122474000D01*
X80778063Y-122474000D01*
X81039072Y-122525918D01*
G37*
G36*
X53334228Y-121609703D02*
G01*
X53489100Y-121673853D01*
X53628481Y-121766985D01*
X53747015Y-121885519D01*
X53840147Y-122024900D01*
X53904297Y-122179772D01*
X53937000Y-122344184D01*
X53937000Y-122511816D01*
X53904297Y-122676228D01*
X53840147Y-122831100D01*
X53747015Y-122970481D01*
X53628481Y-123089015D01*
X53489100Y-123182147D01*
X53334228Y-123246297D01*
X53169816Y-123279000D01*
X53002184Y-123279000D01*
X52837772Y-123246297D01*
X52682900Y-123182147D01*
X52543519Y-123089015D01*
X52424985Y-122970481D01*
X52331853Y-122831100D01*
X52267703Y-122676228D01*
X52235000Y-122511816D01*
X52235000Y-122344184D01*
X52267703Y-122179772D01*
X52331853Y-122024900D01*
X52424985Y-121885519D01*
X52543519Y-121766985D01*
X52682900Y-121673853D01*
X52837772Y-121609703D01*
X53002184Y-121577000D01*
X53169816Y-121577000D01*
X53334228Y-121609703D01*
G37*
G36*
X49524228Y-121609703D02*
G01*
X49679100Y-121673853D01*
X49818481Y-121766985D01*
X49937015Y-121885519D01*
X50030147Y-122024900D01*
X50094297Y-122179772D01*
X50127000Y-122344184D01*
X50127000Y-122511816D01*
X50094297Y-122676228D01*
X50030147Y-122831100D01*
X49937015Y-122970481D01*
X49818481Y-123089015D01*
X49679100Y-123182147D01*
X49524228Y-123246297D01*
X49359816Y-123279000D01*
X49192184Y-123279000D01*
X49027772Y-123246297D01*
X48872900Y-123182147D01*
X48733519Y-123089015D01*
X48614985Y-122970481D01*
X48521853Y-122831100D01*
X48457703Y-122676228D01*
X48425000Y-122511816D01*
X48425000Y-122344184D01*
X48457703Y-122179772D01*
X48521853Y-122024900D01*
X48614985Y-121885519D01*
X48733519Y-121766985D01*
X48872900Y-121673853D01*
X49027772Y-121609703D01*
X49192184Y-121577000D01*
X49359816Y-121577000D01*
X49524228Y-121609703D01*
G37*
G36*
X155334072Y-120112918D02*
G01*
X155579939Y-120214759D01*
X155801212Y-120362610D01*
X155989390Y-120550788D01*
X156137241Y-120772061D01*
X156239082Y-121017928D01*
X156291000Y-121278938D01*
X156291000Y-121545062D01*
X156239082Y-121806072D01*
X156137241Y-122051939D01*
X155989390Y-122273212D01*
X155801212Y-122461390D01*
X155579939Y-122609241D01*
X155579938Y-122609242D01*
X155579937Y-122609242D01*
X155334072Y-122711082D01*
X155073063Y-122763000D01*
X154806937Y-122763000D01*
X154545928Y-122711082D01*
X154300063Y-122609242D01*
X154300062Y-122609242D01*
X154300061Y-122609241D01*
X154078788Y-122461390D01*
X153890610Y-122273212D01*
X153742759Y-122051939D01*
X153640918Y-121806072D01*
X153589000Y-121545062D01*
X153589000Y-121278938D01*
X153640918Y-121017928D01*
X153742759Y-120772061D01*
X153890610Y-120550788D01*
X154078788Y-120362610D01*
X154300061Y-120214759D01*
X154545928Y-120112918D01*
X154806937Y-120061000D01*
X155073063Y-120061000D01*
X155334072Y-120112918D01*
G37*
G36*
X151211000Y-122763000D02*
G01*
X148509000Y-122763000D01*
X148509000Y-120061000D01*
X151211000Y-120061000D01*
X151211000Y-122763000D01*
G37*
G36*
X68384823Y-116763313D02*
G01*
X68545242Y-116811976D01*
X68677906Y-116882886D01*
X68693078Y-116890996D01*
X68822659Y-116997341D01*
X68929004Y-117126922D01*
X68929005Y-117126924D01*
X69008024Y-117274758D01*
X69056687Y-117435177D01*
X69073117Y-117602000D01*
X69056687Y-117768823D01*
X69008024Y-117929242D01*
X68937114Y-118061906D01*
X68929004Y-118077078D01*
X68822659Y-118206659D01*
X68693078Y-118313004D01*
X68693076Y-118313005D01*
X68545242Y-118392024D01*
X68384823Y-118440687D01*
X68259804Y-118453000D01*
X67376196Y-118453000D01*
X67251177Y-118440687D01*
X67090758Y-118392024D01*
X66942924Y-118313005D01*
X66942922Y-118313004D01*
X66813341Y-118206659D01*
X66706996Y-118077078D01*
X66698886Y-118061906D01*
X66627976Y-117929242D01*
X66579313Y-117768823D01*
X66562883Y-117602000D01*
X66579313Y-117435177D01*
X66627976Y-117274758D01*
X66706995Y-117126924D01*
X66706996Y-117126922D01*
X66813341Y-116997341D01*
X66942922Y-116890996D01*
X66958094Y-116882886D01*
X67090758Y-116811976D01*
X67251177Y-116763313D01*
X67376196Y-116751000D01*
X68259804Y-116751000D01*
X68384823Y-116763313D01*
G37*
G36*
X60764823Y-116763313D02*
G01*
X60925242Y-116811976D01*
X61057906Y-116882886D01*
X61073078Y-116890996D01*
X61202659Y-116997341D01*
X61309004Y-117126922D01*
X61309005Y-117126924D01*
X61388024Y-117274758D01*
X61436687Y-117435177D01*
X61453117Y-117602000D01*
X61436687Y-117768823D01*
X61388024Y-117929242D01*
X61317114Y-118061906D01*
X61309004Y-118077078D01*
X61202659Y-118206659D01*
X61073078Y-118313004D01*
X61073076Y-118313005D01*
X60925242Y-118392024D01*
X60764823Y-118440687D01*
X60639804Y-118453000D01*
X59756196Y-118453000D01*
X59631177Y-118440687D01*
X59470758Y-118392024D01*
X59322924Y-118313005D01*
X59322922Y-118313004D01*
X59193341Y-118206659D01*
X59086996Y-118077078D01*
X59078886Y-118061906D01*
X59007976Y-117929242D01*
X58959313Y-117768823D01*
X58942883Y-117602000D01*
X58959313Y-117435177D01*
X59007976Y-117274758D01*
X59086995Y-117126924D01*
X59086996Y-117126922D01*
X59193341Y-116997341D01*
X59322922Y-116890996D01*
X59338094Y-116882886D01*
X59470758Y-116811976D01*
X59631177Y-116763313D01*
X59756196Y-116751000D01*
X60639804Y-116751000D01*
X60764823Y-116763313D01*
G37*
G36*
X164253241Y-113666760D02*
G01*
X164517305Y-113776139D01*
X164754958Y-113934934D01*
X164957066Y-114137042D01*
X165115861Y-114374695D01*
X165225240Y-114638759D01*
X165281000Y-114919088D01*
X165281000Y-115204912D01*
X165225240Y-115485241D01*
X165115861Y-115749305D01*
X164957066Y-115986958D01*
X164754958Y-116189066D01*
X164517305Y-116347861D01*
X164253241Y-116457240D01*
X163972912Y-116513000D01*
X163687088Y-116513000D01*
X163406759Y-116457240D01*
X163142695Y-116347861D01*
X162905042Y-116189066D01*
X162702934Y-115986958D01*
X162544139Y-115749305D01*
X162434760Y-115485241D01*
X162379000Y-115204912D01*
X162379000Y-114919088D01*
X162434760Y-114638759D01*
X162544139Y-114374695D01*
X162702934Y-114137042D01*
X162905042Y-113934934D01*
X163142695Y-113776139D01*
X163406759Y-113666760D01*
X163687088Y-113611000D01*
X163972912Y-113611000D01*
X164253241Y-113666760D01*
G37*
G36*
X60764823Y-114223313D02*
G01*
X60925242Y-114271976D01*
X61057906Y-114342886D01*
X61073078Y-114350996D01*
X61202659Y-114457341D01*
X61309004Y-114586922D01*
X61309005Y-114586924D01*
X61388024Y-114734758D01*
X61436687Y-114895177D01*
X61453117Y-115062000D01*
X61436687Y-115228823D01*
X61388024Y-115389242D01*
X61336711Y-115485241D01*
X61309004Y-115537078D01*
X61202659Y-115666659D01*
X61073078Y-115773004D01*
X61073076Y-115773005D01*
X60925242Y-115852024D01*
X60764823Y-115900687D01*
X60639804Y-115913000D01*
X59756196Y-115913000D01*
X59631177Y-115900687D01*
X59470758Y-115852024D01*
X59322924Y-115773005D01*
X59322922Y-115773004D01*
X59193341Y-115666659D01*
X59086996Y-115537078D01*
X59059289Y-115485241D01*
X59007976Y-115389242D01*
X58959313Y-115228823D01*
X58942883Y-115062000D01*
X58959313Y-114895177D01*
X59007976Y-114734758D01*
X59086995Y-114586924D01*
X59086996Y-114586922D01*
X59193341Y-114457341D01*
X59322922Y-114350996D01*
X59338094Y-114342886D01*
X59470758Y-114271976D01*
X59631177Y-114223313D01*
X59756196Y-114211000D01*
X60639804Y-114211000D01*
X60764823Y-114223313D01*
G37*
G36*
X68384823Y-114223313D02*
G01*
X68545242Y-114271976D01*
X68677906Y-114342886D01*
X68693078Y-114350996D01*
X68822659Y-114457341D01*
X68929004Y-114586922D01*
X68929005Y-114586924D01*
X69008024Y-114734758D01*
X69056687Y-114895177D01*
X69073117Y-115062000D01*
X69056687Y-115228823D01*
X69008024Y-115389242D01*
X68956711Y-115485241D01*
X68929004Y-115537078D01*
X68822659Y-115666659D01*
X68693078Y-115773004D01*
X68693076Y-115773005D01*
X68545242Y-115852024D01*
X68384823Y-115900687D01*
X68259804Y-115913000D01*
X67376196Y-115913000D01*
X67251177Y-115900687D01*
X67090758Y-115852024D01*
X66942924Y-115773005D01*
X66942922Y-115773004D01*
X66813341Y-115666659D01*
X66706996Y-115537078D01*
X66679289Y-115485241D01*
X66627976Y-115389242D01*
X66579313Y-115228823D01*
X66562883Y-115062000D01*
X66579313Y-114895177D01*
X66627976Y-114734758D01*
X66706995Y-114586924D01*
X66706996Y-114586922D01*
X66813341Y-114457341D01*
X66942922Y-114350996D01*
X66958094Y-114342886D01*
X67090758Y-114271976D01*
X67251177Y-114223313D01*
X67376196Y-114211000D01*
X68259804Y-114211000D01*
X68384823Y-114223313D01*
G37*
G36*
X60764823Y-111683313D02*
G01*
X60925242Y-111731976D01*
X61057906Y-111802886D01*
X61073078Y-111810996D01*
X61202659Y-111917341D01*
X61309004Y-112046922D01*
X61309005Y-112046924D01*
X61388024Y-112194758D01*
X61436687Y-112355177D01*
X61453117Y-112522000D01*
X61436687Y-112688823D01*
X61388024Y-112849242D01*
X61345384Y-112929015D01*
X61309004Y-112997078D01*
X61202659Y-113126659D01*
X61073078Y-113233004D01*
X61073076Y-113233005D01*
X60925242Y-113312024D01*
X60764823Y-113360687D01*
X60639804Y-113373000D01*
X59756196Y-113373000D01*
X59631177Y-113360687D01*
X59470758Y-113312024D01*
X59322924Y-113233005D01*
X59322922Y-113233004D01*
X59193341Y-113126659D01*
X59086996Y-112997078D01*
X59050616Y-112929015D01*
X59007976Y-112849242D01*
X58959313Y-112688823D01*
X58942883Y-112522000D01*
X58959313Y-112355177D01*
X59007976Y-112194758D01*
X59086995Y-112046924D01*
X59086996Y-112046922D01*
X59193341Y-111917341D01*
X59322922Y-111810996D01*
X59338094Y-111802886D01*
X59470758Y-111731976D01*
X59631177Y-111683313D01*
X59756196Y-111671000D01*
X60639804Y-111671000D01*
X60764823Y-111683313D01*
G37*
G36*
X68384823Y-111683313D02*
G01*
X68545242Y-111731976D01*
X68677906Y-111802886D01*
X68693078Y-111810996D01*
X68822659Y-111917341D01*
X68929004Y-112046922D01*
X68929005Y-112046924D01*
X69008024Y-112194758D01*
X69056687Y-112355177D01*
X69073117Y-112522000D01*
X69056687Y-112688823D01*
X69008024Y-112849242D01*
X68965384Y-112929015D01*
X68929004Y-112997078D01*
X68822659Y-113126659D01*
X68693078Y-113233004D01*
X68693076Y-113233005D01*
X68545242Y-113312024D01*
X68384823Y-113360687D01*
X68259804Y-113373000D01*
X67376196Y-113373000D01*
X67251177Y-113360687D01*
X67090758Y-113312024D01*
X66942924Y-113233005D01*
X66942922Y-113233004D01*
X66813341Y-113126659D01*
X66706996Y-112997078D01*
X66670616Y-112929015D01*
X66627976Y-112849242D01*
X66579313Y-112688823D01*
X66562883Y-112522000D01*
X66579313Y-112355177D01*
X66627976Y-112194758D01*
X66706995Y-112046924D01*
X66706996Y-112046922D01*
X66813341Y-111917341D01*
X66942922Y-111810996D01*
X66958094Y-111802886D01*
X67090758Y-111731976D01*
X67251177Y-111683313D01*
X67376196Y-111671000D01*
X68259804Y-111671000D01*
X68384823Y-111683313D01*
G37*
G36*
X53334228Y-111449703D02*
G01*
X53489100Y-111513853D01*
X53628481Y-111606985D01*
X53747015Y-111725519D01*
X53840147Y-111864900D01*
X53904297Y-112019772D01*
X53937000Y-112184184D01*
X53937000Y-112351816D01*
X53904297Y-112516228D01*
X53840147Y-112671100D01*
X53747015Y-112810481D01*
X53628481Y-112929015D01*
X53489100Y-113022147D01*
X53334228Y-113086297D01*
X53169816Y-113119000D01*
X53002184Y-113119000D01*
X52837772Y-113086297D01*
X52682900Y-113022147D01*
X52543519Y-112929015D01*
X52424985Y-112810481D01*
X52331853Y-112671100D01*
X52267703Y-112516228D01*
X52235000Y-112351816D01*
X52235000Y-112184184D01*
X52267703Y-112019772D01*
X52331853Y-111864900D01*
X52424985Y-111725519D01*
X52543519Y-111606985D01*
X52682900Y-111513853D01*
X52837772Y-111449703D01*
X53002184Y-111417000D01*
X53169816Y-111417000D01*
X53334228Y-111449703D01*
G37*
G36*
X49524228Y-111449703D02*
G01*
X49679100Y-111513853D01*
X49818481Y-111606985D01*
X49937015Y-111725519D01*
X50030147Y-111864900D01*
X50094297Y-112019772D01*
X50127000Y-112184184D01*
X50127000Y-112351816D01*
X50094297Y-112516228D01*
X50030147Y-112671100D01*
X49937015Y-112810481D01*
X49818481Y-112929015D01*
X49679100Y-113022147D01*
X49524228Y-113086297D01*
X49359816Y-113119000D01*
X49192184Y-113119000D01*
X49027772Y-113086297D01*
X48872900Y-113022147D01*
X48733519Y-112929015D01*
X48614985Y-112810481D01*
X48521853Y-112671100D01*
X48457703Y-112516228D01*
X48425000Y-112351816D01*
X48425000Y-112184184D01*
X48457703Y-112019772D01*
X48521853Y-111864900D01*
X48614985Y-111725519D01*
X48733519Y-111606985D01*
X48872900Y-111513853D01*
X49027772Y-111449703D01*
X49192184Y-111417000D01*
X49359816Y-111417000D01*
X49524228Y-111449703D01*
G37*
G36*
X151886228Y-109271703D02*
G01*
X152041100Y-109335853D01*
X152180481Y-109428985D01*
X152299015Y-109547519D01*
X152392147Y-109686900D01*
X152456297Y-109841772D01*
X152489000Y-110006184D01*
X152489000Y-110173816D01*
X152456297Y-110338228D01*
X152392147Y-110493100D01*
X152299015Y-110632481D01*
X152180481Y-110751015D01*
X152041100Y-110844147D01*
X151886228Y-110908297D01*
X151721816Y-110941000D01*
X151554184Y-110941000D01*
X151389772Y-110908297D01*
X151234900Y-110844147D01*
X151095519Y-110751015D01*
X150976985Y-110632481D01*
X150883853Y-110493100D01*
X150819703Y-110338228D01*
X150787000Y-110173816D01*
X150787000Y-110006184D01*
X150819703Y-109841772D01*
X150883853Y-109686900D01*
X150976985Y-109547519D01*
X151095519Y-109428985D01*
X151234900Y-109335853D01*
X151389772Y-109271703D01*
X151554184Y-109239000D01*
X151721816Y-109239000D01*
X151886228Y-109271703D01*
G37*
G36*
X68384823Y-109143313D02*
G01*
X68545242Y-109191976D01*
X68677906Y-109262886D01*
X68693078Y-109270996D01*
X68822659Y-109377341D01*
X68929004Y-109506922D01*
X68929005Y-109506924D01*
X69008024Y-109654758D01*
X69056687Y-109815177D01*
X69073117Y-109982000D01*
X69056687Y-110148823D01*
X69008024Y-110309242D01*
X68992530Y-110338229D01*
X68929004Y-110457078D01*
X68822659Y-110586659D01*
X68693078Y-110693004D01*
X68693076Y-110693005D01*
X68545242Y-110772024D01*
X68384823Y-110820687D01*
X68259804Y-110833000D01*
X67376196Y-110833000D01*
X67251177Y-110820687D01*
X67090758Y-110772024D01*
X66942924Y-110693005D01*
X66942922Y-110693004D01*
X66813341Y-110586659D01*
X66706996Y-110457078D01*
X66643470Y-110338229D01*
X66627976Y-110309242D01*
X66579313Y-110148823D01*
X66562883Y-109982000D01*
X66579313Y-109815177D01*
X66627976Y-109654758D01*
X66706995Y-109506924D01*
X66706996Y-109506922D01*
X66813341Y-109377341D01*
X66942922Y-109270996D01*
X66958094Y-109262886D01*
X67090758Y-109191976D01*
X67251177Y-109143313D01*
X67376196Y-109131000D01*
X68259804Y-109131000D01*
X68384823Y-109143313D01*
G37*
G36*
X60764823Y-109143313D02*
G01*
X60925242Y-109191976D01*
X61057906Y-109262886D01*
X61073078Y-109270996D01*
X61202659Y-109377341D01*
X61309004Y-109506922D01*
X61309005Y-109506924D01*
X61388024Y-109654758D01*
X61436687Y-109815177D01*
X61453117Y-109982000D01*
X61436687Y-110148823D01*
X61388024Y-110309242D01*
X61372530Y-110338229D01*
X61309004Y-110457078D01*
X61202659Y-110586659D01*
X61073078Y-110693004D01*
X61073076Y-110693005D01*
X60925242Y-110772024D01*
X60764823Y-110820687D01*
X60639804Y-110833000D01*
X59756196Y-110833000D01*
X59631177Y-110820687D01*
X59470758Y-110772024D01*
X59322924Y-110693005D01*
X59322922Y-110693004D01*
X59193341Y-110586659D01*
X59086996Y-110457078D01*
X59023470Y-110338229D01*
X59007976Y-110309242D01*
X58959313Y-110148823D01*
X58942883Y-109982000D01*
X58959313Y-109815177D01*
X59007976Y-109654758D01*
X59086995Y-109506924D01*
X59086996Y-109506922D01*
X59193341Y-109377341D01*
X59322922Y-109270996D01*
X59338094Y-109262886D01*
X59470758Y-109191976D01*
X59631177Y-109143313D01*
X59756196Y-109131000D01*
X60639804Y-109131000D01*
X60764823Y-109143313D01*
G37*
G36*
X162837395Y-108305546D02*
G01*
X163010466Y-108377234D01*
X163010467Y-108377235D01*
X163166227Y-108481310D01*
X163298690Y-108613773D01*
X163298691Y-108613775D01*
X163402766Y-108769534D01*
X163474454Y-108942605D01*
X163511000Y-109126333D01*
X163511000Y-109313667D01*
X163474454Y-109497395D01*
X163402766Y-109670466D01*
X163402765Y-109670467D01*
X163298690Y-109826227D01*
X163166227Y-109958690D01*
X163131341Y-109982000D01*
X163010466Y-110062766D01*
X162837395Y-110134454D01*
X162653667Y-110171000D01*
X162466333Y-110171000D01*
X162282605Y-110134454D01*
X162109534Y-110062766D01*
X161988659Y-109982000D01*
X161953773Y-109958690D01*
X161821310Y-109826227D01*
X161717235Y-109670467D01*
X161717234Y-109670466D01*
X161645546Y-109497395D01*
X161609000Y-109313667D01*
X161609000Y-109126333D01*
X161645546Y-108942605D01*
X161717234Y-108769534D01*
X161821309Y-108613775D01*
X161821310Y-108613773D01*
X161953773Y-108481310D01*
X162109533Y-108377235D01*
X162109534Y-108377234D01*
X162282605Y-108305546D01*
X162466333Y-108269000D01*
X162653667Y-108269000D01*
X162837395Y-108305546D01*
G37*
G36*
X165377395Y-108305546D02*
G01*
X165550466Y-108377234D01*
X165550467Y-108377235D01*
X165706227Y-108481310D01*
X165838690Y-108613773D01*
X165838691Y-108613775D01*
X165942766Y-108769534D01*
X166014454Y-108942605D01*
X166051000Y-109126333D01*
X166051000Y-109313667D01*
X166014454Y-109497395D01*
X165942766Y-109670466D01*
X165942765Y-109670467D01*
X165838690Y-109826227D01*
X165706227Y-109958690D01*
X165671341Y-109982000D01*
X165550466Y-110062766D01*
X165377395Y-110134454D01*
X165193667Y-110171000D01*
X165006333Y-110171000D01*
X164822605Y-110134454D01*
X164649534Y-110062766D01*
X164528659Y-109982000D01*
X164493773Y-109958690D01*
X164361310Y-109826227D01*
X164257235Y-109670467D01*
X164257234Y-109670466D01*
X164185546Y-109497395D01*
X164149000Y-109313667D01*
X164149000Y-109126333D01*
X164185546Y-108942605D01*
X164257234Y-108769534D01*
X164361309Y-108613775D01*
X164361310Y-108613773D01*
X164493773Y-108481310D01*
X164649533Y-108377235D01*
X164649534Y-108377234D01*
X164822605Y-108305546D01*
X165006333Y-108269000D01*
X165193667Y-108269000D01*
X165377395Y-108305546D01*
G37*
G36*
X60764823Y-106603313D02*
G01*
X60925242Y-106651976D01*
X61057906Y-106722886D01*
X61073078Y-106730996D01*
X61202659Y-106837341D01*
X61309004Y-106966922D01*
X61309005Y-106966924D01*
X61388024Y-107114758D01*
X61436687Y-107275177D01*
X61453117Y-107442000D01*
X61436687Y-107608823D01*
X61388024Y-107769242D01*
X61345384Y-107849015D01*
X61309004Y-107917078D01*
X61202659Y-108046659D01*
X61073078Y-108153004D01*
X61073076Y-108153005D01*
X60925242Y-108232024D01*
X60764823Y-108280687D01*
X60639804Y-108293000D01*
X59756196Y-108293000D01*
X59631177Y-108280687D01*
X59470758Y-108232024D01*
X59322924Y-108153005D01*
X59322922Y-108153004D01*
X59193341Y-108046659D01*
X59086996Y-107917078D01*
X59050616Y-107849015D01*
X59007976Y-107769242D01*
X58959313Y-107608823D01*
X58942883Y-107442000D01*
X58959313Y-107275177D01*
X59007976Y-107114758D01*
X59086995Y-106966924D01*
X59086996Y-106966922D01*
X59193341Y-106837341D01*
X59322922Y-106730996D01*
X59338094Y-106722886D01*
X59470758Y-106651976D01*
X59631177Y-106603313D01*
X59756196Y-106591000D01*
X60639804Y-106591000D01*
X60764823Y-106603313D01*
G37*
G36*
X68384823Y-106603313D02*
G01*
X68545242Y-106651976D01*
X68677906Y-106722886D01*
X68693078Y-106730996D01*
X68822659Y-106837341D01*
X68929004Y-106966922D01*
X68929005Y-106966924D01*
X69008024Y-107114758D01*
X69056687Y-107275177D01*
X69073117Y-107442000D01*
X69056687Y-107608823D01*
X69008024Y-107769242D01*
X68965384Y-107849015D01*
X68929004Y-107917078D01*
X68822659Y-108046659D01*
X68693078Y-108153004D01*
X68693076Y-108153005D01*
X68545242Y-108232024D01*
X68384823Y-108280687D01*
X68259804Y-108293000D01*
X67376196Y-108293000D01*
X67251177Y-108280687D01*
X67090758Y-108232024D01*
X66942924Y-108153005D01*
X66942922Y-108153004D01*
X66813341Y-108046659D01*
X66706996Y-107917078D01*
X66670616Y-107849015D01*
X66627976Y-107769242D01*
X66579313Y-107608823D01*
X66562883Y-107442000D01*
X66579313Y-107275177D01*
X66627976Y-107114758D01*
X66706995Y-106966924D01*
X66706996Y-106966922D01*
X66813341Y-106837341D01*
X66942922Y-106730996D01*
X66958094Y-106722886D01*
X67090758Y-106651976D01*
X67251177Y-106603313D01*
X67376196Y-106591000D01*
X68259804Y-106591000D01*
X68384823Y-106603313D01*
G37*
G36*
X53588228Y-106369703D02*
G01*
X53743100Y-106433853D01*
X53882481Y-106526985D01*
X54001015Y-106645519D01*
X54094147Y-106784900D01*
X54158297Y-106939772D01*
X54191000Y-107104184D01*
X54191000Y-107271816D01*
X54158297Y-107436228D01*
X54094147Y-107591100D01*
X54001015Y-107730481D01*
X53882481Y-107849015D01*
X53743100Y-107942147D01*
X53588228Y-108006297D01*
X53423816Y-108039000D01*
X53256184Y-108039000D01*
X53091772Y-108006297D01*
X52936900Y-107942147D01*
X52797519Y-107849015D01*
X52678985Y-107730481D01*
X52585853Y-107591100D01*
X52521703Y-107436228D01*
X52489000Y-107271816D01*
X52489000Y-107104184D01*
X52521703Y-106939772D01*
X52585853Y-106784900D01*
X52678985Y-106645519D01*
X52797519Y-106526985D01*
X52936900Y-106433853D01*
X53091772Y-106369703D01*
X53256184Y-106337000D01*
X53423816Y-106337000D01*
X53588228Y-106369703D01*
G37*
G36*
X48588228Y-106369703D02*
G01*
X48743100Y-106433853D01*
X48882481Y-106526985D01*
X49001015Y-106645519D01*
X49094147Y-106784900D01*
X49158297Y-106939772D01*
X49191000Y-107104184D01*
X49191000Y-107271816D01*
X49158297Y-107436228D01*
X49094147Y-107591100D01*
X49001015Y-107730481D01*
X48882481Y-107849015D01*
X48743100Y-107942147D01*
X48588228Y-108006297D01*
X48423816Y-108039000D01*
X48256184Y-108039000D01*
X48091772Y-108006297D01*
X47936900Y-107942147D01*
X47797519Y-107849015D01*
X47678985Y-107730481D01*
X47585853Y-107591100D01*
X47521703Y-107436228D01*
X47489000Y-107271816D01*
X47489000Y-107104184D01*
X47521703Y-106939772D01*
X47585853Y-106784900D01*
X47678985Y-106645519D01*
X47797519Y-106526985D01*
X47936900Y-106433853D01*
X48091772Y-106369703D01*
X48256184Y-106337000D01*
X48423816Y-106337000D01*
X48588228Y-106369703D01*
G37*
G36*
X162837395Y-105765546D02*
G01*
X163010466Y-105837234D01*
X163010467Y-105837235D01*
X163166227Y-105941310D01*
X163298690Y-106073773D01*
X163298691Y-106073775D01*
X163402766Y-106229534D01*
X163474454Y-106402605D01*
X163511000Y-106586333D01*
X163511000Y-106773667D01*
X163474454Y-106957395D01*
X163402766Y-107130466D01*
X163402765Y-107130467D01*
X163298690Y-107286227D01*
X163166227Y-107418690D01*
X163139979Y-107436228D01*
X163010466Y-107522766D01*
X162837395Y-107594454D01*
X162653667Y-107631000D01*
X162466333Y-107631000D01*
X162282605Y-107594454D01*
X162109534Y-107522766D01*
X161980021Y-107436228D01*
X161953773Y-107418690D01*
X161821310Y-107286227D01*
X161717235Y-107130467D01*
X161717234Y-107130466D01*
X161645546Y-106957395D01*
X161609000Y-106773667D01*
X161609000Y-106586333D01*
X161645546Y-106402605D01*
X161717234Y-106229534D01*
X161821309Y-106073775D01*
X161821310Y-106073773D01*
X161953773Y-105941310D01*
X162109533Y-105837235D01*
X162109534Y-105837234D01*
X162282605Y-105765546D01*
X162466333Y-105729000D01*
X162653667Y-105729000D01*
X162837395Y-105765546D01*
G37*
G36*
X165377395Y-105765546D02*
G01*
X165550466Y-105837234D01*
X165550467Y-105837235D01*
X165706227Y-105941310D01*
X165838690Y-106073773D01*
X165838691Y-106073775D01*
X165942766Y-106229534D01*
X166014454Y-106402605D01*
X166051000Y-106586333D01*
X166051000Y-106773667D01*
X166014454Y-106957395D01*
X165942766Y-107130466D01*
X165942765Y-107130467D01*
X165838690Y-107286227D01*
X165706227Y-107418690D01*
X165679979Y-107436228D01*
X165550466Y-107522766D01*
X165377395Y-107594454D01*
X165193667Y-107631000D01*
X165006333Y-107631000D01*
X164822605Y-107594454D01*
X164649534Y-107522766D01*
X164520021Y-107436228D01*
X164493773Y-107418690D01*
X164361310Y-107286227D01*
X164257235Y-107130467D01*
X164257234Y-107130466D01*
X164185546Y-106957395D01*
X164149000Y-106773667D01*
X164149000Y-106586333D01*
X164185546Y-106402605D01*
X164257234Y-106229534D01*
X164361309Y-106073775D01*
X164361310Y-106073773D01*
X164493773Y-105941310D01*
X164649533Y-105837235D01*
X164649534Y-105837234D01*
X164822605Y-105765546D01*
X165006333Y-105729000D01*
X165193667Y-105729000D01*
X165377395Y-105765546D01*
G37*
G36*
X68384823Y-104063313D02*
G01*
X68545242Y-104111976D01*
X68677906Y-104182886D01*
X68693078Y-104190996D01*
X68822659Y-104297341D01*
X68929004Y-104426922D01*
X68929005Y-104426924D01*
X69008024Y-104574758D01*
X69056687Y-104735177D01*
X69073117Y-104902000D01*
X69056687Y-105068823D01*
X69008024Y-105229242D01*
X68937114Y-105361906D01*
X68929004Y-105377078D01*
X68822659Y-105506659D01*
X68693078Y-105613004D01*
X68693076Y-105613005D01*
X68545242Y-105692024D01*
X68384823Y-105740687D01*
X68259804Y-105753000D01*
X67376196Y-105753000D01*
X67251177Y-105740687D01*
X67090758Y-105692024D01*
X66942924Y-105613005D01*
X66942922Y-105613004D01*
X66813341Y-105506659D01*
X66706996Y-105377078D01*
X66698886Y-105361906D01*
X66627976Y-105229242D01*
X66579313Y-105068823D01*
X66562883Y-104902000D01*
X66579313Y-104735177D01*
X66627976Y-104574758D01*
X66706995Y-104426924D01*
X66706996Y-104426922D01*
X66813341Y-104297341D01*
X66942922Y-104190996D01*
X66958094Y-104182886D01*
X67090758Y-104111976D01*
X67251177Y-104063313D01*
X67376196Y-104051000D01*
X68259804Y-104051000D01*
X68384823Y-104063313D01*
G37*
G36*
X60764823Y-104063313D02*
G01*
X60925242Y-104111976D01*
X61057906Y-104182886D01*
X61073078Y-104190996D01*
X61202659Y-104297341D01*
X61309004Y-104426922D01*
X61309005Y-104426924D01*
X61388024Y-104574758D01*
X61436687Y-104735177D01*
X61453117Y-104902000D01*
X61436687Y-105068823D01*
X61388024Y-105229242D01*
X61317114Y-105361906D01*
X61309004Y-105377078D01*
X61202659Y-105506659D01*
X61073078Y-105613004D01*
X61073076Y-105613005D01*
X60925242Y-105692024D01*
X60764823Y-105740687D01*
X60639804Y-105753000D01*
X59756196Y-105753000D01*
X59631177Y-105740687D01*
X59470758Y-105692024D01*
X59322924Y-105613005D01*
X59322922Y-105613004D01*
X59193341Y-105506659D01*
X59086996Y-105377078D01*
X59078886Y-105361906D01*
X59007976Y-105229242D01*
X58959313Y-105068823D01*
X58942883Y-104902000D01*
X58959313Y-104735177D01*
X59007976Y-104574758D01*
X59086995Y-104426924D01*
X59086996Y-104426922D01*
X59193341Y-104297341D01*
X59322922Y-104190996D01*
X59338094Y-104182886D01*
X59470758Y-104111976D01*
X59631177Y-104063313D01*
X59756196Y-104051000D01*
X60639804Y-104051000D01*
X60764823Y-104063313D01*
G37*
G36*
X162837395Y-103225546D02*
G01*
X163010466Y-103297234D01*
X163010467Y-103297235D01*
X163166227Y-103401310D01*
X163298690Y-103533773D01*
X163298691Y-103533775D01*
X163402766Y-103689534D01*
X163474454Y-103862605D01*
X163511000Y-104046333D01*
X163511000Y-104233667D01*
X163474454Y-104417395D01*
X163402766Y-104590466D01*
X163402765Y-104590467D01*
X163298690Y-104746227D01*
X163166227Y-104878690D01*
X163131341Y-104902000D01*
X163010466Y-104982766D01*
X162837395Y-105054454D01*
X162653667Y-105091000D01*
X162466333Y-105091000D01*
X162282605Y-105054454D01*
X162109534Y-104982766D01*
X161988659Y-104902000D01*
X161953773Y-104878690D01*
X161821310Y-104746227D01*
X161717235Y-104590467D01*
X161717234Y-104590466D01*
X161645546Y-104417395D01*
X161609000Y-104233667D01*
X161609000Y-104046333D01*
X161645546Y-103862605D01*
X161717234Y-103689534D01*
X161821309Y-103533775D01*
X161821310Y-103533773D01*
X161953773Y-103401310D01*
X162109533Y-103297235D01*
X162109534Y-103297234D01*
X162282605Y-103225546D01*
X162466333Y-103189000D01*
X162653667Y-103189000D01*
X162837395Y-103225546D01*
G37*
G36*
X165377395Y-103225546D02*
G01*
X165550466Y-103297234D01*
X165550467Y-103297235D01*
X165706227Y-103401310D01*
X165838690Y-103533773D01*
X165838691Y-103533775D01*
X165942766Y-103689534D01*
X166014454Y-103862605D01*
X166051000Y-104046333D01*
X166051000Y-104233667D01*
X166014454Y-104417395D01*
X165942766Y-104590466D01*
X165942765Y-104590467D01*
X165838690Y-104746227D01*
X165706227Y-104878690D01*
X165671341Y-104902000D01*
X165550466Y-104982766D01*
X165377395Y-105054454D01*
X165193667Y-105091000D01*
X165006333Y-105091000D01*
X164822605Y-105054454D01*
X164649534Y-104982766D01*
X164528659Y-104902000D01*
X164493773Y-104878690D01*
X164361310Y-104746227D01*
X164257235Y-104590467D01*
X164257234Y-104590466D01*
X164185546Y-104417395D01*
X164149000Y-104233667D01*
X164149000Y-104046333D01*
X164185546Y-103862605D01*
X164257234Y-103689534D01*
X164361309Y-103533775D01*
X164361310Y-103533773D01*
X164493773Y-103401310D01*
X164649533Y-103297235D01*
X164649534Y-103297234D01*
X164822605Y-103225546D01*
X165006333Y-103189000D01*
X165193667Y-103189000D01*
X165377395Y-103225546D01*
G37*
G36*
X68384823Y-101523313D02*
G01*
X68545242Y-101571976D01*
X68677906Y-101642886D01*
X68693078Y-101650996D01*
X68822659Y-101757341D01*
X68929004Y-101886922D01*
X68929005Y-101886924D01*
X69008024Y-102034758D01*
X69056687Y-102195177D01*
X69073117Y-102362000D01*
X69056687Y-102528823D01*
X69008024Y-102689242D01*
X68937114Y-102821906D01*
X68929004Y-102837078D01*
X68822659Y-102966659D01*
X68693078Y-103073004D01*
X68693076Y-103073005D01*
X68545242Y-103152024D01*
X68384823Y-103200687D01*
X68259804Y-103213000D01*
X67376196Y-103213000D01*
X67251177Y-103200687D01*
X67090758Y-103152024D01*
X66942924Y-103073005D01*
X66942922Y-103073004D01*
X66813341Y-102966659D01*
X66706996Y-102837078D01*
X66698886Y-102821906D01*
X66627976Y-102689242D01*
X66579313Y-102528823D01*
X66562883Y-102362000D01*
X66579313Y-102195177D01*
X66627976Y-102034758D01*
X66706995Y-101886924D01*
X66706996Y-101886922D01*
X66813341Y-101757341D01*
X66942922Y-101650996D01*
X66958094Y-101642886D01*
X67090758Y-101571976D01*
X67251177Y-101523313D01*
X67376196Y-101511000D01*
X68259804Y-101511000D01*
X68384823Y-101523313D01*
G37*
G36*
X61449000Y-103213000D02*
G01*
X58947000Y-103213000D01*
X58947000Y-101511000D01*
X61449000Y-101511000D01*
X61449000Y-103213000D01*
G37*
G36*
X196003241Y-100204760D02*
G01*
X196267305Y-100314139D01*
X196504958Y-100472934D01*
X196707066Y-100675042D01*
X196865861Y-100912695D01*
X196975240Y-101176759D01*
X197031000Y-101457088D01*
X197031000Y-101742912D01*
X196975240Y-102023241D01*
X196865861Y-102287305D01*
X196707066Y-102524958D01*
X196504958Y-102727066D01*
X196267305Y-102885861D01*
X196003241Y-102995240D01*
X195722912Y-103051000D01*
X195437088Y-103051000D01*
X195156759Y-102995240D01*
X194892695Y-102885861D01*
X194655042Y-102727066D01*
X194452934Y-102524958D01*
X194294139Y-102287305D01*
X194184760Y-102023241D01*
X194129000Y-101742912D01*
X194129000Y-101457088D01*
X194184760Y-101176759D01*
X194294139Y-100912695D01*
X194452934Y-100675042D01*
X194655042Y-100472934D01*
X194892695Y-100314139D01*
X195156759Y-100204760D01*
X195437088Y-100149000D01*
X195722912Y-100149000D01*
X196003241Y-100204760D01*
G37*
G36*
X162837395Y-100685546D02*
G01*
X163010466Y-100757234D01*
X163010467Y-100757235D01*
X163166227Y-100861310D01*
X163298690Y-100993773D01*
X163299988Y-100995716D01*
X163402766Y-101149534D01*
X163474454Y-101322605D01*
X163511000Y-101506333D01*
X163511000Y-101693667D01*
X163474454Y-101877395D01*
X163402766Y-102050466D01*
X163402765Y-102050467D01*
X163298690Y-102206227D01*
X163166227Y-102338690D01*
X163131341Y-102362000D01*
X163010466Y-102442766D01*
X162837395Y-102514454D01*
X162653667Y-102551000D01*
X162466333Y-102551000D01*
X162282605Y-102514454D01*
X162109534Y-102442766D01*
X161988659Y-102362000D01*
X161953773Y-102338690D01*
X161821310Y-102206227D01*
X161717235Y-102050467D01*
X161717234Y-102050466D01*
X161645546Y-101877395D01*
X161609000Y-101693667D01*
X161609000Y-101506333D01*
X161645546Y-101322605D01*
X161717234Y-101149534D01*
X161820012Y-100995716D01*
X161821310Y-100993773D01*
X161953773Y-100861310D01*
X162109533Y-100757235D01*
X162109534Y-100757234D01*
X162282605Y-100685546D01*
X162466333Y-100649000D01*
X162653667Y-100649000D01*
X162837395Y-100685546D01*
G37*
G36*
X165377395Y-100685546D02*
G01*
X165550466Y-100757234D01*
X165550467Y-100757235D01*
X165706227Y-100861310D01*
X165838690Y-100993773D01*
X165839988Y-100995716D01*
X165942766Y-101149534D01*
X166014454Y-101322605D01*
X166051000Y-101506333D01*
X166051000Y-101693667D01*
X166014454Y-101877395D01*
X165942766Y-102050466D01*
X165942765Y-102050467D01*
X165838690Y-102206227D01*
X165706227Y-102338690D01*
X165671341Y-102362000D01*
X165550466Y-102442766D01*
X165377395Y-102514454D01*
X165193667Y-102551000D01*
X165006333Y-102551000D01*
X164822605Y-102514454D01*
X164649534Y-102442766D01*
X164528659Y-102362000D01*
X164493773Y-102338690D01*
X164361310Y-102206227D01*
X164257235Y-102050467D01*
X164257234Y-102050466D01*
X164185546Y-101877395D01*
X164149000Y-101693667D01*
X164149000Y-101506333D01*
X164185546Y-101322605D01*
X164257234Y-101149534D01*
X164360012Y-100995716D01*
X164361310Y-100993773D01*
X164493773Y-100861310D01*
X164649533Y-100757235D01*
X164649534Y-100757234D01*
X164822605Y-100685546D01*
X165006333Y-100649000D01*
X165193667Y-100649000D01*
X165377395Y-100685546D01*
G37*
G36*
X49805909Y-98803373D02*
G01*
X49894903Y-98821075D01*
X50122571Y-98915378D01*
X50327466Y-99052285D01*
X50501715Y-99226534D01*
X50568489Y-99326468D01*
X50638623Y-99431431D01*
X50732925Y-99659097D01*
X50781000Y-99900786D01*
X50781000Y-100147214D01*
X50747796Y-100314140D01*
X50732925Y-100388903D01*
X50638622Y-100616571D01*
X50501715Y-100821466D01*
X50327466Y-100995715D01*
X50122571Y-101132622D01*
X50122570Y-101132623D01*
X50122569Y-101132623D01*
X49894903Y-101226925D01*
X49653214Y-101275000D01*
X49406786Y-101275000D01*
X49165097Y-101226925D01*
X48937431Y-101132623D01*
X48937430Y-101132623D01*
X48937429Y-101132622D01*
X48732534Y-100995715D01*
X48558285Y-100821466D01*
X48421378Y-100616571D01*
X48327075Y-100388903D01*
X48312204Y-100314140D01*
X48279000Y-100147214D01*
X48279000Y-99900786D01*
X48327075Y-99659097D01*
X48421377Y-99431431D01*
X48491511Y-99326468D01*
X48558285Y-99226534D01*
X48732534Y-99052285D01*
X48937429Y-98915378D01*
X49165097Y-98821075D01*
X49254091Y-98803373D01*
X49406786Y-98773000D01*
X49653214Y-98773000D01*
X49805909Y-98803373D01*
G37*
G36*
X163511000Y-100011000D02*
G01*
X161609000Y-100011000D01*
X161609000Y-98109000D01*
X163511000Y-98109000D01*
X163511000Y-100011000D01*
G37*
G36*
X165377395Y-98145546D02*
G01*
X165550466Y-98217234D01*
X165565414Y-98227222D01*
X165706227Y-98321310D01*
X165838690Y-98453773D01*
X165854217Y-98477011D01*
X165942766Y-98609534D01*
X166014454Y-98782605D01*
X166051000Y-98966333D01*
X166051000Y-99153667D01*
X166014454Y-99337395D01*
X165942766Y-99510466D01*
X165942765Y-99510467D01*
X165838690Y-99666227D01*
X165706227Y-99798690D01*
X165627818Y-99851081D01*
X165550466Y-99902766D01*
X165377395Y-99974454D01*
X165193667Y-100011000D01*
X165006333Y-100011000D01*
X164822605Y-99974454D01*
X164649534Y-99902766D01*
X164572182Y-99851081D01*
X164493773Y-99798690D01*
X164361310Y-99666227D01*
X164257235Y-99510467D01*
X164257234Y-99510466D01*
X164185546Y-99337395D01*
X164149000Y-99153667D01*
X164149000Y-98966333D01*
X164185546Y-98782605D01*
X164257234Y-98609534D01*
X164345783Y-98477011D01*
X164361310Y-98453773D01*
X164493773Y-98321310D01*
X164634586Y-98227222D01*
X164649534Y-98217234D01*
X164822605Y-98145546D01*
X165006333Y-98109000D01*
X165193667Y-98109000D01*
X165377395Y-98145546D01*
G37*
G36*
X42399443Y-98085519D02*
G01*
X42465627Y-98092037D01*
X42635466Y-98143557D01*
X42791991Y-98227222D01*
X42827729Y-98256552D01*
X42929186Y-98339814D01*
X43012448Y-98441271D01*
X43041778Y-98477009D01*
X43125443Y-98633534D01*
X43176963Y-98803373D01*
X43194359Y-98980000D01*
X43176963Y-99156627D01*
X43125443Y-99326466D01*
X43041778Y-99482991D01*
X43019230Y-99510466D01*
X42929186Y-99620186D01*
X42827729Y-99703448D01*
X42791991Y-99732778D01*
X42635466Y-99816443D01*
X42465627Y-99867963D01*
X42399442Y-99874482D01*
X42333260Y-99881000D01*
X41994740Y-99881000D01*
X41928558Y-99874482D01*
X41862373Y-99867963D01*
X41692534Y-99816443D01*
X41536009Y-99732778D01*
X41500271Y-99703448D01*
X41398814Y-99620186D01*
X41308770Y-99510466D01*
X41286222Y-99482991D01*
X41202557Y-99326466D01*
X41151037Y-99156627D01*
X41133641Y-98980000D01*
X41151037Y-98803373D01*
X41202557Y-98633534D01*
X41286222Y-98477009D01*
X41315552Y-98441271D01*
X41398814Y-98339814D01*
X41500271Y-98256552D01*
X41536009Y-98227222D01*
X41692534Y-98143557D01*
X41862373Y-98092037D01*
X41928557Y-98085519D01*
X41994740Y-98079000D01*
X42333260Y-98079000D01*
X42399443Y-98085519D01*
G37*
G36*
X42399443Y-95585519D02*
G01*
X42465627Y-95592037D01*
X42635466Y-95643557D01*
X42791991Y-95727222D01*
X42827729Y-95756552D01*
X42929186Y-95839814D01*
X43012448Y-95941271D01*
X43041778Y-95977009D01*
X43125443Y-96133534D01*
X43176963Y-96303373D01*
X43194359Y-96480000D01*
X43176963Y-96656627D01*
X43125443Y-96826466D01*
X43041778Y-96982991D01*
X43012448Y-97018729D01*
X42929186Y-97120186D01*
X42827729Y-97203448D01*
X42791991Y-97232778D01*
X42635466Y-97316443D01*
X42465627Y-97367963D01*
X42399442Y-97374482D01*
X42333260Y-97381000D01*
X41994740Y-97381000D01*
X41928558Y-97374482D01*
X41862373Y-97367963D01*
X41692534Y-97316443D01*
X41536009Y-97232778D01*
X41500271Y-97203448D01*
X41398814Y-97120186D01*
X41315552Y-97018729D01*
X41286222Y-96982991D01*
X41202557Y-96826466D01*
X41151037Y-96656627D01*
X41133641Y-96480000D01*
X41151037Y-96303373D01*
X41202557Y-96133534D01*
X41286222Y-95977009D01*
X41315552Y-95941271D01*
X41398814Y-95839814D01*
X41500271Y-95756552D01*
X41536009Y-95727222D01*
X41692534Y-95643557D01*
X41862373Y-95592037D01*
X41928557Y-95585519D01*
X41994740Y-95579000D01*
X42333260Y-95579000D01*
X42399443Y-95585519D01*
G37*
G36*
X196003241Y-92584760D02*
G01*
X196267305Y-92694139D01*
X196504958Y-92852934D01*
X196707066Y-93055042D01*
X196865861Y-93292695D01*
X196975240Y-93556759D01*
X197031000Y-93837088D01*
X197031000Y-94122912D01*
X196975240Y-94403241D01*
X196865861Y-94667305D01*
X196707066Y-94904958D01*
X196504958Y-95107066D01*
X196267305Y-95265861D01*
X196003241Y-95375240D01*
X195722912Y-95431000D01*
X195437088Y-95431000D01*
X195156759Y-95375240D01*
X194892695Y-95265861D01*
X194655042Y-95107066D01*
X194452934Y-94904958D01*
X194294139Y-94667305D01*
X194184760Y-94403241D01*
X194129000Y-94122912D01*
X194129000Y-93837088D01*
X194184760Y-93556759D01*
X194294139Y-93292695D01*
X194452934Y-93055042D01*
X194655042Y-92852934D01*
X194892695Y-92694139D01*
X195156759Y-92584760D01*
X195437088Y-92529000D01*
X195722912Y-92529000D01*
X196003241Y-92584760D01*
G37*
G36*
X43047600Y-93082989D02*
G01*
X43080652Y-93093015D01*
X43111103Y-93109292D01*
X43137799Y-93131201D01*
X43159708Y-93157897D01*
X43175985Y-93188348D01*
X43186011Y-93221400D01*
X43190000Y-93261903D01*
X43190000Y-94698097D01*
X43186011Y-94738600D01*
X43175985Y-94771652D01*
X43159708Y-94802103D01*
X43137799Y-94828799D01*
X43111103Y-94850708D01*
X43080652Y-94866985D01*
X43047600Y-94877011D01*
X43007097Y-94881000D01*
X41320903Y-94881000D01*
X41280400Y-94877011D01*
X41247348Y-94866985D01*
X41216897Y-94850708D01*
X41190201Y-94828799D01*
X41168292Y-94802103D01*
X41152015Y-94771652D01*
X41141989Y-94738600D01*
X41138000Y-94698097D01*
X41138000Y-93261903D01*
X41141989Y-93221400D01*
X41152015Y-93188348D01*
X41168292Y-93157897D01*
X41190201Y-93131201D01*
X41216897Y-93109292D01*
X41247348Y-93093015D01*
X41280400Y-93082989D01*
X41320903Y-93079000D01*
X43007097Y-93079000D01*
X43047600Y-93082989D01*
G37*
G36*
X164253241Y-91822760D02*
G01*
X164517305Y-91932139D01*
X164754958Y-92090934D01*
X164957066Y-92293042D01*
X165115861Y-92530695D01*
X165225240Y-92794759D01*
X165281000Y-93075088D01*
X165281000Y-93360912D01*
X165225240Y-93641241D01*
X165115861Y-93905305D01*
X164957066Y-94142958D01*
X164754958Y-94345066D01*
X164517305Y-94503861D01*
X164253241Y-94613240D01*
X163972912Y-94669000D01*
X163687088Y-94669000D01*
X163406759Y-94613240D01*
X163142695Y-94503861D01*
X162905042Y-94345066D01*
X162702934Y-94142958D01*
X162544139Y-93905305D01*
X162434760Y-93641241D01*
X162379000Y-93360912D01*
X162379000Y-93075088D01*
X162434760Y-92794759D01*
X162544139Y-92530695D01*
X162702934Y-92293042D01*
X162905042Y-92090934D01*
X163142695Y-91932139D01*
X163406759Y-91822760D01*
X163687088Y-91767000D01*
X163972912Y-91767000D01*
X164253241Y-91822760D01*
G37*
G36*
X196003241Y-84964760D02*
G01*
X196267305Y-85074139D01*
X196504958Y-85232934D01*
X196707066Y-85435042D01*
X196865861Y-85672695D01*
X196975240Y-85936759D01*
X197031000Y-86217088D01*
X197031000Y-86502912D01*
X196975240Y-86783241D01*
X196865861Y-87047305D01*
X196707066Y-87284958D01*
X196504958Y-87487066D01*
X196267305Y-87645861D01*
X196003241Y-87755240D01*
X195722912Y-87811000D01*
X195437088Y-87811000D01*
X195156759Y-87755240D01*
X194892695Y-87645861D01*
X194655042Y-87487066D01*
X194452934Y-87284958D01*
X194294139Y-87047305D01*
X194184760Y-86783241D01*
X194129000Y-86502912D01*
X194129000Y-86217088D01*
X194184760Y-85936759D01*
X194294139Y-85672695D01*
X194452934Y-85435042D01*
X194655042Y-85232934D01*
X194892695Y-85074139D01*
X195156759Y-84964760D01*
X195437088Y-84909000D01*
X195722912Y-84909000D01*
X196003241Y-84964760D01*
G37*
G36*
X151886228Y-84271703D02*
G01*
X152041100Y-84335853D01*
X152180481Y-84428985D01*
X152299015Y-84547519D01*
X152392147Y-84686900D01*
X152456297Y-84841772D01*
X152489000Y-85006184D01*
X152489000Y-85173816D01*
X152456297Y-85338228D01*
X152392147Y-85493100D01*
X152299015Y-85632481D01*
X152180481Y-85751015D01*
X152041100Y-85844147D01*
X151886228Y-85908297D01*
X151721816Y-85941000D01*
X151554184Y-85941000D01*
X151389772Y-85908297D01*
X151234900Y-85844147D01*
X151095519Y-85751015D01*
X150976985Y-85632481D01*
X150883853Y-85493100D01*
X150819703Y-85338228D01*
X150787000Y-85173816D01*
X150787000Y-85006184D01*
X150819703Y-84841772D01*
X150883853Y-84686900D01*
X150976985Y-84547519D01*
X151095519Y-84428985D01*
X151234900Y-84335853D01*
X151389772Y-84271703D01*
X151554184Y-84239000D01*
X151721816Y-84239000D01*
X151886228Y-84271703D01*
G37*
G36*
X41891000Y-83801000D02*
G01*
X39389000Y-83801000D01*
X39389000Y-81299000D01*
X41891000Y-81299000D01*
X41891000Y-83801000D01*
G37*
G36*
X66004903Y-81347075D02*
G01*
X66232571Y-81441378D01*
X66437466Y-81578285D01*
X66611715Y-81752534D01*
X66748622Y-81957429D01*
X66842925Y-82185097D01*
X66891000Y-82426787D01*
X66891000Y-82673213D01*
X66842925Y-82914903D01*
X66748622Y-83142571D01*
X66611715Y-83347466D01*
X66437466Y-83521715D01*
X66232571Y-83658622D01*
X66232570Y-83658623D01*
X66232569Y-83658623D01*
X66004903Y-83752925D01*
X65763214Y-83801000D01*
X65516786Y-83801000D01*
X65275097Y-83752925D01*
X65047431Y-83658623D01*
X65047430Y-83658623D01*
X65047429Y-83658622D01*
X64842534Y-83521715D01*
X64668285Y-83347466D01*
X64531378Y-83142571D01*
X64437075Y-82914903D01*
X64389000Y-82673213D01*
X64389000Y-82426787D01*
X64437075Y-82185097D01*
X64531378Y-81957429D01*
X64668285Y-81752534D01*
X64842534Y-81578285D01*
X65047429Y-81441378D01*
X65275097Y-81347075D01*
X65516786Y-81299000D01*
X65763214Y-81299000D01*
X66004903Y-81347075D01*
G37*
G36*
X75908627Y-81537037D02*
G01*
X76078466Y-81588557D01*
X76234991Y-81672222D01*
X76270729Y-81701552D01*
X76372186Y-81784814D01*
X76455448Y-81886271D01*
X76484778Y-81922009D01*
X76568443Y-82078534D01*
X76619963Y-82248374D01*
X76633000Y-82380743D01*
X76633000Y-82719258D01*
X76619963Y-82851627D01*
X76568443Y-83021466D01*
X76484778Y-83177991D01*
X76455448Y-83213729D01*
X76372186Y-83315186D01*
X76234989Y-83427779D01*
X76078467Y-83511442D01*
X76078465Y-83511443D01*
X75908626Y-83562963D01*
X75732000Y-83580359D01*
X75555373Y-83562963D01*
X75385534Y-83511443D01*
X75229009Y-83427778D01*
X75186750Y-83393097D01*
X75091814Y-83315186D01*
X74979221Y-83177989D01*
X74895558Y-83021467D01*
X74863232Y-82914903D01*
X74844037Y-82851626D01*
X74831000Y-82719257D01*
X74831000Y-82380742D01*
X74844037Y-82248373D01*
X74895557Y-82078534D01*
X74979222Y-81922009D01*
X75091815Y-81784815D01*
X75229010Y-81672222D01*
X75385535Y-81588557D01*
X75555374Y-81537037D01*
X75732000Y-81519641D01*
X75908627Y-81537037D01*
G37*
G36*
X78408627Y-81537037D02*
G01*
X78578466Y-81588557D01*
X78734991Y-81672222D01*
X78770729Y-81701552D01*
X78872186Y-81784814D01*
X78955448Y-81886271D01*
X78984778Y-81922009D01*
X79068443Y-82078534D01*
X79119963Y-82248374D01*
X79133000Y-82380743D01*
X79133000Y-82719258D01*
X79119963Y-82851627D01*
X79068443Y-83021466D01*
X78984778Y-83177991D01*
X78955448Y-83213729D01*
X78872186Y-83315186D01*
X78734989Y-83427779D01*
X78578467Y-83511442D01*
X78578465Y-83511443D01*
X78408626Y-83562963D01*
X78232000Y-83580359D01*
X78055373Y-83562963D01*
X77885534Y-83511443D01*
X77729009Y-83427778D01*
X77686750Y-83393097D01*
X77591814Y-83315186D01*
X77479221Y-83177989D01*
X77395558Y-83021467D01*
X77363232Y-82914903D01*
X77344037Y-82851626D01*
X77331000Y-82719257D01*
X77331000Y-82380742D01*
X77344037Y-82248373D01*
X77395557Y-82078534D01*
X77479222Y-81922009D01*
X77591815Y-81784815D01*
X77729010Y-81672222D01*
X77885535Y-81588557D01*
X78055374Y-81537037D01*
X78232000Y-81519641D01*
X78408627Y-81537037D01*
G37*
G36*
X81490600Y-81527989D02*
G01*
X81523652Y-81538015D01*
X81554103Y-81554292D01*
X81580799Y-81576201D01*
X81602708Y-81602897D01*
X81618985Y-81633348D01*
X81629011Y-81666400D01*
X81633000Y-81706903D01*
X81633000Y-83393097D01*
X81629011Y-83433600D01*
X81618985Y-83466652D01*
X81602708Y-83497103D01*
X81580799Y-83523799D01*
X81554103Y-83545708D01*
X81523652Y-83561985D01*
X81490600Y-83572011D01*
X81450097Y-83576000D01*
X80013903Y-83576000D01*
X79973400Y-83572011D01*
X79940348Y-83561985D01*
X79909897Y-83545708D01*
X79883201Y-83523799D01*
X79861292Y-83497103D01*
X79845015Y-83466652D01*
X79834989Y-83433600D01*
X79831000Y-83393097D01*
X79831000Y-81706903D01*
X79834989Y-81666400D01*
X79845015Y-81633348D01*
X79861292Y-81602897D01*
X79883201Y-81576201D01*
X79909897Y-81554292D01*
X79940348Y-81538015D01*
X79973400Y-81527989D01*
X80013903Y-81524000D01*
X81450097Y-81524000D01*
X81490600Y-81527989D01*
G37*
G36*
X82521890Y-79924017D02*
G01*
X82640364Y-79973091D01*
X82746988Y-80044335D01*
X82837665Y-80135012D01*
X82908909Y-80241636D01*
X82957983Y-80360110D01*
X82983000Y-80485882D01*
X82983000Y-80614118D01*
X82957983Y-80739890D01*
X82908909Y-80858364D01*
X82837665Y-80964988D01*
X82746988Y-81055665D01*
X82640364Y-81126909D01*
X82640363Y-81126910D01*
X82640362Y-81126910D01*
X82521890Y-81175983D01*
X82396119Y-81201000D01*
X82267881Y-81201000D01*
X82142110Y-81175983D01*
X82023638Y-81126910D01*
X82023637Y-81126910D01*
X82023636Y-81126909D01*
X81917012Y-81055665D01*
X81826335Y-80964988D01*
X81755091Y-80858364D01*
X81706017Y-80739890D01*
X81681000Y-80614118D01*
X81681000Y-80485882D01*
X81706017Y-80360110D01*
X81755091Y-80241636D01*
X81826335Y-80135012D01*
X81917012Y-80044335D01*
X82023636Y-79973091D01*
X82142110Y-79924017D01*
X82267881Y-79899000D01*
X82396119Y-79899000D01*
X82521890Y-79924017D01*
G37*
G36*
X153298601Y-77900397D02*
G01*
X153337305Y-77908096D01*
X153369340Y-77921365D01*
X153446680Y-77953400D01*
X153545115Y-78019173D01*
X153628827Y-78102885D01*
X153694600Y-78201320D01*
X153739904Y-78310696D01*
X153763000Y-78426805D01*
X153763000Y-78545195D01*
X153739904Y-78661304D01*
X153694600Y-78770680D01*
X153628827Y-78869115D01*
X153545115Y-78952827D01*
X153446680Y-79018600D01*
X153369340Y-79050635D01*
X153337305Y-79063904D01*
X153298601Y-79071603D01*
X153221195Y-79087000D01*
X153102805Y-79087000D01*
X153025399Y-79071603D01*
X152986695Y-79063904D01*
X152954660Y-79050635D01*
X152877320Y-79018600D01*
X152778885Y-78952827D01*
X152695173Y-78869115D01*
X152629400Y-78770680D01*
X152584096Y-78661304D01*
X152561000Y-78545195D01*
X152561000Y-78426805D01*
X152584096Y-78310696D01*
X152629400Y-78201320D01*
X152695173Y-78102885D01*
X152778885Y-78019173D01*
X152877320Y-77953400D01*
X152954660Y-77921365D01*
X152986695Y-77908096D01*
X153025399Y-77900397D01*
X153102805Y-77885000D01*
X153221195Y-77885000D01*
X153298601Y-77900397D01*
G37*
G36*
X150758601Y-77900397D02*
G01*
X150797305Y-77908096D01*
X150829340Y-77921365D01*
X150906680Y-77953400D01*
X151005115Y-78019173D01*
X151088827Y-78102885D01*
X151154600Y-78201320D01*
X151199904Y-78310696D01*
X151223000Y-78426805D01*
X151223000Y-78545195D01*
X151199904Y-78661304D01*
X151154600Y-78770680D01*
X151088827Y-78869115D01*
X151005115Y-78952827D01*
X150906680Y-79018600D01*
X150829340Y-79050635D01*
X150797305Y-79063904D01*
X150758601Y-79071603D01*
X150681195Y-79087000D01*
X150562805Y-79087000D01*
X150485399Y-79071603D01*
X150446695Y-79063904D01*
X150414660Y-79050635D01*
X150337320Y-79018600D01*
X150238885Y-78952827D01*
X150155173Y-78869115D01*
X150089400Y-78770680D01*
X150044096Y-78661304D01*
X150021000Y-78545195D01*
X150021000Y-78426805D01*
X150044096Y-78310696D01*
X150089400Y-78201320D01*
X150155173Y-78102885D01*
X150238885Y-78019173D01*
X150337320Y-77953400D01*
X150414660Y-77921365D01*
X150446695Y-77908096D01*
X150485399Y-77900397D01*
X150562805Y-77885000D01*
X150681195Y-77885000D01*
X150758601Y-77900397D01*
G37*
G36*
X153468564Y-74935389D02*
G01*
X153659833Y-75014615D01*
X153659835Y-75014616D01*
X153666396Y-75019000D01*
X153831973Y-75129635D01*
X153978365Y-75276027D01*
X154093385Y-75448167D01*
X154172611Y-75639436D01*
X154213000Y-75842484D01*
X154213000Y-76049516D01*
X154172611Y-76252564D01*
X154093385Y-76443833D01*
X154093384Y-76443835D01*
X153978365Y-76615973D01*
X153831973Y-76762365D01*
X153659835Y-76877384D01*
X153659834Y-76877385D01*
X153659833Y-76877385D01*
X153468564Y-76956611D01*
X153265516Y-76997000D01*
X153058484Y-76997000D01*
X152855436Y-76956611D01*
X152664167Y-76877385D01*
X152664166Y-76877385D01*
X152664165Y-76877384D01*
X152492027Y-76762365D01*
X152345635Y-76615973D01*
X152230616Y-76443835D01*
X152230615Y-76443833D01*
X152151389Y-76252564D01*
X152111000Y-76049516D01*
X152111000Y-75842484D01*
X152151389Y-75639436D01*
X152230615Y-75448167D01*
X152345635Y-75276027D01*
X152492027Y-75129635D01*
X152657604Y-75019000D01*
X152664165Y-75014616D01*
X152664167Y-75014615D01*
X152855436Y-74935389D01*
X153058484Y-74895000D01*
X153265516Y-74895000D01*
X153468564Y-74935389D01*
G37*
G36*
X150928564Y-74935389D02*
G01*
X151119833Y-75014615D01*
X151119835Y-75014616D01*
X151126396Y-75019000D01*
X151291973Y-75129635D01*
X151438365Y-75276027D01*
X151553385Y-75448167D01*
X151632611Y-75639436D01*
X151673000Y-75842484D01*
X151673000Y-76049516D01*
X151632611Y-76252564D01*
X151553385Y-76443833D01*
X151553384Y-76443835D01*
X151438365Y-76615973D01*
X151291973Y-76762365D01*
X151119835Y-76877384D01*
X151119834Y-76877385D01*
X151119833Y-76877385D01*
X150928564Y-76956611D01*
X150725516Y-76997000D01*
X150518484Y-76997000D01*
X150315436Y-76956611D01*
X150124167Y-76877385D01*
X150124166Y-76877385D01*
X150124165Y-76877384D01*
X149952027Y-76762365D01*
X149805635Y-76615973D01*
X149690616Y-76443835D01*
X149690615Y-76443833D01*
X149611389Y-76252564D01*
X149571000Y-76049516D01*
X149571000Y-75842484D01*
X149611389Y-75639436D01*
X149690615Y-75448167D01*
X149805635Y-75276027D01*
X149952027Y-75129635D01*
X150117604Y-75019000D01*
X150124165Y-75014616D01*
X150124167Y-75014615D01*
X150315436Y-74935389D01*
X150518484Y-74895000D01*
X150725516Y-74895000D01*
X150928564Y-74935389D01*
G37*
G36*
X65780228Y-73349703D02*
G01*
X65935100Y-73413853D01*
X66074481Y-73506985D01*
X66193015Y-73625519D01*
X66286147Y-73764900D01*
X66350297Y-73919772D01*
X66383000Y-74084184D01*
X66383000Y-74251816D01*
X66350297Y-74416228D01*
X66286147Y-74571100D01*
X66193015Y-74710481D01*
X66074481Y-74829015D01*
X65935100Y-74922147D01*
X65780228Y-74986297D01*
X65615816Y-75019000D01*
X65448184Y-75019000D01*
X65283772Y-74986297D01*
X65128900Y-74922147D01*
X64989519Y-74829015D01*
X64870985Y-74710481D01*
X64777853Y-74571100D01*
X64713703Y-74416228D01*
X64681000Y-74251816D01*
X64681000Y-74084184D01*
X64713703Y-73919772D01*
X64777853Y-73764900D01*
X64870985Y-73625519D01*
X64989519Y-73506985D01*
X65128900Y-73413853D01*
X65283772Y-73349703D01*
X65448184Y-73317000D01*
X65615816Y-73317000D01*
X65780228Y-73349703D01*
G37*
G36*
X59176228Y-73349703D02*
G01*
X59331100Y-73413853D01*
X59470481Y-73506985D01*
X59589015Y-73625519D01*
X59682147Y-73764900D01*
X59746297Y-73919772D01*
X59779000Y-74084184D01*
X59779000Y-74251816D01*
X59746297Y-74416228D01*
X59682147Y-74571100D01*
X59589015Y-74710481D01*
X59470481Y-74829015D01*
X59331100Y-74922147D01*
X59176228Y-74986297D01*
X59011816Y-75019000D01*
X58844184Y-75019000D01*
X58679772Y-74986297D01*
X58524900Y-74922147D01*
X58385519Y-74829015D01*
X58266985Y-74710481D01*
X58173853Y-74571100D01*
X58109703Y-74416228D01*
X58077000Y-74251816D01*
X58077000Y-74084184D01*
X58109703Y-73919772D01*
X58173853Y-73764900D01*
X58266985Y-73625519D01*
X58385519Y-73506985D01*
X58524900Y-73413853D01*
X58679772Y-73349703D01*
X58844184Y-73317000D01*
X59011816Y-73317000D01*
X59176228Y-73349703D01*
G37*
G36*
X190415241Y-71930760D02*
G01*
X190679305Y-72040139D01*
X190916958Y-72198934D01*
X191119066Y-72401042D01*
X191277861Y-72638695D01*
X191387240Y-72902759D01*
X191443000Y-73183088D01*
X191443000Y-73468912D01*
X191387240Y-73749241D01*
X191277861Y-74013305D01*
X191119066Y-74250958D01*
X190916958Y-74453066D01*
X190679305Y-74611861D01*
X190415241Y-74721240D01*
X190134912Y-74777000D01*
X189849088Y-74777000D01*
X189568759Y-74721240D01*
X189304695Y-74611861D01*
X189067042Y-74453066D01*
X188864934Y-74250958D01*
X188706139Y-74013305D01*
X188596760Y-73749241D01*
X188541000Y-73468912D01*
X188541000Y-73183088D01*
X188596760Y-72902759D01*
X188706139Y-72638695D01*
X188864934Y-72401042D01*
X189067042Y-72198934D01*
X189304695Y-72040139D01*
X189568759Y-71930760D01*
X189849088Y-71875000D01*
X190134912Y-71875000D01*
X190415241Y-71930760D01*
G37*
G36*
X169158228Y-73095703D02*
G01*
X169313100Y-73159853D01*
X169452481Y-73252985D01*
X169571015Y-73371519D01*
X169664147Y-73510900D01*
X169728297Y-73665772D01*
X169761000Y-73830184D01*
X169761000Y-73997816D01*
X169728297Y-74162228D01*
X169664147Y-74317100D01*
X169571015Y-74456481D01*
X169452481Y-74575015D01*
X169313100Y-74668147D01*
X169158228Y-74732297D01*
X168993816Y-74765000D01*
X168826184Y-74765000D01*
X168661772Y-74732297D01*
X168506900Y-74668147D01*
X168367519Y-74575015D01*
X168248985Y-74456481D01*
X168155853Y-74317100D01*
X168091703Y-74162228D01*
X168059000Y-73997816D01*
X168059000Y-73830184D01*
X168091703Y-73665772D01*
X168155853Y-73510900D01*
X168248985Y-73371519D01*
X168367519Y-73252985D01*
X168506900Y-73159853D01*
X168661772Y-73095703D01*
X168826184Y-73063000D01*
X168993816Y-73063000D01*
X169158228Y-73095703D01*
G37*
G36*
X179318228Y-73095703D02*
G01*
X179473100Y-73159853D01*
X179612481Y-73252985D01*
X179731015Y-73371519D01*
X179824147Y-73510900D01*
X179888297Y-73665772D01*
X179921000Y-73830184D01*
X179921000Y-73997816D01*
X179888297Y-74162228D01*
X179824147Y-74317100D01*
X179731015Y-74456481D01*
X179612481Y-74575015D01*
X179473100Y-74668147D01*
X179318228Y-74732297D01*
X179153816Y-74765000D01*
X178986184Y-74765000D01*
X178821772Y-74732297D01*
X178666900Y-74668147D01*
X178527519Y-74575015D01*
X178408985Y-74456481D01*
X178315853Y-74317100D01*
X178251703Y-74162228D01*
X178219000Y-73997816D01*
X178219000Y-73830184D01*
X178251703Y-73665772D01*
X178315853Y-73510900D01*
X178408985Y-73371519D01*
X178527519Y-73252985D01*
X178666900Y-73159853D01*
X178821772Y-73095703D01*
X178986184Y-73063000D01*
X179153816Y-73063000D01*
X179318228Y-73095703D01*
G37*
G36*
X41708564Y-68331389D02*
G01*
X41899833Y-68410615D01*
X41899835Y-68410616D01*
X42071973Y-68525635D01*
X42218365Y-68672027D01*
X42321345Y-68826147D01*
X42333385Y-68844167D01*
X42412611Y-69035436D01*
X42453000Y-69238484D01*
X42453000Y-69445516D01*
X42412611Y-69648564D01*
X42359411Y-69777000D01*
X42333384Y-69839835D01*
X42218365Y-70011973D01*
X42071973Y-70158365D01*
X41899835Y-70273384D01*
X41899834Y-70273385D01*
X41899833Y-70273385D01*
X41708564Y-70352611D01*
X41505516Y-70393000D01*
X41298484Y-70393000D01*
X41095436Y-70352611D01*
X40904167Y-70273385D01*
X40904166Y-70273385D01*
X40904165Y-70273384D01*
X40732027Y-70158365D01*
X40585635Y-70011973D01*
X40470616Y-69839835D01*
X40444589Y-69777000D01*
X40391389Y-69648564D01*
X40351000Y-69445516D01*
X40351000Y-69238484D01*
X40391389Y-69035436D01*
X40470615Y-68844167D01*
X40482656Y-68826147D01*
X40585635Y-68672027D01*
X40732027Y-68525635D01*
X40904165Y-68410616D01*
X40904167Y-68410615D01*
X41095436Y-68331389D01*
X41298484Y-68291000D01*
X41505516Y-68291000D01*
X41708564Y-68331389D01*
G37*
G36*
X38998601Y-68756397D02*
G01*
X39037305Y-68764096D01*
X39069340Y-68777365D01*
X39146680Y-68809400D01*
X39245115Y-68875173D01*
X39328827Y-68958885D01*
X39394600Y-69057320D01*
X39439904Y-69166696D01*
X39463000Y-69282805D01*
X39463000Y-69401195D01*
X39439904Y-69517304D01*
X39394600Y-69626680D01*
X39328827Y-69725115D01*
X39245115Y-69808827D01*
X39146680Y-69874600D01*
X39069340Y-69906635D01*
X39037305Y-69919904D01*
X38998601Y-69927603D01*
X38921195Y-69943000D01*
X38802805Y-69943000D01*
X38725399Y-69927603D01*
X38686695Y-69919904D01*
X38654660Y-69906635D01*
X38577320Y-69874600D01*
X38478885Y-69808827D01*
X38395173Y-69725115D01*
X38329400Y-69626680D01*
X38284096Y-69517304D01*
X38261000Y-69401195D01*
X38261000Y-69282805D01*
X38284096Y-69166696D01*
X38329400Y-69057320D01*
X38395173Y-68958885D01*
X38478885Y-68875173D01*
X38577320Y-68809400D01*
X38654660Y-68777365D01*
X38686695Y-68764096D01*
X38725399Y-68756397D01*
X38802805Y-68741000D01*
X38921195Y-68741000D01*
X38998601Y-68756397D01*
G37*
G36*
X191443000Y-69777000D02*
G01*
X188541000Y-69777000D01*
X188541000Y-66875000D01*
X191443000Y-66875000D01*
X191443000Y-69777000D01*
G37*
G36*
X168904228Y-67253703D02*
G01*
X169059100Y-67317853D01*
X169198481Y-67410985D01*
X169317015Y-67529519D01*
X169410147Y-67668900D01*
X169474297Y-67823772D01*
X169507000Y-67988184D01*
X169507000Y-68155816D01*
X169474297Y-68320228D01*
X169410147Y-68475100D01*
X169317015Y-68614481D01*
X169198481Y-68733015D01*
X169059100Y-68826147D01*
X168904228Y-68890297D01*
X168739816Y-68923000D01*
X168572184Y-68923000D01*
X168407772Y-68890297D01*
X168252900Y-68826147D01*
X168113519Y-68733015D01*
X167994985Y-68614481D01*
X167901853Y-68475100D01*
X167837703Y-68320228D01*
X167805000Y-68155816D01*
X167805000Y-67988184D01*
X167837703Y-67823772D01*
X167901853Y-67668900D01*
X167994985Y-67529519D01*
X168113519Y-67410985D01*
X168252900Y-67317853D01*
X168407772Y-67253703D01*
X168572184Y-67221000D01*
X168739816Y-67221000D01*
X168904228Y-67253703D01*
G37*
G36*
X179064228Y-67253703D02*
G01*
X179219100Y-67317853D01*
X179358481Y-67410985D01*
X179477015Y-67529519D01*
X179570147Y-67668900D01*
X179634297Y-67823772D01*
X179667000Y-67988184D01*
X179667000Y-68155816D01*
X179634297Y-68320228D01*
X179570147Y-68475100D01*
X179477015Y-68614481D01*
X179358481Y-68733015D01*
X179219100Y-68826147D01*
X179064228Y-68890297D01*
X178899816Y-68923000D01*
X178732184Y-68923000D01*
X178567772Y-68890297D01*
X178412900Y-68826147D01*
X178273519Y-68733015D01*
X178154985Y-68614481D01*
X178061853Y-68475100D01*
X177997703Y-68320228D01*
X177965000Y-68155816D01*
X177965000Y-67988184D01*
X177997703Y-67823772D01*
X178061853Y-67668900D01*
X178154985Y-67529519D01*
X178273519Y-67410985D01*
X178412900Y-67317853D01*
X178567772Y-67253703D01*
X178732184Y-67221000D01*
X178899816Y-67221000D01*
X179064228Y-67253703D01*
G37*
G36*
X151269000Y-68211000D02*
G01*
X149467000Y-68211000D01*
X149467000Y-66409000D01*
X151269000Y-66409000D01*
X151269000Y-68211000D01*
G37*
G36*
X153021512Y-66413927D02*
G01*
X153170812Y-66443624D01*
X153334784Y-66511544D01*
X153482354Y-66610147D01*
X153607853Y-66735646D01*
X153706456Y-66883216D01*
X153774376Y-67047188D01*
X153786584Y-67108565D01*
X153808949Y-67221000D01*
X153809000Y-67221259D01*
X153809000Y-67398741D01*
X153774376Y-67572812D01*
X153706456Y-67736784D01*
X153607853Y-67884354D01*
X153482354Y-68009853D01*
X153334784Y-68108456D01*
X153170812Y-68176376D01*
X153021512Y-68206073D01*
X152996742Y-68211000D01*
X152819258Y-68211000D01*
X152794488Y-68206073D01*
X152645188Y-68176376D01*
X152481216Y-68108456D01*
X152333646Y-68009853D01*
X152208147Y-67884354D01*
X152109544Y-67736784D01*
X152041624Y-67572812D01*
X152007000Y-67398741D01*
X152007000Y-67221259D01*
X152007052Y-67221000D01*
X152029416Y-67108565D01*
X152041624Y-67047188D01*
X152109544Y-66883216D01*
X152208147Y-66735646D01*
X152333646Y-66610147D01*
X152481216Y-66511544D01*
X152645188Y-66443624D01*
X152794488Y-66413927D01*
X152819258Y-66409000D01*
X152996742Y-66409000D01*
X153021512Y-66413927D01*
G37*
G36*
X79972627Y-66043037D02*
G01*
X80142466Y-66094557D01*
X80298991Y-66178222D01*
X80326746Y-66201000D01*
X80436186Y-66290814D01*
X80519448Y-66392271D01*
X80548778Y-66428009D01*
X80632443Y-66584534D01*
X80683963Y-66754374D01*
X80683963Y-66754376D01*
X80697000Y-66886741D01*
X80697000Y-67225260D01*
X80694198Y-67253705D01*
X80683963Y-67357627D01*
X80632443Y-67527466D01*
X80548778Y-67683991D01*
X80519448Y-67719729D01*
X80436186Y-67821186D01*
X80298989Y-67933779D01*
X80156667Y-68009852D01*
X80142465Y-68017443D01*
X79972626Y-68068963D01*
X79796000Y-68086359D01*
X79619373Y-68068963D01*
X79449534Y-68017443D01*
X79293009Y-67933778D01*
X79232786Y-67884354D01*
X79155814Y-67821186D01*
X79043221Y-67683989D01*
X78959558Y-67527467D01*
X78942724Y-67471973D01*
X78908037Y-67357626D01*
X78895000Y-67225257D01*
X78895000Y-66886742D01*
X78908037Y-66754373D01*
X78959557Y-66584534D01*
X79043222Y-66428009D01*
X79155815Y-66290815D01*
X79293010Y-66178222D01*
X79449535Y-66094557D01*
X79619374Y-66043037D01*
X79796000Y-66025641D01*
X79972627Y-66043037D01*
G37*
G36*
X77472627Y-66043037D02*
G01*
X77642466Y-66094557D01*
X77798991Y-66178222D01*
X77826746Y-66201000D01*
X77936186Y-66290814D01*
X78019448Y-66392271D01*
X78048778Y-66428009D01*
X78132443Y-66584534D01*
X78183963Y-66754374D01*
X78183963Y-66754376D01*
X78197000Y-66886741D01*
X78197000Y-67225260D01*
X78194198Y-67253705D01*
X78183963Y-67357627D01*
X78132443Y-67527466D01*
X78048778Y-67683991D01*
X78019448Y-67719729D01*
X77936186Y-67821186D01*
X77798989Y-67933779D01*
X77656667Y-68009852D01*
X77642465Y-68017443D01*
X77472626Y-68068963D01*
X77296000Y-68086359D01*
X77119373Y-68068963D01*
X76949534Y-68017443D01*
X76793009Y-67933778D01*
X76732786Y-67884354D01*
X76655814Y-67821186D01*
X76543221Y-67683989D01*
X76459558Y-67527467D01*
X76442724Y-67471973D01*
X76408037Y-67357626D01*
X76395000Y-67225257D01*
X76395000Y-66886742D01*
X76408037Y-66754373D01*
X76459557Y-66584534D01*
X76543222Y-66428009D01*
X76655815Y-66290815D01*
X76793010Y-66178222D01*
X76949535Y-66094557D01*
X77119374Y-66043037D01*
X77296000Y-66025641D01*
X77472627Y-66043037D01*
G37*
G36*
X74972627Y-66043037D02*
G01*
X75142466Y-66094557D01*
X75298991Y-66178222D01*
X75326746Y-66201000D01*
X75436186Y-66290814D01*
X75519448Y-66392271D01*
X75548778Y-66428009D01*
X75632443Y-66584534D01*
X75683963Y-66754374D01*
X75683963Y-66754376D01*
X75697000Y-66886741D01*
X75697000Y-67225260D01*
X75694198Y-67253705D01*
X75683963Y-67357627D01*
X75632443Y-67527466D01*
X75548778Y-67683991D01*
X75519448Y-67719729D01*
X75436186Y-67821186D01*
X75298989Y-67933779D01*
X75156667Y-68009852D01*
X75142465Y-68017443D01*
X74972626Y-68068963D01*
X74796000Y-68086359D01*
X74619373Y-68068963D01*
X74449534Y-68017443D01*
X74293009Y-67933778D01*
X74232786Y-67884354D01*
X74155814Y-67821186D01*
X74043221Y-67683989D01*
X73959558Y-67527467D01*
X73942724Y-67471973D01*
X73908037Y-67357626D01*
X73895000Y-67225257D01*
X73895000Y-66886742D01*
X73908037Y-66754373D01*
X73959557Y-66584534D01*
X74043222Y-66428009D01*
X74155815Y-66290815D01*
X74293010Y-66178222D01*
X74449535Y-66094557D01*
X74619374Y-66043037D01*
X74796000Y-66025641D01*
X74972627Y-66043037D01*
G37*
G36*
X83054600Y-66033989D02*
G01*
X83087652Y-66044015D01*
X83118103Y-66060292D01*
X83144799Y-66082201D01*
X83166708Y-66108897D01*
X83182985Y-66139348D01*
X83193011Y-66172400D01*
X83197000Y-66212903D01*
X83197000Y-67899097D01*
X83193011Y-67939600D01*
X83182985Y-67972652D01*
X83166708Y-68003103D01*
X83144799Y-68029799D01*
X83118103Y-68051708D01*
X83087652Y-68067985D01*
X83054600Y-68078011D01*
X83014097Y-68082000D01*
X81577903Y-68082000D01*
X81537400Y-68078011D01*
X81504348Y-68067985D01*
X81473897Y-68051708D01*
X81447201Y-68029799D01*
X81425292Y-68003103D01*
X81409015Y-67972652D01*
X81398989Y-67939600D01*
X81395000Y-67899097D01*
X81395000Y-66212903D01*
X81398989Y-66172400D01*
X81409015Y-66139348D01*
X81425292Y-66108897D01*
X81447201Y-66082201D01*
X81473897Y-66060292D01*
X81504348Y-66044015D01*
X81537400Y-66033989D01*
X81577903Y-66030000D01*
X83014097Y-66030000D01*
X83054600Y-66033989D01*
G37*
G36*
X41708564Y-65791389D02*
G01*
X41899833Y-65870615D01*
X41899835Y-65870616D01*
X42071973Y-65985635D01*
X42218365Y-66132027D01*
X42324464Y-66290815D01*
X42333385Y-66304167D01*
X42412611Y-66495436D01*
X42453000Y-66698484D01*
X42453000Y-66905516D01*
X42412611Y-67108564D01*
X42352492Y-67253705D01*
X42333384Y-67299835D01*
X42218365Y-67471973D01*
X42071973Y-67618365D01*
X41899835Y-67733384D01*
X41899834Y-67733385D01*
X41899833Y-67733385D01*
X41708564Y-67812611D01*
X41505516Y-67853000D01*
X41298484Y-67853000D01*
X41095436Y-67812611D01*
X40904167Y-67733385D01*
X40904166Y-67733385D01*
X40904165Y-67733384D01*
X40732027Y-67618365D01*
X40585635Y-67471973D01*
X40470616Y-67299835D01*
X40451508Y-67253705D01*
X40391389Y-67108564D01*
X40351000Y-66905516D01*
X40351000Y-66698484D01*
X40391389Y-66495436D01*
X40470615Y-66304167D01*
X40479537Y-66290815D01*
X40585635Y-66132027D01*
X40732027Y-65985635D01*
X40904165Y-65870616D01*
X40904167Y-65870615D01*
X41095436Y-65791389D01*
X41298484Y-65751000D01*
X41505516Y-65751000D01*
X41708564Y-65791389D01*
G37*
G36*
X38981034Y-66212903D02*
G01*
X39037305Y-66224096D01*
X39069340Y-66237365D01*
X39146680Y-66269400D01*
X39245115Y-66335173D01*
X39328827Y-66418885D01*
X39394600Y-66517320D01*
X39422439Y-66584532D01*
X39433050Y-66610147D01*
X39439904Y-66626696D01*
X39463000Y-66742805D01*
X39463000Y-66861195D01*
X39439904Y-66977304D01*
X39394600Y-67086680D01*
X39328827Y-67185115D01*
X39245115Y-67268827D01*
X39146680Y-67334600D01*
X39069340Y-67366635D01*
X39037305Y-67379904D01*
X38998601Y-67387603D01*
X38921195Y-67403000D01*
X38802805Y-67403000D01*
X38725399Y-67387603D01*
X38686695Y-67379904D01*
X38654660Y-67366635D01*
X38577320Y-67334600D01*
X38478885Y-67268827D01*
X38395173Y-67185115D01*
X38329400Y-67086680D01*
X38284096Y-66977304D01*
X38261000Y-66861195D01*
X38261000Y-66742805D01*
X38284096Y-66626696D01*
X38290951Y-66610147D01*
X38301561Y-66584532D01*
X38329400Y-66517320D01*
X38395173Y-66418885D01*
X38478885Y-66335173D01*
X38577320Y-66269400D01*
X38654660Y-66237365D01*
X38686695Y-66224096D01*
X38742966Y-66212903D01*
X38802805Y-66201000D01*
X38921195Y-66201000D01*
X38981034Y-66212903D01*
G37*
G36*
X92696600Y-66433000D02*
G01*
X90894600Y-66433000D01*
X90894600Y-64631000D01*
X92696600Y-64631000D01*
X92696600Y-66433000D01*
G37*
G36*
X50781000Y-66275000D02*
G01*
X48279000Y-66275000D01*
X48279000Y-63773000D01*
X50781000Y-63773000D01*
X50781000Y-66275000D01*
G37*
G36*
X105880627Y-64011037D02*
G01*
X106050466Y-64062557D01*
X106206991Y-64146222D01*
X106242729Y-64175552D01*
X106344186Y-64258814D01*
X106427448Y-64360271D01*
X106456778Y-64396009D01*
X106540443Y-64552534D01*
X106591963Y-64722374D01*
X106605000Y-64854743D01*
X106605000Y-65193258D01*
X106591963Y-65325627D01*
X106540443Y-65495466D01*
X106456778Y-65651991D01*
X106427448Y-65687729D01*
X106344186Y-65789186D01*
X106206989Y-65901779D01*
X106050467Y-65985442D01*
X106050465Y-65985443D01*
X105880626Y-66036963D01*
X105704000Y-66054359D01*
X105527373Y-66036963D01*
X105357534Y-65985443D01*
X105201009Y-65901778D01*
X105158750Y-65867097D01*
X105063814Y-65789186D01*
X104951221Y-65651989D01*
X104867558Y-65495467D01*
X104867557Y-65495465D01*
X104816037Y-65325626D01*
X104803000Y-65193257D01*
X104803000Y-64854742D01*
X104805802Y-64826297D01*
X104816037Y-64722375D01*
X104816037Y-64722373D01*
X104867557Y-64552534D01*
X104951222Y-64396009D01*
X105063815Y-64258815D01*
X105201010Y-64146222D01*
X105357535Y-64062557D01*
X105527374Y-64011037D01*
X105704000Y-63993641D01*
X105880627Y-64011037D01*
G37*
G36*
X103380627Y-64011037D02*
G01*
X103550466Y-64062557D01*
X103706991Y-64146222D01*
X103742729Y-64175552D01*
X103844186Y-64258814D01*
X103927448Y-64360271D01*
X103956778Y-64396009D01*
X104040443Y-64552534D01*
X104091963Y-64722374D01*
X104105000Y-64854743D01*
X104105000Y-65193258D01*
X104091963Y-65325627D01*
X104040443Y-65495466D01*
X103956778Y-65651991D01*
X103927448Y-65687729D01*
X103844186Y-65789186D01*
X103706989Y-65901779D01*
X103550467Y-65985442D01*
X103550465Y-65985443D01*
X103380626Y-66036963D01*
X103204000Y-66054359D01*
X103027373Y-66036963D01*
X102857534Y-65985443D01*
X102701009Y-65901778D01*
X102658750Y-65867097D01*
X102563814Y-65789186D01*
X102451221Y-65651989D01*
X102367558Y-65495467D01*
X102367557Y-65495465D01*
X102316037Y-65325626D01*
X102303000Y-65193257D01*
X102303000Y-64854742D01*
X102305802Y-64826297D01*
X102316037Y-64722375D01*
X102316037Y-64722373D01*
X102367557Y-64552534D01*
X102451222Y-64396009D01*
X102563815Y-64258815D01*
X102701010Y-64146222D01*
X102857535Y-64062557D01*
X103027374Y-64011037D01*
X103204000Y-63993641D01*
X103380627Y-64011037D01*
G37*
G36*
X100880627Y-64011037D02*
G01*
X101050466Y-64062557D01*
X101206991Y-64146222D01*
X101242729Y-64175552D01*
X101344186Y-64258814D01*
X101427448Y-64360271D01*
X101456778Y-64396009D01*
X101540443Y-64552534D01*
X101591963Y-64722374D01*
X101605000Y-64854743D01*
X101605000Y-65193258D01*
X101591963Y-65325627D01*
X101540443Y-65495466D01*
X101456778Y-65651991D01*
X101427448Y-65687729D01*
X101344186Y-65789186D01*
X101206989Y-65901779D01*
X101050467Y-65985442D01*
X101050465Y-65985443D01*
X100880626Y-66036963D01*
X100704000Y-66054359D01*
X100527373Y-66036963D01*
X100357534Y-65985443D01*
X100201009Y-65901778D01*
X100158750Y-65867097D01*
X100063814Y-65789186D01*
X99951221Y-65651989D01*
X99867558Y-65495467D01*
X99867557Y-65495465D01*
X99816037Y-65325626D01*
X99803000Y-65193257D01*
X99803000Y-64854742D01*
X99805802Y-64826297D01*
X99816037Y-64722375D01*
X99816037Y-64722373D01*
X99867557Y-64552534D01*
X99951222Y-64396009D01*
X100063815Y-64258815D01*
X100201010Y-64146222D01*
X100357535Y-64062557D01*
X100527374Y-64011037D01*
X100704000Y-63993641D01*
X100880627Y-64011037D01*
G37*
G36*
X108962600Y-64001989D02*
G01*
X108995652Y-64012015D01*
X109026103Y-64028292D01*
X109052799Y-64050201D01*
X109074708Y-64076897D01*
X109090985Y-64107348D01*
X109101011Y-64140400D01*
X109105000Y-64180903D01*
X109105000Y-65867097D01*
X109101011Y-65907600D01*
X109090985Y-65940652D01*
X109074708Y-65971103D01*
X109052799Y-65997799D01*
X109026103Y-66019708D01*
X108995652Y-66035985D01*
X108962600Y-66046011D01*
X108922097Y-66050000D01*
X107485903Y-66050000D01*
X107445400Y-66046011D01*
X107412348Y-66035985D01*
X107381897Y-66019708D01*
X107355201Y-65997799D01*
X107333292Y-65971103D01*
X107317015Y-65940652D01*
X107306989Y-65907600D01*
X107303000Y-65867097D01*
X107303000Y-64180903D01*
X107306989Y-64140400D01*
X107317015Y-64107348D01*
X107333292Y-64076897D01*
X107355201Y-64050201D01*
X107381897Y-64028292D01*
X107412348Y-64012015D01*
X107445400Y-64001989D01*
X107485903Y-63998000D01*
X108922097Y-63998000D01*
X108962600Y-64001989D01*
G37*
G36*
X140982000Y-65950400D02*
G01*
X139180000Y-65950400D01*
X139180000Y-64148400D01*
X140982000Y-64148400D01*
X140982000Y-65950400D01*
G37*
G36*
X59176228Y-63189703D02*
G01*
X59331100Y-63253853D01*
X59470481Y-63346985D01*
X59589015Y-63465519D01*
X59682147Y-63604900D01*
X59746297Y-63759772D01*
X59779000Y-63924184D01*
X59779000Y-64091816D01*
X59746297Y-64256228D01*
X59682147Y-64411100D01*
X59589015Y-64550481D01*
X59470481Y-64669015D01*
X59331100Y-64762147D01*
X59176228Y-64826297D01*
X59011816Y-64859000D01*
X58844184Y-64859000D01*
X58679772Y-64826297D01*
X58524900Y-64762147D01*
X58385519Y-64669015D01*
X58266985Y-64550481D01*
X58173853Y-64411100D01*
X58109703Y-64256228D01*
X58077000Y-64091816D01*
X58077000Y-63924184D01*
X58109703Y-63759772D01*
X58173853Y-63604900D01*
X58266985Y-63465519D01*
X58385519Y-63346985D01*
X58524900Y-63253853D01*
X58679772Y-63189703D01*
X58844184Y-63157000D01*
X59011816Y-63157000D01*
X59176228Y-63189703D01*
G37*
G36*
X65780228Y-63189703D02*
G01*
X65935100Y-63253853D01*
X66074481Y-63346985D01*
X66193015Y-63465519D01*
X66286147Y-63604900D01*
X66350297Y-63759772D01*
X66383000Y-63924184D01*
X66383000Y-64091816D01*
X66350297Y-64256228D01*
X66286147Y-64411100D01*
X66193015Y-64550481D01*
X66074481Y-64669015D01*
X65935100Y-64762147D01*
X65780228Y-64826297D01*
X65615816Y-64859000D01*
X65448184Y-64859000D01*
X65283772Y-64826297D01*
X65128900Y-64762147D01*
X64989519Y-64669015D01*
X64870985Y-64550481D01*
X64777853Y-64411100D01*
X64713703Y-64256228D01*
X64681000Y-64091816D01*
X64681000Y-63924184D01*
X64713703Y-63759772D01*
X64777853Y-63604900D01*
X64870985Y-63465519D01*
X64989519Y-63346985D01*
X65128900Y-63253853D01*
X65283772Y-63189703D01*
X65448184Y-63157000D01*
X65615816Y-63157000D01*
X65780228Y-63189703D01*
G37*
G36*
X91909112Y-62095927D02*
G01*
X92058412Y-62125624D01*
X92222384Y-62193544D01*
X92369954Y-62292147D01*
X92495453Y-62417646D01*
X92594056Y-62565216D01*
X92661976Y-62729188D01*
X92691673Y-62878488D01*
X92696600Y-62903258D01*
X92696600Y-63080742D01*
X92696001Y-63083753D01*
X92661976Y-63254812D01*
X92594056Y-63418784D01*
X92495453Y-63566354D01*
X92369954Y-63691853D01*
X92222384Y-63790456D01*
X92058412Y-63858376D01*
X91909112Y-63888073D01*
X91884342Y-63893000D01*
X91706858Y-63893000D01*
X91682088Y-63888073D01*
X91532788Y-63858376D01*
X91368816Y-63790456D01*
X91221246Y-63691853D01*
X91095747Y-63566354D01*
X90997144Y-63418784D01*
X90929224Y-63254812D01*
X90895199Y-63083753D01*
X90894600Y-63080742D01*
X90894600Y-62903258D01*
X90899527Y-62878488D01*
X90929224Y-62729188D01*
X90997144Y-62565216D01*
X91095747Y-62417646D01*
X91221246Y-62292147D01*
X91368816Y-62193544D01*
X91532788Y-62125624D01*
X91682088Y-62095927D01*
X91706858Y-62091000D01*
X91884342Y-62091000D01*
X91909112Y-62095927D01*
G37*
G36*
X118477890Y-62334017D02*
G01*
X118596364Y-62383091D01*
X118652587Y-62420658D01*
X118702988Y-62454335D01*
X118793665Y-62545012D01*
X118864910Y-62651638D01*
X118913983Y-62770110D01*
X118939000Y-62895881D01*
X118939000Y-63024119D01*
X118913983Y-63149890D01*
X118870523Y-63254812D01*
X118864909Y-63268364D01*
X118793665Y-63374988D01*
X118702988Y-63465665D01*
X118596364Y-63536909D01*
X118596363Y-63536910D01*
X118596362Y-63536910D01*
X118477890Y-63585983D01*
X118352119Y-63611000D01*
X118223881Y-63611000D01*
X118098110Y-63585983D01*
X117979638Y-63536910D01*
X117979637Y-63536910D01*
X117979636Y-63536909D01*
X117873012Y-63465665D01*
X117782335Y-63374988D01*
X117711091Y-63268364D01*
X117705478Y-63254812D01*
X117662017Y-63149890D01*
X117637000Y-63024119D01*
X117637000Y-62895881D01*
X117662017Y-62770110D01*
X117711090Y-62651638D01*
X117782335Y-62545012D01*
X117873012Y-62454335D01*
X117923413Y-62420658D01*
X117979636Y-62383091D01*
X118098110Y-62334017D01*
X118223881Y-62309000D01*
X118352119Y-62309000D01*
X118477890Y-62334017D01*
G37*
G36*
X140194512Y-61613327D02*
G01*
X140343812Y-61643024D01*
X140507784Y-61710944D01*
X140655354Y-61809547D01*
X140780853Y-61935046D01*
X140879456Y-62082616D01*
X140947376Y-62246588D01*
X140982000Y-62420659D01*
X140982000Y-62598141D01*
X140947376Y-62772212D01*
X140879456Y-62936184D01*
X140780853Y-63083754D01*
X140655354Y-63209253D01*
X140507784Y-63307856D01*
X140343812Y-63375776D01*
X140194512Y-63405473D01*
X140169742Y-63410400D01*
X139992258Y-63410400D01*
X139967488Y-63405473D01*
X139818188Y-63375776D01*
X139654216Y-63307856D01*
X139506646Y-63209253D01*
X139381147Y-63083754D01*
X139282544Y-62936184D01*
X139214624Y-62772212D01*
X139180000Y-62598141D01*
X139180000Y-62420659D01*
X139214624Y-62246588D01*
X139282544Y-62082616D01*
X139381147Y-61935046D01*
X139506646Y-61809547D01*
X139654216Y-61710944D01*
X139818188Y-61643024D01*
X139967488Y-61613327D01*
X139992258Y-61608400D01*
X140169742Y-61608400D01*
X140194512Y-61613327D01*
G37*
G36*
X153021512Y-61587927D02*
G01*
X153170812Y-61617624D01*
X153334784Y-61685544D01*
X153482354Y-61784147D01*
X153607853Y-61909646D01*
X153706456Y-62057216D01*
X153774376Y-62221188D01*
X153804073Y-62370488D01*
X153806580Y-62383090D01*
X153809000Y-62395259D01*
X153809000Y-62572741D01*
X153774376Y-62746812D01*
X153706456Y-62910784D01*
X153607853Y-63058354D01*
X153482354Y-63183853D01*
X153334784Y-63282456D01*
X153170812Y-63350376D01*
X153021512Y-63380073D01*
X152996742Y-63385000D01*
X152819258Y-63385000D01*
X152794488Y-63380073D01*
X152645188Y-63350376D01*
X152481216Y-63282456D01*
X152333646Y-63183853D01*
X152208147Y-63058354D01*
X152109544Y-62910784D01*
X152041624Y-62746812D01*
X152007000Y-62572741D01*
X152007000Y-62395259D01*
X152009421Y-62383090D01*
X152011927Y-62370488D01*
X152041624Y-62221188D01*
X152109544Y-62057216D01*
X152208147Y-61909646D01*
X152333646Y-61784147D01*
X152481216Y-61685544D01*
X152645188Y-61617624D01*
X152794488Y-61587927D01*
X152819258Y-61583000D01*
X152996742Y-61583000D01*
X153021512Y-61587927D01*
G37*
G36*
X151269000Y-63385000D02*
G01*
X149467000Y-63385000D01*
X149467000Y-61583000D01*
X151269000Y-61583000D01*
X151269000Y-63385000D01*
G37*
G36*
X186779000Y-63081000D02*
G01*
X185077000Y-63081000D01*
X185077000Y-61379000D01*
X186779000Y-61379000D01*
X186779000Y-63081000D01*
G37*
G36*
X122564626Y-59947037D02*
G01*
X122734465Y-59998557D01*
X122734467Y-59998558D01*
X122890989Y-60082221D01*
X123028186Y-60194814D01*
X123111448Y-60296271D01*
X123140778Y-60332009D01*
X123140779Y-60332011D01*
X123200718Y-60444147D01*
X123224443Y-60488534D01*
X123275963Y-60658373D01*
X123289000Y-60790742D01*
X123289000Y-61129257D01*
X123275963Y-61261626D01*
X123224443Y-61431466D01*
X123140778Y-61587991D01*
X123116459Y-61617624D01*
X123028186Y-61725186D01*
X122933250Y-61803097D01*
X122890991Y-61837778D01*
X122890989Y-61837779D01*
X122756537Y-61909646D01*
X122734466Y-61921443D01*
X122564627Y-61972963D01*
X122388000Y-61990359D01*
X122211374Y-61972963D01*
X122041535Y-61921443D01*
X122019465Y-61909646D01*
X121885012Y-61837779D01*
X121885010Y-61837778D01*
X121747815Y-61725185D01*
X121635222Y-61587991D01*
X121551557Y-61431466D01*
X121500037Y-61261627D01*
X121487000Y-61129258D01*
X121487000Y-60790743D01*
X121500037Y-60658374D01*
X121551557Y-60488535D01*
X121567898Y-60457963D01*
X121635221Y-60332011D01*
X121747814Y-60194814D01*
X121849271Y-60111552D01*
X121885009Y-60082222D01*
X122041534Y-59998557D01*
X122211373Y-59947037D01*
X122388000Y-59929641D01*
X122564626Y-59947037D01*
G37*
G36*
X132564626Y-59947037D02*
G01*
X132734465Y-59998557D01*
X132734467Y-59998558D01*
X132890989Y-60082221D01*
X133028186Y-60194814D01*
X133111448Y-60296271D01*
X133140778Y-60332009D01*
X133140779Y-60332011D01*
X133200718Y-60444147D01*
X133224443Y-60488534D01*
X133275963Y-60658373D01*
X133289000Y-60790742D01*
X133289000Y-61129257D01*
X133275963Y-61261626D01*
X133224443Y-61431466D01*
X133140778Y-61587991D01*
X133116459Y-61617624D01*
X133028186Y-61725186D01*
X132933250Y-61803097D01*
X132890991Y-61837778D01*
X132890989Y-61837779D01*
X132756537Y-61909646D01*
X132734466Y-61921443D01*
X132564627Y-61972963D01*
X132388000Y-61990359D01*
X132211374Y-61972963D01*
X132041535Y-61921443D01*
X132019465Y-61909646D01*
X131885012Y-61837779D01*
X131885010Y-61837778D01*
X131747815Y-61725185D01*
X131635222Y-61587991D01*
X131551557Y-61431466D01*
X131500037Y-61261627D01*
X131487000Y-61129258D01*
X131487000Y-60790743D01*
X131500037Y-60658374D01*
X131551557Y-60488535D01*
X131567898Y-60457963D01*
X131635221Y-60332011D01*
X131747814Y-60194814D01*
X131849271Y-60111552D01*
X131885009Y-60082222D01*
X132041534Y-59998557D01*
X132211373Y-59947037D01*
X132388000Y-59929641D01*
X132564626Y-59947037D01*
G37*
G36*
X130064626Y-59947037D02*
G01*
X130234465Y-59998557D01*
X130234467Y-59998558D01*
X130390989Y-60082221D01*
X130528186Y-60194814D01*
X130611448Y-60296271D01*
X130640778Y-60332009D01*
X130640779Y-60332011D01*
X130700718Y-60444147D01*
X130724443Y-60488534D01*
X130775963Y-60658373D01*
X130789000Y-60790742D01*
X130789000Y-61129257D01*
X130775963Y-61261626D01*
X130724443Y-61431466D01*
X130640778Y-61587991D01*
X130616459Y-61617624D01*
X130528186Y-61725186D01*
X130433250Y-61803097D01*
X130390991Y-61837778D01*
X130390989Y-61837779D01*
X130256537Y-61909646D01*
X130234466Y-61921443D01*
X130064627Y-61972963D01*
X129888000Y-61990359D01*
X129711374Y-61972963D01*
X129541535Y-61921443D01*
X129519465Y-61909646D01*
X129385012Y-61837779D01*
X129385010Y-61837778D01*
X129247815Y-61725185D01*
X129135222Y-61587991D01*
X129051557Y-61431466D01*
X129000037Y-61261627D01*
X128987000Y-61129258D01*
X128987000Y-60790743D01*
X129000037Y-60658374D01*
X129051557Y-60488535D01*
X129067898Y-60457963D01*
X129135221Y-60332011D01*
X129247814Y-60194814D01*
X129349271Y-60111552D01*
X129385009Y-60082222D01*
X129541534Y-59998557D01*
X129711373Y-59947037D01*
X129888000Y-59929641D01*
X130064626Y-59947037D01*
G37*
G36*
X125064626Y-59947037D02*
G01*
X125234465Y-59998557D01*
X125234467Y-59998558D01*
X125390989Y-60082221D01*
X125528186Y-60194814D01*
X125611448Y-60296271D01*
X125640778Y-60332009D01*
X125640779Y-60332011D01*
X125700718Y-60444147D01*
X125724443Y-60488534D01*
X125775963Y-60658373D01*
X125789000Y-60790742D01*
X125789000Y-61129257D01*
X125775963Y-61261626D01*
X125724443Y-61431466D01*
X125640778Y-61587991D01*
X125616459Y-61617624D01*
X125528186Y-61725186D01*
X125433250Y-61803097D01*
X125390991Y-61837778D01*
X125390989Y-61837779D01*
X125256537Y-61909646D01*
X125234466Y-61921443D01*
X125064627Y-61972963D01*
X124888000Y-61990359D01*
X124711374Y-61972963D01*
X124541535Y-61921443D01*
X124519465Y-61909646D01*
X124385012Y-61837779D01*
X124385010Y-61837778D01*
X124247815Y-61725185D01*
X124135222Y-61587991D01*
X124051557Y-61431466D01*
X124000037Y-61261627D01*
X123987000Y-61129258D01*
X123987000Y-60790743D01*
X124000037Y-60658374D01*
X124051557Y-60488535D01*
X124067898Y-60457963D01*
X124135221Y-60332011D01*
X124247814Y-60194814D01*
X124349271Y-60111552D01*
X124385009Y-60082222D01*
X124541534Y-59998557D01*
X124711373Y-59947037D01*
X124888000Y-59929641D01*
X125064626Y-59947037D01*
G37*
G36*
X127564626Y-59947037D02*
G01*
X127734465Y-59998557D01*
X127734467Y-59998558D01*
X127890989Y-60082221D01*
X128028186Y-60194814D01*
X128111448Y-60296271D01*
X128140778Y-60332009D01*
X128140779Y-60332011D01*
X128200718Y-60444147D01*
X128224443Y-60488534D01*
X128275963Y-60658373D01*
X128289000Y-60790742D01*
X128289000Y-61129257D01*
X128275963Y-61261626D01*
X128224443Y-61431466D01*
X128140778Y-61587991D01*
X128116459Y-61617624D01*
X128028186Y-61725186D01*
X127933250Y-61803097D01*
X127890991Y-61837778D01*
X127890989Y-61837779D01*
X127756537Y-61909646D01*
X127734466Y-61921443D01*
X127564627Y-61972963D01*
X127388000Y-61990359D01*
X127211374Y-61972963D01*
X127041535Y-61921443D01*
X127019465Y-61909646D01*
X126885012Y-61837779D01*
X126885010Y-61837778D01*
X126747815Y-61725185D01*
X126635222Y-61587991D01*
X126551557Y-61431466D01*
X126500037Y-61261627D01*
X126487000Y-61129258D01*
X126487000Y-60790743D01*
X126500037Y-60658374D01*
X126551557Y-60488535D01*
X126567898Y-60457963D01*
X126635221Y-60332011D01*
X126747814Y-60194814D01*
X126849271Y-60111552D01*
X126885009Y-60082222D01*
X127041534Y-59998557D01*
X127211373Y-59947037D01*
X127388000Y-59929641D01*
X127564626Y-59947037D01*
G37*
G36*
X120646600Y-59937989D02*
G01*
X120679652Y-59948015D01*
X120710103Y-59964292D01*
X120736799Y-59986201D01*
X120758708Y-60012897D01*
X120774985Y-60043348D01*
X120785011Y-60076400D01*
X120789000Y-60116903D01*
X120789000Y-61803097D01*
X120785011Y-61843600D01*
X120774985Y-61876652D01*
X120758708Y-61907103D01*
X120736799Y-61933799D01*
X120710103Y-61955708D01*
X120679652Y-61971985D01*
X120646600Y-61982011D01*
X120606097Y-61986000D01*
X119169903Y-61986000D01*
X119129400Y-61982011D01*
X119096348Y-61971985D01*
X119065897Y-61955708D01*
X119039201Y-61933799D01*
X119017292Y-61907103D01*
X119001015Y-61876652D01*
X118990989Y-61843600D01*
X118987000Y-61803097D01*
X118987000Y-60116903D01*
X118990989Y-60076400D01*
X119001015Y-60043348D01*
X119017292Y-60012897D01*
X119039201Y-59986201D01*
X119065897Y-59964292D01*
X119096348Y-59948015D01*
X119129400Y-59937989D01*
X119169903Y-59934000D01*
X120606097Y-59934000D01*
X120646600Y-59937989D01*
G37*
G36*
X91909112Y-59555927D02*
G01*
X92058412Y-59585624D01*
X92222384Y-59653544D01*
X92369954Y-59752147D01*
X92495453Y-59877646D01*
X92594056Y-60025216D01*
X92661976Y-60189188D01*
X92691673Y-60338488D01*
X92696600Y-60363258D01*
X92696600Y-60540742D01*
X92696001Y-60543753D01*
X92661976Y-60714812D01*
X92594056Y-60878784D01*
X92495453Y-61026354D01*
X92369954Y-61151853D01*
X92222384Y-61250456D01*
X92058412Y-61318376D01*
X91909112Y-61348073D01*
X91884342Y-61353000D01*
X91706858Y-61353000D01*
X91682088Y-61348073D01*
X91532788Y-61318376D01*
X91368816Y-61250456D01*
X91221246Y-61151853D01*
X91095747Y-61026354D01*
X90997144Y-60878784D01*
X90929224Y-60714812D01*
X90895199Y-60543753D01*
X90894600Y-60540742D01*
X90894600Y-60363258D01*
X90899527Y-60338488D01*
X90929224Y-60189188D01*
X90997144Y-60025216D01*
X91095747Y-59877646D01*
X91221246Y-59752147D01*
X91368816Y-59653544D01*
X91532788Y-59585624D01*
X91682088Y-59555927D01*
X91706858Y-59551000D01*
X91884342Y-59551000D01*
X91909112Y-59555927D01*
G37*
G36*
X140194512Y-59073327D02*
G01*
X140343812Y-59103024D01*
X140507784Y-59170944D01*
X140655354Y-59269547D01*
X140780853Y-59395046D01*
X140879456Y-59542616D01*
X140947376Y-59706588D01*
X140982000Y-59880659D01*
X140982000Y-60058141D01*
X140947376Y-60232212D01*
X140879456Y-60396184D01*
X140780853Y-60543754D01*
X140655354Y-60669253D01*
X140507784Y-60767856D01*
X140343812Y-60835776D01*
X140194512Y-60865473D01*
X140169742Y-60870400D01*
X139992258Y-60870400D01*
X139967488Y-60865473D01*
X139818188Y-60835776D01*
X139654216Y-60767856D01*
X139506646Y-60669253D01*
X139381147Y-60543754D01*
X139282544Y-60396184D01*
X139214624Y-60232212D01*
X139180000Y-60058141D01*
X139180000Y-59880659D01*
X139214624Y-59706588D01*
X139282544Y-59542616D01*
X139381147Y-59395046D01*
X139506646Y-59269547D01*
X139654216Y-59170944D01*
X139818188Y-59103024D01*
X139967488Y-59073327D01*
X139992258Y-59068400D01*
X140169742Y-59068400D01*
X140194512Y-59073327D01*
G37*
G36*
X170428228Y-58871703D02*
G01*
X170583100Y-58935853D01*
X170722481Y-59028985D01*
X170841015Y-59147519D01*
X170934147Y-59286900D01*
X170998297Y-59441772D01*
X171031000Y-59606184D01*
X171031000Y-59773816D01*
X170998297Y-59938228D01*
X170934147Y-60093100D01*
X170841015Y-60232481D01*
X170722481Y-60351015D01*
X170583100Y-60444147D01*
X170428228Y-60508297D01*
X170263816Y-60541000D01*
X170096184Y-60541000D01*
X169931772Y-60508297D01*
X169776900Y-60444147D01*
X169637519Y-60351015D01*
X169518985Y-60232481D01*
X169425853Y-60093100D01*
X169361703Y-59938228D01*
X169329000Y-59773816D01*
X169329000Y-59606184D01*
X169361703Y-59441772D01*
X169425853Y-59286900D01*
X169518985Y-59147519D01*
X169637519Y-59028985D01*
X169776900Y-58935853D01*
X169931772Y-58871703D01*
X170096184Y-58839000D01*
X170263816Y-58839000D01*
X170428228Y-58871703D01*
G37*
G36*
X186176228Y-58871703D02*
G01*
X186331100Y-58935853D01*
X186470481Y-59028985D01*
X186589015Y-59147519D01*
X186682147Y-59286900D01*
X186746297Y-59441772D01*
X186779000Y-59606184D01*
X186779000Y-59773816D01*
X186746297Y-59938228D01*
X186682147Y-60093100D01*
X186589015Y-60232481D01*
X186470481Y-60351015D01*
X186331100Y-60444147D01*
X186176228Y-60508297D01*
X186011816Y-60541000D01*
X185844184Y-60541000D01*
X185679772Y-60508297D01*
X185524900Y-60444147D01*
X185385519Y-60351015D01*
X185266985Y-60232481D01*
X185173853Y-60093100D01*
X185109703Y-59938228D01*
X185077000Y-59773816D01*
X185077000Y-59606184D01*
X185109703Y-59441772D01*
X185173853Y-59286900D01*
X185266985Y-59147519D01*
X185385519Y-59028985D01*
X185524900Y-58935853D01*
X185679772Y-58871703D01*
X185844184Y-58839000D01*
X186011816Y-58839000D01*
X186176228Y-58871703D01*
G37*
G36*
X194291442Y-58675518D02*
G01*
X194357627Y-58682037D01*
X194527466Y-58733557D01*
X194683991Y-58817222D01*
X194687651Y-58820226D01*
X194821186Y-58929814D01*
X194902572Y-59028985D01*
X194933778Y-59067009D01*
X195017443Y-59223534D01*
X195068963Y-59393373D01*
X195086359Y-59570000D01*
X195068963Y-59746627D01*
X195017443Y-59916466D01*
X194933778Y-60072991D01*
X194930980Y-60076400D01*
X194821186Y-60210186D01*
X194719729Y-60293448D01*
X194683991Y-60322778D01*
X194527466Y-60406443D01*
X194357627Y-60457963D01*
X194291443Y-60464481D01*
X194225260Y-60471000D01*
X193886740Y-60471000D01*
X193820557Y-60464481D01*
X193754373Y-60457963D01*
X193584534Y-60406443D01*
X193428009Y-60322778D01*
X193392271Y-60293448D01*
X193290814Y-60210186D01*
X193181020Y-60076400D01*
X193178222Y-60072991D01*
X193094557Y-59916466D01*
X193043037Y-59746627D01*
X193025641Y-59570000D01*
X193043037Y-59393373D01*
X193094557Y-59223534D01*
X193178222Y-59067009D01*
X193209428Y-59028985D01*
X193290814Y-58929814D01*
X193424349Y-58820226D01*
X193428009Y-58817222D01*
X193584534Y-58733557D01*
X193754373Y-58682037D01*
X193820558Y-58675518D01*
X193886740Y-58669000D01*
X194225260Y-58669000D01*
X194291442Y-58675518D01*
G37*
G36*
X51056627Y-56899037D02*
G01*
X51226466Y-56950557D01*
X51382991Y-57034222D01*
X51418729Y-57063552D01*
X51520186Y-57146814D01*
X51602098Y-57246625D01*
X51632778Y-57284009D01*
X51716443Y-57440534D01*
X51767963Y-57610374D01*
X51767963Y-57610376D01*
X51777794Y-57710186D01*
X51781000Y-57742743D01*
X51781000Y-58081258D01*
X51767963Y-58213627D01*
X51716443Y-58383466D01*
X51632778Y-58539991D01*
X51603448Y-58575729D01*
X51520186Y-58677186D01*
X51382989Y-58789779D01*
X51229720Y-58871703D01*
X51226465Y-58873443D01*
X51056626Y-58924963D01*
X50880000Y-58942359D01*
X50703373Y-58924963D01*
X50533534Y-58873443D01*
X50377009Y-58789778D01*
X50334750Y-58755097D01*
X50239814Y-58677186D01*
X50127221Y-58539989D01*
X50043558Y-58383467D01*
X50043557Y-58383465D01*
X49992037Y-58213626D01*
X49979000Y-58081257D01*
X49979000Y-57742742D01*
X49982207Y-57710185D01*
X49992037Y-57610375D01*
X49992037Y-57610373D01*
X50043557Y-57440534D01*
X50067283Y-57396147D01*
X50127221Y-57284011D01*
X50127222Y-57284009D01*
X50239815Y-57146815D01*
X50377010Y-57034222D01*
X50533535Y-56950557D01*
X50703374Y-56899037D01*
X50880000Y-56881641D01*
X51056627Y-56899037D01*
G37*
G36*
X53556627Y-56899037D02*
G01*
X53726466Y-56950557D01*
X53882991Y-57034222D01*
X53918729Y-57063552D01*
X54020186Y-57146814D01*
X54102098Y-57246625D01*
X54132778Y-57284009D01*
X54216443Y-57440534D01*
X54267963Y-57610374D01*
X54267963Y-57610376D01*
X54277794Y-57710186D01*
X54281000Y-57742743D01*
X54281000Y-58081258D01*
X54267963Y-58213627D01*
X54216443Y-58383466D01*
X54132778Y-58539991D01*
X54103448Y-58575729D01*
X54020186Y-58677186D01*
X53882989Y-58789779D01*
X53729720Y-58871703D01*
X53726465Y-58873443D01*
X53556626Y-58924963D01*
X53380000Y-58942359D01*
X53203373Y-58924963D01*
X53033534Y-58873443D01*
X52877009Y-58789778D01*
X52834750Y-58755097D01*
X52739814Y-58677186D01*
X52627221Y-58539989D01*
X52543558Y-58383467D01*
X52543557Y-58383465D01*
X52492037Y-58213626D01*
X52479000Y-58081257D01*
X52479000Y-57742742D01*
X52482207Y-57710185D01*
X52492037Y-57610375D01*
X52492037Y-57610373D01*
X52543557Y-57440534D01*
X52567283Y-57396147D01*
X52627221Y-57284011D01*
X52627222Y-57284009D01*
X52739815Y-57146815D01*
X52877010Y-57034222D01*
X53033535Y-56950557D01*
X53203374Y-56899037D01*
X53380000Y-56881641D01*
X53556627Y-56899037D01*
G37*
G36*
X56638600Y-56889989D02*
G01*
X56671652Y-56900015D01*
X56702103Y-56916292D01*
X56728799Y-56938201D01*
X56750708Y-56964897D01*
X56766985Y-56995348D01*
X56777011Y-57028400D01*
X56781000Y-57068903D01*
X56781000Y-58755097D01*
X56777011Y-58795600D01*
X56766985Y-58828652D01*
X56750708Y-58859103D01*
X56728799Y-58885799D01*
X56702103Y-58907708D01*
X56671652Y-58923985D01*
X56638600Y-58934011D01*
X56598097Y-58938000D01*
X55161903Y-58938000D01*
X55121400Y-58934011D01*
X55088348Y-58923985D01*
X55057897Y-58907708D01*
X55031201Y-58885799D01*
X55009292Y-58859103D01*
X54993015Y-58828652D01*
X54982989Y-58795600D01*
X54979000Y-58755097D01*
X54979000Y-57068903D01*
X54982989Y-57028400D01*
X54993015Y-56995348D01*
X55009292Y-56964897D01*
X55031201Y-56938201D01*
X55057897Y-56916292D01*
X55088348Y-56900015D01*
X55121400Y-56889989D01*
X55161903Y-56886000D01*
X56598097Y-56886000D01*
X56638600Y-56889989D01*
G37*
G36*
X91909112Y-57015927D02*
G01*
X92058412Y-57045624D01*
X92222384Y-57113544D01*
X92369954Y-57212147D01*
X92495453Y-57337646D01*
X92594056Y-57485216D01*
X92661976Y-57649188D01*
X92691673Y-57798488D01*
X92696600Y-57823258D01*
X92696600Y-58000742D01*
X92696001Y-58003753D01*
X92661976Y-58174812D01*
X92594056Y-58338784D01*
X92495453Y-58486354D01*
X92369954Y-58611853D01*
X92222384Y-58710456D01*
X92058412Y-58778376D01*
X91909112Y-58808073D01*
X91884342Y-58813000D01*
X91706858Y-58813000D01*
X91682088Y-58808073D01*
X91532788Y-58778376D01*
X91368816Y-58710456D01*
X91221246Y-58611853D01*
X91095747Y-58486354D01*
X90997144Y-58338784D01*
X90929224Y-58174812D01*
X90895199Y-58003753D01*
X90894600Y-58000742D01*
X90894600Y-57823258D01*
X90899527Y-57798488D01*
X90929224Y-57649188D01*
X90997144Y-57485216D01*
X91095747Y-57337646D01*
X91221246Y-57212147D01*
X91368816Y-57113544D01*
X91532788Y-57045624D01*
X91682088Y-57015927D01*
X91706858Y-57011000D01*
X91884342Y-57011000D01*
X91909112Y-57015927D01*
G37*
G36*
X66383000Y-58509000D02*
G01*
X64681000Y-58509000D01*
X64681000Y-56807000D01*
X66383000Y-56807000D01*
X66383000Y-58509000D01*
G37*
G36*
X140194512Y-56533327D02*
G01*
X140343812Y-56563024D01*
X140507784Y-56630944D01*
X140655354Y-56729547D01*
X140780853Y-56855046D01*
X140879456Y-57002616D01*
X140947376Y-57166588D01*
X140982000Y-57340659D01*
X140982000Y-57518141D01*
X140947376Y-57692212D01*
X140879456Y-57856184D01*
X140780853Y-58003754D01*
X140655354Y-58129253D01*
X140507784Y-58227856D01*
X140343812Y-58295776D01*
X140194512Y-58325473D01*
X140169742Y-58330400D01*
X139992258Y-58330400D01*
X139967488Y-58325473D01*
X139818188Y-58295776D01*
X139654216Y-58227856D01*
X139506646Y-58129253D01*
X139381147Y-58003754D01*
X139282544Y-57856184D01*
X139214624Y-57692212D01*
X139180000Y-57518141D01*
X139180000Y-57340659D01*
X139214624Y-57166588D01*
X139282544Y-57002616D01*
X139381147Y-56855046D01*
X139506646Y-56729547D01*
X139654216Y-56630944D01*
X139818188Y-56563024D01*
X139967488Y-56533327D01*
X139992258Y-56528400D01*
X140169742Y-56528400D01*
X140194512Y-56533327D01*
G37*
G36*
X42880228Y-56585703D02*
G01*
X43035100Y-56649853D01*
X43174481Y-56742985D01*
X43293015Y-56861519D01*
X43386147Y-57000900D01*
X43450297Y-57155772D01*
X43483000Y-57320184D01*
X43483000Y-57487816D01*
X43450297Y-57652228D01*
X43386147Y-57807100D01*
X43293015Y-57946481D01*
X43174481Y-58065015D01*
X43035100Y-58158147D01*
X42880228Y-58222297D01*
X42715816Y-58255000D01*
X42548184Y-58255000D01*
X42383772Y-58222297D01*
X42228900Y-58158147D01*
X42089519Y-58065015D01*
X41970985Y-57946481D01*
X41877853Y-57807100D01*
X41813703Y-57652228D01*
X41781000Y-57487816D01*
X41781000Y-57320184D01*
X41813703Y-57155772D01*
X41877853Y-57000900D01*
X41970985Y-56861519D01*
X42089519Y-56742985D01*
X42228900Y-56649853D01*
X42383772Y-56585703D01*
X42548184Y-56553000D01*
X42715816Y-56553000D01*
X42880228Y-56585703D01*
G37*
G36*
X40983000Y-58255000D02*
G01*
X39281000Y-58255000D01*
X39281000Y-56553000D01*
X40983000Y-56553000D01*
X40983000Y-58255000D01*
G37*
G36*
X186176228Y-56331703D02*
G01*
X186331100Y-56395853D01*
X186470481Y-56488985D01*
X186589015Y-56607519D01*
X186682147Y-56746900D01*
X186746297Y-56901772D01*
X186779000Y-57066184D01*
X186779000Y-57233816D01*
X186746297Y-57398228D01*
X186682147Y-57553100D01*
X186589015Y-57692481D01*
X186470481Y-57811015D01*
X186331100Y-57904147D01*
X186176228Y-57968297D01*
X186011816Y-58001000D01*
X185844184Y-58001000D01*
X185679772Y-57968297D01*
X185524900Y-57904147D01*
X185385519Y-57811015D01*
X185266985Y-57692481D01*
X185173853Y-57553100D01*
X185109703Y-57398228D01*
X185077000Y-57233816D01*
X185077000Y-57066184D01*
X185109703Y-56901772D01*
X185173853Y-56746900D01*
X185266985Y-56607519D01*
X185385519Y-56488985D01*
X185524900Y-56395853D01*
X185679772Y-56331703D01*
X185844184Y-56299000D01*
X186011816Y-56299000D01*
X186176228Y-56331703D01*
G37*
G36*
X194291442Y-56175518D02*
G01*
X194357627Y-56182037D01*
X194527466Y-56233557D01*
X194683991Y-56317222D01*
X194701636Y-56331703D01*
X194821186Y-56429814D01*
X194902092Y-56528400D01*
X194933778Y-56567009D01*
X195017443Y-56723534D01*
X195068963Y-56893373D01*
X195086359Y-57070000D01*
X195068963Y-57246627D01*
X195017443Y-57416466D01*
X194933778Y-57572991D01*
X194904448Y-57608729D01*
X194821186Y-57710186D01*
X194719729Y-57793448D01*
X194683991Y-57822778D01*
X194683989Y-57822779D01*
X194531762Y-57904147D01*
X194527466Y-57906443D01*
X194357627Y-57957963D01*
X194291443Y-57964481D01*
X194225260Y-57971000D01*
X193886740Y-57971000D01*
X193820557Y-57964481D01*
X193754373Y-57957963D01*
X193584534Y-57906443D01*
X193580239Y-57904147D01*
X193428011Y-57822779D01*
X193428009Y-57822778D01*
X193392271Y-57793448D01*
X193290814Y-57710186D01*
X193207552Y-57608729D01*
X193178222Y-57572991D01*
X193094557Y-57416466D01*
X193043037Y-57246627D01*
X193025641Y-57070000D01*
X193043037Y-56893373D01*
X193094557Y-56723534D01*
X193178222Y-56567009D01*
X193209908Y-56528400D01*
X193290814Y-56429814D01*
X193410364Y-56331703D01*
X193428009Y-56317222D01*
X193584534Y-56233557D01*
X193754373Y-56182037D01*
X193820558Y-56175518D01*
X193886740Y-56169000D01*
X194225260Y-56169000D01*
X194291442Y-56175518D01*
G37*
G36*
X162046228Y-55823703D02*
G01*
X162201100Y-55887853D01*
X162340481Y-55980985D01*
X162459015Y-56099519D01*
X162552147Y-56238900D01*
X162616297Y-56393772D01*
X162649000Y-56558184D01*
X162649000Y-56725816D01*
X162616297Y-56890228D01*
X162552147Y-57045100D01*
X162459015Y-57184481D01*
X162340481Y-57303015D01*
X162201100Y-57396147D01*
X162046228Y-57460297D01*
X161881816Y-57493000D01*
X161714184Y-57493000D01*
X161549772Y-57460297D01*
X161394900Y-57396147D01*
X161255519Y-57303015D01*
X161136985Y-57184481D01*
X161043853Y-57045100D01*
X160979703Y-56890228D01*
X160947000Y-56725816D01*
X160947000Y-56558184D01*
X160979703Y-56393772D01*
X161043853Y-56238900D01*
X161136985Y-56099519D01*
X161255519Y-55980985D01*
X161394900Y-55887853D01*
X161549772Y-55823703D01*
X161714184Y-55791000D01*
X161881816Y-55791000D01*
X162046228Y-55823703D01*
G37*
G36*
X151886228Y-55823703D02*
G01*
X152041100Y-55887853D01*
X152180481Y-55980985D01*
X152299015Y-56099519D01*
X152392147Y-56238900D01*
X152456297Y-56393772D01*
X152489000Y-56558184D01*
X152489000Y-56725816D01*
X152456297Y-56890228D01*
X152392147Y-57045100D01*
X152299015Y-57184481D01*
X152180481Y-57303015D01*
X152041100Y-57396147D01*
X151886228Y-57460297D01*
X151721816Y-57493000D01*
X151554184Y-57493000D01*
X151389772Y-57460297D01*
X151234900Y-57396147D01*
X151095519Y-57303015D01*
X150976985Y-57184481D01*
X150883853Y-57045100D01*
X150819703Y-56890228D01*
X150787000Y-56725816D01*
X150787000Y-56558184D01*
X150819703Y-56393772D01*
X150883853Y-56238900D01*
X150976985Y-56099519D01*
X151095519Y-55980985D01*
X151234900Y-55887853D01*
X151389772Y-55823703D01*
X151554184Y-55791000D01*
X151721816Y-55791000D01*
X151886228Y-55823703D01*
G37*
G36*
X110484228Y-54553703D02*
G01*
X110639100Y-54617853D01*
X110778481Y-54710985D01*
X110897015Y-54829519D01*
X110990147Y-54968900D01*
X111054297Y-55123772D01*
X111087000Y-55288184D01*
X111087000Y-55455816D01*
X111054297Y-55620228D01*
X110990147Y-55775100D01*
X110897015Y-55914481D01*
X110778481Y-56033015D01*
X110639100Y-56126147D01*
X110484228Y-56190297D01*
X110319816Y-56223000D01*
X110152184Y-56223000D01*
X109987772Y-56190297D01*
X109832900Y-56126147D01*
X109693519Y-56033015D01*
X109574985Y-55914481D01*
X109481853Y-55775100D01*
X109417703Y-55620228D01*
X109385000Y-55455816D01*
X109385000Y-55288184D01*
X109417703Y-55123772D01*
X109481853Y-54968900D01*
X109574985Y-54829519D01*
X109693519Y-54710985D01*
X109832900Y-54617853D01*
X109987772Y-54553703D01*
X110152184Y-54521000D01*
X110319816Y-54521000D01*
X110484228Y-54553703D01*
G37*
G36*
X100324228Y-54553703D02*
G01*
X100479100Y-54617853D01*
X100618481Y-54710985D01*
X100737015Y-54829519D01*
X100830147Y-54968900D01*
X100894297Y-55123772D01*
X100927000Y-55288184D01*
X100927000Y-55455816D01*
X100894297Y-55620228D01*
X100830147Y-55775100D01*
X100737015Y-55914481D01*
X100618481Y-56033015D01*
X100479100Y-56126147D01*
X100324228Y-56190297D01*
X100159816Y-56223000D01*
X99992184Y-56223000D01*
X99827772Y-56190297D01*
X99672900Y-56126147D01*
X99533519Y-56033015D01*
X99414985Y-55914481D01*
X99321853Y-55775100D01*
X99257703Y-55620228D01*
X99225000Y-55455816D01*
X99225000Y-55288184D01*
X99257703Y-55123772D01*
X99321853Y-54968900D01*
X99414985Y-54829519D01*
X99533519Y-54710985D01*
X99672900Y-54617853D01*
X99827772Y-54553703D01*
X99992184Y-54521000D01*
X100159816Y-54521000D01*
X100324228Y-54553703D01*
G37*
G36*
X65780228Y-54339703D02*
G01*
X65935100Y-54403853D01*
X66074481Y-54496985D01*
X66193015Y-54615519D01*
X66286147Y-54754900D01*
X66350297Y-54909772D01*
X66383000Y-55074184D01*
X66383000Y-55241816D01*
X66350297Y-55406228D01*
X66286147Y-55561100D01*
X66193015Y-55700481D01*
X66074481Y-55819015D01*
X65935100Y-55912147D01*
X65780228Y-55976297D01*
X65615816Y-56009000D01*
X65448184Y-56009000D01*
X65283772Y-55976297D01*
X65128900Y-55912147D01*
X64989519Y-55819015D01*
X64870985Y-55700481D01*
X64777853Y-55561100D01*
X64713703Y-55406228D01*
X64681000Y-55241816D01*
X64681000Y-55074184D01*
X64713703Y-54909772D01*
X64777853Y-54754900D01*
X64870985Y-54615519D01*
X64989519Y-54496985D01*
X65128900Y-54403853D01*
X65283772Y-54339703D01*
X65448184Y-54307000D01*
X65615816Y-54307000D01*
X65780228Y-54339703D01*
G37*
G36*
X140194512Y-53993327D02*
G01*
X140343812Y-54023024D01*
X140507784Y-54090944D01*
X140655354Y-54189547D01*
X140780853Y-54315046D01*
X140879456Y-54462616D01*
X140947376Y-54626588D01*
X140982000Y-54800659D01*
X140982000Y-54978141D01*
X140947376Y-55152212D01*
X140879456Y-55316184D01*
X140780853Y-55463754D01*
X140655354Y-55589253D01*
X140507784Y-55687856D01*
X140343812Y-55755776D01*
X140194512Y-55785473D01*
X140169742Y-55790400D01*
X139992258Y-55790400D01*
X139967488Y-55785473D01*
X139818188Y-55755776D01*
X139654216Y-55687856D01*
X139506646Y-55589253D01*
X139381147Y-55463754D01*
X139282544Y-55316184D01*
X139214624Y-55152212D01*
X139180000Y-54978141D01*
X139180000Y-54800659D01*
X139214624Y-54626588D01*
X139282544Y-54462616D01*
X139381147Y-54315046D01*
X139506646Y-54189547D01*
X139654216Y-54090944D01*
X139818188Y-54023024D01*
X139967488Y-53993327D01*
X139992258Y-53988400D01*
X140169742Y-53988400D01*
X140194512Y-53993327D01*
G37*
G36*
X194291442Y-53675518D02*
G01*
X194357627Y-53682037D01*
X194527466Y-53733557D01*
X194683991Y-53817222D01*
X194719729Y-53846552D01*
X194821186Y-53929814D01*
X194879618Y-54001015D01*
X194933778Y-54067009D01*
X194933779Y-54067011D01*
X195008554Y-54206903D01*
X195017443Y-54223534D01*
X195068963Y-54393373D01*
X195086359Y-54570000D01*
X195068963Y-54746627D01*
X195017443Y-54916466D01*
X194933778Y-55072991D01*
X194904448Y-55108729D01*
X194821186Y-55210186D01*
X194719729Y-55293448D01*
X194683991Y-55322778D01*
X194527466Y-55406443D01*
X194357627Y-55457963D01*
X194298839Y-55463753D01*
X194225260Y-55471000D01*
X193886740Y-55471000D01*
X193813161Y-55463753D01*
X193754373Y-55457963D01*
X193584534Y-55406443D01*
X193428009Y-55322778D01*
X193392271Y-55293448D01*
X193290814Y-55210186D01*
X193207552Y-55108729D01*
X193178222Y-55072991D01*
X193094557Y-54916466D01*
X193043037Y-54746627D01*
X193025641Y-54570000D01*
X193043037Y-54393373D01*
X193094557Y-54223534D01*
X193103447Y-54206903D01*
X193178221Y-54067011D01*
X193178222Y-54067009D01*
X193232382Y-54001015D01*
X193290814Y-53929814D01*
X193392271Y-53846552D01*
X193428009Y-53817222D01*
X193584534Y-53733557D01*
X193754373Y-53682037D01*
X193820558Y-53675518D01*
X193886740Y-53669000D01*
X194225260Y-53669000D01*
X194291442Y-53675518D01*
G37*
G36*
X186176228Y-53791703D02*
G01*
X186331100Y-53855853D01*
X186470481Y-53948985D01*
X186589015Y-54067519D01*
X186682147Y-54206900D01*
X186746297Y-54361772D01*
X186779000Y-54526184D01*
X186779000Y-54693816D01*
X186746297Y-54858228D01*
X186682147Y-55013100D01*
X186589015Y-55152481D01*
X186470481Y-55271015D01*
X186331100Y-55364147D01*
X186176228Y-55428297D01*
X186011816Y-55461000D01*
X185844184Y-55461000D01*
X185679772Y-55428297D01*
X185524900Y-55364147D01*
X185385519Y-55271015D01*
X185266985Y-55152481D01*
X185173853Y-55013100D01*
X185109703Y-54858228D01*
X185077000Y-54693816D01*
X185077000Y-54526184D01*
X185109703Y-54361772D01*
X185173853Y-54206900D01*
X185266985Y-54067519D01*
X185385519Y-53948985D01*
X185524900Y-53855853D01*
X185679772Y-53791703D01*
X185844184Y-53759000D01*
X186011816Y-53759000D01*
X186176228Y-53791703D01*
G37*
G36*
X162046228Y-52521703D02*
G01*
X162201100Y-52585853D01*
X162340481Y-52678985D01*
X162459015Y-52797519D01*
X162552147Y-52936900D01*
X162616297Y-53091772D01*
X162649000Y-53256184D01*
X162649000Y-53423816D01*
X162616297Y-53588228D01*
X162552147Y-53743100D01*
X162459015Y-53882481D01*
X162340481Y-54001015D01*
X162201100Y-54094147D01*
X162046228Y-54158297D01*
X161881816Y-54191000D01*
X161714184Y-54191000D01*
X161549772Y-54158297D01*
X161394900Y-54094147D01*
X161255519Y-54001015D01*
X161136985Y-53882481D01*
X161043853Y-53743100D01*
X160979703Y-53588228D01*
X160947000Y-53423816D01*
X160947000Y-53256184D01*
X160979703Y-53091772D01*
X161043853Y-52936900D01*
X161136985Y-52797519D01*
X161255519Y-52678985D01*
X161394900Y-52585853D01*
X161549772Y-52521703D01*
X161714184Y-52489000D01*
X161881816Y-52489000D01*
X162046228Y-52521703D01*
G37*
G36*
X151886228Y-52521703D02*
G01*
X152041100Y-52585853D01*
X152180481Y-52678985D01*
X152299015Y-52797519D01*
X152392147Y-52936900D01*
X152456297Y-53091772D01*
X152489000Y-53256184D01*
X152489000Y-53423816D01*
X152456297Y-53588228D01*
X152392147Y-53743100D01*
X152299015Y-53882481D01*
X152180481Y-54001015D01*
X152041100Y-54094147D01*
X151886228Y-54158297D01*
X151721816Y-54191000D01*
X151554184Y-54191000D01*
X151389772Y-54158297D01*
X151234900Y-54094147D01*
X151095519Y-54001015D01*
X150976985Y-53882481D01*
X150883853Y-53743100D01*
X150819703Y-53588228D01*
X150787000Y-53423816D01*
X150787000Y-53256184D01*
X150819703Y-53091772D01*
X150883853Y-52936900D01*
X150976985Y-52797519D01*
X151095519Y-52678985D01*
X151234900Y-52585853D01*
X151389772Y-52521703D01*
X151554184Y-52489000D01*
X151721816Y-52489000D01*
X151886228Y-52521703D01*
G37*
G36*
X140194512Y-51453327D02*
G01*
X140343812Y-51483024D01*
X140507784Y-51550944D01*
X140655354Y-51649547D01*
X140780853Y-51775046D01*
X140879456Y-51922616D01*
X140947376Y-52086588D01*
X140982000Y-52260659D01*
X140982000Y-52438141D01*
X140947376Y-52612212D01*
X140879456Y-52776184D01*
X140780853Y-52923754D01*
X140655354Y-53049253D01*
X140507784Y-53147856D01*
X140343812Y-53215776D01*
X140194512Y-53245473D01*
X140169742Y-53250400D01*
X139992258Y-53250400D01*
X139967488Y-53245473D01*
X139818188Y-53215776D01*
X139654216Y-53147856D01*
X139506646Y-53049253D01*
X139381147Y-52923754D01*
X139282544Y-52776184D01*
X139214624Y-52612212D01*
X139180000Y-52438141D01*
X139180000Y-52260659D01*
X139214624Y-52086588D01*
X139282544Y-51922616D01*
X139381147Y-51775046D01*
X139506646Y-51649547D01*
X139654216Y-51550944D01*
X139818188Y-51483024D01*
X139967488Y-51453327D01*
X139992258Y-51448400D01*
X140169742Y-51448400D01*
X140194512Y-51453327D01*
G37*
G36*
X194939600Y-51172989D02*
G01*
X194972652Y-51183015D01*
X195003103Y-51199292D01*
X195029799Y-51221201D01*
X195051708Y-51247897D01*
X195067985Y-51278348D01*
X195078011Y-51311400D01*
X195082000Y-51351903D01*
X195082000Y-52788097D01*
X195078011Y-52828600D01*
X195067985Y-52861652D01*
X195051708Y-52892103D01*
X195029799Y-52918799D01*
X195003103Y-52940708D01*
X194972652Y-52956985D01*
X194939600Y-52967011D01*
X194899097Y-52971000D01*
X193212903Y-52971000D01*
X193172400Y-52967011D01*
X193139348Y-52956985D01*
X193108897Y-52940708D01*
X193082201Y-52918799D01*
X193060292Y-52892103D01*
X193044015Y-52861652D01*
X193033989Y-52828600D01*
X193030000Y-52788097D01*
X193030000Y-51351903D01*
X193033989Y-51311400D01*
X193044015Y-51278348D01*
X193060292Y-51247897D01*
X193082201Y-51221201D01*
X193108897Y-51199292D01*
X193139348Y-51183015D01*
X193172400Y-51172989D01*
X193212903Y-51169000D01*
X194899097Y-51169000D01*
X194939600Y-51172989D01*
G37*
G36*
X186176228Y-51251703D02*
G01*
X186331100Y-51315853D01*
X186470481Y-51408985D01*
X186589015Y-51527519D01*
X186682147Y-51666900D01*
X186746297Y-51821772D01*
X186779000Y-51986184D01*
X186779000Y-52153816D01*
X186746297Y-52318228D01*
X186682147Y-52473100D01*
X186589015Y-52612481D01*
X186470481Y-52731015D01*
X186331100Y-52824147D01*
X186176228Y-52888297D01*
X186011816Y-52921000D01*
X185844184Y-52921000D01*
X185679772Y-52888297D01*
X185524900Y-52824147D01*
X185385519Y-52731015D01*
X185266985Y-52612481D01*
X185173853Y-52473100D01*
X185109703Y-52318228D01*
X185077000Y-52153816D01*
X185077000Y-51986184D01*
X185109703Y-51821772D01*
X185173853Y-51666900D01*
X185266985Y-51527519D01*
X185385519Y-51408985D01*
X185524900Y-51315853D01*
X185679772Y-51251703D01*
X185844184Y-51219000D01*
X186011816Y-51219000D01*
X186176228Y-51251703D01*
G37*
G36*
X135093512Y-49443927D02*
G01*
X135242812Y-49473624D01*
X135406784Y-49541544D01*
X135554354Y-49640147D01*
X135679853Y-49765646D01*
X135778456Y-49913216D01*
X135846376Y-50077188D01*
X135881000Y-50251259D01*
X135881000Y-50428741D01*
X135846376Y-50602812D01*
X135778456Y-50766784D01*
X135679853Y-50914354D01*
X135554354Y-51039853D01*
X135406784Y-51138456D01*
X135242812Y-51206376D01*
X135093512Y-51236073D01*
X135068742Y-51241000D01*
X134891258Y-51241000D01*
X134866488Y-51236073D01*
X134717188Y-51206376D01*
X134553216Y-51138456D01*
X134405646Y-51039853D01*
X134280147Y-50914354D01*
X134181544Y-50766784D01*
X134113624Y-50602812D01*
X134079000Y-50428741D01*
X134079000Y-50251259D01*
X134113624Y-50077188D01*
X134181544Y-49913216D01*
X134280147Y-49765646D01*
X134405646Y-49640147D01*
X134553216Y-49541544D01*
X134717188Y-49473624D01*
X134866488Y-49443927D01*
X134891258Y-49439000D01*
X135068742Y-49439000D01*
X135093512Y-49443927D01*
G37*
G36*
X91913512Y-49443927D02*
G01*
X92062812Y-49473624D01*
X92226784Y-49541544D01*
X92374354Y-49640147D01*
X92499853Y-49765646D01*
X92598456Y-49913216D01*
X92666376Y-50077188D01*
X92701000Y-50251259D01*
X92701000Y-50428741D01*
X92666376Y-50602812D01*
X92598456Y-50766784D01*
X92499853Y-50914354D01*
X92374354Y-51039853D01*
X92226784Y-51138456D01*
X92062812Y-51206376D01*
X91913512Y-51236073D01*
X91888742Y-51241000D01*
X91711258Y-51241000D01*
X91686488Y-51236073D01*
X91537188Y-51206376D01*
X91373216Y-51138456D01*
X91225646Y-51039853D01*
X91100147Y-50914354D01*
X91001544Y-50766784D01*
X90933624Y-50602812D01*
X90899000Y-50428741D01*
X90899000Y-50251259D01*
X90933624Y-50077188D01*
X91001544Y-49913216D01*
X91100147Y-49765646D01*
X91225646Y-49640147D01*
X91373216Y-49541544D01*
X91537188Y-49473624D01*
X91686488Y-49443927D01*
X91711258Y-49439000D01*
X91888742Y-49439000D01*
X91913512Y-49443927D01*
G37*
G36*
X94453512Y-49443927D02*
G01*
X94602812Y-49473624D01*
X94766784Y-49541544D01*
X94914354Y-49640147D01*
X95039853Y-49765646D01*
X95138456Y-49913216D01*
X95206376Y-50077188D01*
X95241000Y-50251259D01*
X95241000Y-50428741D01*
X95206376Y-50602812D01*
X95138456Y-50766784D01*
X95039853Y-50914354D01*
X94914354Y-51039853D01*
X94766784Y-51138456D01*
X94602812Y-51206376D01*
X94453512Y-51236073D01*
X94428742Y-51241000D01*
X94251258Y-51241000D01*
X94226488Y-51236073D01*
X94077188Y-51206376D01*
X93913216Y-51138456D01*
X93765646Y-51039853D01*
X93640147Y-50914354D01*
X93541544Y-50766784D01*
X93473624Y-50602812D01*
X93439000Y-50428741D01*
X93439000Y-50251259D01*
X93473624Y-50077188D01*
X93541544Y-49913216D01*
X93640147Y-49765646D01*
X93765646Y-49640147D01*
X93913216Y-49541544D01*
X94077188Y-49473624D01*
X94226488Y-49443927D01*
X94251258Y-49439000D01*
X94428742Y-49439000D01*
X94453512Y-49443927D01*
G37*
G36*
X99533512Y-49443927D02*
G01*
X99682812Y-49473624D01*
X99846784Y-49541544D01*
X99994354Y-49640147D01*
X100119853Y-49765646D01*
X100218456Y-49913216D01*
X100286376Y-50077188D01*
X100321000Y-50251259D01*
X100321000Y-50428741D01*
X100286376Y-50602812D01*
X100218456Y-50766784D01*
X100119853Y-50914354D01*
X99994354Y-51039853D01*
X99846784Y-51138456D01*
X99682812Y-51206376D01*
X99533512Y-51236073D01*
X99508742Y-51241000D01*
X99331258Y-51241000D01*
X99306488Y-51236073D01*
X99157188Y-51206376D01*
X98993216Y-51138456D01*
X98845646Y-51039853D01*
X98720147Y-50914354D01*
X98621544Y-50766784D01*
X98553624Y-50602812D01*
X98519000Y-50428741D01*
X98519000Y-50251259D01*
X98553624Y-50077188D01*
X98621544Y-49913216D01*
X98720147Y-49765646D01*
X98845646Y-49640147D01*
X98993216Y-49541544D01*
X99157188Y-49473624D01*
X99306488Y-49443927D01*
X99331258Y-49439000D01*
X99508742Y-49439000D01*
X99533512Y-49443927D01*
G37*
G36*
X102073512Y-49443927D02*
G01*
X102222812Y-49473624D01*
X102386784Y-49541544D01*
X102534354Y-49640147D01*
X102659853Y-49765646D01*
X102758456Y-49913216D01*
X102826376Y-50077188D01*
X102861000Y-50251259D01*
X102861000Y-50428741D01*
X102826376Y-50602812D01*
X102758456Y-50766784D01*
X102659853Y-50914354D01*
X102534354Y-51039853D01*
X102386784Y-51138456D01*
X102222812Y-51206376D01*
X102073512Y-51236073D01*
X102048742Y-51241000D01*
X101871258Y-51241000D01*
X101846488Y-51236073D01*
X101697188Y-51206376D01*
X101533216Y-51138456D01*
X101385646Y-51039853D01*
X101260147Y-50914354D01*
X101161544Y-50766784D01*
X101093624Y-50602812D01*
X101059000Y-50428741D01*
X101059000Y-50251259D01*
X101093624Y-50077188D01*
X101161544Y-49913216D01*
X101260147Y-49765646D01*
X101385646Y-49640147D01*
X101533216Y-49541544D01*
X101697188Y-49473624D01*
X101846488Y-49443927D01*
X101871258Y-49439000D01*
X102048742Y-49439000D01*
X102073512Y-49443927D01*
G37*
G36*
X104613512Y-49443927D02*
G01*
X104762812Y-49473624D01*
X104926784Y-49541544D01*
X105074354Y-49640147D01*
X105199853Y-49765646D01*
X105298456Y-49913216D01*
X105366376Y-50077188D01*
X105401000Y-50251259D01*
X105401000Y-50428741D01*
X105366376Y-50602812D01*
X105298456Y-50766784D01*
X105199853Y-50914354D01*
X105074354Y-51039853D01*
X104926784Y-51138456D01*
X104762812Y-51206376D01*
X104613512Y-51236073D01*
X104588742Y-51241000D01*
X104411258Y-51241000D01*
X104386488Y-51236073D01*
X104237188Y-51206376D01*
X104073216Y-51138456D01*
X103925646Y-51039853D01*
X103800147Y-50914354D01*
X103701544Y-50766784D01*
X103633624Y-50602812D01*
X103599000Y-50428741D01*
X103599000Y-50251259D01*
X103633624Y-50077188D01*
X103701544Y-49913216D01*
X103800147Y-49765646D01*
X103925646Y-49640147D01*
X104073216Y-49541544D01*
X104237188Y-49473624D01*
X104386488Y-49443927D01*
X104411258Y-49439000D01*
X104588742Y-49439000D01*
X104613512Y-49443927D01*
G37*
G36*
X109693512Y-49443927D02*
G01*
X109842812Y-49473624D01*
X110006784Y-49541544D01*
X110154354Y-49640147D01*
X110279853Y-49765646D01*
X110378456Y-49913216D01*
X110446376Y-50077188D01*
X110481000Y-50251259D01*
X110481000Y-50428741D01*
X110446376Y-50602812D01*
X110378456Y-50766784D01*
X110279853Y-50914354D01*
X110154354Y-51039853D01*
X110006784Y-51138456D01*
X109842812Y-51206376D01*
X109693512Y-51236073D01*
X109668742Y-51241000D01*
X109491258Y-51241000D01*
X109466488Y-51236073D01*
X109317188Y-51206376D01*
X109153216Y-51138456D01*
X109005646Y-51039853D01*
X108880147Y-50914354D01*
X108781544Y-50766784D01*
X108713624Y-50602812D01*
X108679000Y-50428741D01*
X108679000Y-50251259D01*
X108713624Y-50077188D01*
X108781544Y-49913216D01*
X108880147Y-49765646D01*
X109005646Y-49640147D01*
X109153216Y-49541544D01*
X109317188Y-49473624D01*
X109466488Y-49443927D01*
X109491258Y-49439000D01*
X109668742Y-49439000D01*
X109693512Y-49443927D01*
G37*
G36*
X112233512Y-49443927D02*
G01*
X112382812Y-49473624D01*
X112546784Y-49541544D01*
X112694354Y-49640147D01*
X112819853Y-49765646D01*
X112918456Y-49913216D01*
X112986376Y-50077188D01*
X113021000Y-50251259D01*
X113021000Y-50428741D01*
X112986376Y-50602812D01*
X112918456Y-50766784D01*
X112819853Y-50914354D01*
X112694354Y-51039853D01*
X112546784Y-51138456D01*
X112382812Y-51206376D01*
X112233512Y-51236073D01*
X112208742Y-51241000D01*
X112031258Y-51241000D01*
X112006488Y-51236073D01*
X111857188Y-51206376D01*
X111693216Y-51138456D01*
X111545646Y-51039853D01*
X111420147Y-50914354D01*
X111321544Y-50766784D01*
X111253624Y-50602812D01*
X111219000Y-50428741D01*
X111219000Y-50251259D01*
X111253624Y-50077188D01*
X111321544Y-49913216D01*
X111420147Y-49765646D01*
X111545646Y-49640147D01*
X111693216Y-49541544D01*
X111857188Y-49473624D01*
X112006488Y-49443927D01*
X112031258Y-49439000D01*
X112208742Y-49439000D01*
X112233512Y-49443927D01*
G37*
G36*
X114773512Y-49443927D02*
G01*
X114922812Y-49473624D01*
X115086784Y-49541544D01*
X115234354Y-49640147D01*
X115359853Y-49765646D01*
X115458456Y-49913216D01*
X115526376Y-50077188D01*
X115561000Y-50251259D01*
X115561000Y-50428741D01*
X115526376Y-50602812D01*
X115458456Y-50766784D01*
X115359853Y-50914354D01*
X115234354Y-51039853D01*
X115086784Y-51138456D01*
X114922812Y-51206376D01*
X114773512Y-51236073D01*
X114748742Y-51241000D01*
X114571258Y-51241000D01*
X114546488Y-51236073D01*
X114397188Y-51206376D01*
X114233216Y-51138456D01*
X114085646Y-51039853D01*
X113960147Y-50914354D01*
X113861544Y-50766784D01*
X113793624Y-50602812D01*
X113759000Y-50428741D01*
X113759000Y-50251259D01*
X113793624Y-50077188D01*
X113861544Y-49913216D01*
X113960147Y-49765646D01*
X114085646Y-49640147D01*
X114233216Y-49541544D01*
X114397188Y-49473624D01*
X114546488Y-49443927D01*
X114571258Y-49439000D01*
X114748742Y-49439000D01*
X114773512Y-49443927D01*
G37*
G36*
X119853512Y-49443927D02*
G01*
X120002812Y-49473624D01*
X120166784Y-49541544D01*
X120314354Y-49640147D01*
X120439853Y-49765646D01*
X120538456Y-49913216D01*
X120606376Y-50077188D01*
X120641000Y-50251259D01*
X120641000Y-50428741D01*
X120606376Y-50602812D01*
X120538456Y-50766784D01*
X120439853Y-50914354D01*
X120314354Y-51039853D01*
X120166784Y-51138456D01*
X120002812Y-51206376D01*
X119853512Y-51236073D01*
X119828742Y-51241000D01*
X119651258Y-51241000D01*
X119626488Y-51236073D01*
X119477188Y-51206376D01*
X119313216Y-51138456D01*
X119165646Y-51039853D01*
X119040147Y-50914354D01*
X118941544Y-50766784D01*
X118873624Y-50602812D01*
X118839000Y-50428741D01*
X118839000Y-50251259D01*
X118873624Y-50077188D01*
X118941544Y-49913216D01*
X119040147Y-49765646D01*
X119165646Y-49640147D01*
X119313216Y-49541544D01*
X119477188Y-49473624D01*
X119626488Y-49443927D01*
X119651258Y-49439000D01*
X119828742Y-49439000D01*
X119853512Y-49443927D01*
G37*
G36*
X122393512Y-49443927D02*
G01*
X122542812Y-49473624D01*
X122706784Y-49541544D01*
X122854354Y-49640147D01*
X122979853Y-49765646D01*
X123078456Y-49913216D01*
X123146376Y-50077188D01*
X123181000Y-50251259D01*
X123181000Y-50428741D01*
X123146376Y-50602812D01*
X123078456Y-50766784D01*
X122979853Y-50914354D01*
X122854354Y-51039853D01*
X122706784Y-51138456D01*
X122542812Y-51206376D01*
X122393512Y-51236073D01*
X122368742Y-51241000D01*
X122191258Y-51241000D01*
X122166488Y-51236073D01*
X122017188Y-51206376D01*
X121853216Y-51138456D01*
X121705646Y-51039853D01*
X121580147Y-50914354D01*
X121481544Y-50766784D01*
X121413624Y-50602812D01*
X121379000Y-50428741D01*
X121379000Y-50251259D01*
X121413624Y-50077188D01*
X121481544Y-49913216D01*
X121580147Y-49765646D01*
X121705646Y-49640147D01*
X121853216Y-49541544D01*
X122017188Y-49473624D01*
X122166488Y-49443927D01*
X122191258Y-49439000D01*
X122368742Y-49439000D01*
X122393512Y-49443927D01*
G37*
G36*
X124933512Y-49443927D02*
G01*
X125082812Y-49473624D01*
X125246784Y-49541544D01*
X125394354Y-49640147D01*
X125519853Y-49765646D01*
X125618456Y-49913216D01*
X125686376Y-50077188D01*
X125721000Y-50251259D01*
X125721000Y-50428741D01*
X125686376Y-50602812D01*
X125618456Y-50766784D01*
X125519853Y-50914354D01*
X125394354Y-51039853D01*
X125246784Y-51138456D01*
X125082812Y-51206376D01*
X124933512Y-51236073D01*
X124908742Y-51241000D01*
X124731258Y-51241000D01*
X124706488Y-51236073D01*
X124557188Y-51206376D01*
X124393216Y-51138456D01*
X124245646Y-51039853D01*
X124120147Y-50914354D01*
X124021544Y-50766784D01*
X123953624Y-50602812D01*
X123919000Y-50428741D01*
X123919000Y-50251259D01*
X123953624Y-50077188D01*
X124021544Y-49913216D01*
X124120147Y-49765646D01*
X124245646Y-49640147D01*
X124393216Y-49541544D01*
X124557188Y-49473624D01*
X124706488Y-49443927D01*
X124731258Y-49439000D01*
X124908742Y-49439000D01*
X124933512Y-49443927D01*
G37*
G36*
X127473512Y-49443927D02*
G01*
X127622812Y-49473624D01*
X127786784Y-49541544D01*
X127934354Y-49640147D01*
X128059853Y-49765646D01*
X128158456Y-49913216D01*
X128226376Y-50077188D01*
X128261000Y-50251259D01*
X128261000Y-50428741D01*
X128226376Y-50602812D01*
X128158456Y-50766784D01*
X128059853Y-50914354D01*
X127934354Y-51039853D01*
X127786784Y-51138456D01*
X127622812Y-51206376D01*
X127473512Y-51236073D01*
X127448742Y-51241000D01*
X127271258Y-51241000D01*
X127246488Y-51236073D01*
X127097188Y-51206376D01*
X126933216Y-51138456D01*
X126785646Y-51039853D01*
X126660147Y-50914354D01*
X126561544Y-50766784D01*
X126493624Y-50602812D01*
X126459000Y-50428741D01*
X126459000Y-50251259D01*
X126493624Y-50077188D01*
X126561544Y-49913216D01*
X126660147Y-49765646D01*
X126785646Y-49640147D01*
X126933216Y-49541544D01*
X127097188Y-49473624D01*
X127246488Y-49443927D01*
X127271258Y-49439000D01*
X127448742Y-49439000D01*
X127473512Y-49443927D01*
G37*
G36*
X130013512Y-49443927D02*
G01*
X130162812Y-49473624D01*
X130326784Y-49541544D01*
X130474354Y-49640147D01*
X130599853Y-49765646D01*
X130698456Y-49913216D01*
X130766376Y-50077188D01*
X130801000Y-50251259D01*
X130801000Y-50428741D01*
X130766376Y-50602812D01*
X130698456Y-50766784D01*
X130599853Y-50914354D01*
X130474354Y-51039853D01*
X130326784Y-51138456D01*
X130162812Y-51206376D01*
X130013512Y-51236073D01*
X129988742Y-51241000D01*
X129811258Y-51241000D01*
X129786488Y-51236073D01*
X129637188Y-51206376D01*
X129473216Y-51138456D01*
X129325646Y-51039853D01*
X129200147Y-50914354D01*
X129101544Y-50766784D01*
X129033624Y-50602812D01*
X128999000Y-50428741D01*
X128999000Y-50251259D01*
X129033624Y-50077188D01*
X129101544Y-49913216D01*
X129200147Y-49765646D01*
X129325646Y-49640147D01*
X129473216Y-49541544D01*
X129637188Y-49473624D01*
X129786488Y-49443927D01*
X129811258Y-49439000D01*
X129988742Y-49439000D01*
X130013512Y-49443927D01*
G37*
G36*
X132553512Y-49443927D02*
G01*
X132702812Y-49473624D01*
X132866784Y-49541544D01*
X133014354Y-49640147D01*
X133139853Y-49765646D01*
X133238456Y-49913216D01*
X133306376Y-50077188D01*
X133341000Y-50251259D01*
X133341000Y-50428741D01*
X133306376Y-50602812D01*
X133238456Y-50766784D01*
X133139853Y-50914354D01*
X133014354Y-51039853D01*
X132866784Y-51138456D01*
X132702812Y-51206376D01*
X132553512Y-51236073D01*
X132528742Y-51241000D01*
X132351258Y-51241000D01*
X132326488Y-51236073D01*
X132177188Y-51206376D01*
X132013216Y-51138456D01*
X131865646Y-51039853D01*
X131740147Y-50914354D01*
X131641544Y-50766784D01*
X131573624Y-50602812D01*
X131539000Y-50428741D01*
X131539000Y-50251259D01*
X131573624Y-50077188D01*
X131641544Y-49913216D01*
X131740147Y-49765646D01*
X131865646Y-49640147D01*
X132013216Y-49541544D01*
X132177188Y-49473624D01*
X132326488Y-49443927D01*
X132351258Y-49439000D01*
X132528742Y-49439000D01*
X132553512Y-49443927D01*
G37*
G36*
X107153512Y-49443927D02*
G01*
X107302812Y-49473624D01*
X107466784Y-49541544D01*
X107614354Y-49640147D01*
X107739853Y-49765646D01*
X107838456Y-49913216D01*
X107906376Y-50077188D01*
X107941000Y-50251259D01*
X107941000Y-50428741D01*
X107906376Y-50602812D01*
X107838456Y-50766784D01*
X107739853Y-50914354D01*
X107614354Y-51039853D01*
X107466784Y-51138456D01*
X107302812Y-51206376D01*
X107153512Y-51236073D01*
X107128742Y-51241000D01*
X106951258Y-51241000D01*
X106926488Y-51236073D01*
X106777188Y-51206376D01*
X106613216Y-51138456D01*
X106465646Y-51039853D01*
X106340147Y-50914354D01*
X106241544Y-50766784D01*
X106173624Y-50602812D01*
X106139000Y-50428741D01*
X106139000Y-50251259D01*
X106173624Y-50077188D01*
X106241544Y-49913216D01*
X106340147Y-49765646D01*
X106465646Y-49640147D01*
X106613216Y-49541544D01*
X106777188Y-49473624D01*
X106926488Y-49443927D01*
X106951258Y-49439000D01*
X107128742Y-49439000D01*
X107153512Y-49443927D01*
G37*
G36*
X96993512Y-49443927D02*
G01*
X97142812Y-49473624D01*
X97306784Y-49541544D01*
X97454354Y-49640147D01*
X97579853Y-49765646D01*
X97678456Y-49913216D01*
X97746376Y-50077188D01*
X97781000Y-50251259D01*
X97781000Y-50428741D01*
X97746376Y-50602812D01*
X97678456Y-50766784D01*
X97579853Y-50914354D01*
X97454354Y-51039853D01*
X97306784Y-51138456D01*
X97142812Y-51206376D01*
X96993512Y-51236073D01*
X96968742Y-51241000D01*
X96791258Y-51241000D01*
X96766488Y-51236073D01*
X96617188Y-51206376D01*
X96453216Y-51138456D01*
X96305646Y-51039853D01*
X96180147Y-50914354D01*
X96081544Y-50766784D01*
X96013624Y-50602812D01*
X95979000Y-50428741D01*
X95979000Y-50251259D01*
X96013624Y-50077188D01*
X96081544Y-49913216D01*
X96180147Y-49765646D01*
X96305646Y-49640147D01*
X96453216Y-49541544D01*
X96617188Y-49473624D01*
X96766488Y-49443927D01*
X96791258Y-49439000D01*
X96968742Y-49439000D01*
X96993512Y-49443927D01*
G37*
G36*
X117313512Y-49443927D02*
G01*
X117462812Y-49473624D01*
X117626784Y-49541544D01*
X117774354Y-49640147D01*
X117899853Y-49765646D01*
X117998456Y-49913216D01*
X118066376Y-50077188D01*
X118101000Y-50251259D01*
X118101000Y-50428741D01*
X118066376Y-50602812D01*
X117998456Y-50766784D01*
X117899853Y-50914354D01*
X117774354Y-51039853D01*
X117626784Y-51138456D01*
X117462812Y-51206376D01*
X117313512Y-51236073D01*
X117288742Y-51241000D01*
X117111258Y-51241000D01*
X117086488Y-51236073D01*
X116937188Y-51206376D01*
X116773216Y-51138456D01*
X116625646Y-51039853D01*
X116500147Y-50914354D01*
X116401544Y-50766784D01*
X116333624Y-50602812D01*
X116299000Y-50428741D01*
X116299000Y-50251259D01*
X116333624Y-50077188D01*
X116401544Y-49913216D01*
X116500147Y-49765646D01*
X116625646Y-49640147D01*
X116773216Y-49541544D01*
X116937188Y-49473624D01*
X117086488Y-49443927D01*
X117111258Y-49439000D01*
X117288742Y-49439000D01*
X117313512Y-49443927D01*
G37*
G36*
X75380720Y-49001520D02*
G01*
X75569881Y-49058901D01*
X75744212Y-49152083D01*
X75897015Y-49277485D01*
X76022417Y-49430288D01*
X76057284Y-49495520D01*
X76115598Y-49604617D01*
X76115599Y-49604620D01*
X76172980Y-49793781D01*
X76187500Y-49941207D01*
X76187500Y-50134794D01*
X76172980Y-50282220D01*
X76115599Y-50471381D01*
X76022417Y-50645712D01*
X75897015Y-50798515D01*
X75744212Y-50923917D01*
X75662333Y-50967682D01*
X75569883Y-51017098D01*
X75569880Y-51017099D01*
X75380719Y-51074480D01*
X75184000Y-51093855D01*
X74987280Y-51074480D01*
X74798119Y-51017099D01*
X74623788Y-50923917D01*
X74470985Y-50798515D01*
X74345583Y-50645712D01*
X74301818Y-50563833D01*
X74252402Y-50471383D01*
X74237725Y-50423000D01*
X74195020Y-50282219D01*
X74180500Y-50134793D01*
X74180500Y-49941206D01*
X74183257Y-49913218D01*
X74195020Y-49793782D01*
X74195020Y-49793780D01*
X74252401Y-49604619D01*
X74345583Y-49430288D01*
X74470985Y-49277485D01*
X74623788Y-49152083D01*
X74798120Y-49058901D01*
X74987281Y-49001520D01*
X75184000Y-48982145D01*
X75380720Y-49001520D01*
G37*
G36*
X47186720Y-49001520D02*
G01*
X47375881Y-49058901D01*
X47550212Y-49152083D01*
X47703015Y-49277485D01*
X47828417Y-49430288D01*
X47863284Y-49495520D01*
X47921598Y-49604617D01*
X47921599Y-49604620D01*
X47978980Y-49793781D01*
X47993500Y-49941207D01*
X47993500Y-50134794D01*
X47978980Y-50282220D01*
X47921599Y-50471381D01*
X47828417Y-50645712D01*
X47703015Y-50798515D01*
X47550212Y-50923917D01*
X47468333Y-50967682D01*
X47375883Y-51017098D01*
X47375880Y-51017099D01*
X47186719Y-51074480D01*
X46990000Y-51093855D01*
X46793280Y-51074480D01*
X46604119Y-51017099D01*
X46429788Y-50923917D01*
X46276985Y-50798515D01*
X46151583Y-50645712D01*
X46107818Y-50563833D01*
X46058402Y-50471383D01*
X46043725Y-50423000D01*
X46001020Y-50282219D01*
X45986500Y-50134793D01*
X45986500Y-49941206D01*
X45989257Y-49913218D01*
X46001020Y-49793782D01*
X46001020Y-49793780D01*
X46058401Y-49604619D01*
X46151583Y-49430288D01*
X46276985Y-49277485D01*
X46429788Y-49152083D01*
X46604120Y-49058901D01*
X46793281Y-49001520D01*
X46990000Y-48982145D01*
X47186720Y-49001520D01*
G37*
G36*
X44646720Y-49001520D02*
G01*
X44835881Y-49058901D01*
X45010212Y-49152083D01*
X45163015Y-49277485D01*
X45288417Y-49430288D01*
X45323284Y-49495520D01*
X45381598Y-49604617D01*
X45381599Y-49604620D01*
X45438980Y-49793781D01*
X45453500Y-49941207D01*
X45453500Y-50134794D01*
X45438980Y-50282220D01*
X45381599Y-50471381D01*
X45288417Y-50645712D01*
X45163015Y-50798515D01*
X45010212Y-50923917D01*
X44928333Y-50967682D01*
X44835883Y-51017098D01*
X44835880Y-51017099D01*
X44646719Y-51074480D01*
X44450000Y-51093855D01*
X44253280Y-51074480D01*
X44064119Y-51017099D01*
X43889788Y-50923917D01*
X43736985Y-50798515D01*
X43611583Y-50645712D01*
X43567818Y-50563833D01*
X43518402Y-50471383D01*
X43503725Y-50423000D01*
X43461020Y-50282219D01*
X43446500Y-50134793D01*
X43446500Y-49941206D01*
X43449257Y-49913218D01*
X43461020Y-49793782D01*
X43461020Y-49793780D01*
X43518401Y-49604619D01*
X43611583Y-49430288D01*
X43736985Y-49277485D01*
X43889788Y-49152083D01*
X44064120Y-49058901D01*
X44253281Y-49001520D01*
X44450000Y-48982145D01*
X44646720Y-49001520D01*
G37*
G36*
X77920720Y-49001520D02*
G01*
X78109881Y-49058901D01*
X78284212Y-49152083D01*
X78437015Y-49277485D01*
X78562417Y-49430288D01*
X78597284Y-49495520D01*
X78655598Y-49604617D01*
X78655599Y-49604620D01*
X78712980Y-49793781D01*
X78727500Y-49941207D01*
X78727500Y-50134794D01*
X78712980Y-50282220D01*
X78655599Y-50471381D01*
X78562417Y-50645712D01*
X78437015Y-50798515D01*
X78284212Y-50923917D01*
X78202333Y-50967682D01*
X78109883Y-51017098D01*
X78109880Y-51017099D01*
X77920719Y-51074480D01*
X77724000Y-51093855D01*
X77527280Y-51074480D01*
X77338119Y-51017099D01*
X77163788Y-50923917D01*
X77010985Y-50798515D01*
X76885583Y-50645712D01*
X76841818Y-50563833D01*
X76792402Y-50471383D01*
X76777725Y-50423000D01*
X76735020Y-50282219D01*
X76720500Y-50134793D01*
X76720500Y-49941206D01*
X76723257Y-49913218D01*
X76735020Y-49793782D01*
X76735020Y-49793780D01*
X76792401Y-49604619D01*
X76885583Y-49430288D01*
X77010985Y-49277485D01*
X77163788Y-49152083D01*
X77338120Y-49058901D01*
X77527281Y-49001520D01*
X77724000Y-48982145D01*
X77920720Y-49001520D01*
G37*
G36*
X50533500Y-51089000D02*
G01*
X48526500Y-51089000D01*
X48526500Y-48987000D01*
X50533500Y-48987000D01*
X50533500Y-51089000D01*
G37*
G36*
X81267500Y-51089000D02*
G01*
X79260500Y-51089000D01*
X79260500Y-48987000D01*
X81267500Y-48987000D01*
X81267500Y-51089000D01*
G37*
G36*
X162046228Y-49219703D02*
G01*
X162201100Y-49283853D01*
X162340481Y-49376985D01*
X162459015Y-49495519D01*
X162552147Y-49634900D01*
X162616297Y-49789772D01*
X162649000Y-49954184D01*
X162649000Y-50121816D01*
X162616297Y-50286228D01*
X162552147Y-50441100D01*
X162459015Y-50580481D01*
X162340481Y-50699015D01*
X162201100Y-50792147D01*
X162046228Y-50856297D01*
X161881816Y-50889000D01*
X161714184Y-50889000D01*
X161549772Y-50856297D01*
X161394900Y-50792147D01*
X161255519Y-50699015D01*
X161136985Y-50580481D01*
X161043853Y-50441100D01*
X160979703Y-50286228D01*
X160947000Y-50121816D01*
X160947000Y-49954184D01*
X160979703Y-49789772D01*
X161043853Y-49634900D01*
X161136985Y-49495519D01*
X161255519Y-49376985D01*
X161394900Y-49283853D01*
X161549772Y-49219703D01*
X161714184Y-49187000D01*
X161881816Y-49187000D01*
X162046228Y-49219703D01*
G37*
G36*
X151886228Y-49219703D02*
G01*
X152041100Y-49283853D01*
X152180481Y-49376985D01*
X152299015Y-49495519D01*
X152392147Y-49634900D01*
X152456297Y-49789772D01*
X152489000Y-49954184D01*
X152489000Y-50121816D01*
X152456297Y-50286228D01*
X152392147Y-50441100D01*
X152299015Y-50580481D01*
X152180481Y-50699015D01*
X152041100Y-50792147D01*
X151886228Y-50856297D01*
X151721816Y-50889000D01*
X151554184Y-50889000D01*
X151389772Y-50856297D01*
X151234900Y-50792147D01*
X151095519Y-50699015D01*
X150976985Y-50580481D01*
X150883853Y-50441100D01*
X150819703Y-50286228D01*
X150787000Y-50121816D01*
X150787000Y-49954184D01*
X150819703Y-49789772D01*
X150883853Y-49634900D01*
X150976985Y-49495519D01*
X151095519Y-49376985D01*
X151234900Y-49283853D01*
X151389772Y-49219703D01*
X151554184Y-49187000D01*
X151721816Y-49187000D01*
X151886228Y-49219703D01*
G37*
G36*
X62802433Y-47656893D02*
G01*
X62892657Y-47674839D01*
X62980579Y-47711258D01*
X63147621Y-47780449D01*
X63147622Y-47780450D01*
X63377086Y-47933772D01*
X63572228Y-48128914D01*
X63637621Y-48226782D01*
X63725551Y-48358379D01*
X63732168Y-48374354D01*
X63831161Y-48613343D01*
X63841710Y-48666376D01*
X63885000Y-48884012D01*
X63885000Y-49159988D01*
X63861628Y-49277485D01*
X63831161Y-49430657D01*
X63787415Y-49536267D01*
X63725551Y-49685621D01*
X63725550Y-49685622D01*
X63572228Y-49915086D01*
X63377086Y-50110228D01*
X63223763Y-50212675D01*
X63147621Y-50263551D01*
X63092871Y-50286229D01*
X62892657Y-50369161D01*
X62802433Y-50387107D01*
X62621988Y-50423000D01*
X62346012Y-50423000D01*
X62165567Y-50387107D01*
X62075343Y-50369161D01*
X61875129Y-50286229D01*
X61820379Y-50263551D01*
X61744237Y-50212675D01*
X61590914Y-50110228D01*
X61395772Y-49915086D01*
X61242450Y-49685622D01*
X61242449Y-49685621D01*
X61180585Y-49536267D01*
X61136839Y-49430657D01*
X61106372Y-49277485D01*
X61083000Y-49159988D01*
X61083000Y-48884012D01*
X61126290Y-48666376D01*
X61136839Y-48613343D01*
X61235832Y-48374354D01*
X61242449Y-48358379D01*
X61330379Y-48226782D01*
X61395772Y-48128914D01*
X61590914Y-47933772D01*
X61820378Y-47780450D01*
X61820379Y-47780449D01*
X61987421Y-47711258D01*
X62075343Y-47674839D01*
X62165567Y-47656893D01*
X62346012Y-47621000D01*
X62621988Y-47621000D01*
X62802433Y-47656893D01*
G37*
G36*
X92701000Y-48701000D02*
G01*
X90899000Y-48701000D01*
X90899000Y-46899000D01*
X92701000Y-46899000D01*
X92701000Y-48701000D01*
G37*
G36*
X94453512Y-46903927D02*
G01*
X94602812Y-46933624D01*
X94766784Y-47001544D01*
X94914354Y-47100147D01*
X95039853Y-47225646D01*
X95138456Y-47373216D01*
X95206376Y-47537188D01*
X95241000Y-47711259D01*
X95241000Y-47888741D01*
X95206376Y-48062812D01*
X95138456Y-48226784D01*
X95039853Y-48374354D01*
X94914354Y-48499853D01*
X94766784Y-48598456D01*
X94602812Y-48666376D01*
X94453512Y-48696073D01*
X94428742Y-48701000D01*
X94251258Y-48701000D01*
X94226488Y-48696073D01*
X94077188Y-48666376D01*
X93913216Y-48598456D01*
X93765646Y-48499853D01*
X93640147Y-48374354D01*
X93541544Y-48226784D01*
X93473624Y-48062812D01*
X93439000Y-47888741D01*
X93439000Y-47711259D01*
X93473624Y-47537188D01*
X93541544Y-47373216D01*
X93640147Y-47225646D01*
X93765646Y-47100147D01*
X93913216Y-47001544D01*
X94077188Y-46933624D01*
X94226488Y-46903927D01*
X94251258Y-46899000D01*
X94428742Y-46899000D01*
X94453512Y-46903927D01*
G37*
G36*
X135093512Y-46903927D02*
G01*
X135242812Y-46933624D01*
X135406784Y-47001544D01*
X135554354Y-47100147D01*
X135679853Y-47225646D01*
X135778456Y-47373216D01*
X135846376Y-47537188D01*
X135881000Y-47711259D01*
X135881000Y-47888741D01*
X135846376Y-48062812D01*
X135778456Y-48226784D01*
X135679853Y-48374354D01*
X135554354Y-48499853D01*
X135406784Y-48598456D01*
X135242812Y-48666376D01*
X135093512Y-48696073D01*
X135068742Y-48701000D01*
X134891258Y-48701000D01*
X134866488Y-48696073D01*
X134717188Y-48666376D01*
X134553216Y-48598456D01*
X134405646Y-48499853D01*
X134280147Y-48374354D01*
X134181544Y-48226784D01*
X134113624Y-48062812D01*
X134079000Y-47888741D01*
X134079000Y-47711259D01*
X134113624Y-47537188D01*
X134181544Y-47373216D01*
X134280147Y-47225646D01*
X134405646Y-47100147D01*
X134553216Y-47001544D01*
X134717188Y-46933624D01*
X134866488Y-46903927D01*
X134891258Y-46899000D01*
X135068742Y-46899000D01*
X135093512Y-46903927D01*
G37*
G36*
X96993512Y-46903927D02*
G01*
X97142812Y-46933624D01*
X97306784Y-47001544D01*
X97454354Y-47100147D01*
X97579853Y-47225646D01*
X97678456Y-47373216D01*
X97746376Y-47537188D01*
X97781000Y-47711259D01*
X97781000Y-47888741D01*
X97746376Y-48062812D01*
X97678456Y-48226784D01*
X97579853Y-48374354D01*
X97454354Y-48499853D01*
X97306784Y-48598456D01*
X97142812Y-48666376D01*
X96993512Y-48696073D01*
X96968742Y-48701000D01*
X96791258Y-48701000D01*
X96766488Y-48696073D01*
X96617188Y-48666376D01*
X96453216Y-48598456D01*
X96305646Y-48499853D01*
X96180147Y-48374354D01*
X96081544Y-48226784D01*
X96013624Y-48062812D01*
X95979000Y-47888741D01*
X95979000Y-47711259D01*
X96013624Y-47537188D01*
X96081544Y-47373216D01*
X96180147Y-47225646D01*
X96305646Y-47100147D01*
X96453216Y-47001544D01*
X96617188Y-46933624D01*
X96766488Y-46903927D01*
X96791258Y-46899000D01*
X96968742Y-46899000D01*
X96993512Y-46903927D01*
G37*
G36*
X132553512Y-46903927D02*
G01*
X132702812Y-46933624D01*
X132866784Y-47001544D01*
X133014354Y-47100147D01*
X133139853Y-47225646D01*
X133238456Y-47373216D01*
X133306376Y-47537188D01*
X133341000Y-47711259D01*
X133341000Y-47888741D01*
X133306376Y-48062812D01*
X133238456Y-48226784D01*
X133139853Y-48374354D01*
X133014354Y-48499853D01*
X132866784Y-48598456D01*
X132702812Y-48666376D01*
X132553512Y-48696073D01*
X132528742Y-48701000D01*
X132351258Y-48701000D01*
X132326488Y-48696073D01*
X132177188Y-48666376D01*
X132013216Y-48598456D01*
X131865646Y-48499853D01*
X131740147Y-48374354D01*
X131641544Y-48226784D01*
X131573624Y-48062812D01*
X131539000Y-47888741D01*
X131539000Y-47711259D01*
X131573624Y-47537188D01*
X131641544Y-47373216D01*
X131740147Y-47225646D01*
X131865646Y-47100147D01*
X132013216Y-47001544D01*
X132177188Y-46933624D01*
X132326488Y-46903927D01*
X132351258Y-46899000D01*
X132528742Y-46899000D01*
X132553512Y-46903927D01*
G37*
G36*
X99533512Y-46903927D02*
G01*
X99682812Y-46933624D01*
X99846784Y-47001544D01*
X99994354Y-47100147D01*
X100119853Y-47225646D01*
X100218456Y-47373216D01*
X100286376Y-47537188D01*
X100321000Y-47711259D01*
X100321000Y-47888741D01*
X100286376Y-48062812D01*
X100218456Y-48226784D01*
X100119853Y-48374354D01*
X99994354Y-48499853D01*
X99846784Y-48598456D01*
X99682812Y-48666376D01*
X99533512Y-48696073D01*
X99508742Y-48701000D01*
X99331258Y-48701000D01*
X99306488Y-48696073D01*
X99157188Y-48666376D01*
X98993216Y-48598456D01*
X98845646Y-48499853D01*
X98720147Y-48374354D01*
X98621544Y-48226784D01*
X98553624Y-48062812D01*
X98519000Y-47888741D01*
X98519000Y-47711259D01*
X98553624Y-47537188D01*
X98621544Y-47373216D01*
X98720147Y-47225646D01*
X98845646Y-47100147D01*
X98993216Y-47001544D01*
X99157188Y-46933624D01*
X99306488Y-46903927D01*
X99331258Y-46899000D01*
X99508742Y-46899000D01*
X99533512Y-46903927D01*
G37*
G36*
X107153512Y-46903927D02*
G01*
X107302812Y-46933624D01*
X107466784Y-47001544D01*
X107614354Y-47100147D01*
X107739853Y-47225646D01*
X107838456Y-47373216D01*
X107906376Y-47537188D01*
X107941000Y-47711259D01*
X107941000Y-47888741D01*
X107906376Y-48062812D01*
X107838456Y-48226784D01*
X107739853Y-48374354D01*
X107614354Y-48499853D01*
X107466784Y-48598456D01*
X107302812Y-48666376D01*
X107153512Y-48696073D01*
X107128742Y-48701000D01*
X106951258Y-48701000D01*
X106926488Y-48696073D01*
X106777188Y-48666376D01*
X106613216Y-48598456D01*
X106465646Y-48499853D01*
X106340147Y-48374354D01*
X106241544Y-48226784D01*
X106173624Y-48062812D01*
X106139000Y-47888741D01*
X106139000Y-47711259D01*
X106173624Y-47537188D01*
X106241544Y-47373216D01*
X106340147Y-47225646D01*
X106465646Y-47100147D01*
X106613216Y-47001544D01*
X106777188Y-46933624D01*
X106926488Y-46903927D01*
X106951258Y-46899000D01*
X107128742Y-46899000D01*
X107153512Y-46903927D01*
G37*
G36*
X130013512Y-46903927D02*
G01*
X130162812Y-46933624D01*
X130326784Y-47001544D01*
X130474354Y-47100147D01*
X130599853Y-47225646D01*
X130698456Y-47373216D01*
X130766376Y-47537188D01*
X130801000Y-47711259D01*
X130801000Y-47888741D01*
X130766376Y-48062812D01*
X130698456Y-48226784D01*
X130599853Y-48374354D01*
X130474354Y-48499853D01*
X130326784Y-48598456D01*
X130162812Y-48666376D01*
X130013512Y-48696073D01*
X129988742Y-48701000D01*
X129811258Y-48701000D01*
X129786488Y-48696073D01*
X129637188Y-48666376D01*
X129473216Y-48598456D01*
X129325646Y-48499853D01*
X129200147Y-48374354D01*
X129101544Y-48226784D01*
X129033624Y-48062812D01*
X128999000Y-47888741D01*
X128999000Y-47711259D01*
X129033624Y-47537188D01*
X129101544Y-47373216D01*
X129200147Y-47225646D01*
X129325646Y-47100147D01*
X129473216Y-47001544D01*
X129637188Y-46933624D01*
X129786488Y-46903927D01*
X129811258Y-46899000D01*
X129988742Y-46899000D01*
X130013512Y-46903927D01*
G37*
G36*
X102073512Y-46903927D02*
G01*
X102222812Y-46933624D01*
X102386784Y-47001544D01*
X102534354Y-47100147D01*
X102659853Y-47225646D01*
X102758456Y-47373216D01*
X102826376Y-47537188D01*
X102861000Y-47711259D01*
X102861000Y-47888741D01*
X102826376Y-48062812D01*
X102758456Y-48226784D01*
X102659853Y-48374354D01*
X102534354Y-48499853D01*
X102386784Y-48598456D01*
X102222812Y-48666376D01*
X102073512Y-48696073D01*
X102048742Y-48701000D01*
X101871258Y-48701000D01*
X101846488Y-48696073D01*
X101697188Y-48666376D01*
X101533216Y-48598456D01*
X101385646Y-48499853D01*
X101260147Y-48374354D01*
X101161544Y-48226784D01*
X101093624Y-48062812D01*
X101059000Y-47888741D01*
X101059000Y-47711259D01*
X101093624Y-47537188D01*
X101161544Y-47373216D01*
X101260147Y-47225646D01*
X101385646Y-47100147D01*
X101533216Y-47001544D01*
X101697188Y-46933624D01*
X101846488Y-46903927D01*
X101871258Y-46899000D01*
X102048742Y-46899000D01*
X102073512Y-46903927D01*
G37*
G36*
X104613512Y-46903927D02*
G01*
X104762812Y-46933624D01*
X104926784Y-47001544D01*
X105074354Y-47100147D01*
X105199853Y-47225646D01*
X105298456Y-47373216D01*
X105366376Y-47537188D01*
X105401000Y-47711259D01*
X105401000Y-47888741D01*
X105366376Y-48062812D01*
X105298456Y-48226784D01*
X105199853Y-48374354D01*
X105074354Y-48499853D01*
X104926784Y-48598456D01*
X104762812Y-48666376D01*
X104613512Y-48696073D01*
X104588742Y-48701000D01*
X104411258Y-48701000D01*
X104386488Y-48696073D01*
X104237188Y-48666376D01*
X104073216Y-48598456D01*
X103925646Y-48499853D01*
X103800147Y-48374354D01*
X103701544Y-48226784D01*
X103633624Y-48062812D01*
X103599000Y-47888741D01*
X103599000Y-47711259D01*
X103633624Y-47537188D01*
X103701544Y-47373216D01*
X103800147Y-47225646D01*
X103925646Y-47100147D01*
X104073216Y-47001544D01*
X104237188Y-46933624D01*
X104386488Y-46903927D01*
X104411258Y-46899000D01*
X104588742Y-46899000D01*
X104613512Y-46903927D01*
G37*
G36*
X124933512Y-46903927D02*
G01*
X125082812Y-46933624D01*
X125246784Y-47001544D01*
X125394354Y-47100147D01*
X125519853Y-47225646D01*
X125618456Y-47373216D01*
X125686376Y-47537188D01*
X125721000Y-47711259D01*
X125721000Y-47888741D01*
X125686376Y-48062812D01*
X125618456Y-48226784D01*
X125519853Y-48374354D01*
X125394354Y-48499853D01*
X125246784Y-48598456D01*
X125082812Y-48666376D01*
X124933512Y-48696073D01*
X124908742Y-48701000D01*
X124731258Y-48701000D01*
X124706488Y-48696073D01*
X124557188Y-48666376D01*
X124393216Y-48598456D01*
X124245646Y-48499853D01*
X124120147Y-48374354D01*
X124021544Y-48226784D01*
X123953624Y-48062812D01*
X123919000Y-47888741D01*
X123919000Y-47711259D01*
X123953624Y-47537188D01*
X124021544Y-47373216D01*
X124120147Y-47225646D01*
X124245646Y-47100147D01*
X124393216Y-47001544D01*
X124557188Y-46933624D01*
X124706488Y-46903927D01*
X124731258Y-46899000D01*
X124908742Y-46899000D01*
X124933512Y-46903927D01*
G37*
G36*
X109693512Y-46903927D02*
G01*
X109842812Y-46933624D01*
X110006784Y-47001544D01*
X110154354Y-47100147D01*
X110279853Y-47225646D01*
X110378456Y-47373216D01*
X110446376Y-47537188D01*
X110481000Y-47711259D01*
X110481000Y-47888741D01*
X110446376Y-48062812D01*
X110378456Y-48226784D01*
X110279853Y-48374354D01*
X110154354Y-48499853D01*
X110006784Y-48598456D01*
X109842812Y-48666376D01*
X109693512Y-48696073D01*
X109668742Y-48701000D01*
X109491258Y-48701000D01*
X109466488Y-48696073D01*
X109317188Y-48666376D01*
X109153216Y-48598456D01*
X109005646Y-48499853D01*
X108880147Y-48374354D01*
X108781544Y-48226784D01*
X108713624Y-48062812D01*
X108679000Y-47888741D01*
X108679000Y-47711259D01*
X108713624Y-47537188D01*
X108781544Y-47373216D01*
X108880147Y-47225646D01*
X109005646Y-47100147D01*
X109153216Y-47001544D01*
X109317188Y-46933624D01*
X109466488Y-46903927D01*
X109491258Y-46899000D01*
X109668742Y-46899000D01*
X109693512Y-46903927D01*
G37*
G36*
X119853512Y-46903927D02*
G01*
X120002812Y-46933624D01*
X120166784Y-47001544D01*
X120314354Y-47100147D01*
X120439853Y-47225646D01*
X120538456Y-47373216D01*
X120606376Y-47537188D01*
X120641000Y-47711259D01*
X120641000Y-47888741D01*
X120606376Y-48062812D01*
X120538456Y-48226784D01*
X120439853Y-48374354D01*
X120314354Y-48499853D01*
X120166784Y-48598456D01*
X120002812Y-48666376D01*
X119853512Y-48696073D01*
X119828742Y-48701000D01*
X119651258Y-48701000D01*
X119626488Y-48696073D01*
X119477188Y-48666376D01*
X119313216Y-48598456D01*
X119165646Y-48499853D01*
X119040147Y-48374354D01*
X118941544Y-48226784D01*
X118873624Y-48062812D01*
X118839000Y-47888741D01*
X118839000Y-47711259D01*
X118873624Y-47537188D01*
X118941544Y-47373216D01*
X119040147Y-47225646D01*
X119165646Y-47100147D01*
X119313216Y-47001544D01*
X119477188Y-46933624D01*
X119626488Y-46903927D01*
X119651258Y-46899000D01*
X119828742Y-46899000D01*
X119853512Y-46903927D01*
G37*
G36*
X114773512Y-46903927D02*
G01*
X114922812Y-46933624D01*
X115086784Y-47001544D01*
X115234354Y-47100147D01*
X115359853Y-47225646D01*
X115458456Y-47373216D01*
X115526376Y-47537188D01*
X115561000Y-47711259D01*
X115561000Y-47888741D01*
X115526376Y-48062812D01*
X115458456Y-48226784D01*
X115359853Y-48374354D01*
X115234354Y-48499853D01*
X115086784Y-48598456D01*
X114922812Y-48666376D01*
X114773512Y-48696073D01*
X114748742Y-48701000D01*
X114571258Y-48701000D01*
X114546488Y-48696073D01*
X114397188Y-48666376D01*
X114233216Y-48598456D01*
X114085646Y-48499853D01*
X113960147Y-48374354D01*
X113861544Y-48226784D01*
X113793624Y-48062812D01*
X113759000Y-47888741D01*
X113759000Y-47711259D01*
X113793624Y-47537188D01*
X113861544Y-47373216D01*
X113960147Y-47225646D01*
X114085646Y-47100147D01*
X114233216Y-47001544D01*
X114397188Y-46933624D01*
X114546488Y-46903927D01*
X114571258Y-46899000D01*
X114748742Y-46899000D01*
X114773512Y-46903927D01*
G37*
G36*
X117313512Y-46903927D02*
G01*
X117462812Y-46933624D01*
X117626784Y-47001544D01*
X117774354Y-47100147D01*
X117899853Y-47225646D01*
X117998456Y-47373216D01*
X118066376Y-47537188D01*
X118101000Y-47711259D01*
X118101000Y-47888741D01*
X118066376Y-48062812D01*
X117998456Y-48226784D01*
X117899853Y-48374354D01*
X117774354Y-48499853D01*
X117626784Y-48598456D01*
X117462812Y-48666376D01*
X117313512Y-48696073D01*
X117288742Y-48701000D01*
X117111258Y-48701000D01*
X117086488Y-48696073D01*
X116937188Y-48666376D01*
X116773216Y-48598456D01*
X116625646Y-48499853D01*
X116500147Y-48374354D01*
X116401544Y-48226784D01*
X116333624Y-48062812D01*
X116299000Y-47888741D01*
X116299000Y-47711259D01*
X116333624Y-47537188D01*
X116401544Y-47373216D01*
X116500147Y-47225646D01*
X116625646Y-47100147D01*
X116773216Y-47001544D01*
X116937188Y-46933624D01*
X117086488Y-46903927D01*
X117111258Y-46899000D01*
X117288742Y-46899000D01*
X117313512Y-46903927D01*
G37*
G36*
X112233512Y-46903927D02*
G01*
X112382812Y-46933624D01*
X112546784Y-47001544D01*
X112694354Y-47100147D01*
X112819853Y-47225646D01*
X112918456Y-47373216D01*
X112986376Y-47537188D01*
X113021000Y-47711259D01*
X113021000Y-47888741D01*
X112986376Y-48062812D01*
X112918456Y-48226784D01*
X112819853Y-48374354D01*
X112694354Y-48499853D01*
X112546784Y-48598456D01*
X112382812Y-48666376D01*
X112233512Y-48696073D01*
X112208742Y-48701000D01*
X112031258Y-48701000D01*
X112006488Y-48696073D01*
X111857188Y-48666376D01*
X111693216Y-48598456D01*
X111545646Y-48499853D01*
X111420147Y-48374354D01*
X111321544Y-48226784D01*
X111253624Y-48062812D01*
X111219000Y-47888741D01*
X111219000Y-47711259D01*
X111253624Y-47537188D01*
X111321544Y-47373216D01*
X111420147Y-47225646D01*
X111545646Y-47100147D01*
X111693216Y-47001544D01*
X111857188Y-46933624D01*
X112006488Y-46903927D01*
X112031258Y-46899000D01*
X112208742Y-46899000D01*
X112233512Y-46903927D01*
G37*
G36*
X122393512Y-46903927D02*
G01*
X122542812Y-46933624D01*
X122706784Y-47001544D01*
X122854354Y-47100147D01*
X122979853Y-47225646D01*
X123078456Y-47373216D01*
X123146376Y-47537188D01*
X123181000Y-47711259D01*
X123181000Y-47888741D01*
X123146376Y-48062812D01*
X123078456Y-48226784D01*
X122979853Y-48374354D01*
X122854354Y-48499853D01*
X122706784Y-48598456D01*
X122542812Y-48666376D01*
X122393512Y-48696073D01*
X122368742Y-48701000D01*
X122191258Y-48701000D01*
X122166488Y-48696073D01*
X122017188Y-48666376D01*
X121853216Y-48598456D01*
X121705646Y-48499853D01*
X121580147Y-48374354D01*
X121481544Y-48226784D01*
X121413624Y-48062812D01*
X121379000Y-47888741D01*
X121379000Y-47711259D01*
X121413624Y-47537188D01*
X121481544Y-47373216D01*
X121580147Y-47225646D01*
X121705646Y-47100147D01*
X121853216Y-47001544D01*
X122017188Y-46933624D01*
X122166488Y-46903927D01*
X122191258Y-46899000D01*
X122368742Y-46899000D01*
X122393512Y-46903927D01*
G37*
G36*
X127473512Y-46903927D02*
G01*
X127622812Y-46933624D01*
X127786784Y-47001544D01*
X127934354Y-47100147D01*
X128059853Y-47225646D01*
X128158456Y-47373216D01*
X128226376Y-47537188D01*
X128261000Y-47711259D01*
X128261000Y-47888741D01*
X128226376Y-48062812D01*
X128158456Y-48226784D01*
X128059853Y-48374354D01*
X127934354Y-48499853D01*
X127786784Y-48598456D01*
X127622812Y-48666376D01*
X127473512Y-48696073D01*
X127448742Y-48701000D01*
X127271258Y-48701000D01*
X127246488Y-48696073D01*
X127097188Y-48666376D01*
X126933216Y-48598456D01*
X126785646Y-48499853D01*
X126660147Y-48374354D01*
X126561544Y-48226784D01*
X126493624Y-48062812D01*
X126459000Y-47888741D01*
X126459000Y-47711259D01*
X126493624Y-47537188D01*
X126561544Y-47373216D01*
X126660147Y-47225646D01*
X126785646Y-47100147D01*
X126933216Y-47001544D01*
X127097188Y-46933624D01*
X127246488Y-46903927D01*
X127271258Y-46899000D01*
X127448742Y-46899000D01*
X127473512Y-46903927D01*
G37*
G36*
X162046228Y-45917703D02*
G01*
X162201100Y-45981853D01*
X162340481Y-46074985D01*
X162459015Y-46193519D01*
X162552147Y-46332900D01*
X162616297Y-46487772D01*
X162649000Y-46652184D01*
X162649000Y-46819816D01*
X162616297Y-46984228D01*
X162552147Y-47139100D01*
X162459015Y-47278481D01*
X162340481Y-47397015D01*
X162201100Y-47490147D01*
X162046228Y-47554297D01*
X161881816Y-47587000D01*
X161714184Y-47587000D01*
X161549772Y-47554297D01*
X161394900Y-47490147D01*
X161255519Y-47397015D01*
X161136985Y-47278481D01*
X161043853Y-47139100D01*
X160979703Y-46984228D01*
X160947000Y-46819816D01*
X160947000Y-46652184D01*
X160979703Y-46487772D01*
X161043853Y-46332900D01*
X161136985Y-46193519D01*
X161255519Y-46074985D01*
X161394900Y-45981853D01*
X161549772Y-45917703D01*
X161714184Y-45885000D01*
X161881816Y-45885000D01*
X162046228Y-45917703D01*
G37*
G36*
X151886228Y-45917703D02*
G01*
X152041100Y-45981853D01*
X152180481Y-46074985D01*
X152299015Y-46193519D01*
X152392147Y-46332900D01*
X152456297Y-46487772D01*
X152489000Y-46652184D01*
X152489000Y-46819816D01*
X152456297Y-46984228D01*
X152392147Y-47139100D01*
X152299015Y-47278481D01*
X152180481Y-47397015D01*
X152041100Y-47490147D01*
X151886228Y-47554297D01*
X151721816Y-47587000D01*
X151554184Y-47587000D01*
X151389772Y-47554297D01*
X151234900Y-47490147D01*
X151095519Y-47397015D01*
X150976985Y-47278481D01*
X150883853Y-47139100D01*
X150819703Y-46984228D01*
X150787000Y-46819816D01*
X150787000Y-46652184D01*
X150819703Y-46487772D01*
X150883853Y-46332900D01*
X150976985Y-46193519D01*
X151095519Y-46074985D01*
X151234900Y-45981853D01*
X151389772Y-45917703D01*
X151554184Y-45885000D01*
X151721816Y-45885000D01*
X151886228Y-45917703D01*
G37*
G36*
X177174601Y-46150397D02*
G01*
X177213305Y-46158096D01*
X177245340Y-46171365D01*
X177322680Y-46203400D01*
X177421115Y-46269173D01*
X177504827Y-46352885D01*
X177570600Y-46451320D01*
X177615904Y-46560696D01*
X177639000Y-46676805D01*
X177639000Y-46795195D01*
X177634102Y-46819816D01*
X177618352Y-46899000D01*
X177615904Y-46911304D01*
X177570600Y-47020680D01*
X177504827Y-47119115D01*
X177421115Y-47202827D01*
X177322680Y-47268600D01*
X177245340Y-47300635D01*
X177213305Y-47313904D01*
X177174601Y-47321603D01*
X177097195Y-47337000D01*
X176978805Y-47337000D01*
X176901399Y-47321603D01*
X176862695Y-47313904D01*
X176830660Y-47300635D01*
X176753320Y-47268600D01*
X176654885Y-47202827D01*
X176571173Y-47119115D01*
X176505400Y-47020680D01*
X176460096Y-46911304D01*
X176457649Y-46899000D01*
X176441898Y-46819816D01*
X176437000Y-46795195D01*
X176437000Y-46676805D01*
X176460096Y-46560696D01*
X176505400Y-46451320D01*
X176571173Y-46352885D01*
X176654885Y-46269173D01*
X176753320Y-46203400D01*
X176830660Y-46171365D01*
X176862695Y-46158096D01*
X176901399Y-46150397D01*
X176978805Y-46135000D01*
X177097195Y-46135000D01*
X177174601Y-46150397D01*
G37*
G36*
X179714601Y-46150397D02*
G01*
X179753305Y-46158096D01*
X179785340Y-46171365D01*
X179862680Y-46203400D01*
X179961115Y-46269173D01*
X180044827Y-46352885D01*
X180110600Y-46451320D01*
X180155904Y-46560696D01*
X180179000Y-46676805D01*
X180179000Y-46795195D01*
X180174102Y-46819816D01*
X180158352Y-46899000D01*
X180155904Y-46911304D01*
X180110600Y-47020680D01*
X180044827Y-47119115D01*
X179961115Y-47202827D01*
X179862680Y-47268600D01*
X179785340Y-47300635D01*
X179753305Y-47313904D01*
X179714601Y-47321603D01*
X179637195Y-47337000D01*
X179518805Y-47337000D01*
X179441399Y-47321603D01*
X179402695Y-47313904D01*
X179370660Y-47300635D01*
X179293320Y-47268600D01*
X179194885Y-47202827D01*
X179111173Y-47119115D01*
X179045400Y-47020680D01*
X179000096Y-46911304D01*
X178997649Y-46899000D01*
X178981898Y-46819816D01*
X178977000Y-46795195D01*
X178977000Y-46676805D01*
X179000096Y-46560696D01*
X179045400Y-46451320D01*
X179111173Y-46352885D01*
X179194885Y-46269173D01*
X179293320Y-46203400D01*
X179370660Y-46171365D01*
X179402695Y-46158096D01*
X179441399Y-46150397D01*
X179518805Y-46135000D01*
X179637195Y-46135000D01*
X179714601Y-46150397D01*
G37*
G36*
X193104433Y-43084893D02*
G01*
X193194657Y-43102839D01*
X193296442Y-43145000D01*
X193449621Y-43208449D01*
X193449622Y-43208450D01*
X193679086Y-43361772D01*
X193874228Y-43556914D01*
X193968608Y-43698165D01*
X194027551Y-43786379D01*
X194077729Y-43907519D01*
X194106294Y-43976480D01*
X194133161Y-44041344D01*
X194175122Y-44252295D01*
X194187000Y-44312014D01*
X194187000Y-44587986D01*
X194133161Y-44858657D01*
X194089415Y-44964267D01*
X194027551Y-45113621D01*
X194027550Y-45113622D01*
X193874228Y-45343086D01*
X193679086Y-45538228D01*
X193525763Y-45640675D01*
X193449621Y-45691551D01*
X193300267Y-45753415D01*
X193194657Y-45797161D01*
X193104433Y-45815107D01*
X192923988Y-45851000D01*
X192648012Y-45851000D01*
X192467567Y-45815107D01*
X192377343Y-45797161D01*
X192271733Y-45753415D01*
X192122379Y-45691551D01*
X192046237Y-45640675D01*
X191892914Y-45538228D01*
X191697772Y-45343086D01*
X191544450Y-45113622D01*
X191544449Y-45113621D01*
X191482585Y-44964267D01*
X191438839Y-44858657D01*
X191385000Y-44587986D01*
X191385000Y-44312014D01*
X191396879Y-44252295D01*
X191438839Y-44041344D01*
X191465707Y-43976480D01*
X191494271Y-43907519D01*
X191544449Y-43786379D01*
X191603392Y-43698165D01*
X191697772Y-43556914D01*
X191892914Y-43361772D01*
X192122378Y-43208450D01*
X192122379Y-43208449D01*
X192275558Y-43145000D01*
X192377343Y-43102839D01*
X192467567Y-43084893D01*
X192648012Y-43049000D01*
X192923988Y-43049000D01*
X193104433Y-43084893D01*
G37*
G36*
X170428228Y-43631703D02*
G01*
X170583100Y-43695853D01*
X170722481Y-43788985D01*
X170841015Y-43907519D01*
X170934147Y-44046900D01*
X170998297Y-44201772D01*
X171031000Y-44366184D01*
X171031000Y-44533816D01*
X170998297Y-44698228D01*
X170934147Y-44853100D01*
X170841015Y-44992481D01*
X170722481Y-45111015D01*
X170583100Y-45204147D01*
X170428228Y-45268297D01*
X170263816Y-45301000D01*
X170096184Y-45301000D01*
X169931772Y-45268297D01*
X169776900Y-45204147D01*
X169637519Y-45111015D01*
X169518985Y-44992481D01*
X169425853Y-44853100D01*
X169361703Y-44698228D01*
X169329000Y-44533816D01*
X169329000Y-44366184D01*
X169361703Y-44201772D01*
X169425853Y-44046900D01*
X169518985Y-43907519D01*
X169637519Y-43788985D01*
X169776900Y-43695853D01*
X169931772Y-43631703D01*
X170096184Y-43599000D01*
X170263816Y-43599000D01*
X170428228Y-43631703D01*
G37*
G36*
X179884564Y-43185389D02*
G01*
X180075833Y-43264615D01*
X180075835Y-43264616D01*
X180247973Y-43379635D01*
X180394365Y-43526027D01*
X180507839Y-43695852D01*
X180509385Y-43698167D01*
X180588611Y-43889436D01*
X180629000Y-44092484D01*
X180629000Y-44299516D01*
X180588611Y-44502564D01*
X180575666Y-44533815D01*
X180509384Y-44693835D01*
X180394365Y-44865973D01*
X180247973Y-45012365D01*
X180075835Y-45127384D01*
X180075834Y-45127385D01*
X180075833Y-45127385D01*
X179884564Y-45206611D01*
X179681516Y-45247000D01*
X179474484Y-45247000D01*
X179271436Y-45206611D01*
X179080167Y-45127385D01*
X179080166Y-45127385D01*
X179080165Y-45127384D01*
X178908027Y-45012365D01*
X178761635Y-44865973D01*
X178646616Y-44693835D01*
X178580334Y-44533815D01*
X178567389Y-44502564D01*
X178527000Y-44299516D01*
X178527000Y-44092484D01*
X178567389Y-43889436D01*
X178646615Y-43698167D01*
X178648162Y-43695852D01*
X178761635Y-43526027D01*
X178908027Y-43379635D01*
X179080165Y-43264616D01*
X179080167Y-43264615D01*
X179271436Y-43185389D01*
X179474484Y-43145000D01*
X179681516Y-43145000D01*
X179884564Y-43185389D01*
G37*
G36*
X177344564Y-43185389D02*
G01*
X177535833Y-43264615D01*
X177535835Y-43264616D01*
X177707973Y-43379635D01*
X177854365Y-43526027D01*
X177967839Y-43695852D01*
X177969385Y-43698167D01*
X178048611Y-43889436D01*
X178089000Y-44092484D01*
X178089000Y-44299516D01*
X178048611Y-44502564D01*
X178035666Y-44533815D01*
X177969384Y-44693835D01*
X177854365Y-44865973D01*
X177707973Y-45012365D01*
X177535835Y-45127384D01*
X177535834Y-45127385D01*
X177535833Y-45127385D01*
X177344564Y-45206611D01*
X177141516Y-45247000D01*
X176934484Y-45247000D01*
X176731436Y-45206611D01*
X176540167Y-45127385D01*
X176540166Y-45127385D01*
X176540165Y-45127384D01*
X176368027Y-45012365D01*
X176221635Y-44865973D01*
X176106616Y-44693835D01*
X176040334Y-44533815D01*
X176027389Y-44502564D01*
X175987000Y-44299516D01*
X175987000Y-44092484D01*
X176027389Y-43889436D01*
X176106615Y-43698167D01*
X176108162Y-43695852D01*
X176221635Y-43526027D01*
X176368027Y-43379635D01*
X176540165Y-43264616D01*
X176540167Y-43264615D01*
X176731436Y-43185389D01*
X176934484Y-43145000D01*
X177141516Y-43145000D01*
X177344564Y-43185389D01*
G37*
G36*
X162046228Y-42615703D02*
G01*
X162201100Y-42679853D01*
X162340481Y-42772985D01*
X162459015Y-42891519D01*
X162552147Y-43030900D01*
X162616297Y-43185772D01*
X162649000Y-43350184D01*
X162649000Y-43517816D01*
X162616297Y-43682228D01*
X162552147Y-43837100D01*
X162459015Y-43976481D01*
X162340481Y-44095015D01*
X162201100Y-44188147D01*
X162046228Y-44252297D01*
X161881816Y-44285000D01*
X161714184Y-44285000D01*
X161549772Y-44252297D01*
X161394900Y-44188147D01*
X161255519Y-44095015D01*
X161136985Y-43976481D01*
X161043853Y-43837100D01*
X160979703Y-43682228D01*
X160947000Y-43517816D01*
X160947000Y-43350184D01*
X160979703Y-43185772D01*
X161043853Y-43030900D01*
X161136985Y-42891519D01*
X161255519Y-42772985D01*
X161394900Y-42679853D01*
X161549772Y-42615703D01*
X161714184Y-42583000D01*
X161881816Y-42583000D01*
X162046228Y-42615703D01*
G37*
G36*
X151886228Y-42615703D02*
G01*
X152041100Y-42679853D01*
X152180481Y-42772985D01*
X152299015Y-42891519D01*
X152392147Y-43030900D01*
X152456297Y-43185772D01*
X152489000Y-43350184D01*
X152489000Y-43517816D01*
X152456297Y-43682228D01*
X152392147Y-43837100D01*
X152299015Y-43976481D01*
X152180481Y-44095015D01*
X152041100Y-44188147D01*
X151886228Y-44252297D01*
X151721816Y-44285000D01*
X151554184Y-44285000D01*
X151389772Y-44252297D01*
X151234900Y-44188147D01*
X151095519Y-44095015D01*
X150976985Y-43976481D01*
X150883853Y-43837100D01*
X150819703Y-43682228D01*
X150787000Y-43517816D01*
X150787000Y-43350184D01*
X150819703Y-43185772D01*
X150883853Y-43030900D01*
X150976985Y-42891519D01*
X151095519Y-42772985D01*
X151234900Y-42679853D01*
X151389772Y-42615703D01*
X151554184Y-42583000D01*
X151721816Y-42583000D01*
X151886228Y-42615703D01*
G37*
G36*
X92218841Y-39752760D02*
G01*
X92482905Y-39862139D01*
X92720558Y-40020934D01*
X92922666Y-40223042D01*
X93081461Y-40460695D01*
X93190840Y-40724759D01*
X93246600Y-41005088D01*
X93246600Y-41290912D01*
X93190840Y-41571241D01*
X93081461Y-41835305D01*
X92922666Y-42072958D01*
X92720558Y-42275066D01*
X92482905Y-42433861D01*
X92218841Y-42543240D01*
X91938512Y-42599000D01*
X91652688Y-42599000D01*
X91372359Y-42543240D01*
X91108295Y-42433861D01*
X90870642Y-42275066D01*
X90668534Y-42072958D01*
X90509739Y-41835305D01*
X90400360Y-41571241D01*
X90344600Y-41290912D01*
X90344600Y-41005088D01*
X90400360Y-40724759D01*
X90509739Y-40460695D01*
X90668534Y-40223042D01*
X90870642Y-40020934D01*
X91108295Y-39862139D01*
X91372359Y-39752760D01*
X91652688Y-39697000D01*
X91938512Y-39697000D01*
X92218841Y-39752760D01*
G37*
G36*
X63890626Y-40364037D02*
G01*
X64060465Y-40415557D01*
X64060467Y-40415558D01*
X64216989Y-40499221D01*
X64354186Y-40611814D01*
X64437448Y-40713271D01*
X64466778Y-40749009D01*
X64550443Y-40905534D01*
X64601963Y-41075373D01*
X64615000Y-41207742D01*
X64615000Y-41596257D01*
X64601963Y-41728626D01*
X64550443Y-41898466D01*
X64466778Y-42054991D01*
X64452032Y-42072959D01*
X64354186Y-42192186D01*
X64259250Y-42270097D01*
X64216991Y-42304778D01*
X64060466Y-42388443D01*
X63890627Y-42439963D01*
X63714000Y-42457359D01*
X63537374Y-42439963D01*
X63367535Y-42388443D01*
X63211010Y-42304778D01*
X63073815Y-42192185D01*
X62961222Y-42054991D01*
X62877557Y-41898466D01*
X62826037Y-41728627D01*
X62813000Y-41596258D01*
X62813000Y-41207743D01*
X62826037Y-41075374D01*
X62877557Y-40905535D01*
X62961222Y-40749010D01*
X62981124Y-40724759D01*
X63073814Y-40611814D01*
X63175271Y-40528552D01*
X63211009Y-40499222D01*
X63367534Y-40415557D01*
X63537373Y-40364037D01*
X63714000Y-40346641D01*
X63890626Y-40364037D01*
G37*
G36*
X61972600Y-40354989D02*
G01*
X62005652Y-40365015D01*
X62036103Y-40381292D01*
X62062799Y-40403201D01*
X62084708Y-40429897D01*
X62100985Y-40460348D01*
X62111011Y-40493400D01*
X62115000Y-40533903D01*
X62115000Y-42270097D01*
X62111011Y-42310600D01*
X62100985Y-42343652D01*
X62084708Y-42374103D01*
X62062799Y-42400799D01*
X62036103Y-42422708D01*
X62005652Y-42438985D01*
X61972600Y-42449011D01*
X61932097Y-42453000D01*
X60495903Y-42453000D01*
X60455400Y-42449011D01*
X60422348Y-42438985D01*
X60391897Y-42422708D01*
X60365201Y-42400799D01*
X60343292Y-42374103D01*
X60327015Y-42343652D01*
X60316989Y-42310600D01*
X60313000Y-42270097D01*
X60313000Y-40533903D01*
X60316989Y-40493400D01*
X60327015Y-40460348D01*
X60343292Y-40429897D01*
X60365201Y-40403201D01*
X60391897Y-40381292D01*
X60422348Y-40365015D01*
X60455400Y-40354989D01*
X60495903Y-40351000D01*
X61932097Y-40351000D01*
X61972600Y-40354989D01*
G37*
M02*
